G04*
G04 #@! TF.GenerationSoftware,Altium Limited,Altium Designer,22.10.1 (41)*
G04*
G04 Layer_Color=32896*
%FSLAX25Y25*%
%MOIN*%
G70*
G04*
G04 #@! TF.SameCoordinates,44C76E85-51F2-408D-B631-529058D5D606*
G04*
G04*
G04 #@! TF.FilePolarity,Positive*
G04*
G01*
G75*
%ADD10C,0.02000*%
%ADD11C,0.00984*%
%ADD12C,0.00787*%
%ADD41C,0.01000*%
%ADD50C,0.00591*%
%ADD51C,0.00600*%
%ADD52C,0.00500*%
G36*
X-14491Y133845D02*
X-14409D01*
X-14176Y133817D01*
X-13930Y133776D01*
X-13657Y133722D01*
X-13383Y133640D01*
X-13124Y133530D01*
X-13110D01*
X-13096Y133517D01*
X-13014Y133462D01*
X-12891Y133394D01*
X-12741Y133284D01*
X-12577Y133147D01*
X-12413Y132983D01*
X-12249Y132792D01*
X-12112Y132573D01*
Y132560D01*
X-12098Y132546D01*
X-12057Y132464D01*
X-12003Y132327D01*
X-11934Y132150D01*
X-11866Y131931D01*
X-11811Y131671D01*
X-11770Y131370D01*
X-11756Y131056D01*
Y130905D01*
X-11770Y130837D01*
Y130755D01*
X-11797Y130550D01*
X-11839Y130318D01*
X-11907Y130072D01*
X-11989Y129826D01*
X-12098Y129579D01*
Y129566D01*
X-12112Y129552D01*
X-12167Y129484D01*
X-12235Y129361D01*
X-12344Y129224D01*
X-12495Y129074D01*
X-12659Y128923D01*
X-12864Y128773D01*
X-13096Y128636D01*
X-13110D01*
X-13124Y128623D01*
X-13164Y128609D01*
X-13205Y128582D01*
X-13342Y128527D01*
X-13534Y128472D01*
X-13752Y128418D01*
X-14026Y128363D01*
X-14326Y128322D01*
X-14654Y128308D01*
X-15229D01*
Y129935D01*
X-14654D01*
X-14641D01*
X-14572D01*
X-14491D01*
X-14395Y129949D01*
X-14272Y129962D01*
X-14135Y129990D01*
X-13889Y130072D01*
X-13875D01*
X-13834Y130099D01*
X-13780Y130126D01*
X-13698Y130167D01*
X-13547Y130290D01*
X-13465Y130359D01*
X-13397Y130454D01*
X-13383Y130468D01*
X-13370Y130495D01*
X-13342Y130550D01*
X-13315Y130619D01*
X-13287Y130714D01*
X-13260Y130810D01*
X-13233Y130933D01*
Y131124D01*
X-13247Y131206D01*
X-13260Y131302D01*
X-13301Y131521D01*
X-13356Y131644D01*
X-13411Y131753D01*
X-13424Y131767D01*
X-13438Y131794D01*
X-13479Y131849D01*
X-13547Y131917D01*
X-13616Y131985D01*
X-13698Y132054D01*
X-13807Y132122D01*
X-13930Y132191D01*
X-13944D01*
X-13985Y132218D01*
X-14053Y132231D01*
X-14149Y132259D01*
X-14272Y132286D01*
X-14409Y132314D01*
X-14559Y132327D01*
X-14737Y132341D01*
X-20820D01*
X-20833D01*
X-20888D01*
X-20970Y132327D01*
X-21066D01*
X-21189Y132300D01*
X-21298Y132273D01*
X-21421Y132245D01*
X-21544Y132191D01*
X-21558Y132177D01*
X-21599Y132163D01*
X-21654Y132122D01*
X-21708Y132068D01*
X-21790Y131999D01*
X-21872Y131931D01*
X-22009Y131726D01*
Y131712D01*
X-22036Y131671D01*
X-22050Y131603D01*
X-22077Y131521D01*
X-22105Y131425D01*
X-22132Y131302D01*
X-22146Y131165D01*
X-22159Y131015D01*
Y130947D01*
X-22146Y130878D01*
X-22132Y130782D01*
X-22091Y130564D01*
X-22050Y130441D01*
X-21995Y130331D01*
X-21982Y130318D01*
X-21968Y130290D01*
X-21927Y130236D01*
X-21859Y130167D01*
X-21790Y130099D01*
X-21708Y130031D01*
X-21599Y129962D01*
X-21489Y129894D01*
X-21476Y129880D01*
X-21435Y129867D01*
X-21353Y129839D01*
X-21257Y129812D01*
X-21134Y129785D01*
X-20997Y129771D01*
X-20847Y129744D01*
X-20669D01*
X-18687D01*
Y131056D01*
X-17252D01*
Y128212D01*
X-20656D01*
X-20669D01*
X-20697D01*
X-20751D01*
X-20820D01*
X-20888Y128226D01*
X-20984D01*
X-21216Y128253D01*
X-21462Y128295D01*
X-21736Y128349D01*
X-22009Y128431D01*
X-22269Y128541D01*
X-22282D01*
X-22296Y128554D01*
X-22378Y128595D01*
X-22501Y128677D01*
X-22651Y128787D01*
X-22816Y128923D01*
X-22980Y129087D01*
X-23144Y129279D01*
X-23280Y129498D01*
Y129511D01*
X-23294Y129525D01*
X-23335Y129607D01*
X-23390Y129744D01*
X-23444Y129921D01*
X-23513Y130140D01*
X-23567Y130400D01*
X-23608Y130701D01*
X-23622Y131015D01*
Y131165D01*
X-23608Y131247D01*
Y131329D01*
X-23581Y131548D01*
X-23540Y131794D01*
X-23485Y132040D01*
X-23417Y132314D01*
X-23308Y132560D01*
X-23294Y132587D01*
X-23239Y132669D01*
X-23171Y132778D01*
X-23062Y132915D01*
X-22925Y133079D01*
X-22761Y133229D01*
X-22569Y133394D01*
X-22351Y133530D01*
X-22337D01*
X-22323Y133544D01*
X-22282Y133557D01*
X-22241Y133585D01*
X-22105Y133640D01*
X-21913Y133694D01*
X-21695Y133749D01*
X-21435Y133804D01*
X-21134Y133845D01*
X-20820Y133858D01*
X-14737D01*
X-14723D01*
X-14695D01*
X-14641D01*
X-14572D01*
X-14491Y133845D01*
D02*
G37*
G36*
X-11880Y125287D02*
X-20081Y122348D01*
X-21011D01*
X-20806Y122088D01*
X-20081Y122348D01*
X-11880D01*
Y120899D01*
X-23513D01*
Y122239D01*
X-15531Y125164D01*
X-14654D01*
X-14860Y125410D01*
X-15531Y125164D01*
X-23513D01*
Y126613D01*
X-11880D01*
Y125287D01*
D02*
G37*
G36*
Y118329D02*
X-13315D01*
Y117782D01*
X-22077D01*
Y116142D01*
X-22064Y116060D01*
X-22050Y115964D01*
X-22023Y115868D01*
X-21968Y115759D01*
X-21913Y115664D01*
X-21831Y115568D01*
X-21818Y115554D01*
X-21790Y115527D01*
X-21722Y115499D01*
X-21654Y115445D01*
X-21544Y115404D01*
X-21421Y115376D01*
X-21284Y115349D01*
X-21120Y115335D01*
X-14272D01*
X-14244D01*
X-14190D01*
X-14108Y115349D01*
X-14012Y115363D01*
X-13889Y115390D01*
X-13780Y115431D01*
X-13657Y115486D01*
X-13561Y115568D01*
X-13547Y115582D01*
X-13520Y115609D01*
X-13479Y115664D01*
X-13438Y115732D01*
X-13397Y115814D01*
X-13356Y115937D01*
X-13329Y116060D01*
X-13315Y116210D01*
Y117782D01*
X-11880D01*
Y116115D01*
X-11893Y115978D01*
X-11920Y115800D01*
X-11948Y115582D01*
X-12003Y115363D01*
X-12071Y115144D01*
X-12167Y114939D01*
X-12180Y114912D01*
X-12221Y114843D01*
X-12276Y114748D01*
X-12372Y114625D01*
X-12481Y114488D01*
X-12631Y114351D01*
X-12795Y114228D01*
X-12987Y114105D01*
X-13014Y114091D01*
X-13082Y114064D01*
X-13205Y114009D01*
X-13356Y113955D01*
X-13547Y113914D01*
X-13780Y113859D01*
X-14026Y113832D01*
X-14313Y113818D01*
X-21079D01*
X-21093D01*
X-21107D01*
X-21148D01*
X-21203D01*
X-21353Y113832D01*
X-21531Y113859D01*
X-21749Y113886D01*
X-21968Y113941D01*
X-22187Y114009D01*
X-22405Y114105D01*
X-22433Y114119D01*
X-22501Y114160D01*
X-22597Y114228D01*
X-22720Y114310D01*
X-22843Y114433D01*
X-22993Y114584D01*
X-23116Y114748D01*
X-23239Y114939D01*
X-23253Y114966D01*
X-23280Y115035D01*
X-23321Y115158D01*
X-23376Y115308D01*
X-23431Y115499D01*
X-23472Y115732D01*
X-23499Y115978D01*
X-23513Y116265D01*
Y117782D01*
X-22077D01*
Y118329D01*
X-23513D01*
Y119300D01*
X-11880D01*
Y118329D01*
D02*
G37*
G36*
X2625Y132327D02*
X2105D01*
X2078D01*
X1996D01*
X1886Y132314D01*
X1750Y132286D01*
X1586Y132245D01*
X1435Y132191D01*
X1271Y132108D01*
X1135Y131999D01*
X1121Y131985D01*
X1080Y131931D01*
X1025Y131862D01*
X970Y131753D01*
X902Y131603D01*
X848Y131439D01*
X807Y131247D01*
X793Y131015D01*
Y130919D01*
X807Y130796D01*
X834Y130659D01*
X875Y130509D01*
X929Y130359D01*
X1012Y130208D01*
X1121Y130072D01*
X1135Y130058D01*
X1189Y130017D01*
X1258Y129962D01*
X1367Y129908D01*
X1517Y129853D01*
X1681Y129798D01*
X1873Y129757D01*
X2105Y129744D01*
X3130D01*
X3144D01*
X3199D01*
X3281Y129757D01*
X3376Y129771D01*
X3486Y129798D01*
X3609Y129839D01*
X3732Y129894D01*
X3841Y129962D01*
X3855Y129976D01*
X3896Y130003D01*
X3951Y130044D01*
X4019Y130099D01*
X4087Y130181D01*
X4183Y130263D01*
X4333Y130482D01*
X4347Y130496D01*
X4374Y130536D01*
X4402Y130605D01*
X4456Y130701D01*
X4525Y130824D01*
X4593Y130974D01*
X4675Y131138D01*
X4771Y131343D01*
Y131370D01*
X4784Y131384D01*
X4798Y131398D01*
X4839Y131521D01*
Y131534D01*
X4853Y131548D01*
X4866Y131589D01*
X4894Y131644D01*
X4962Y131780D01*
X5044Y131945D01*
X5153Y132136D01*
X5263Y132341D01*
X5372Y132532D01*
X5495Y132724D01*
X5509Y132737D01*
X5550Y132806D01*
X5632Y132888D01*
X5728Y132997D01*
X5851Y133120D01*
X6015Y133257D01*
X6179Y133394D01*
X6384Y133517D01*
X6411Y133530D01*
X6493Y133571D01*
X6616Y133626D01*
X6780Y133681D01*
X6985Y133735D01*
X7231Y133790D01*
X7518Y133831D01*
X7833Y133845D01*
X8503D01*
X8516D01*
X8544D01*
X8585D01*
X8653D01*
X8803Y133831D01*
X9008Y133804D01*
X9241Y133763D01*
X9487Y133708D01*
X9733Y133640D01*
X9965Y133530D01*
X9979D01*
X9993Y133517D01*
X10061Y133462D01*
X10170Y133394D01*
X10307Y133284D01*
X10458Y133147D01*
X10608Y132983D01*
X10758Y132792D01*
X10881Y132573D01*
Y132560D01*
X10895Y132546D01*
X10909Y132505D01*
X10936Y132464D01*
X10977Y132327D01*
X11045Y132136D01*
X11100Y131917D01*
X11141Y131644D01*
X11182Y131357D01*
X11196Y131029D01*
Y130878D01*
X11182Y130810D01*
Y130714D01*
X11155Y130509D01*
X11114Y130277D01*
X11059Y130031D01*
X10991Y129771D01*
X10881Y129539D01*
Y129525D01*
X10868Y129511D01*
X10827Y129443D01*
X10745Y129333D01*
X10649Y129197D01*
X10512Y129046D01*
X10362Y128882D01*
X10170Y128732D01*
X9952Y128609D01*
X9924Y128595D01*
X9842Y128554D01*
X9706Y128513D01*
X9542Y128445D01*
X9323Y128390D01*
X9063Y128349D01*
X8776Y128308D01*
X8462Y128295D01*
X7860D01*
Y129812D01*
X8407D01*
X8421D01*
X8434D01*
X8516D01*
X8626Y129826D01*
X8776Y129853D01*
X8926Y129894D01*
X9091Y129949D01*
X9241Y130017D01*
X9378Y130126D01*
X9391Y130140D01*
X9432Y130181D01*
X9487Y130263D01*
X9555Y130359D01*
X9610Y130482D01*
X9665Y130646D01*
X9706Y130824D01*
X9719Y131029D01*
Y131138D01*
X9706Y131247D01*
X9678Y131384D01*
X9637Y131548D01*
X9583Y131698D01*
X9501Y131862D01*
X9391Y131999D01*
X9378Y132013D01*
X9337Y132054D01*
X9255Y132108D01*
X9159Y132163D01*
X9036Y132218D01*
X8872Y132273D01*
X8694Y132314D01*
X8489Y132327D01*
X7751D01*
X7737D01*
X7683D01*
X7600Y132314D01*
X7491Y132300D01*
X7382Y132273D01*
X7259Y132245D01*
X7136Y132191D01*
X7013Y132122D01*
X6999Y132108D01*
X6958Y132081D01*
X6903Y132040D01*
X6835Y131972D01*
X6767Y131904D01*
X6685Y131808D01*
X6521Y131603D01*
X6507Y131589D01*
X6493Y131548D01*
X6452Y131480D01*
X6397Y131370D01*
X6343Y131247D01*
X6274Y131111D01*
X6193Y130933D01*
X6110Y130742D01*
Y130728D01*
X6097Y130714D01*
X6056Y130646D01*
Y130632D01*
X6042Y130605D01*
X6015Y130536D01*
Y130523D01*
X6001Y130509D01*
X5960Y130454D01*
Y130441D01*
X5946Y130427D01*
X5933Y130359D01*
Y130345D01*
X5919Y130331D01*
X5878Y130249D01*
X5823Y130113D01*
X5741Y129962D01*
X5646Y129785D01*
X5550Y129593D01*
X5441Y129402D01*
X5331Y129238D01*
X5318Y129224D01*
X5277Y129169D01*
X5222Y129087D01*
X5126Y128992D01*
X5017Y128882D01*
X4866Y128759D01*
X4702Y128636D01*
X4511Y128527D01*
X4484Y128513D01*
X4415Y128486D01*
X4292Y128431D01*
X4142Y128377D01*
X3937Y128322D01*
X3704Y128267D01*
X3431Y128240D01*
X3117Y128226D01*
X2050D01*
X2037D01*
X2009D01*
X1968D01*
X1900D01*
X1832Y128240D01*
X1736D01*
X1531Y128267D01*
X1299Y128308D01*
X1053Y128363D01*
X807Y128445D01*
X560Y128554D01*
X533Y128568D01*
X465Y128609D01*
X355Y128691D01*
X219Y128787D01*
X68Y128923D01*
X-96Y129087D01*
X-232Y129279D01*
X-369Y129498D01*
Y129511D01*
X-383Y129525D01*
X-410Y129607D01*
X-465Y129744D01*
X-520Y129921D01*
X-574Y130140D01*
X-629Y130400D01*
X-656Y130701D01*
X-670Y131015D01*
Y131165D01*
X-656Y131247D01*
Y131343D01*
X-629Y131548D01*
X-601Y131794D01*
X-547Y132054D01*
X-465Y132327D01*
X-369Y132573D01*
X-356Y132601D01*
X-314Y132683D01*
X-232Y132792D01*
X-137Y132929D01*
X-0Y133079D01*
X150Y133243D01*
X342Y133394D01*
X560Y133530D01*
X574D01*
X588Y133544D01*
X670Y133585D01*
X807Y133640D01*
X984Y133694D01*
X1189Y133749D01*
X1449Y133804D01*
X1736Y133845D01*
X2050Y133858D01*
X2625D01*
Y132327D01*
D02*
G37*
G36*
X10977Y125123D02*
X9460D01*
Y126640D01*
X10977D01*
Y125123D01*
D02*
G37*
G36*
X7751D02*
X-561D01*
Y126640D01*
X7751D01*
Y125123D01*
D02*
G37*
G36*
X5605Y123524D02*
X5796Y123510D01*
X6015Y123483D01*
X6247Y123442D01*
X6480Y123387D01*
X6698Y123319D01*
X6712D01*
X6726Y123305D01*
X6794Y123278D01*
X6903Y123223D01*
X7026Y123155D01*
X7177Y123073D01*
X7327Y122963D01*
X7464Y122840D01*
X7587Y122690D01*
X7600Y122676D01*
X7628Y122622D01*
X7683Y122526D01*
X7737Y122416D01*
X7792Y122266D01*
X7846Y122102D01*
X7874Y121911D01*
X7887Y121706D01*
Y121610D01*
X7874Y121501D01*
X7846Y121364D01*
X7792Y121200D01*
X7723Y121022D01*
X7628Y120831D01*
X7505Y120653D01*
X7491Y120626D01*
X7436Y120571D01*
X7341Y120489D01*
X7231Y120380D01*
X7067Y120257D01*
X6890Y120134D01*
X6758Y120052D01*
X5427D01*
X5523Y120065D01*
X5728Y120106D01*
X5946Y120175D01*
X5960D01*
X5987Y120188D01*
X6042Y120216D01*
X6097Y120257D01*
X6247Y120352D01*
X6370Y120503D01*
X6384Y120516D01*
X6397Y120544D01*
X6425Y120585D01*
X6452Y120653D01*
X6480Y120735D01*
X6493Y120817D01*
X6521Y120926D01*
Y121118D01*
X6507Y121200D01*
X6480Y121295D01*
X6438Y121419D01*
X6384Y121542D01*
X6302Y121651D01*
X6193Y121760D01*
X6179Y121774D01*
X6138Y121801D01*
X6056Y121842D01*
X5960Y121883D01*
X5823Y121938D01*
X5673Y121979D01*
X5482Y122006D01*
X5277Y122020D01*
X1791D01*
X1763D01*
X1709D01*
X1613Y122006D01*
X1490Y121993D01*
X1353Y121952D01*
X1217Y121911D01*
X1080Y121842D01*
X957Y121760D01*
X943Y121747D01*
X916Y121706D01*
X861Y121651D01*
X807Y121569D01*
X752Y121473D01*
X697Y121350D01*
X670Y121200D01*
X656Y121036D01*
Y120981D01*
X670Y120926D01*
Y120844D01*
X711Y120680D01*
X793Y120503D01*
X807Y120489D01*
X820Y120462D01*
X902Y120380D01*
X1025Y120270D01*
X1203Y120175D01*
X1217D01*
X1258Y120161D01*
X1312Y120134D01*
X1381Y120106D01*
X1476Y120093D01*
X1586Y120065D01*
X1845Y120052D01*
X476D01*
X506Y120038D01*
X629Y119983D01*
X711Y119956D01*
X724Y119942D01*
X738D01*
X1845Y120052D01*
X5290D01*
X6425Y119887D01*
X6671Y119997D01*
X6758Y120052D01*
X7751D01*
Y118534D01*
X-1586D01*
X-1599D01*
X-1613D01*
X-1654D01*
X-1709D01*
X-1846Y118548D01*
X-2023Y118575D01*
X-2228Y118603D01*
X-2433Y118657D01*
X-2652Y118739D01*
X-2857Y118835D01*
X-2884Y118849D01*
X-2939Y118890D01*
X-3035Y118958D01*
X-3144Y119054D01*
X-3281Y119177D01*
X-3404Y119313D01*
X-3541Y119491D01*
X-3650Y119696D01*
X-3664Y119723D01*
X-3691Y119792D01*
X-3746Y119915D01*
X-3787Y120079D01*
X-3841Y120284D01*
X-3896Y120516D01*
X-3923Y120776D01*
X-3937Y121063D01*
Y121172D01*
X-3923Y121255D01*
Y121350D01*
X-3910Y121460D01*
X-3855Y121719D01*
X-3787Y122020D01*
X-3677Y122321D01*
X-3513Y122608D01*
X-3418Y122745D01*
X-3308Y122868D01*
X-3294D01*
X-3281Y122895D01*
X-3240Y122922D01*
X-3199Y122963D01*
X-3131Y123018D01*
X-3049Y123073D01*
X-2857Y123182D01*
X-2611Y123291D01*
X-2310Y123401D01*
X-1969Y123469D01*
X-1777Y123483D01*
X-1572Y123496D01*
X-1367D01*
Y121979D01*
X-1572D01*
X-1599D01*
X-1654D01*
X-1736Y121965D01*
X-1846Y121952D01*
X-1969Y121924D01*
X-2092Y121870D01*
X-2215Y121815D01*
X-2324Y121733D01*
X-2338Y121719D01*
X-2365Y121678D01*
X-2406Y121624D01*
X-2461Y121542D01*
X-2515Y121446D01*
X-2556Y121323D01*
X-2584Y121172D01*
X-2597Y121009D01*
Y120940D01*
X-2584Y120858D01*
X-2556Y120749D01*
X-2529Y120639D01*
X-2488Y120530D01*
X-2420Y120407D01*
X-2324Y120311D01*
X-2310Y120298D01*
X-2269Y120270D01*
X-2215Y120229D01*
X-2133Y120175D01*
X-2023Y120134D01*
X-1900Y120093D01*
X-1750Y120065D01*
X-1586Y120052D01*
X476D01*
X355Y120106D01*
X178Y120202D01*
X-0Y120325D01*
X-178Y120462D01*
X-328Y120626D01*
X-342Y120639D01*
X-383Y120708D01*
X-451Y120803D01*
X-506Y120926D01*
X-574Y121090D01*
X-642Y121268D01*
X-684Y121473D01*
X-697Y121706D01*
Y121801D01*
X-684Y121911D01*
X-656Y122047D01*
X-629Y122198D01*
X-574Y122362D01*
X-506Y122526D01*
X-410Y122690D01*
X-397Y122704D01*
X-356Y122758D01*
X-287Y122827D01*
X-191Y122922D01*
X-82Y123018D01*
X68Y123127D01*
X232Y123223D01*
X424Y123319D01*
X451Y123332D01*
X519Y123346D01*
X642Y123387D01*
X807Y123428D01*
X998Y123469D01*
X1230Y123496D01*
X1490Y123524D01*
X1777Y123537D01*
X5318D01*
X5331D01*
X5359D01*
X5400D01*
X5454D01*
X5605Y123524D01*
D02*
G37*
G36*
X19083Y132327D02*
X18236D01*
X18222D01*
X18181D01*
X18127Y132314D01*
X18045D01*
X17867Y132273D01*
X17675Y132191D01*
X17662D01*
X17635Y132163D01*
X17552Y132095D01*
X17443Y131972D01*
X17334Y131794D01*
Y131780D01*
X17320Y131753D01*
X17293Y131698D01*
X17279Y131616D01*
X17252Y131521D01*
X17224Y131425D01*
X17211Y131302D01*
Y131083D01*
X17224Y130988D01*
X17252Y130865D01*
X17279Y130742D01*
X17334Y130605D01*
X17402Y130482D01*
X17498Y130359D01*
X17512Y130345D01*
X17552Y130318D01*
X17621Y130263D01*
X17717Y130208D01*
X17840Y130167D01*
X17976Y130113D01*
X18154Y130085D01*
X18345Y130072D01*
X19958D01*
X19986D01*
X20054D01*
X20163Y130085D01*
X20287Y130099D01*
X20437Y130140D01*
X20587Y130181D01*
X20724Y130249D01*
X20861Y130331D01*
X20874Y130345D01*
X20915Y130372D01*
X20970Y130427D01*
X21025Y130509D01*
X21079Y130605D01*
X21134Y130728D01*
X21175Y130865D01*
X21189Y131015D01*
Y131835D01*
X22624D01*
Y130960D01*
X22638Y130892D01*
X22651Y130824D01*
X22692Y130728D01*
X22733Y130646D01*
X22802Y130550D01*
X22884Y130468D01*
X22897Y130454D01*
X22939Y130441D01*
X22993Y130400D01*
X23075Y130359D01*
X23171Y130331D01*
X23294Y130290D01*
X23444Y130277D01*
X23608Y130263D01*
X25208D01*
X25221D01*
X25276D01*
X25358Y130277D01*
X25454Y130290D01*
X25563Y130318D01*
X25686Y130372D01*
X25796Y130427D01*
X25891Y130509D01*
X25905Y130523D01*
X25932Y130550D01*
X25973Y130605D01*
X26014Y130673D01*
X26055Y130769D01*
X26096Y130892D01*
X26124Y131029D01*
X26137Y131179D01*
Y131288D01*
X26124Y131357D01*
X26083Y131521D01*
X26014Y131698D01*
Y131712D01*
X26000Y131739D01*
X25932Y131821D01*
X25837Y131931D01*
X25700Y132040D01*
X25686D01*
X25659Y132054D01*
X25618Y132068D01*
X25563Y132095D01*
X25481Y132108D01*
X25399Y132136D01*
X25194Y132150D01*
X24264D01*
Y133667D01*
X25235D01*
X25249D01*
X25262D01*
X25303D01*
X25358D01*
X25495Y133653D01*
X25672Y133626D01*
X25877Y133598D01*
X26096Y133544D01*
X26315Y133462D01*
X26520Y133366D01*
X26547Y133352D01*
X26602Y133311D01*
X26698Y133243D01*
X26821Y133147D01*
X26957Y133024D01*
X27081Y132874D01*
X27217Y132696D01*
X27327Y132491D01*
X27340Y132464D01*
X27367Y132382D01*
X27422Y132273D01*
X27477Y132095D01*
X27518Y131904D01*
X27573Y131657D01*
X27600Y131398D01*
X27614Y131097D01*
Y130988D01*
X27600Y130905D01*
Y130824D01*
X27586Y130714D01*
X27532Y130454D01*
X27463Y130181D01*
X27354Y129894D01*
X27190Y129607D01*
X27094Y129484D01*
X26985Y129361D01*
Y129347D01*
X26957Y129333D01*
X26916Y129306D01*
X26875Y129265D01*
X26807Y129224D01*
X26725Y129169D01*
X26643Y129115D01*
X26534Y129046D01*
X26288Y128937D01*
X25987Y128841D01*
X25631Y128773D01*
X25426Y128746D01*
X25221D01*
X23595D01*
X23581D01*
X23526D01*
X23431Y128759D01*
X23321Y128773D01*
X23185Y128814D01*
X23048Y128855D01*
X22884Y128923D01*
X22720Y129019D01*
X22706Y129033D01*
X22651Y129060D01*
X22569Y129128D01*
X22460Y129210D01*
X22337Y129320D01*
X22200Y129443D01*
X22064Y129593D01*
X21927Y129757D01*
X21913Y129730D01*
X21886Y129662D01*
X21831Y129552D01*
X21749Y129429D01*
X21640Y129293D01*
X21517Y129142D01*
X21353Y128992D01*
X21175Y128869D01*
X21148Y128855D01*
X21079Y128814D01*
X20970Y128773D01*
X20833Y128705D01*
X20656Y128650D01*
X20437Y128609D01*
X20204Y128568D01*
X19958Y128554D01*
X18304D01*
X18291D01*
X18263D01*
X18222D01*
X18168D01*
X18017Y128568D01*
X17826Y128595D01*
X17607Y128636D01*
X17375Y128691D01*
X17129Y128759D01*
X16910Y128869D01*
X16883Y128882D01*
X16814Y128923D01*
X16719Y128992D01*
X16582Y129087D01*
X16445Y129224D01*
X16295Y129375D01*
X16158Y129552D01*
X16035Y129757D01*
X16021Y129785D01*
X15994Y129867D01*
X15939Y129990D01*
X15898Y130154D01*
X15844Y130359D01*
X15789Y130605D01*
X15762Y130865D01*
X15748Y131165D01*
Y131302D01*
X15762Y131466D01*
X15789Y131671D01*
X15816Y131904D01*
X15857Y132150D01*
X15926Y132396D01*
X16021Y132628D01*
X16035Y132655D01*
X16076Y132724D01*
X16131Y132833D01*
X16227Y132970D01*
X16336Y133120D01*
X16473Y133271D01*
X16637Y133407D01*
X16828Y133544D01*
X16855Y133557D01*
X16924Y133598D01*
X17033Y133640D01*
X17183Y133694D01*
X17375Y133763D01*
X17594Y133804D01*
X17840Y133845D01*
X18113Y133858D01*
X19083D01*
Y132327D01*
D02*
G37*
G36*
X24169Y125998D02*
X18045Y124645D01*
X24169Y123305D01*
Y121801D01*
X15857Y124043D01*
Y125246D01*
X24169Y127515D01*
Y125998D01*
D02*
G37*
G36*
X19083Y119464D02*
X18236D01*
X18222D01*
X18181D01*
X18127Y119450D01*
X18045D01*
X17867Y119409D01*
X17675Y119327D01*
X17662D01*
X17635Y119300D01*
X17552Y119231D01*
X17443Y119108D01*
X17334Y118931D01*
Y118917D01*
X17320Y118890D01*
X17293Y118835D01*
X17279Y118753D01*
X17252Y118657D01*
X17224Y118561D01*
X17211Y118438D01*
Y118220D01*
X17224Y118124D01*
X17252Y118001D01*
X17279Y117878D01*
X17334Y117741D01*
X17402Y117618D01*
X17498Y117495D01*
X17512Y117482D01*
X17552Y117454D01*
X17621Y117400D01*
X17717Y117345D01*
X17840Y117304D01*
X17976Y117249D01*
X18154Y117222D01*
X18345Y117208D01*
X19958D01*
X19986D01*
X20054D01*
X20163Y117222D01*
X20287Y117236D01*
X20437Y117277D01*
X20587Y117318D01*
X20724Y117386D01*
X20861Y117468D01*
X20874Y117482D01*
X20915Y117509D01*
X20970Y117564D01*
X21025Y117646D01*
X21079Y117741D01*
X21134Y117864D01*
X21175Y118001D01*
X21189Y118151D01*
Y118972D01*
X22624D01*
Y118097D01*
X22638Y118028D01*
X22651Y117960D01*
X22692Y117864D01*
X22733Y117782D01*
X22802Y117687D01*
X22884Y117605D01*
X22897Y117591D01*
X22939Y117577D01*
X22993Y117536D01*
X23075Y117495D01*
X23171Y117468D01*
X23294Y117427D01*
X23444Y117413D01*
X23608Y117400D01*
X25208D01*
X25221D01*
X25276D01*
X25358Y117413D01*
X25454Y117427D01*
X25563Y117454D01*
X25686Y117509D01*
X25796Y117564D01*
X25891Y117646D01*
X25905Y117659D01*
X25932Y117687D01*
X25973Y117741D01*
X26014Y117810D01*
X26055Y117905D01*
X26096Y118028D01*
X26124Y118165D01*
X26137Y118315D01*
Y118425D01*
X26124Y118493D01*
X26083Y118657D01*
X26014Y118835D01*
Y118849D01*
X26000Y118876D01*
X25932Y118958D01*
X25837Y119067D01*
X25700Y119177D01*
X25686D01*
X25659Y119190D01*
X25618Y119204D01*
X25563Y119231D01*
X25481Y119245D01*
X25399Y119272D01*
X25194Y119286D01*
X24264D01*
Y120803D01*
X25235D01*
X25249D01*
X25262D01*
X25303D01*
X25358D01*
X25495Y120790D01*
X25672Y120762D01*
X25877Y120735D01*
X26096Y120680D01*
X26315Y120598D01*
X26520Y120503D01*
X26547Y120489D01*
X26602Y120448D01*
X26698Y120380D01*
X26821Y120284D01*
X26957Y120161D01*
X27081Y120011D01*
X27217Y119833D01*
X27327Y119628D01*
X27340Y119600D01*
X27367Y119518D01*
X27422Y119409D01*
X27477Y119231D01*
X27518Y119040D01*
X27573Y118794D01*
X27600Y118534D01*
X27614Y118234D01*
Y118124D01*
X27600Y118042D01*
Y117960D01*
X27586Y117851D01*
X27532Y117591D01*
X27463Y117318D01*
X27354Y117031D01*
X27190Y116743D01*
X27094Y116620D01*
X26985Y116497D01*
Y116484D01*
X26957Y116470D01*
X26916Y116443D01*
X26875Y116402D01*
X26807Y116361D01*
X26725Y116306D01*
X26643Y116251D01*
X26534Y116183D01*
X26288Y116074D01*
X25987Y115978D01*
X25631Y115910D01*
X25426Y115882D01*
X25221D01*
X23595D01*
X23581D01*
X23526D01*
X23431Y115896D01*
X23321Y115910D01*
X23185Y115951D01*
X23048Y115992D01*
X22884Y116060D01*
X22720Y116156D01*
X22706Y116169D01*
X22651Y116197D01*
X22569Y116265D01*
X22460Y116347D01*
X22337Y116456D01*
X22200Y116579D01*
X22064Y116730D01*
X21927Y116894D01*
X21913Y116867D01*
X21886Y116798D01*
X21831Y116689D01*
X21749Y116566D01*
X21640Y116429D01*
X21517Y116279D01*
X21353Y116128D01*
X21175Y116005D01*
X21148Y115992D01*
X21079Y115951D01*
X20970Y115910D01*
X20833Y115841D01*
X20656Y115787D01*
X20437Y115745D01*
X20204Y115705D01*
X19958Y115691D01*
X18304D01*
X18291D01*
X18263D01*
X18222D01*
X18168D01*
X18017Y115705D01*
X17826Y115732D01*
X17607Y115773D01*
X17375Y115828D01*
X17129Y115896D01*
X16910Y116005D01*
X16883Y116019D01*
X16814Y116060D01*
X16719Y116128D01*
X16582Y116224D01*
X16445Y116361D01*
X16295Y116511D01*
X16158Y116689D01*
X16035Y116894D01*
X16021Y116921D01*
X15994Y117003D01*
X15939Y117126D01*
X15898Y117290D01*
X15844Y117495D01*
X15789Y117741D01*
X15762Y118001D01*
X15748Y118302D01*
Y118438D01*
X15762Y118603D01*
X15789Y118808D01*
X15816Y119040D01*
X15857Y119286D01*
X15926Y119532D01*
X16021Y119764D01*
X16035Y119792D01*
X16076Y119860D01*
X16131Y119970D01*
X16227Y120106D01*
X16336Y120257D01*
X16473Y120407D01*
X16637Y120544D01*
X16828Y120680D01*
X16855Y120694D01*
X16924Y120735D01*
X17033Y120776D01*
X17183Y120831D01*
X17375Y120899D01*
X17594Y120940D01*
X17840Y120981D01*
X18113Y120995D01*
X19083D01*
Y119464D01*
D02*
G37*
G36*
X-187623Y-37115D02*
X-189140D01*
Y-35597D01*
X-187623D01*
Y-37115D01*
D02*
G37*
G36*
X-204382Y-47135D02*
X-205339D01*
Y-45699D01*
X-205900D01*
Y-47135D01*
X-207390D01*
X-207677Y-47121D01*
X-207923Y-47094D01*
X-208155Y-47053D01*
X-208347Y-46998D01*
X-208511Y-46943D01*
X-208634Y-46902D01*
X-208702Y-46875D01*
X-208729Y-46861D01*
X-208921Y-46738D01*
X-209099Y-46615D01*
X-209249Y-46479D01*
X-209358Y-46356D01*
X-209454Y-46233D01*
X-209522Y-46137D01*
X-209563Y-46082D01*
X-209577Y-46055D01*
X-209673Y-45850D01*
X-209741Y-45631D01*
X-209796Y-45412D01*
X-209823Y-45207D01*
X-209850Y-45030D01*
X-209864Y-44879D01*
Y-44824D01*
Y-44783D01*
Y-44770D01*
Y-44756D01*
Y-43211D01*
X-209850Y-42993D01*
X-209837Y-42801D01*
X-209809Y-42624D01*
X-209768Y-42473D01*
X-209727Y-42350D01*
X-209700Y-42268D01*
X-209686Y-42200D01*
X-209673Y-42186D01*
X-209591Y-42022D01*
X-209509Y-41885D01*
X-209413Y-41762D01*
X-209317Y-41653D01*
X-209235Y-41571D01*
X-209167Y-41516D01*
X-209126Y-41475D01*
X-209112Y-41462D01*
X-208962Y-41366D01*
X-208811Y-41284D01*
X-208675Y-41216D01*
X-208524Y-41175D01*
X-208401Y-41134D01*
X-208306Y-41106D01*
X-208251Y-41093D01*
X-208224D01*
X-208388Y-41052D01*
X-208538Y-40997D01*
X-208675Y-40929D01*
X-208798Y-40874D01*
X-208893Y-40819D01*
X-208962Y-40764D01*
X-209003Y-40737D01*
X-209016Y-40723D01*
X-209139Y-40614D01*
X-209249Y-40505D01*
X-209331Y-40382D01*
X-209399Y-40272D01*
X-209468Y-40177D01*
X-209509Y-40095D01*
X-209522Y-40040D01*
X-209536Y-40026D01*
X-209591Y-39862D01*
X-209645Y-39698D01*
X-209673Y-39534D01*
X-209686Y-39384D01*
X-209700Y-39247D01*
X-209714Y-39151D01*
Y-39083D01*
Y-39056D01*
Y-37826D01*
X-209700Y-37566D01*
X-209673Y-37320D01*
X-209618Y-37101D01*
X-209563Y-36923D01*
X-209509Y-36773D01*
X-209454Y-36663D01*
X-209427Y-36595D01*
X-209413Y-36568D01*
X-209290Y-36376D01*
X-209153Y-36212D01*
X-209003Y-36076D01*
X-208866Y-35966D01*
X-208729Y-35884D01*
X-208634Y-35830D01*
X-208565Y-35789D01*
X-208538Y-35775D01*
X-208319Y-35679D01*
X-208087Y-35611D01*
X-207855Y-35570D01*
X-207649Y-35529D01*
X-207458Y-35515D01*
X-207308Y-35502D01*
X-205900D01*
Y-36937D01*
X-207198D01*
X-207362Y-36951D01*
X-207513Y-36978D01*
X-207636Y-37019D01*
X-207732Y-37060D01*
X-207814Y-37115D01*
X-207882Y-37156D01*
X-207909Y-37183D01*
X-207923Y-37197D01*
X-208005Y-37306D01*
X-208073Y-37415D01*
X-208114Y-37538D01*
X-208155Y-37648D01*
X-208169Y-37757D01*
X-208183Y-37839D01*
Y-37894D01*
Y-37907D01*
Y-39097D01*
X-208169Y-39316D01*
X-208142Y-39493D01*
X-208101Y-39657D01*
X-208060Y-39780D01*
X-208005Y-39890D01*
X-207964Y-39972D01*
X-207937Y-40013D01*
X-207923Y-40026D01*
X-207814Y-40136D01*
X-207704Y-40218D01*
X-207581Y-40272D01*
X-207458Y-40313D01*
X-207349Y-40341D01*
X-207267Y-40354D01*
X-205900D01*
Y-36937D01*
X-205339D01*
Y-35502D01*
X-204382D01*
Y-47135D01*
D02*
G37*
G36*
X-213391Y-38714D02*
X-213035Y-38782D01*
X-212735Y-38892D01*
X-212475Y-39001D01*
X-212366Y-39056D01*
X-212270Y-39110D01*
X-212188Y-39165D01*
X-212133Y-39220D01*
X-212079Y-39261D01*
X-212038Y-39288D01*
X-212024Y-39302D01*
X-212010Y-39316D01*
X-211901Y-39439D01*
X-211805Y-39562D01*
X-211641Y-39849D01*
X-211532Y-40136D01*
X-211463Y-40423D01*
X-211409Y-40669D01*
X-211395Y-40778D01*
Y-40874D01*
X-211381Y-40956D01*
Y-41011D01*
Y-41052D01*
Y-41065D01*
X-212871D01*
X-212885Y-40887D01*
X-212912Y-40723D01*
X-212940Y-40600D01*
X-212995Y-40491D01*
X-213035Y-40395D01*
X-213063Y-40341D01*
X-213090Y-40300D01*
X-213104Y-40286D01*
X-213199Y-40190D01*
X-213309Y-40122D01*
X-213418Y-40067D01*
X-213528Y-40040D01*
X-213623Y-40013D01*
X-213705Y-39999D01*
X-213774D01*
X-213938Y-40013D01*
X-214088Y-40040D01*
X-214211Y-40095D01*
X-214320Y-40136D01*
X-214403Y-40190D01*
X-214471Y-40245D01*
X-214498Y-40272D01*
X-214512Y-40286D01*
X-214608Y-40395D01*
X-214676Y-40519D01*
X-214717Y-40655D01*
X-214758Y-40778D01*
X-214772Y-40887D01*
X-214785Y-40983D01*
Y-41038D01*
Y-41065D01*
Y-42145D01*
X-214854D01*
X-214963Y-43499D01*
X-214785D01*
Y-42145D01*
X-213787D01*
X-213555Y-42159D01*
X-213336Y-42173D01*
X-213131Y-42213D01*
X-212940Y-42255D01*
X-212776Y-42309D01*
X-212612Y-42364D01*
X-212475Y-42432D01*
X-212338Y-42487D01*
X-212229Y-42555D01*
X-212133Y-42624D01*
X-212051Y-42678D01*
X-211983Y-42733D01*
X-211928Y-42774D01*
X-211887Y-42815D01*
X-211874Y-42829D01*
X-211860Y-42842D01*
X-211751Y-42979D01*
X-211655Y-43129D01*
X-211491Y-43457D01*
X-211381Y-43799D01*
X-211299Y-44141D01*
X-211272Y-44305D01*
X-211258Y-44455D01*
X-211231Y-44592D01*
Y-44701D01*
X-211217Y-44797D01*
Y-44866D01*
Y-44920D01*
Y-44934D01*
Y-45139D01*
X-211245Y-45344D01*
X-211258Y-45522D01*
X-211299Y-45699D01*
X-211340Y-45850D01*
X-211381Y-46000D01*
X-211477Y-46233D01*
X-211559Y-46424D01*
X-211641Y-46561D01*
X-211696Y-46643D01*
X-211723Y-46670D01*
X-211942Y-46861D01*
X-212188Y-46998D01*
X-212434Y-47107D01*
X-212694Y-47176D01*
X-212912Y-47217D01*
X-213008Y-47230D01*
X-213104D01*
X-213172Y-47244D01*
X-213268D01*
X-213473Y-47230D01*
X-213651Y-47217D01*
X-213815Y-47189D01*
X-213938Y-47148D01*
X-214047Y-47107D01*
X-214129Y-47080D01*
X-214184Y-47066D01*
X-214197Y-47053D01*
X-214334Y-46971D01*
X-214443Y-46875D01*
X-214539Y-46766D01*
X-214621Y-46670D01*
X-214676Y-46574D01*
X-214717Y-46506D01*
X-214744Y-46451D01*
X-214758Y-46438D01*
X-214785Y-46372D01*
Y-44633D01*
X-214772Y-44852D01*
X-214744Y-45043D01*
X-214690Y-45207D01*
X-214649Y-45344D01*
X-214594Y-45453D01*
X-214539Y-45522D01*
X-214512Y-45576D01*
X-214498Y-45590D01*
X-214389Y-45699D01*
X-214252Y-45768D01*
X-214115Y-45822D01*
X-213979Y-45863D01*
X-213842Y-45891D01*
X-213746Y-45904D01*
X-213651D01*
X-213487Y-45891D01*
X-213336Y-45863D01*
X-213213Y-45836D01*
X-213104Y-45781D01*
X-213035Y-45740D01*
X-212967Y-45713D01*
X-212940Y-45686D01*
X-212926Y-45672D01*
X-212844Y-45563D01*
X-212789Y-45453D01*
X-212735Y-45330D01*
X-212707Y-45207D01*
X-212694Y-45098D01*
X-212680Y-45016D01*
Y-44961D01*
Y-44934D01*
X-212694Y-44688D01*
X-212721Y-44469D01*
X-212762Y-44278D01*
X-212817Y-44127D01*
X-212871Y-44018D01*
X-212912Y-43936D01*
X-212940Y-43881D01*
X-212953Y-43868D01*
X-213076Y-43745D01*
X-213213Y-43649D01*
X-213350Y-43594D01*
X-213487Y-43540D01*
X-213610Y-43512D01*
X-213705Y-43499D01*
X-214785D01*
Y-44633D01*
X-214949Y-45399D01*
Y-45426D01*
Y-45494D01*
X-214936Y-45617D01*
X-214922Y-45754D01*
X-214908Y-45918D01*
X-214867Y-46096D01*
X-214826Y-46273D01*
X-214785Y-46372D01*
Y-47135D01*
X-216262D01*
Y-41065D01*
X-216248Y-40792D01*
X-216221Y-40546D01*
X-216166Y-40327D01*
X-216125Y-40136D01*
X-216070Y-39985D01*
X-216016Y-39876D01*
X-215988Y-39808D01*
X-215974Y-39780D01*
X-215851Y-39589D01*
X-215715Y-39425D01*
X-215578Y-39288D01*
X-215441Y-39179D01*
X-215318Y-39083D01*
X-215223Y-39028D01*
X-215154Y-38987D01*
X-215127Y-38974D01*
X-214908Y-38878D01*
X-214690Y-38810D01*
X-214471Y-38755D01*
X-214266Y-38728D01*
X-214074Y-38700D01*
X-213938Y-38687D01*
X-213596D01*
X-213391Y-38714D01*
D02*
G37*
G36*
X-197356Y-38700D02*
X-197151Y-38741D01*
X-196960Y-38810D01*
X-196782Y-38878D01*
X-196645Y-38960D01*
X-196549Y-39015D01*
X-196481Y-39069D01*
X-196454Y-39083D01*
X-196276Y-39247D01*
X-196126Y-39439D01*
X-195989Y-39630D01*
X-195893Y-39821D01*
X-195811Y-39999D01*
X-195804Y-40014D01*
X-195811Y-40040D01*
X-195839Y-40218D01*
X-195880Y-40423D01*
X-195893Y-40655D01*
X-195907Y-40915D01*
Y-41421D01*
X-195921Y-41188D01*
X-195948Y-40983D01*
X-195975Y-40819D01*
X-196030Y-40683D01*
X-196071Y-40573D01*
X-196098Y-40491D01*
X-196126Y-40450D01*
X-196139Y-40436D01*
X-196235Y-40327D01*
X-196358Y-40245D01*
X-196481Y-40190D01*
X-196590Y-40149D01*
X-196700Y-40122D01*
X-196782Y-40108D01*
X-196864D01*
X-197042Y-40122D01*
X-197206Y-40163D01*
X-197329Y-40204D01*
X-197438Y-40259D01*
X-197520Y-40327D01*
X-197588Y-40368D01*
X-197616Y-40409D01*
X-197629Y-40423D01*
X-197711Y-40560D01*
X-197780Y-40710D01*
X-197821Y-40860D01*
X-197862Y-41024D01*
X-197875Y-41161D01*
X-197889Y-41270D01*
Y-41352D01*
Y-41366D01*
Y-41380D01*
Y-47135D01*
X-199407D01*
Y-40929D01*
X-199393Y-40669D01*
X-199379Y-40436D01*
X-199338Y-40231D01*
X-199297Y-40054D01*
X-199256Y-39903D01*
X-199229Y-39794D01*
X-199201Y-39739D01*
X-199188Y-39712D01*
X-199106Y-39534D01*
X-199010Y-39384D01*
X-198901Y-39247D01*
X-198805Y-39138D01*
X-198709Y-39056D01*
X-198641Y-39001D01*
X-198586Y-38960D01*
X-198573Y-38946D01*
X-198422Y-38864D01*
X-198258Y-38796D01*
X-198094Y-38755D01*
X-197930Y-38714D01*
X-197793Y-38700D01*
X-197684Y-38687D01*
X-197588D01*
X-197356Y-38700D01*
D02*
G37*
G36*
X-218025Y-47135D02*
X-219542D01*
Y-44934D01*
X-220600Y-43358D01*
X-220349Y-42801D01*
X-221251Y-41653D01*
X-221461Y-42076D01*
X-220600Y-43358D01*
X-222304Y-47135D01*
X-223972D01*
X-221461Y-42076D01*
X-223643Y-38823D01*
X-222058D01*
X-219542Y-42856D01*
Y-35502D01*
X-218025D01*
Y-47135D01*
D02*
G37*
G36*
X-226637Y-38700D02*
X-226391Y-38741D01*
X-226159Y-38796D01*
X-225967Y-38851D01*
X-225803Y-38919D01*
X-225680Y-38974D01*
X-225612Y-39015D01*
X-225585Y-39028D01*
X-225393Y-39165D01*
X-225216Y-39329D01*
X-225079Y-39493D01*
X-224956Y-39657D01*
X-224860Y-39794D01*
X-224792Y-39917D01*
X-224751Y-39999D01*
X-224737Y-40013D01*
Y-40026D01*
X-224641Y-40286D01*
X-224573Y-40546D01*
X-224518Y-40806D01*
X-224491Y-41052D01*
X-224464Y-41270D01*
Y-41366D01*
X-224450Y-41448D01*
Y-41503D01*
Y-41557D01*
Y-41585D01*
Y-41598D01*
Y-44510D01*
X-224464Y-44824D01*
X-224491Y-45112D01*
X-224546Y-45371D01*
X-224600Y-45576D01*
X-224655Y-45754D01*
X-224710Y-45891D01*
X-224737Y-45973D01*
X-224751Y-45987D01*
Y-46000D01*
X-224874Y-46219D01*
X-225010Y-46410D01*
X-225161Y-46561D01*
X-225297Y-46697D01*
X-225420Y-46793D01*
X-225516Y-46875D01*
X-225585Y-46916D01*
X-225612Y-46930D01*
X-225831Y-47039D01*
X-226063Y-47107D01*
X-226295Y-47162D01*
X-226514Y-47203D01*
X-226692Y-47230D01*
X-226842Y-47244D01*
X-226979D01*
X-227198Y-47230D01*
X-227389Y-47217D01*
X-227758Y-47148D01*
X-228073Y-47053D01*
X-228209Y-46998D01*
X-228332Y-46930D01*
X-228442Y-46875D01*
X-228537Y-46820D01*
X-228619Y-46766D01*
X-228674Y-46725D01*
X-228729Y-46684D01*
X-228770Y-46656D01*
X-228783Y-46629D01*
X-228797D01*
X-228906Y-46506D01*
X-229016Y-46383D01*
X-229166Y-46096D01*
X-229289Y-45795D01*
X-229358Y-45522D01*
X-229412Y-45262D01*
X-229426Y-45153D01*
Y-45057D01*
X-229439Y-44975D01*
Y-44920D01*
Y-44879D01*
Y-44866D01*
Y-44811D01*
X-227977D01*
Y-44866D01*
X-227963Y-45030D01*
X-227936Y-45180D01*
X-227895Y-45303D01*
X-227854Y-45399D01*
X-227799Y-45481D01*
X-227758Y-45535D01*
X-227731Y-45576D01*
X-227717Y-45590D01*
X-227608Y-45672D01*
X-227498Y-45727D01*
X-227375Y-45781D01*
X-227252Y-45809D01*
X-227143Y-45822D01*
X-227061Y-45836D01*
X-226979D01*
X-226801Y-45822D01*
X-226637Y-45781D01*
X-226500Y-45727D01*
X-226391Y-45658D01*
X-226309Y-45604D01*
X-226241Y-45549D01*
X-226200Y-45508D01*
X-226186Y-45494D01*
X-226090Y-45358D01*
X-226022Y-45207D01*
X-225981Y-45043D01*
X-225954Y-44893D01*
X-225926Y-44756D01*
X-225913Y-44647D01*
Y-44578D01*
Y-44551D01*
Y-43580D01*
X-225516D01*
Y-42323D01*
X-225913D01*
Y-43580D01*
X-229412D01*
Y-41380D01*
X-229398Y-41079D01*
X-229371Y-40792D01*
X-229316Y-40546D01*
X-229262Y-40341D01*
X-229207Y-40163D01*
X-229152Y-40040D01*
X-229125Y-39958D01*
X-229111Y-39931D01*
X-228988Y-39712D01*
X-228852Y-39520D01*
X-228715Y-39370D01*
X-228578Y-39233D01*
X-228455Y-39138D01*
X-228360Y-39056D01*
X-228291Y-39015D01*
X-228264Y-39001D01*
X-228045Y-38892D01*
X-227813Y-38823D01*
X-227594Y-38769D01*
X-227389Y-38728D01*
X-227198Y-38700D01*
X-227061Y-38687D01*
X-226924D01*
X-226637Y-38700D01*
D02*
G37*
G36*
X-181102Y-36937D02*
X-183167D01*
Y-47135D01*
X-184684D01*
Y-36937D01*
X-183167D01*
Y-36445D01*
X-184684D01*
Y-36937D01*
X-186748D01*
Y-35502D01*
X-181102D01*
Y-36937D01*
D02*
G37*
G36*
X-187623Y-47135D02*
X-189140D01*
Y-38823D01*
X-187623D01*
Y-47135D01*
D02*
G37*
G36*
X-193925Y-38700D02*
X-193706Y-38741D01*
X-193515Y-38810D01*
X-193337Y-38878D01*
X-193200Y-38946D01*
X-193105Y-39015D01*
X-193036Y-39056D01*
X-193009Y-39069D01*
X-192831Y-39233D01*
X-192681Y-39411D01*
X-192544Y-39603D01*
X-192448Y-39794D01*
X-192407Y-39864D01*
Y-38823D01*
X-190890D01*
Y-47135D01*
X-192407D01*
Y-41421D01*
X-192243Y-40231D01*
Y-40218D01*
X-192257Y-40190D01*
X-192271Y-40163D01*
X-192298Y-40108D01*
X-192353Y-39958D01*
X-192407Y-39864D01*
Y-41421D01*
X-192421Y-41188D01*
X-192448Y-40983D01*
X-192490Y-40819D01*
X-192544Y-40683D01*
X-192585Y-40573D01*
X-192626Y-40491D01*
X-192654Y-40450D01*
X-192667Y-40436D01*
X-192777Y-40327D01*
X-192900Y-40245D01*
X-193023Y-40190D01*
X-193146Y-40149D01*
X-193255Y-40122D01*
X-193351Y-40108D01*
X-193433D01*
X-193597Y-40122D01*
X-193747Y-40163D01*
X-193870Y-40204D01*
X-193966Y-40259D01*
X-194048Y-40327D01*
X-194103Y-40368D01*
X-194130Y-40409D01*
X-194143Y-40423D01*
X-194226Y-40560D01*
X-194280Y-40710D01*
X-194335Y-40860D01*
X-194362Y-41024D01*
X-194376Y-41161D01*
X-194390Y-41270D01*
Y-41352D01*
Y-41366D01*
Y-41380D01*
Y-47135D01*
X-195907D01*
Y-41421D01*
X-195702Y-40272D01*
Y-40259D01*
X-195716Y-40231D01*
X-195729Y-40190D01*
X-195743Y-40136D01*
X-195804Y-40014D01*
X-195770Y-39890D01*
X-195729Y-39780D01*
X-195716Y-39726D01*
X-195702Y-39698D01*
X-195620Y-39520D01*
X-195524Y-39370D01*
X-195429Y-39233D01*
X-195319Y-39138D01*
X-195237Y-39056D01*
X-195169Y-38987D01*
X-195114Y-38960D01*
X-195100Y-38946D01*
X-194950Y-38864D01*
X-194786Y-38796D01*
X-194636Y-38755D01*
X-194485Y-38714D01*
X-194349Y-38700D01*
X-194253Y-38687D01*
X-194157D01*
X-193925Y-38700D01*
D02*
G37*
G36*
X-234566Y-38700D02*
X-234292Y-38755D01*
X-234060Y-38823D01*
X-233855Y-38892D01*
X-233677Y-38974D01*
X-233541Y-39042D01*
X-233458Y-39097D01*
X-233445Y-39110D01*
X-233431D01*
X-233212Y-39274D01*
X-233007Y-39466D01*
X-232830Y-39657D01*
X-232679Y-39849D01*
X-232556Y-40013D01*
Y-38823D01*
X-231039D01*
Y-47135D01*
X-232556D01*
Y-41899D01*
X-232392Y-40272D01*
Y-40259D01*
X-232406Y-40245D01*
X-232433Y-40204D01*
X-232461Y-40149D01*
X-232556Y-40013D01*
Y-41899D01*
X-232584Y-41612D01*
X-232652Y-41366D01*
X-232734Y-41161D01*
X-232830Y-40983D01*
X-232925Y-40833D01*
X-233007Y-40737D01*
X-233062Y-40669D01*
X-233089Y-40655D01*
X-233308Y-40505D01*
X-233541Y-40395D01*
X-233787Y-40313D01*
X-234019Y-40259D01*
X-234224Y-40231D01*
X-234320Y-40218D01*
X-234402Y-40204D01*
X-234839D01*
Y-38687D01*
X-234566Y-38700D01*
D02*
G37*
G36*
X-187623Y-61735D02*
X-189140D01*
Y-60217D01*
X-187623D01*
Y-61735D01*
D02*
G37*
G36*
X-285254Y-63443D02*
X-286785D01*
Y-64892D01*
X-288002D01*
Y-63443D01*
X-286785D01*
Y-61024D01*
X-285254D01*
Y-63443D01*
D02*
G37*
G36*
X-250860Y-63334D02*
X-250505Y-63402D01*
X-250204Y-63512D01*
X-249944Y-63621D01*
X-249835Y-63676D01*
X-249739Y-63731D01*
X-249657Y-63785D01*
X-249603Y-63840D01*
X-249548Y-63881D01*
X-249507Y-63908D01*
X-249493Y-63922D01*
X-249480Y-63936D01*
X-249370Y-64059D01*
X-249275Y-64182D01*
X-249111Y-64469D01*
X-249001Y-64756D01*
X-248933Y-65043D01*
X-248878Y-65289D01*
X-248865Y-65398D01*
Y-65494D01*
X-248851Y-65576D01*
Y-65631D01*
Y-65672D01*
Y-65685D01*
X-250341D01*
X-250355Y-65508D01*
X-250382Y-65343D01*
X-250409Y-65220D01*
X-250464Y-65111D01*
X-250505Y-65015D01*
X-250532Y-64961D01*
X-250560Y-64920D01*
X-250573Y-64906D01*
X-250669Y-64810D01*
X-250778Y-64742D01*
X-250888Y-64687D01*
X-250997Y-64660D01*
X-251093Y-64633D01*
X-251175Y-64619D01*
X-251243D01*
X-251407Y-64633D01*
X-251557Y-64660D01*
X-251681Y-64715D01*
X-251790Y-64756D01*
X-251872Y-64810D01*
X-251940Y-64865D01*
X-251968Y-64892D01*
X-251981Y-64906D01*
X-252077Y-65015D01*
X-252145Y-65139D01*
X-252186Y-65275D01*
X-252227Y-65398D01*
X-252241Y-65508D01*
X-252255Y-65603D01*
Y-65658D01*
Y-65685D01*
Y-66765D01*
X-252323D01*
X-252432Y-68119D01*
X-252255D01*
Y-66765D01*
X-251257D01*
X-251024Y-66779D01*
X-250806Y-66793D01*
X-250601Y-66834D01*
X-250409Y-66875D01*
X-250245Y-66929D01*
X-250081Y-66984D01*
X-249944Y-67052D01*
X-249808Y-67107D01*
X-249698Y-67175D01*
X-249603Y-67244D01*
X-249521Y-67298D01*
X-249452Y-67353D01*
X-249398Y-67394D01*
X-249357Y-67435D01*
X-249343Y-67449D01*
X-249329Y-67462D01*
X-249220Y-67599D01*
X-249124Y-67749D01*
X-248960Y-68077D01*
X-248851Y-68419D01*
X-248769Y-68761D01*
X-248742Y-68925D01*
X-248728Y-69075D01*
X-248700Y-69212D01*
Y-69322D01*
X-248687Y-69417D01*
Y-69485D01*
Y-69540D01*
Y-69554D01*
Y-69759D01*
X-248714Y-69964D01*
X-248728Y-70142D01*
X-248769Y-70319D01*
X-248810Y-70470D01*
X-248851Y-70620D01*
X-248947Y-70853D01*
X-249029Y-71044D01*
X-249111Y-71181D01*
X-249165Y-71263D01*
X-249193Y-71290D01*
X-249411Y-71481D01*
X-249657Y-71618D01*
X-249903Y-71727D01*
X-250163Y-71796D01*
X-250382Y-71837D01*
X-250478Y-71850D01*
X-250573D01*
X-250642Y-71864D01*
X-250737D01*
X-250942Y-71850D01*
X-251120Y-71837D01*
X-251284Y-71809D01*
X-251407Y-71768D01*
X-251517Y-71727D01*
X-251599Y-71700D01*
X-251653Y-71686D01*
X-251667Y-71673D01*
X-251804Y-71591D01*
X-251913Y-71495D01*
X-252009Y-71386D01*
X-252091Y-71290D01*
X-252145Y-71194D01*
X-252186Y-71126D01*
X-252214Y-71071D01*
X-252227Y-71058D01*
X-252255Y-70992D01*
Y-69253D01*
X-252241Y-69472D01*
X-252214Y-69663D01*
X-252159Y-69827D01*
X-252118Y-69964D01*
X-252063Y-70073D01*
X-252009Y-70142D01*
X-251981Y-70196D01*
X-251968Y-70210D01*
X-251858Y-70319D01*
X-251722Y-70388D01*
X-251585Y-70442D01*
X-251448Y-70483D01*
X-251311Y-70511D01*
X-251216Y-70525D01*
X-251120D01*
X-250956Y-70511D01*
X-250806Y-70483D01*
X-250683Y-70456D01*
X-250573Y-70401D01*
X-250505Y-70360D01*
X-250437Y-70333D01*
X-250409Y-70306D01*
X-250396Y-70292D01*
X-250314Y-70183D01*
X-250259Y-70073D01*
X-250204Y-69950D01*
X-250177Y-69827D01*
X-250163Y-69718D01*
X-250149Y-69636D01*
Y-69581D01*
Y-69554D01*
X-250163Y-69308D01*
X-250190Y-69089D01*
X-250232Y-68898D01*
X-250286Y-68747D01*
X-250341Y-68638D01*
X-250382Y-68556D01*
X-250409Y-68501D01*
X-250423Y-68488D01*
X-250546Y-68365D01*
X-250683Y-68269D01*
X-250819Y-68214D01*
X-250956Y-68160D01*
X-251079Y-68132D01*
X-251175Y-68119D01*
X-252255D01*
Y-69253D01*
X-252419Y-70019D01*
Y-70046D01*
Y-70114D01*
X-252405Y-70237D01*
X-252391Y-70374D01*
X-252378Y-70538D01*
X-252337Y-70716D01*
X-252296Y-70894D01*
X-252255Y-70992D01*
Y-71755D01*
X-253731D01*
Y-65685D01*
X-253717Y-65412D01*
X-253690Y-65166D01*
X-253635Y-64947D01*
X-253594Y-64756D01*
X-253540Y-64605D01*
X-253485Y-64496D01*
X-253458Y-64428D01*
X-253444Y-64400D01*
X-253321Y-64209D01*
X-253184Y-64045D01*
X-253048Y-63908D01*
X-252911Y-63799D01*
X-252788Y-63703D01*
X-252692Y-63648D01*
X-252624Y-63607D01*
X-252596Y-63594D01*
X-252378Y-63498D01*
X-252159Y-63430D01*
X-251940Y-63375D01*
X-251735Y-63348D01*
X-251544Y-63320D01*
X-251407Y-63307D01*
X-251065D01*
X-250860Y-63334D01*
D02*
G37*
G36*
X-264380D02*
X-264025Y-63402D01*
X-263724Y-63512D01*
X-263464Y-63621D01*
X-263355Y-63676D01*
X-263259Y-63731D01*
X-263177Y-63785D01*
X-263122Y-63840D01*
X-263068Y-63881D01*
X-263027Y-63908D01*
X-263013Y-63922D01*
X-262999Y-63936D01*
X-262890Y-64059D01*
X-262794Y-64182D01*
X-262630Y-64469D01*
X-262521Y-64756D01*
X-262453Y-65043D01*
X-262398Y-65289D01*
X-262384Y-65398D01*
Y-65494D01*
X-262370Y-65576D01*
Y-65631D01*
Y-65672D01*
Y-65685D01*
X-263861D01*
X-263874Y-65508D01*
X-263901Y-65343D01*
X-263929Y-65220D01*
X-263984Y-65111D01*
X-264025Y-65015D01*
X-264052Y-64961D01*
X-264079Y-64920D01*
X-264093Y-64906D01*
X-264189Y-64810D01*
X-264298Y-64742D01*
X-264407Y-64687D01*
X-264517Y-64660D01*
X-264612Y-64633D01*
X-264694Y-64619D01*
X-264763D01*
X-264927Y-64633D01*
X-265077Y-64660D01*
X-265200Y-64715D01*
X-265310Y-64756D01*
X-265392Y-64810D01*
X-265460Y-64865D01*
X-265487Y-64892D01*
X-265501Y-64906D01*
X-265597Y-65015D01*
X-265665Y-65139D01*
X-265706Y-65275D01*
X-265747Y-65398D01*
X-265761Y-65508D01*
X-265774Y-65603D01*
Y-65658D01*
Y-65685D01*
Y-66765D01*
X-265843D01*
X-265952Y-68119D01*
X-265774D01*
Y-66765D01*
X-264776D01*
X-264544Y-66779D01*
X-264325Y-66793D01*
X-264120Y-66834D01*
X-263929Y-66875D01*
X-263765Y-66929D01*
X-263601Y-66984D01*
X-263464Y-67052D01*
X-263327Y-67107D01*
X-263218Y-67175D01*
X-263122Y-67244D01*
X-263040Y-67298D01*
X-262972Y-67353D01*
X-262917Y-67394D01*
X-262876Y-67435D01*
X-262863Y-67449D01*
X-262849Y-67462D01*
X-262740Y-67599D01*
X-262644Y-67749D01*
X-262480Y-68077D01*
X-262370Y-68419D01*
X-262288Y-68761D01*
X-262261Y-68925D01*
X-262247Y-69075D01*
X-262220Y-69212D01*
Y-69322D01*
X-262207Y-69417D01*
Y-69485D01*
Y-69540D01*
Y-69554D01*
Y-69759D01*
X-262234Y-69964D01*
X-262247Y-70142D01*
X-262288Y-70319D01*
X-262330Y-70470D01*
X-262370Y-70620D01*
X-262466Y-70853D01*
X-262548Y-71044D01*
X-262630Y-71181D01*
X-262685Y-71263D01*
X-262712Y-71290D01*
X-262931Y-71481D01*
X-263177Y-71618D01*
X-263423Y-71727D01*
X-263683Y-71796D01*
X-263901Y-71837D01*
X-263997Y-71850D01*
X-264093D01*
X-264161Y-71864D01*
X-264257D01*
X-264462Y-71850D01*
X-264640Y-71837D01*
X-264804Y-71809D01*
X-264927Y-71768D01*
X-265036Y-71727D01*
X-265118Y-71700D01*
X-265173Y-71686D01*
X-265187Y-71673D01*
X-265323Y-71591D01*
X-265433Y-71495D01*
X-265528Y-71386D01*
X-265610Y-71290D01*
X-265665Y-71194D01*
X-265706Y-71126D01*
X-265733Y-71071D01*
X-265747Y-71058D01*
X-265774Y-70992D01*
Y-69253D01*
X-265761Y-69472D01*
X-265733Y-69663D01*
X-265679Y-69827D01*
X-265638Y-69964D01*
X-265583Y-70073D01*
X-265528Y-70142D01*
X-265501Y-70196D01*
X-265487Y-70210D01*
X-265378Y-70319D01*
X-265241Y-70388D01*
X-265105Y-70442D01*
X-264968Y-70483D01*
X-264831Y-70511D01*
X-264735Y-70525D01*
X-264640D01*
X-264476Y-70511D01*
X-264325Y-70483D01*
X-264202Y-70456D01*
X-264093Y-70401D01*
X-264025Y-70360D01*
X-263956Y-70333D01*
X-263929Y-70306D01*
X-263915Y-70292D01*
X-263833Y-70183D01*
X-263778Y-70073D01*
X-263724Y-69950D01*
X-263697Y-69827D01*
X-263683Y-69718D01*
X-263669Y-69636D01*
Y-69581D01*
Y-69554D01*
X-263683Y-69308D01*
X-263710Y-69089D01*
X-263751Y-68898D01*
X-263806Y-68747D01*
X-263861Y-68638D01*
X-263901Y-68556D01*
X-263929Y-68501D01*
X-263943Y-68488D01*
X-264066Y-68365D01*
X-264202Y-68269D01*
X-264339Y-68214D01*
X-264476Y-68160D01*
X-264599Y-68132D01*
X-264694Y-68119D01*
X-265774D01*
Y-69253D01*
X-265938Y-70019D01*
Y-70046D01*
Y-70114D01*
X-265925Y-70237D01*
X-265911Y-70374D01*
X-265897Y-70538D01*
X-265856Y-70716D01*
X-265815Y-70894D01*
X-265774Y-70992D01*
Y-71755D01*
X-267251Y-71755D01*
Y-65685D01*
X-267237Y-65412D01*
X-267210Y-65166D01*
X-267155Y-64947D01*
X-267114Y-64756D01*
X-267059Y-64605D01*
X-267005Y-64496D01*
X-266977Y-64428D01*
X-266964Y-64400D01*
X-266841Y-64209D01*
X-266704Y-64045D01*
X-266567Y-63908D01*
X-266430Y-63799D01*
X-266307Y-63703D01*
X-266212Y-63648D01*
X-266143Y-63607D01*
X-266116Y-63594D01*
X-265897Y-63498D01*
X-265679Y-63430D01*
X-265460Y-63375D01*
X-265255Y-63348D01*
X-265064Y-63320D01*
X-264927Y-63307D01*
X-264585D01*
X-264380Y-63334D01*
D02*
G37*
G36*
X-294181Y-63334D02*
X-293825Y-63402D01*
X-293524Y-63512D01*
X-293265Y-63621D01*
X-293155Y-63676D01*
X-293060Y-63731D01*
X-292978Y-63785D01*
X-292923Y-63840D01*
X-292868Y-63881D01*
X-292827Y-63908D01*
X-292814Y-63922D01*
X-292800Y-63936D01*
X-292691Y-64059D01*
X-292595Y-64182D01*
X-292431Y-64469D01*
X-292321Y-64756D01*
X-292253Y-65043D01*
X-292198Y-65289D01*
X-292185Y-65398D01*
Y-65494D01*
X-292171Y-65576D01*
Y-65631D01*
Y-65672D01*
Y-65685D01*
X-293661D01*
X-293675Y-65508D01*
X-293702Y-65343D01*
X-293729Y-65220D01*
X-293784Y-65111D01*
X-293825Y-65015D01*
X-293852Y-64961D01*
X-293880Y-64920D01*
X-293894Y-64906D01*
X-293989Y-64810D01*
X-294099Y-64742D01*
X-294208Y-64687D01*
X-294317Y-64660D01*
X-294413Y-64633D01*
X-294495Y-64619D01*
X-294563D01*
X-294727Y-64633D01*
X-294878Y-64660D01*
X-295001Y-64715D01*
X-295110Y-64756D01*
X-295192Y-64810D01*
X-295261Y-64865D01*
X-295288Y-64892D01*
X-295302Y-64906D01*
X-295397Y-65015D01*
X-295466Y-65139D01*
X-295507Y-65275D01*
X-295548Y-65398D01*
X-295561Y-65508D01*
X-295575Y-65603D01*
Y-65658D01*
Y-65685D01*
Y-66765D01*
X-295643D01*
X-295753Y-68119D01*
X-295575D01*
Y-66765D01*
X-294577D01*
X-294345Y-66779D01*
X-294126Y-66793D01*
X-293921Y-66834D01*
X-293729Y-66875D01*
X-293566Y-66929D01*
X-293401Y-66984D01*
X-293265Y-67052D01*
X-293128Y-67107D01*
X-293019Y-67175D01*
X-292923Y-67244D01*
X-292841Y-67298D01*
X-292773Y-67353D01*
X-292718Y-67394D01*
X-292677Y-67435D01*
X-292663Y-67449D01*
X-292650Y-67462D01*
X-292540Y-67599D01*
X-292444Y-67750D01*
X-292281Y-68077D01*
X-292171Y-68419D01*
X-292089Y-68761D01*
X-292062Y-68925D01*
X-292048Y-69075D01*
X-292021Y-69212D01*
Y-69322D01*
X-292007Y-69417D01*
Y-69485D01*
Y-69540D01*
Y-69554D01*
Y-69759D01*
X-292034Y-69964D01*
X-292048Y-70142D01*
X-292089Y-70319D01*
X-292130Y-70470D01*
X-292171Y-70620D01*
X-292267Y-70853D01*
X-292349Y-71044D01*
X-292431Y-71181D01*
X-292485Y-71263D01*
X-292513Y-71290D01*
X-292732Y-71481D01*
X-292978Y-71618D01*
X-293224Y-71727D01*
X-293483Y-71796D01*
X-293702Y-71837D01*
X-293798Y-71851D01*
X-293894D01*
X-293962Y-71864D01*
X-294058D01*
X-294263Y-71851D01*
X-294440Y-71837D01*
X-294604Y-71809D01*
X-294727Y-71768D01*
X-294837Y-71727D01*
X-294919Y-71700D01*
X-294973Y-71686D01*
X-294987Y-71673D01*
X-295124Y-71591D01*
X-295233Y-71495D01*
X-295329Y-71386D01*
X-295411Y-71290D01*
X-295466Y-71194D01*
X-295507Y-71126D01*
X-295534Y-71071D01*
X-295548Y-71058D01*
X-295575Y-70992D01*
Y-69253D01*
X-295561Y-69472D01*
X-295534Y-69663D01*
X-295479Y-69827D01*
X-295438Y-69964D01*
X-295384Y-70073D01*
X-295329Y-70142D01*
X-295302Y-70196D01*
X-295288Y-70210D01*
X-295179Y-70319D01*
X-295042Y-70388D01*
X-294905Y-70442D01*
X-294768Y-70483D01*
X-294632Y-70511D01*
X-294536Y-70525D01*
X-294440D01*
X-294276Y-70511D01*
X-294126Y-70483D01*
X-294003Y-70456D01*
X-293894Y-70401D01*
X-293825Y-70360D01*
X-293757Y-70333D01*
X-293729Y-70306D01*
X-293716Y-70292D01*
X-293634Y-70183D01*
X-293579Y-70073D01*
X-293524Y-69950D01*
X-293497Y-69827D01*
X-293483Y-69718D01*
X-293470Y-69636D01*
Y-69581D01*
Y-69554D01*
X-293483Y-69308D01*
X-293511Y-69089D01*
X-293552Y-68898D01*
X-293606Y-68747D01*
X-293661Y-68638D01*
X-293702Y-68556D01*
X-293729Y-68501D01*
X-293743Y-68488D01*
X-293866Y-68365D01*
X-294003Y-68269D01*
X-294140Y-68214D01*
X-294276Y-68160D01*
X-294399Y-68132D01*
X-294495Y-68119D01*
X-295575D01*
Y-69253D01*
X-295739Y-70019D01*
Y-70046D01*
Y-70114D01*
X-295725Y-70237D01*
X-295712Y-70374D01*
X-295698Y-70538D01*
X-295657Y-70716D01*
X-295616Y-70894D01*
X-295575Y-70992D01*
Y-71755D01*
X-297051D01*
Y-65685D01*
X-297038Y-65412D01*
X-297010Y-65166D01*
X-296956Y-64947D01*
X-296915Y-64756D01*
X-296860Y-64605D01*
X-296805Y-64496D01*
X-296778Y-64428D01*
X-296764Y-64400D01*
X-296641Y-64209D01*
X-296504Y-64045D01*
X-296368Y-63908D01*
X-296231Y-63799D01*
X-296108Y-63703D01*
X-296012Y-63648D01*
X-295944Y-63607D01*
X-295917Y-63594D01*
X-295698Y-63498D01*
X-295479Y-63430D01*
X-295261Y-63375D01*
X-295056Y-63348D01*
X-294864Y-63320D01*
X-294727Y-63307D01*
X-294386D01*
X-294181Y-63334D01*
D02*
G37*
G36*
X-197356Y-63320D02*
X-197151Y-63361D01*
X-196960Y-63430D01*
X-196782Y-63498D01*
X-196645Y-63580D01*
X-196549Y-63635D01*
X-196481Y-63689D01*
X-196454Y-63703D01*
X-196276Y-63867D01*
X-196126Y-64059D01*
X-195989Y-64250D01*
X-195893Y-64441D01*
X-195811Y-64619D01*
X-195804Y-64634D01*
X-195811Y-64660D01*
X-195839Y-64838D01*
X-195880Y-65043D01*
X-195893Y-65275D01*
X-195907Y-65535D01*
Y-66041D01*
X-195921Y-65808D01*
X-195948Y-65603D01*
X-195975Y-65439D01*
X-196030Y-65302D01*
X-196071Y-65193D01*
X-196098Y-65111D01*
X-196126Y-65070D01*
X-196139Y-65056D01*
X-196235Y-64947D01*
X-196358Y-64865D01*
X-196481Y-64810D01*
X-196590Y-64769D01*
X-196700Y-64742D01*
X-196782Y-64728D01*
X-196864D01*
X-197042Y-64742D01*
X-197206Y-64783D01*
X-197329Y-64824D01*
X-197438Y-64879D01*
X-197520Y-64947D01*
X-197588Y-64988D01*
X-197616Y-65029D01*
X-197629Y-65043D01*
X-197711Y-65180D01*
X-197780Y-65330D01*
X-197821Y-65480D01*
X-197862Y-65644D01*
X-197875Y-65781D01*
X-197889Y-65890D01*
Y-65972D01*
Y-65986D01*
Y-66000D01*
Y-71755D01*
X-199407D01*
Y-65549D01*
X-199393Y-65289D01*
X-199379Y-65056D01*
X-199338Y-64851D01*
X-199297Y-64674D01*
X-199256Y-64523D01*
X-199229Y-64414D01*
X-199201Y-64359D01*
X-199188Y-64332D01*
X-199106Y-64154D01*
X-199010Y-64004D01*
X-198901Y-63867D01*
X-198805Y-63758D01*
X-198709Y-63676D01*
X-198641Y-63621D01*
X-198586Y-63580D01*
X-198573Y-63566D01*
X-198422Y-63484D01*
X-198258Y-63416D01*
X-198094Y-63375D01*
X-197930Y-63334D01*
X-197793Y-63320D01*
X-197684Y-63307D01*
X-197588D01*
X-197356Y-63320D01*
D02*
G37*
G36*
X-229070Y-63320D02*
X-228865Y-63361D01*
X-228674Y-63430D01*
X-228496Y-63498D01*
X-228360Y-63566D01*
X-228264Y-63635D01*
X-228196Y-63676D01*
X-228168Y-63689D01*
X-227991Y-63854D01*
X-227840Y-64031D01*
X-227703Y-64223D01*
X-227608Y-64414D01*
X-227567Y-64484D01*
Y-66041D01*
X-227580Y-65808D01*
X-227608Y-65603D01*
X-227649Y-65425D01*
X-227690Y-65289D01*
X-227731Y-65180D01*
X-227772Y-65097D01*
X-227799Y-65056D01*
X-227813Y-65043D01*
X-227922Y-64933D01*
X-228045Y-64851D01*
X-228168Y-64797D01*
X-228305Y-64756D01*
X-228414Y-64728D01*
X-228510Y-64715D01*
X-228592D01*
X-228770Y-64728D01*
X-228920Y-64769D01*
X-229057Y-64824D01*
X-229152Y-64879D01*
X-229234Y-64933D01*
X-229303Y-64988D01*
X-229330Y-65029D01*
X-229344Y-65043D01*
X-229426Y-65180D01*
X-229494Y-65330D01*
X-229535Y-65480D01*
X-229576Y-65644D01*
X-229590Y-65781D01*
X-229604Y-65890D01*
Y-65972D01*
Y-65986D01*
Y-66000D01*
Y-71755D01*
X-231121D01*
Y-65549D01*
X-231107Y-65166D01*
X-231052Y-64824D01*
X-230971Y-64537D01*
X-230889Y-64305D01*
X-230806Y-64113D01*
X-230725Y-63990D01*
X-230670Y-63908D01*
X-230656Y-63881D01*
X-230465Y-63689D01*
X-230246Y-63553D01*
X-230027Y-63443D01*
X-229809Y-63375D01*
X-229604Y-63334D01*
X-229453Y-63320D01*
X-229385Y-63307D01*
X-229303D01*
X-229070Y-63320D01*
D02*
G37*
G36*
X-258516D02*
X-258311Y-63361D01*
X-258119Y-63430D01*
X-257941Y-63498D01*
X-257805Y-63566D01*
X-257709Y-63635D01*
X-257641Y-63676D01*
X-257613Y-63689D01*
X-257436Y-63854D01*
X-257285Y-64031D01*
X-257149Y-64223D01*
X-257053Y-64414D01*
X-257012Y-64484D01*
Y-66041D01*
X-257026Y-65808D01*
X-257053Y-65603D01*
X-257094Y-65425D01*
X-257135Y-65289D01*
X-257176Y-65180D01*
X-257217Y-65097D01*
X-257244Y-65056D01*
X-257258Y-65043D01*
X-257367Y-64933D01*
X-257490Y-64851D01*
X-257613Y-64797D01*
X-257750Y-64756D01*
X-257859Y-64728D01*
X-257955Y-64715D01*
X-258037D01*
X-258215Y-64728D01*
X-258365Y-64769D01*
X-258502Y-64824D01*
X-258598Y-64879D01*
X-258680Y-64933D01*
X-258748Y-64988D01*
X-258775Y-65029D01*
X-258789Y-65043D01*
X-258871Y-65180D01*
X-258939Y-65330D01*
X-258980Y-65480D01*
X-259021Y-65644D01*
X-259035Y-65781D01*
X-259049Y-65890D01*
Y-65972D01*
Y-65986D01*
Y-66000D01*
Y-71755D01*
X-260566D01*
Y-65549D01*
X-260552Y-65166D01*
X-260498Y-64824D01*
X-260416Y-64537D01*
X-260334Y-64305D01*
X-260252Y-64113D01*
X-260170Y-63990D01*
X-260115Y-63908D01*
X-260101Y-63881D01*
X-259910Y-63689D01*
X-259691Y-63553D01*
X-259472Y-63443D01*
X-259254Y-63375D01*
X-259049Y-63334D01*
X-258898Y-63320D01*
X-258830Y-63307D01*
X-258748D01*
X-258516Y-63320D01*
D02*
G37*
G36*
X-274810Y-63320D02*
X-274605Y-63361D01*
X-274414Y-63430D01*
X-274236Y-63498D01*
X-274099Y-63566D01*
X-274004Y-63635D01*
X-273935Y-63676D01*
X-273908Y-63690D01*
X-273730Y-63854D01*
X-273580Y-64031D01*
X-273443Y-64223D01*
X-273347Y-64414D01*
X-273306Y-64484D01*
Y-66041D01*
X-273320Y-65808D01*
X-273347Y-65603D01*
X-273389Y-65425D01*
X-273429Y-65289D01*
X-273471Y-65180D01*
X-273512Y-65097D01*
X-273539Y-65057D01*
X-273553Y-65043D01*
X-273662Y-64933D01*
X-273785Y-64851D01*
X-273908Y-64797D01*
X-274045Y-64756D01*
X-274154Y-64728D01*
X-274250Y-64715D01*
X-274332D01*
X-274510Y-64728D01*
X-274660Y-64769D01*
X-274797Y-64824D01*
X-274892Y-64879D01*
X-274974Y-64933D01*
X-275043Y-64988D01*
X-275070Y-65029D01*
X-275084Y-65043D01*
X-275166Y-65180D01*
X-275234Y-65330D01*
X-275275Y-65480D01*
X-275316Y-65644D01*
X-275330Y-65781D01*
X-275343Y-65890D01*
Y-65972D01*
Y-65986D01*
Y-66000D01*
Y-71755D01*
X-276861D01*
Y-65549D01*
X-276847Y-65166D01*
X-276792Y-64824D01*
X-276710Y-64537D01*
X-276628Y-64305D01*
X-276546Y-64113D01*
X-276464Y-63990D01*
X-276410Y-63908D01*
X-276396Y-63881D01*
X-276205Y-63690D01*
X-275986Y-63553D01*
X-275767Y-63443D01*
X-275548Y-63375D01*
X-275343Y-63334D01*
X-275193Y-63320D01*
X-275125Y-63307D01*
X-275043D01*
X-274810Y-63320D01*
D02*
G37*
G36*
X-240922Y-71755D02*
X-242125D01*
X-243273Y-66027D01*
X-244408Y-71755D01*
X-245611D01*
X-247525Y-63443D01*
X-246048D01*
X-245010Y-69595D01*
X-243807Y-63443D01*
X-242727D01*
X-241524Y-69595D01*
X-240485Y-63443D01*
X-239008D01*
X-240922Y-71755D01*
D02*
G37*
G36*
X-214990Y-60012D02*
X-214690Y-60053D01*
X-214430Y-60108D01*
X-214211Y-60176D01*
X-214033Y-60245D01*
X-213897Y-60299D01*
X-213815Y-60340D01*
X-213801Y-60354D01*
X-213787D01*
X-213569Y-60491D01*
X-213377Y-60655D01*
X-213213Y-60819D01*
X-213076Y-60983D01*
X-212967Y-61133D01*
X-212899Y-61256D01*
X-212844Y-61338D01*
X-212830Y-61352D01*
Y-61365D01*
X-212721Y-61625D01*
X-212639Y-61899D01*
X-212584Y-62172D01*
X-212543Y-62418D01*
X-212516Y-62651D01*
Y-62733D01*
X-212502Y-62815D01*
Y-62883D01*
Y-62938D01*
Y-62965D01*
Y-62979D01*
Y-69062D01*
X-212516Y-69376D01*
X-212557Y-69677D01*
X-212612Y-69937D01*
X-212666Y-70155D01*
X-212721Y-70347D01*
X-212776Y-70483D01*
X-212803Y-70525D01*
X-212817Y-70565D01*
X-212830Y-70579D01*
Y-70593D01*
X-212967Y-70811D01*
X-213131Y-71003D01*
X-213281Y-71167D01*
X-213446Y-71304D01*
X-213582Y-71413D01*
X-213692Y-71481D01*
X-213774Y-71536D01*
X-213801Y-71550D01*
X-214047Y-71659D01*
X-214320Y-71727D01*
X-214566Y-71782D01*
X-214813Y-71823D01*
X-215031Y-71850D01*
X-215113D01*
X-215195Y-71864D01*
X-215346D01*
X-215660Y-71850D01*
X-215961Y-71809D01*
X-216221Y-71755D01*
X-216439Y-71686D01*
X-216617Y-71632D01*
X-216754Y-71577D01*
X-216836Y-71536D01*
X-216849Y-71522D01*
X-216863D01*
X-217082Y-71386D01*
X-217273Y-71222D01*
X-217437Y-71058D01*
X-217574Y-70894D01*
X-217683Y-70743D01*
X-217765Y-70620D01*
X-217806Y-70538D01*
X-217820Y-70525D01*
Y-70511D01*
X-217929Y-70251D01*
X-218011Y-69978D01*
X-218066Y-69704D01*
X-218107Y-69458D01*
X-218134Y-69226D01*
Y-69130D01*
X-218148Y-69062D01*
Y-68993D01*
Y-68939D01*
Y-68911D01*
Y-68898D01*
Y-65494D01*
X-215305D01*
Y-66929D01*
X-216617D01*
Y-68911D01*
Y-69089D01*
X-216590Y-69239D01*
X-216576Y-69376D01*
X-216549Y-69499D01*
X-216521Y-69595D01*
X-216494Y-69677D01*
X-216480Y-69718D01*
X-216467Y-69732D01*
X-216398Y-69841D01*
X-216330Y-69950D01*
X-216262Y-70032D01*
X-216193Y-70101D01*
X-216125Y-70169D01*
X-216070Y-70210D01*
X-216043Y-70224D01*
X-216029Y-70237D01*
X-215920Y-70292D01*
X-215797Y-70333D01*
X-215578Y-70374D01*
X-215482Y-70388D01*
X-215414Y-70401D01*
X-215346D01*
X-215195Y-70388D01*
X-215059Y-70374D01*
X-214936Y-70347D01*
X-214840Y-70319D01*
X-214758Y-70292D01*
X-214690Y-70278D01*
X-214649Y-70251D01*
X-214635D01*
X-214430Y-70114D01*
X-214362Y-70032D01*
X-214293Y-69950D01*
X-214238Y-69896D01*
X-214197Y-69841D01*
X-214184Y-69800D01*
X-214170Y-69786D01*
X-214115Y-69663D01*
X-214088Y-69540D01*
X-214061Y-69431D01*
X-214033Y-69308D01*
Y-69212D01*
X-214020Y-69130D01*
Y-69075D01*
Y-69062D01*
Y-62979D01*
X-214033Y-62801D01*
X-214047Y-62651D01*
X-214074Y-62514D01*
X-214102Y-62391D01*
X-214129Y-62295D01*
X-214143Y-62227D01*
X-214170Y-62186D01*
Y-62172D01*
X-214238Y-62049D01*
X-214307Y-61940D01*
X-214375Y-61858D01*
X-214443Y-61789D01*
X-214512Y-61721D01*
X-214566Y-61680D01*
X-214594Y-61666D01*
X-214608Y-61653D01*
X-214717Y-61598D01*
X-214840Y-61543D01*
X-215059Y-61502D01*
X-215154Y-61489D01*
X-215236Y-61475D01*
X-215428D01*
X-215551Y-61502D01*
X-215647Y-61530D01*
X-215742Y-61557D01*
X-215810Y-61584D01*
X-215865Y-61612D01*
X-215893Y-61625D01*
X-215906Y-61639D01*
X-216002Y-61707D01*
X-216070Y-61789D01*
X-216193Y-61940D01*
X-216234Y-62022D01*
X-216262Y-62076D01*
X-216289Y-62117D01*
Y-62131D01*
X-216371Y-62377D01*
X-216398Y-62514D01*
X-216412Y-62637D01*
X-216426Y-62733D01*
Y-62815D01*
Y-62883D01*
Y-62897D01*
Y-63471D01*
X-218052D01*
Y-62897D01*
X-218039Y-62568D01*
X-217998Y-62268D01*
X-217943Y-61994D01*
X-217888Y-61776D01*
X-217834Y-61584D01*
X-217779Y-61448D01*
X-217752Y-61407D01*
X-217738Y-61365D01*
X-217724Y-61352D01*
Y-61338D01*
X-217588Y-61106D01*
X-217437Y-60901D01*
X-217287Y-60737D01*
X-217137Y-60586D01*
X-217000Y-60477D01*
X-216877Y-60409D01*
X-216808Y-60354D01*
X-216795Y-60340D01*
X-216781D01*
X-216535Y-60231D01*
X-216289Y-60149D01*
X-216043Y-60081D01*
X-215810Y-60040D01*
X-215605Y-60012D01*
X-215523D01*
X-215455Y-59999D01*
X-215305D01*
X-214990Y-60012D01*
D02*
G37*
G36*
X-298815Y-69554D02*
X-298828Y-69964D01*
X-298883Y-70306D01*
X-298965Y-70606D01*
X-299047Y-70853D01*
X-299129Y-71044D01*
X-299211Y-71181D01*
X-299238Y-71222D01*
X-299266Y-71263D01*
X-299279Y-71276D01*
Y-71290D01*
X-299471Y-71481D01*
X-299703Y-71618D01*
X-299936Y-71727D01*
X-300154Y-71796D01*
X-300359Y-71837D01*
X-300523Y-71851D01*
X-300592Y-71864D01*
X-300674D01*
X-300893Y-71851D01*
X-301084Y-71809D01*
X-301262Y-71755D01*
X-301412Y-71686D01*
X-301521Y-71632D01*
X-301617Y-71577D01*
X-301672Y-71536D01*
X-301685Y-71522D01*
X-301836Y-71386D01*
X-301959Y-71222D01*
X-302068Y-71044D01*
X-302164Y-70880D01*
X-302205Y-70781D01*
Y-69458D01*
X-302191Y-69622D01*
X-302164Y-69759D01*
X-302136Y-69882D01*
X-302096Y-69991D01*
X-302041Y-70060D01*
X-302013Y-70128D01*
X-301986Y-70155D01*
X-301973Y-70169D01*
X-301877Y-70251D01*
X-301767Y-70306D01*
X-301644Y-70347D01*
X-301535Y-70374D01*
X-301439Y-70388D01*
X-301357Y-70401D01*
X-301275D01*
X-301111Y-70388D01*
X-300975Y-70360D01*
X-300852Y-70333D01*
X-300742Y-70278D01*
X-300674Y-70237D01*
X-300606Y-70210D01*
X-300578Y-70183D01*
X-300565Y-70169D01*
X-300483Y-70073D01*
X-300428Y-69964D01*
X-300387Y-69855D01*
X-300359Y-69745D01*
X-300346Y-69636D01*
X-300332Y-69554D01*
Y-69499D01*
Y-69485D01*
Y-63443D01*
X-298815D01*
Y-69554D01*
D02*
G37*
G36*
X-280647Y-63320D02*
X-280401Y-63361D01*
X-280169Y-63416D01*
X-279977Y-63471D01*
X-279813Y-63539D01*
X-279690Y-63594D01*
X-279622Y-63635D01*
X-279595Y-63648D01*
X-279403Y-63785D01*
X-279226Y-63949D01*
X-279089Y-64113D01*
X-278966Y-64277D01*
X-278870Y-64414D01*
X-278802Y-64537D01*
X-278761Y-64619D01*
X-278747Y-64633D01*
Y-64646D01*
X-278651Y-64906D01*
X-278583Y-65166D01*
X-278528Y-65425D01*
X-278501Y-65672D01*
X-278474Y-65890D01*
Y-65986D01*
X-278460Y-66068D01*
Y-66123D01*
Y-66177D01*
Y-66205D01*
Y-66218D01*
Y-69130D01*
X-278474Y-69445D01*
X-278501Y-69732D01*
X-278556Y-69991D01*
X-278610Y-70196D01*
X-278665Y-70374D01*
X-278720Y-70511D01*
X-278747Y-70593D01*
X-278761Y-70606D01*
Y-70620D01*
X-278884Y-70839D01*
X-279021Y-71030D01*
X-279171Y-71181D01*
X-279308Y-71317D01*
X-279431Y-71413D01*
X-279526Y-71495D01*
X-279595Y-71536D01*
X-279622Y-71550D01*
X-279841Y-71659D01*
X-280073Y-71727D01*
X-280306Y-71782D01*
X-280524Y-71823D01*
X-280702Y-71851D01*
X-280852Y-71864D01*
X-280989D01*
X-281208Y-71851D01*
X-281399Y-71837D01*
X-281768Y-71768D01*
X-282083Y-71673D01*
X-282219Y-71618D01*
X-282342Y-71550D01*
X-282452Y-71495D01*
X-282547Y-71440D01*
X-282629Y-71386D01*
X-282684Y-71345D01*
X-282739Y-71304D01*
X-282780Y-71276D01*
X-282793Y-71249D01*
X-282807D01*
X-282916Y-71126D01*
X-283026Y-71003D01*
X-283176Y-70716D01*
X-283299Y-70415D01*
X-283368Y-70142D01*
X-283422Y-69882D01*
X-283436Y-69773D01*
Y-69677D01*
X-283450Y-69595D01*
Y-69540D01*
Y-69499D01*
Y-69485D01*
Y-69431D01*
X-281987D01*
Y-69485D01*
X-281973Y-69650D01*
X-281946Y-69800D01*
X-281905Y-69923D01*
X-281864Y-70019D01*
X-281809Y-70101D01*
X-281768Y-70155D01*
X-281741Y-70196D01*
X-281727Y-70210D01*
X-281618Y-70292D01*
X-281508Y-70347D01*
X-281385Y-70401D01*
X-281262Y-70429D01*
X-281153Y-70442D01*
X-281071Y-70456D01*
X-280989D01*
X-280811Y-70442D01*
X-280647Y-70401D01*
X-280511Y-70347D01*
X-280401Y-70278D01*
X-280319Y-70224D01*
X-280251Y-70169D01*
X-280210Y-70128D01*
X-280196Y-70114D01*
X-280100Y-69978D01*
X-280032Y-69827D01*
X-279991Y-69663D01*
X-279964Y-69513D01*
X-279937Y-69376D01*
X-279923Y-69267D01*
Y-69199D01*
Y-69171D01*
Y-68201D01*
X-279526D01*
Y-66943D01*
X-279923D01*
Y-68201D01*
X-283422D01*
Y-66000D01*
X-283409Y-65699D01*
X-283381Y-65412D01*
X-283327Y-65166D01*
X-283272Y-64961D01*
X-283217Y-64783D01*
X-283163Y-64660D01*
X-283135Y-64578D01*
X-283122Y-64551D01*
X-282998Y-64332D01*
X-282862Y-64141D01*
X-282725Y-63990D01*
X-282588Y-63854D01*
X-282465Y-63758D01*
X-282370Y-63676D01*
X-282301Y-63635D01*
X-282274Y-63621D01*
X-282055Y-63512D01*
X-281823Y-63443D01*
X-281604Y-63389D01*
X-281399Y-63348D01*
X-281208Y-63320D01*
X-281071Y-63307D01*
X-280934D01*
X-280647Y-63320D01*
D02*
G37*
G36*
X-181102Y-61557D02*
X-183167D01*
Y-71755D01*
X-184684D01*
Y-61557D01*
X-183167D01*
Y-61065D01*
X-184684D01*
Y-61557D01*
X-186748D01*
Y-60122D01*
X-181102D01*
Y-61557D01*
D02*
G37*
G36*
X-187623Y-71755D02*
X-189140D01*
Y-63443D01*
X-187623D01*
Y-71755D01*
D02*
G37*
G36*
X-193925Y-63320D02*
X-193706Y-63361D01*
X-193515Y-63430D01*
X-193337Y-63498D01*
X-193200Y-63566D01*
X-193105Y-63635D01*
X-193036Y-63676D01*
X-193009Y-63689D01*
X-192831Y-63854D01*
X-192681Y-64031D01*
X-192544Y-64223D01*
X-192448Y-64414D01*
X-192407Y-64484D01*
Y-63443D01*
X-190890D01*
Y-71755D01*
X-192407D01*
Y-66041D01*
X-192243Y-64851D01*
Y-64838D01*
X-192257Y-64810D01*
X-192271Y-64783D01*
X-192298Y-64728D01*
X-192353Y-64578D01*
X-192407Y-64484D01*
Y-66041D01*
X-192421Y-65808D01*
X-192448Y-65603D01*
X-192490Y-65439D01*
X-192544Y-65302D01*
X-192585Y-65193D01*
X-192626Y-65111D01*
X-192654Y-65070D01*
X-192667Y-65056D01*
X-192777Y-64947D01*
X-192900Y-64865D01*
X-193023Y-64810D01*
X-193146Y-64769D01*
X-193255Y-64742D01*
X-193351Y-64728D01*
X-193433D01*
X-193597Y-64742D01*
X-193747Y-64783D01*
X-193870Y-64824D01*
X-193966Y-64879D01*
X-194048Y-64947D01*
X-194103Y-64988D01*
X-194130Y-65029D01*
X-194143Y-65043D01*
X-194226Y-65180D01*
X-194280Y-65330D01*
X-194335Y-65480D01*
X-194362Y-65644D01*
X-194376Y-65781D01*
X-194390Y-65890D01*
Y-65972D01*
Y-65986D01*
Y-66000D01*
Y-71755D01*
X-195907D01*
Y-66041D01*
X-195702Y-64892D01*
Y-64879D01*
X-195716Y-64851D01*
X-195729Y-64810D01*
X-195743Y-64756D01*
X-195804Y-64634D01*
X-195770Y-64510D01*
X-195729Y-64400D01*
X-195716Y-64346D01*
X-195702Y-64318D01*
X-195620Y-64140D01*
X-195524Y-63990D01*
X-195429Y-63854D01*
X-195319Y-63758D01*
X-195237Y-63676D01*
X-195169Y-63607D01*
X-195114Y-63580D01*
X-195100Y-63566D01*
X-194950Y-63484D01*
X-194786Y-63416D01*
X-194636Y-63375D01*
X-194485Y-63334D01*
X-194349Y-63320D01*
X-194253Y-63307D01*
X-194157D01*
X-193925Y-63320D01*
D02*
G37*
G36*
X-226049Y-71755D02*
X-227567D01*
Y-66041D01*
X-227403Y-64851D01*
Y-64838D01*
X-227416Y-64810D01*
X-227430Y-64783D01*
X-227457Y-64728D01*
X-227512Y-64578D01*
X-227567Y-64484D01*
Y-63443D01*
X-226049D01*
Y-71755D01*
D02*
G37*
G36*
X-255494D02*
X-257012D01*
Y-66041D01*
X-256848Y-64851D01*
Y-64838D01*
X-256861Y-64810D01*
X-256875Y-64783D01*
X-256903Y-64728D01*
X-256957Y-64578D01*
X-257012Y-64484D01*
Y-63443D01*
X-255494D01*
Y-71755D01*
D02*
G37*
G36*
X-268713Y-71755D02*
X-270313D01*
Y-70155D01*
X-268713D01*
Y-71755D01*
D02*
G37*
G36*
X-271789D02*
X-273306D01*
Y-66041D01*
X-273143Y-64851D01*
Y-64838D01*
X-273156Y-64810D01*
X-273170Y-64783D01*
X-273197Y-64728D01*
X-273252Y-64578D01*
X-273306Y-64484D01*
Y-63443D01*
X-271789D01*
Y-71755D01*
D02*
G37*
G36*
X-289054D02*
X-290654D01*
Y-70155D01*
X-289054D01*
Y-71755D01*
D02*
G37*
G36*
X-302205Y-69458D02*
X-302328Y-70483D01*
Y-70497D01*
X-302314Y-70511D01*
X-302287Y-70593D01*
X-302232Y-70716D01*
X-302205Y-70781D01*
Y-71755D01*
X-303736D01*
Y-63443D01*
X-302205D01*
Y-69458D01*
D02*
G37*
G36*
X-284407Y-64892D02*
X-285254D01*
Y-69595D01*
X-285268Y-69978D01*
X-285322Y-70319D01*
X-285404Y-70606D01*
X-285487Y-70839D01*
X-285568Y-71017D01*
X-285650Y-71140D01*
X-285705Y-71222D01*
X-285719Y-71249D01*
X-285924Y-71427D01*
X-286156Y-71563D01*
X-286402Y-71645D01*
X-286648Y-71714D01*
X-286867Y-71755D01*
X-286963Y-71768D01*
X-287045D01*
X-287113Y-71782D01*
X-288002D01*
Y-70360D01*
X-287387D01*
X-287277Y-70347D01*
X-287195Y-70333D01*
X-287113Y-70306D01*
X-287045Y-70265D01*
X-287004Y-70224D01*
X-286963Y-70196D01*
X-286949Y-70183D01*
X-286935Y-70169D01*
X-286881Y-70087D01*
X-286854Y-69991D01*
X-286799Y-69800D01*
Y-69718D01*
X-286785Y-69650D01*
Y-69609D01*
Y-69595D01*
Y-64892D01*
X-285254D01*
Y-63443D01*
X-284407D01*
Y-64892D01*
D02*
G37*
G36*
X-205613Y-63348D02*
X-205257Y-63416D01*
X-204957Y-63512D01*
X-204724Y-63621D01*
X-204533Y-63744D01*
X-204396Y-63840D01*
X-204314Y-63908D01*
X-204300Y-63922D01*
X-204287Y-63936D01*
X-204191Y-64059D01*
X-204095Y-64195D01*
X-203959Y-64482D01*
X-203849Y-64783D01*
X-203781Y-65084D01*
X-203740Y-65357D01*
X-203726Y-65480D01*
Y-65576D01*
X-203713Y-65658D01*
Y-65726D01*
Y-65767D01*
Y-65781D01*
Y-69185D01*
Y-69431D01*
X-203740Y-69663D01*
X-203753Y-69868D01*
X-203795Y-70073D01*
X-203822Y-70251D01*
X-203863Y-70415D01*
X-203904Y-70565D01*
X-203959Y-70702D01*
X-204000Y-70825D01*
X-204041Y-70921D01*
X-204082Y-71017D01*
X-204123Y-71085D01*
X-204150Y-71140D01*
X-204177Y-71181D01*
X-204191Y-71194D01*
Y-71208D01*
X-204287Y-71317D01*
X-204396Y-71427D01*
X-204615Y-71591D01*
X-204861Y-71700D01*
X-205093Y-71782D01*
X-205298Y-71823D01*
X-205394Y-71850D01*
X-205476D01*
X-205531Y-71864D01*
X-205626D01*
X-205913Y-71850D01*
X-206159Y-71796D01*
X-206364Y-71714D01*
X-206542Y-71632D01*
X-206679Y-71550D01*
X-206775Y-71468D01*
X-206843Y-71413D01*
X-206857Y-71399D01*
X-207007Y-71208D01*
X-207130Y-70976D01*
X-207179Y-70871D01*
X-207171Y-70853D01*
X-207089Y-70620D01*
X-207034Y-70333D01*
X-207021Y-70005D01*
X-208292Y-69554D01*
Y-65795D01*
Y-65576D01*
X-208265Y-65357D01*
X-208237Y-65166D01*
X-208196Y-64988D01*
X-208155Y-64824D01*
X-208114Y-64674D01*
X-208060Y-64537D01*
X-208005Y-64414D01*
X-207950Y-64305D01*
X-207896Y-64209D01*
X-207855Y-64127D01*
X-207814Y-64059D01*
X-207772Y-64017D01*
X-207745Y-63977D01*
X-207732Y-63949D01*
X-207718D01*
X-207609Y-63840D01*
X-207486Y-63744D01*
X-207212Y-63580D01*
X-206925Y-63471D01*
X-206652Y-63402D01*
X-206405Y-63348D01*
X-206296Y-63334D01*
X-206201D01*
X-206118Y-63320D01*
X-205804D01*
X-205613Y-63348D01*
D02*
G37*
G36*
X-221798Y-63320D02*
X-221552Y-63348D01*
X-221333Y-63389D01*
X-221142Y-63443D01*
X-220991Y-63498D01*
X-220868Y-63539D01*
X-220800Y-63566D01*
X-220773Y-63580D01*
X-220581Y-63689D01*
X-220417Y-63826D01*
X-220281Y-63949D01*
X-220158Y-64086D01*
X-220075Y-64209D01*
X-220007Y-64305D01*
X-219966Y-64359D01*
X-219953Y-64387D01*
X-219857Y-64592D01*
X-219789Y-64810D01*
X-219734Y-65029D01*
X-219706Y-65234D01*
X-219679Y-65412D01*
X-219665Y-65549D01*
Y-65603D01*
Y-65644D01*
Y-65658D01*
Y-65672D01*
Y-69472D01*
X-219679Y-69745D01*
X-219706Y-70005D01*
X-219761Y-70224D01*
X-219816Y-70415D01*
X-219857Y-70565D01*
X-219912Y-70688D01*
X-219939Y-70757D01*
X-219953Y-70784D01*
X-220075Y-70976D01*
X-220199Y-71140D01*
X-220335Y-71276D01*
X-220472Y-71386D01*
X-220595Y-71481D01*
X-220691Y-71536D01*
X-220745Y-71577D01*
X-220773Y-71591D01*
X-220991Y-71686D01*
X-221210Y-71755D01*
X-221429Y-71796D01*
X-221634Y-71823D01*
X-221812Y-71850D01*
X-221948Y-71864D01*
X-222071D01*
X-222345Y-71850D01*
X-222591Y-71823D01*
X-222810Y-71782D01*
X-223001Y-71727D01*
X-223151Y-71673D01*
X-223261Y-71632D01*
X-223329Y-71604D01*
X-223356Y-71591D01*
X-223548Y-71481D01*
X-223712Y-71345D01*
X-223849Y-71222D01*
X-223958Y-71085D01*
X-224054Y-70962D01*
X-224108Y-70866D01*
X-224149Y-70811D01*
X-224163Y-70784D01*
X-224259Y-70579D01*
X-224327Y-70360D01*
X-224368Y-70142D01*
X-224409Y-69937D01*
X-224423Y-69759D01*
X-224436Y-69622D01*
Y-69568D01*
Y-69526D01*
Y-69513D01*
Y-69499D01*
Y-65672D01*
X-224423Y-65398D01*
X-224395Y-65152D01*
X-224354Y-64933D01*
X-224300Y-64742D01*
X-224245Y-64592D01*
X-224204Y-64482D01*
X-224177Y-64414D01*
X-224163Y-64387D01*
X-224054Y-64195D01*
X-223917Y-64031D01*
X-223794Y-63894D01*
X-223657Y-63785D01*
X-223534Y-63689D01*
X-223438Y-63635D01*
X-223384Y-63594D01*
X-223356Y-63580D01*
X-223151Y-63484D01*
X-222933Y-63416D01*
X-222714Y-63375D01*
X-222509Y-63334D01*
X-222331Y-63320D01*
X-222194Y-63307D01*
X-222071D01*
X-221798Y-63320D01*
D02*
G37*
G36*
X-236206Y-64450D02*
X-236124Y-64305D01*
X-235987Y-64127D01*
X-235864Y-63963D01*
X-235755Y-63854D01*
X-235673Y-63758D01*
X-235618Y-63703D01*
X-235591Y-63689D01*
X-235413Y-63566D01*
X-235236Y-63471D01*
X-235058Y-63402D01*
X-234894Y-63348D01*
X-234757Y-63320D01*
X-234648Y-63307D01*
X-234552D01*
X-234347Y-63320D01*
X-234156Y-63348D01*
X-233992Y-63402D01*
X-233841Y-63457D01*
X-233732Y-63512D01*
X-233636Y-63566D01*
X-233581Y-63594D01*
X-233568Y-63607D01*
X-233418Y-63731D01*
X-233294Y-63867D01*
X-233185Y-64017D01*
X-233103Y-64168D01*
X-233035Y-64291D01*
X-232980Y-64400D01*
X-232953Y-64469D01*
X-232939Y-64482D01*
Y-64496D01*
X-232871Y-64715D01*
X-232816Y-64947D01*
X-232775Y-65180D01*
X-232748Y-65398D01*
X-232734Y-65590D01*
X-232720Y-65740D01*
Y-65795D01*
Y-65836D01*
Y-65863D01*
Y-65877D01*
Y-69417D01*
X-232734Y-69704D01*
X-232761Y-69964D01*
X-232789Y-70196D01*
X-232830Y-70388D01*
X-232871Y-70552D01*
X-232912Y-70675D01*
X-232925Y-70743D01*
X-232939Y-70771D01*
X-233035Y-70962D01*
X-233130Y-71126D01*
X-233240Y-71276D01*
X-233335Y-71386D01*
X-233431Y-71481D01*
X-233500Y-71550D01*
X-233554Y-71591D01*
X-233568Y-71604D01*
X-233732Y-71700D01*
X-233896Y-71768D01*
X-234060Y-71823D01*
X-234210Y-71850D01*
X-234347Y-71878D01*
X-234456Y-71891D01*
X-234552D01*
X-234785Y-71878D01*
X-234990Y-71837D01*
X-235167Y-71768D01*
X-235331Y-71700D01*
X-235454Y-71645D01*
X-235550Y-71577D01*
X-235618Y-71536D01*
X-235632Y-71522D01*
X-235796Y-71372D01*
X-235933Y-71194D01*
X-236042Y-71017D01*
X-236138Y-70839D01*
X-236206Y-70714D01*
Y-71755D01*
X-237723D01*
Y-60122D01*
X-236206D01*
Y-64450D01*
D02*
G37*
G36*
X-205462Y-60258D02*
X-205189Y-60272D01*
X-204929Y-60313D01*
X-204697Y-60354D01*
X-204464Y-60395D01*
X-204259Y-60436D01*
X-204068Y-60491D01*
X-203904Y-60545D01*
X-203753Y-60586D01*
X-203617Y-60627D01*
X-203521Y-60668D01*
X-203426Y-60696D01*
X-203371Y-60723D01*
X-203330Y-60750D01*
X-203316D01*
X-202933Y-60969D01*
X-202592Y-61215D01*
X-202305Y-61461D01*
X-202072Y-61721D01*
X-201881Y-61940D01*
X-201812Y-62035D01*
X-201758Y-62131D01*
X-201703Y-62199D01*
X-201676Y-62254D01*
X-201662Y-62281D01*
X-201648Y-62295D01*
X-201457Y-62691D01*
X-201320Y-63129D01*
X-201225Y-63553D01*
X-201156Y-63949D01*
X-201129Y-64140D01*
X-201115Y-64305D01*
X-201102Y-64455D01*
Y-64578D01*
X-201088Y-64687D01*
Y-64769D01*
Y-64824D01*
Y-64838D01*
Y-65343D01*
Y-65836D01*
Y-66300D01*
Y-66519D01*
Y-66711D01*
Y-66902D01*
Y-67066D01*
Y-67216D01*
Y-67339D01*
Y-67435D01*
Y-67503D01*
Y-67558D01*
Y-67572D01*
Y-68077D01*
Y-68570D01*
Y-69034D01*
Y-69253D01*
Y-69445D01*
Y-69636D01*
Y-69800D01*
Y-69950D01*
Y-70073D01*
Y-70169D01*
Y-70237D01*
Y-70292D01*
Y-70306D01*
X-201115Y-70839D01*
X-201143Y-71085D01*
X-201170Y-71317D01*
X-201225Y-71536D01*
X-201266Y-71741D01*
X-201320Y-71919D01*
X-201375Y-72097D01*
X-201416Y-72247D01*
X-201471Y-72384D01*
X-201525Y-72507D01*
X-201566Y-72602D01*
X-201594Y-72684D01*
X-201621Y-72739D01*
X-201648Y-72766D01*
Y-72780D01*
X-201881Y-73135D01*
X-202140Y-73450D01*
X-202414Y-73710D01*
X-202687Y-73915D01*
X-202933Y-74079D01*
X-203029Y-74147D01*
X-203125Y-74202D01*
X-203193Y-74243D01*
X-203261Y-74270D01*
X-203289Y-74297D01*
X-203302D01*
X-203740Y-74461D01*
X-204191Y-74584D01*
X-204656Y-74680D01*
X-205080Y-74735D01*
X-205285Y-74762D01*
X-205462Y-74776D01*
X-205626Y-74790D01*
X-205763D01*
X-205886Y-74803D01*
X-208429D01*
Y-73491D01*
X-206036D01*
X-205613Y-73477D01*
X-205230Y-73436D01*
X-204888Y-73382D01*
X-204738Y-73340D01*
X-204601Y-73313D01*
X-204478Y-73286D01*
X-204369Y-73245D01*
X-204273Y-73217D01*
X-204191Y-73190D01*
X-204136Y-73163D01*
X-204095Y-73149D01*
X-204068Y-73135D01*
X-204054D01*
X-203781Y-72985D01*
X-203535Y-72821D01*
X-203330Y-72643D01*
X-203152Y-72466D01*
X-203029Y-72315D01*
X-202933Y-72179D01*
X-202865Y-72097D01*
X-202851Y-72083D01*
Y-72069D01*
X-202715Y-71782D01*
X-202619Y-71495D01*
X-202551Y-71194D01*
X-202510Y-70921D01*
X-202482Y-70675D01*
X-202469Y-70565D01*
X-202455Y-70483D01*
Y-70401D01*
Y-70347D01*
Y-70319D01*
Y-70306D01*
Y-69786D01*
Y-69294D01*
Y-68829D01*
Y-68611D01*
Y-68406D01*
Y-68228D01*
Y-68064D01*
Y-67914D01*
Y-67790D01*
Y-67695D01*
Y-67613D01*
Y-67572D01*
Y-67558D01*
Y-67052D01*
Y-66560D01*
Y-66095D01*
Y-65877D01*
Y-65685D01*
Y-65508D01*
Y-65343D01*
Y-65193D01*
Y-65070D01*
Y-64974D01*
Y-64892D01*
Y-64851D01*
Y-64838D01*
X-202469Y-64441D01*
X-202523Y-64086D01*
X-202578Y-63771D01*
X-202660Y-63512D01*
X-202687Y-63402D01*
X-202728Y-63293D01*
X-202756Y-63211D01*
X-202797Y-63143D01*
X-202810Y-63074D01*
X-202838Y-63033D01*
X-202851Y-63020D01*
Y-63006D01*
X-203015Y-62746D01*
X-203220Y-62514D01*
X-203412Y-62322D01*
X-203617Y-62158D01*
X-203795Y-62035D01*
X-203931Y-61953D01*
X-203986Y-61926D01*
X-204027Y-61899D01*
X-204054Y-61885D01*
X-204068D01*
X-204382Y-61762D01*
X-204710Y-61666D01*
X-205052Y-61598D01*
X-205353Y-61543D01*
X-205503Y-61530D01*
X-205626Y-61516D01*
X-205749D01*
X-205845Y-61502D01*
X-206036D01*
X-206447Y-61516D01*
X-206816Y-61557D01*
X-207144Y-61625D01*
X-207417Y-61694D01*
X-207540Y-61735D01*
X-207649Y-61762D01*
X-207732Y-61789D01*
X-207814Y-61830D01*
X-207868Y-61844D01*
X-207909Y-61871D01*
X-207937Y-61885D01*
X-207950D01*
X-208224Y-62035D01*
X-208470Y-62213D01*
X-208675Y-62405D01*
X-208839Y-62582D01*
X-208976Y-62746D01*
X-209071Y-62883D01*
X-209099Y-62938D01*
X-209126Y-62979D01*
X-209139Y-62992D01*
Y-63006D01*
X-209276Y-63307D01*
X-209372Y-63607D01*
X-209454Y-63922D01*
X-209495Y-64209D01*
X-209522Y-64455D01*
X-209536Y-64564D01*
X-209550Y-64660D01*
Y-64728D01*
Y-64783D01*
Y-64824D01*
Y-64838D01*
Y-69677D01*
Y-69841D01*
X-209522Y-69991D01*
X-209509Y-70114D01*
X-209481Y-70210D01*
X-209454Y-70292D01*
X-209427Y-70347D01*
X-209413Y-70374D01*
X-209399Y-70388D01*
X-209331Y-70456D01*
X-209263Y-70511D01*
X-209180Y-70552D01*
X-209112Y-70579D01*
X-209044Y-70593D01*
X-208989Y-70606D01*
X-208934D01*
X-208825Y-70593D01*
X-208716Y-70565D01*
X-208634Y-70524D01*
X-208565Y-70470D01*
X-208511Y-70429D01*
X-208470Y-70388D01*
X-208456Y-70360D01*
X-208442Y-70347D01*
X-208388Y-70237D01*
X-208360Y-70101D01*
X-208306Y-69841D01*
Y-69732D01*
X-208292Y-69636D01*
Y-69745D01*
X-207445Y-69978D01*
Y-69991D01*
X-207431Y-70019D01*
Y-70073D01*
X-207417Y-70128D01*
X-207403Y-70210D01*
X-207376Y-70306D01*
X-207321Y-70511D01*
X-207239Y-70743D01*
X-207179Y-70871D01*
X-207253Y-71044D01*
X-207335Y-71208D01*
X-207417Y-71317D01*
X-207472Y-71372D01*
X-207486Y-71399D01*
X-207691Y-71550D01*
X-207909Y-71673D01*
X-208142Y-71755D01*
X-208374Y-71809D01*
X-208579Y-71837D01*
X-208661Y-71850D01*
X-208743D01*
X-208811Y-71864D01*
X-208893D01*
X-209235Y-71837D01*
X-209536Y-71782D01*
X-209796Y-71686D01*
X-210014Y-71577D01*
X-210178Y-71481D01*
X-210288Y-71386D01*
X-210356Y-71331D01*
X-210384Y-71304D01*
X-210479Y-71194D01*
X-210561Y-71058D01*
X-210684Y-70784D01*
X-210780Y-70497D01*
X-210835Y-70210D01*
X-210876Y-69950D01*
X-210889Y-69841D01*
Y-69745D01*
X-210903Y-69663D01*
Y-69609D01*
Y-69568D01*
Y-69554D01*
Y-64838D01*
X-210876Y-64291D01*
X-210848Y-64045D01*
X-210821Y-63799D01*
X-210780Y-63580D01*
X-210725Y-63361D01*
X-210671Y-63170D01*
X-210630Y-62992D01*
X-210575Y-62842D01*
X-210520Y-62705D01*
X-210479Y-62582D01*
X-210424Y-62473D01*
X-210397Y-62405D01*
X-210370Y-62336D01*
X-210343Y-62309D01*
Y-62295D01*
X-210110Y-61940D01*
X-209850Y-61625D01*
X-209577Y-61352D01*
X-209317Y-61133D01*
X-209071Y-60969D01*
X-208976Y-60901D01*
X-208880Y-60846D01*
X-208811Y-60805D01*
X-208757Y-60778D01*
X-208716Y-60750D01*
X-208702D01*
X-208278Y-60573D01*
X-207827Y-60450D01*
X-207390Y-60354D01*
X-206966Y-60299D01*
X-206775Y-60272D01*
X-206597Y-60258D01*
X-206433Y-60245D01*
X-206296D01*
X-206187Y-60231D01*
X-206036D01*
X-205462Y-60258D01*
D02*
G37*
%LPC*%
G36*
X-205339Y-40354D02*
X-205900D01*
Y-41803D01*
X-207308D01*
X-207417Y-41831D01*
X-207526Y-41858D01*
X-207609Y-41885D01*
X-207691Y-41913D01*
X-207745Y-41940D01*
X-207772Y-41954D01*
X-207786Y-41967D01*
X-207882Y-42036D01*
X-207964Y-42104D01*
X-208087Y-42268D01*
X-208142Y-42337D01*
X-208169Y-42391D01*
X-208196Y-42432D01*
Y-42446D01*
X-208251Y-42569D01*
X-208278Y-42692D01*
X-208306Y-42815D01*
X-208333Y-42938D01*
Y-43034D01*
X-208347Y-43116D01*
Y-43184D01*
Y-43198D01*
Y-44715D01*
X-208333Y-44879D01*
X-208306Y-45030D01*
X-208251Y-45153D01*
X-208210Y-45262D01*
X-208155Y-45344D01*
X-208101Y-45399D01*
X-208073Y-45440D01*
X-208060Y-45453D01*
X-207937Y-45535D01*
X-207814Y-45590D01*
X-207677Y-45645D01*
X-207554Y-45672D01*
X-207431Y-45686D01*
X-207335Y-45699D01*
X-205900D01*
Y-41803D01*
X-205339D01*
Y-40354D01*
D02*
G37*
G36*
X-219542Y-42856D02*
Y-44934D01*
X-218818Y-46014D01*
X-218749Y-44127D01*
X-219542Y-42856D01*
D02*
G37*
G36*
X-226842Y-40067D02*
X-226924D01*
X-227102Y-40081D01*
X-227252Y-40122D01*
X-227375Y-40177D01*
X-227485Y-40245D01*
X-227567Y-40313D01*
X-227635Y-40368D01*
X-227662Y-40409D01*
X-227676Y-40423D01*
X-227772Y-40560D01*
X-227840Y-40723D01*
X-227881Y-40887D01*
X-227922Y-41052D01*
X-227936Y-41188D01*
X-227949Y-41311D01*
Y-41393D01*
Y-41407D01*
Y-41421D01*
Y-42323D01*
X-225913D01*
Y-41516D01*
X-225926Y-41270D01*
X-225954Y-41052D01*
X-225995Y-40874D01*
X-226049Y-40723D01*
X-226090Y-40600D01*
X-226131Y-40519D01*
X-226159Y-40464D01*
X-226172Y-40450D01*
X-226282Y-40327D01*
X-226405Y-40231D01*
X-226528Y-40163D01*
X-226651Y-40108D01*
X-226760Y-40081D01*
X-226842Y-40067D01*
D02*
G37*
G36*
X-280852Y-64687D02*
X-280934D01*
X-281112Y-64701D01*
X-281262Y-64742D01*
X-281385Y-64797D01*
X-281495Y-64865D01*
X-281577Y-64933D01*
X-281645Y-64988D01*
X-281673Y-65029D01*
X-281686Y-65043D01*
X-281782Y-65180D01*
X-281850Y-65343D01*
X-281891Y-65508D01*
X-281932Y-65672D01*
X-281946Y-65808D01*
X-281960Y-65931D01*
Y-66013D01*
Y-66027D01*
Y-66041D01*
Y-66943D01*
X-279923D01*
Y-66136D01*
X-279937Y-65890D01*
X-279964Y-65672D01*
X-280005Y-65494D01*
X-280060Y-65343D01*
X-280100Y-65220D01*
X-280141Y-65139D01*
X-280169Y-65084D01*
X-280183Y-65070D01*
X-280292Y-64947D01*
X-280415Y-64851D01*
X-280538Y-64783D01*
X-280661Y-64728D01*
X-280770Y-64701D01*
X-280852Y-64687D01*
D02*
G37*
G36*
X-205913Y-64687D02*
X-205995D01*
X-206159Y-64701D01*
X-206282Y-64728D01*
X-206405Y-64769D01*
X-206488Y-64810D01*
X-206570Y-64865D01*
X-206611Y-64906D01*
X-206638Y-64933D01*
X-206652Y-64947D01*
X-206720Y-65056D01*
X-206775Y-65166D01*
X-206816Y-65302D01*
X-206843Y-65425D01*
X-206857Y-65535D01*
X-206870Y-65631D01*
Y-65685D01*
Y-65713D01*
Y-69239D01*
X-206857Y-69472D01*
X-206843Y-69663D01*
X-206802Y-69827D01*
X-206761Y-69964D01*
X-206720Y-70073D01*
X-206693Y-70142D01*
X-206665Y-70196D01*
X-206652Y-70210D01*
X-206570Y-70319D01*
X-206460Y-70388D01*
X-206351Y-70442D01*
X-206241Y-70483D01*
X-206146Y-70511D01*
X-206064Y-70524D01*
X-205995D01*
X-205845Y-70511D01*
X-205722Y-70470D01*
X-205613Y-70429D01*
X-205517Y-70360D01*
X-205449Y-70306D01*
X-205394Y-70265D01*
X-205367Y-70224D01*
X-205353Y-70210D01*
X-205285Y-70073D01*
X-205230Y-69923D01*
X-205189Y-69759D01*
X-205162Y-69595D01*
X-205148Y-69458D01*
X-205134Y-69349D01*
Y-69267D01*
Y-69253D01*
Y-69239D01*
Y-65726D01*
X-205148Y-65549D01*
X-205175Y-65385D01*
X-205216Y-65248D01*
X-205271Y-65125D01*
X-205339Y-65029D01*
X-205408Y-64947D01*
X-205490Y-64865D01*
X-205572Y-64810D01*
X-205722Y-64742D01*
X-205859Y-64701D01*
X-205913Y-64687D01*
D02*
G37*
G36*
X-221989Y-64783D02*
X-222058D01*
X-222208Y-64797D01*
X-222331Y-64824D01*
X-222440Y-64865D01*
X-222522Y-64906D01*
X-222591Y-64961D01*
X-222645Y-65002D01*
X-222673Y-65029D01*
X-222687Y-65043D01*
X-222768Y-65139D01*
X-222823Y-65262D01*
X-222864Y-65371D01*
X-222892Y-65480D01*
X-222905Y-65590D01*
X-222919Y-65672D01*
Y-65726D01*
Y-65740D01*
Y-69431D01*
X-222905Y-69595D01*
X-222878Y-69745D01*
X-222850Y-69868D01*
X-222810Y-69964D01*
X-222755Y-70046D01*
X-222727Y-70101D01*
X-222700Y-70142D01*
X-222687Y-70155D01*
X-222591Y-70237D01*
X-222495Y-70292D01*
X-222386Y-70347D01*
X-222290Y-70374D01*
X-222194Y-70388D01*
X-222126Y-70401D01*
X-222058D01*
X-221907Y-70388D01*
X-221784Y-70360D01*
X-221675Y-70319D01*
X-221579Y-70265D01*
X-221511Y-70224D01*
X-221456Y-70183D01*
X-221429Y-70155D01*
X-221415Y-70142D01*
X-221347Y-70032D01*
X-221292Y-69923D01*
X-221251Y-69800D01*
X-221224Y-69691D01*
X-221210Y-69581D01*
X-221197Y-69499D01*
Y-69445D01*
Y-69431D01*
Y-65740D01*
X-221210Y-65576D01*
X-221237Y-65439D01*
X-221265Y-65316D01*
X-221320Y-65220D01*
X-221360Y-65139D01*
X-221388Y-65084D01*
X-221415Y-65056D01*
X-221429Y-65043D01*
X-221525Y-64961D01*
X-221620Y-64892D01*
X-221730Y-64851D01*
X-221825Y-64810D01*
X-221921Y-64797D01*
X-221989Y-64783D01*
D02*
G37*
G36*
X-236206Y-64450D02*
X-236247Y-64523D01*
X-236370Y-64769D01*
X-236206Y-65959D01*
Y-69294D01*
X-236315Y-70456D01*
Y-70470D01*
X-236302Y-70483D01*
X-236275Y-70565D01*
X-236220Y-70688D01*
X-236206Y-70714D01*
Y-69431D01*
X-236192Y-69554D01*
X-236165Y-69663D01*
X-236152Y-69759D01*
X-236124Y-69841D01*
X-236097Y-69896D01*
X-236083Y-69937D01*
Y-69950D01*
X-235987Y-70128D01*
X-235878Y-70251D01*
X-235796Y-70319D01*
X-235769Y-70347D01*
X-235755D01*
X-235577Y-70429D01*
X-235413Y-70470D01*
X-235331D01*
X-235277Y-70483D01*
X-235222D01*
X-235058Y-70470D01*
X-234921Y-70442D01*
X-234798Y-70388D01*
X-234702Y-70333D01*
X-234620Y-70292D01*
X-234566Y-70237D01*
X-234525Y-70210D01*
X-234511Y-70196D01*
X-234429Y-70073D01*
X-234361Y-69937D01*
X-234320Y-69800D01*
X-234279Y-69663D01*
X-234265Y-69540D01*
X-234251Y-69445D01*
Y-69390D01*
Y-69362D01*
Y-65959D01*
X-234265Y-65754D01*
X-234292Y-65562D01*
X-234333Y-65412D01*
X-234388Y-65275D01*
X-234429Y-65180D01*
X-234470Y-65097D01*
X-234497Y-65056D01*
X-234511Y-65043D01*
X-234620Y-64933D01*
X-234730Y-64851D01*
X-234853Y-64797D01*
X-234962Y-64756D01*
X-235071Y-64728D01*
X-235154Y-64715D01*
X-235331D01*
X-235441Y-64742D01*
X-235523Y-64756D01*
X-235605Y-64783D01*
X-235673Y-64810D01*
X-235714Y-64838D01*
X-235741Y-64851D01*
X-235755Y-64865D01*
X-235905Y-65002D01*
X-236001Y-65139D01*
X-236042Y-65207D01*
X-236069Y-65262D01*
X-236083Y-65289D01*
Y-65302D01*
X-236152Y-65521D01*
X-236192Y-65726D01*
X-236206Y-65822D01*
Y-64450D01*
D02*
G37*
%LPD*%
D10*
X131447Y582677D02*
X131096Y583641D01*
X130207Y584154D01*
X129197Y583976D01*
X128537Y583190D01*
Y582164D01*
X129197Y581378D01*
X130207Y581200D01*
X131096Y581713D01*
X131447Y582677D01*
D11*
X-130571Y503642D02*
X-131309Y504068D01*
Y503216D01*
X-130571Y503642D01*
X18012Y147539D02*
X17274Y147966D01*
Y147113D01*
X18012Y147539D01*
X115925Y531339D02*
X115187Y531765D01*
Y530912D01*
X115925Y531339D01*
D12*
X-196850Y509744D02*
X-177165D01*
X-131299Y498228D02*
X-104921D01*
X-131299Y486024D02*
X-104921D01*
X-131299D02*
Y498228D01*
X-104921Y486024D02*
Y498228D01*
X-49213Y474508D02*
X-29528D01*
X15000Y142638D02*
Y152638D01*
X-15000Y142638D02*
X15000D01*
X-15000D02*
Y152638D01*
X15000D01*
X103661Y527146D02*
Y545532D01*
X112874Y527146D02*
Y545532D01*
X-214272Y376870D02*
Y377658D01*
X-218799Y376870D02*
Y377658D01*
X-208957Y376870D02*
Y377658D01*
X-204429Y376870D02*
Y377658D01*
X248327Y327658D02*
Y328445D01*
X243799Y327658D02*
Y328445D01*
X253642Y327658D02*
Y328445D01*
X258169Y327658D02*
Y328445D01*
D41*
X-45367Y258137D02*
X-45900Y257604D01*
X-46967D01*
X-47500Y258137D01*
Y260270D01*
X-46967Y260803D01*
X-45900D01*
X-45367Y260270D01*
Y259204D01*
X-46434D01*
X-44301Y260803D02*
Y257604D01*
X-42168Y260803D01*
Y257604D01*
X-41102D02*
Y260803D01*
X-39503D01*
X-38969Y260270D01*
Y258137D01*
X-39503Y257604D01*
X-41102D01*
D50*
X-166339Y492126D02*
X-166363Y493125D01*
X-166435Y494121D01*
X-166556Y495113D01*
X-166724Y496097D01*
X-166939Y497073D01*
X-167202Y498036D01*
X-167510Y498986D01*
X-167865Y499920D01*
X-168263Y500836D01*
X-168706Y501731D01*
X-169192Y502604D01*
X-169719Y503453D01*
X-170286Y504275D01*
X-170893Y505069D01*
X-171537Y505832D01*
X-172217Y506564D01*
X-172932Y507261D01*
X-173679Y507924D01*
X-174458Y508549D01*
X-175266Y509136D01*
X-176102Y509684D01*
X-176963Y510190D01*
X-177847Y510654D01*
X-178753Y511075D01*
X-179678Y511452D01*
X-180621Y511784D01*
X-181578Y512069D01*
X-182548Y512308D01*
X-183528Y512500D01*
X-184517Y512645D01*
X-185511Y512741D01*
X-186508Y512789D01*
X-187507D01*
X-188505Y512741D01*
X-189499Y512645D01*
X-190488Y512500D01*
X-191468Y512308D01*
X-192438Y512069D01*
X-193395Y511784D01*
X-194337Y511452D01*
X-195263Y511075D01*
X-196168Y510654D01*
X-197053Y510190D01*
X-197914Y509684D01*
X-198749Y509136D01*
X-199557Y508549D01*
X-200336Y507924D01*
X-201084Y507261D01*
X-201799Y506564D01*
X-202479Y505832D01*
X-203123Y505069D01*
X-203730Y504275D01*
X-204297Y503453D01*
X-204824Y502604D01*
X-205310Y501731D01*
X-205752Y500836D01*
X-206151Y499920D01*
X-206505Y498986D01*
X-206814Y498036D01*
X-207077Y497073D01*
X-207292Y496097D01*
X-207460Y495113D01*
X-207581Y494121D01*
X-207653Y493125D01*
X-207677Y492126D01*
X-207653Y491127D01*
X-207581Y490131D01*
X-207460Y489140D01*
X-207292Y488155D01*
X-207077Y487180D01*
X-206814Y486216D01*
X-206505Y485266D01*
X-206151Y484332D01*
X-205752Y483416D01*
X-205310Y482520D01*
X-204824Y481647D01*
X-204297Y480799D01*
X-203730Y479977D01*
X-203123Y479183D01*
X-202479Y478420D01*
X-201799Y477688D01*
X-201084Y476991D01*
X-200336Y476328D01*
X-199557Y475703D01*
X-198749Y475115D01*
X-197914Y474568D01*
X-197053Y474062D01*
X-196168Y473597D01*
X-195263Y473177D01*
X-194337Y472800D01*
X-193395Y472468D01*
X-192438Y472183D01*
X-191468Y471944D01*
X-190488Y471752D01*
X-189499Y471607D01*
X-188505Y471511D01*
X-187507Y471463D01*
X-186509Y471463D01*
X-185511Y471511D01*
X-184517Y471607D01*
X-183528Y471752D01*
X-182548Y471944D01*
X-181578Y472183D01*
X-180621Y472468D01*
X-179678Y472800D01*
X-178753Y473176D01*
X-177848Y473597D01*
X-176963Y474062D01*
X-176102Y474568D01*
X-175267Y475115D01*
X-174458Y475703D01*
X-173679Y476328D01*
X-172932Y476990D01*
X-172217Y477688D01*
X-171537Y478420D01*
X-170893Y479183D01*
X-170286Y479977D01*
X-169719Y480799D01*
X-169192Y481647D01*
X-168706Y482520D01*
X-168263Y483416D01*
X-167865Y484332D01*
X-167510Y485266D01*
X-167202Y486216D01*
X-166939Y487179D01*
X-166724Y488155D01*
X-166556Y489139D01*
X-166435Y490131D01*
X-166363Y491127D01*
X-166339Y492126D01*
X-18701Y492126D02*
X-18725Y493125D01*
X-18797Y494121D01*
X-18918Y495113D01*
X-19086Y496097D01*
X-19301Y497073D01*
X-19564Y498036D01*
X-19873Y498986D01*
X-20227Y499920D01*
X-20626Y500836D01*
X-21068Y501731D01*
X-21554Y502604D01*
X-22081Y503453D01*
X-22648Y504275D01*
X-23255Y505069D01*
X-23899Y505832D01*
X-24579Y506564D01*
X-25294Y507261D01*
X-26042Y507924D01*
X-26820Y508549D01*
X-27629Y509136D01*
X-28464Y509684D01*
X-29325Y510190D01*
X-30210Y510654D01*
X-31115Y511075D01*
X-32041Y511452D01*
X-32983Y511784D01*
X-33940Y512069D01*
X-34910Y512308D01*
X-35890Y512500D01*
X-36879Y512645D01*
X-37873Y512741D01*
X-38871Y512789D01*
X-39869D01*
X-40867Y512741D01*
X-41862Y512645D01*
X-42850Y512500D01*
X-43830Y512308D01*
X-44800Y512069D01*
X-45757Y511784D01*
X-46700Y511452D01*
X-47625Y511075D01*
X-48531Y510654D01*
X-49415Y510190D01*
X-50276Y509684D01*
X-51112Y509136D01*
X-51920Y508549D01*
X-52698Y507924D01*
X-53446Y507261D01*
X-54161Y506564D01*
X-54841Y505832D01*
X-55485Y505069D01*
X-56092Y504275D01*
X-56659Y503453D01*
X-57186Y502604D01*
X-57672Y501731D01*
X-58114Y500836D01*
X-58513Y499920D01*
X-58868Y498986D01*
X-59176Y498036D01*
X-59439Y497073D01*
X-59654Y496097D01*
X-59822Y495113D01*
X-59943Y494121D01*
X-60015Y493125D01*
X-60039Y492126D01*
X-60015Y491127D01*
X-59943Y490131D01*
X-59822Y489140D01*
X-59654Y488155D01*
X-59439Y487180D01*
X-59176Y486216D01*
X-58868Y485266D01*
X-58513Y484332D01*
X-58114Y483416D01*
X-57672Y482520D01*
X-57186Y481647D01*
X-56659Y480799D01*
X-56092Y479977D01*
X-55485Y479183D01*
X-54841Y478420D01*
X-54161Y477688D01*
X-53446Y476991D01*
X-52698Y476328D01*
X-51920Y475703D01*
X-51112Y475115D01*
X-50276Y474568D01*
X-49415Y474062D01*
X-48531Y473597D01*
X-47625Y473177D01*
X-46700Y472800D01*
X-45757Y472468D01*
X-44800Y472183D01*
X-43830Y471944D01*
X-42850Y471752D01*
X-41862Y471607D01*
X-40867Y471511D01*
X-39870Y471463D01*
X-38871Y471463D01*
X-37873Y471511D01*
X-36879Y471607D01*
X-35890Y471752D01*
X-34910Y471944D01*
X-33940Y472183D01*
X-32983Y472468D01*
X-32041Y472800D01*
X-31116Y473176D01*
X-30210Y473597D01*
X-29325Y474062D01*
X-28464Y474568D01*
X-27629Y475115D01*
X-26820Y475703D01*
X-26042Y476328D01*
X-25294Y476990D01*
X-24579Y477688D01*
X-23899Y478420D01*
X-23255Y479183D01*
X-22648Y479977D01*
X-22081Y480799D01*
X-21554Y481647D01*
X-21068Y482520D01*
X-20626Y483416D01*
X-20227Y484332D01*
X-19873Y485266D01*
X-19564Y486216D01*
X-19301Y487179D01*
X-19086Y488155D01*
X-18918Y489139D01*
X-18797Y490131D01*
X-18725Y491127D01*
X-18701Y492126D01*
X162665Y531298D02*
X164764D01*
Y529724D01*
X163714Y530249D01*
X163189D01*
X162665Y529724D01*
Y528674D01*
X163189Y528150D01*
X164239D01*
X164764Y528674D01*
X161615Y531298D02*
Y529199D01*
X160566Y528150D01*
X159516Y529199D01*
Y531298D01*
X155318Y528150D02*
Y531298D01*
X153744D01*
X153219Y530773D01*
Y529724D01*
X153744Y529199D01*
X155318D01*
X151645Y528150D02*
X150595D01*
X150070Y528674D01*
Y529724D01*
X150595Y530249D01*
X151645D01*
X152169Y529724D01*
Y528674D01*
X151645Y528150D01*
X149021Y530249D02*
Y528674D01*
X148496Y528150D01*
X147971Y528674D01*
X147447Y528150D01*
X146922Y528674D01*
Y530249D01*
X144298Y528150D02*
X145347D01*
X145872Y528674D01*
Y529724D01*
X145347Y530249D01*
X144298D01*
X143773Y529724D01*
Y529199D01*
X145872D01*
X142724Y530249D02*
Y528150D01*
Y529199D01*
X142199Y529724D01*
X141674Y530249D01*
X141149D01*
X164764Y543109D02*
Y540485D01*
X164239Y539961D01*
X163189D01*
X162665Y540485D01*
Y543109D01*
X159516Y542585D02*
X160041Y543109D01*
X161090D01*
X161615Y542585D01*
Y542060D01*
X161090Y541535D01*
X160041D01*
X159516Y541010D01*
Y540485D01*
X160041Y539961D01*
X161090D01*
X161615Y540485D01*
X158467Y543109D02*
Y539961D01*
X156892D01*
X156368Y540485D01*
Y541010D01*
X156892Y541535D01*
X158467D01*
X156892D01*
X156368Y542060D01*
Y542585D01*
X156892Y543109D01*
X158467D01*
X152169Y539961D02*
Y543109D01*
X150595D01*
X150070Y542585D01*
Y541535D01*
X150595Y541010D01*
X152169D01*
X148496Y539961D02*
X147447D01*
X146922Y540485D01*
Y541535D01*
X147447Y542060D01*
X148496D01*
X149021Y541535D01*
Y540485D01*
X148496Y539961D01*
X145872Y542060D02*
Y540485D01*
X145347Y539961D01*
X144823Y540485D01*
X144298Y539961D01*
X143773Y540485D01*
Y542060D01*
X141149Y539961D02*
X142199D01*
X142724Y540485D01*
Y541535D01*
X142199Y542060D01*
X141149D01*
X140625Y541535D01*
Y541010D01*
X142724D01*
X139575Y542060D02*
Y539961D01*
Y541010D01*
X139050Y541535D01*
X138525Y542060D01*
X138001D01*
X-2909Y183256D02*
X239D01*
Y184830D01*
X-286Y185355D01*
X-1335D01*
X-1860Y184830D01*
Y183256D01*
X239Y187979D02*
Y186929D01*
X-286Y186405D01*
X-2385D01*
X-2909Y186929D01*
Y187979D01*
X-2385Y188504D01*
X-286D01*
X239Y187979D01*
Y189553D02*
Y191652D01*
Y190603D01*
X-2909D01*
X239Y195850D02*
X-2909D01*
X-1860Y196900D01*
X-2909Y197949D01*
X239D01*
Y198999D02*
Y200048D01*
Y199524D01*
X-2909D01*
Y198999D01*
Y200048D01*
Y201623D02*
X239D01*
Y203197D01*
X-286Y203722D01*
X-1335D01*
X-1860Y203197D01*
Y201623D01*
X239Y206870D02*
Y204771D01*
X-2909D01*
Y206870D01*
X-1335Y204771D02*
Y205821D01*
X-2909Y207920D02*
X239D01*
Y209494D01*
X-286Y210019D01*
X-1335D01*
X-1860Y209494D01*
Y207920D01*
Y208969D02*
X-2909Y210019D01*
X-246013Y560087D02*
X-248112D01*
X-247063D01*
Y556939D01*
X-249162Y560087D02*
X-251261Y556939D01*
Y560087D02*
X-249162Y556939D01*
X-245611Y568940D02*
Y572088D01*
X-247185D01*
X-247710Y571564D01*
Y570514D01*
X-247185Y569989D01*
X-245611D01*
X-246660D02*
X-247710Y568940D01*
X-248760Y572088D02*
X-250859Y568940D01*
Y572088D02*
X-248760Y568940D01*
X-246784Y585891D02*
X-246259Y586416D01*
X-245210D01*
X-244685Y585891D01*
Y585367D01*
X-245210Y584842D01*
X-246259D01*
X-246784Y584317D01*
Y583792D01*
X-246259Y583268D01*
X-245210D01*
X-244685Y583792D01*
X-249933Y586416D02*
X-247834D01*
Y583268D01*
X-249933D01*
X-247834Y584842D02*
X-248883D01*
X-250982Y586416D02*
X-253081D01*
X-252032D01*
Y583268D01*
X-149769Y488314D02*
Y490413D01*
Y489363D01*
X-152918D01*
Y491462D02*
X-149769D01*
Y493037D01*
X-150294Y493561D01*
X-151344D01*
X-151868Y493037D01*
Y491462D01*
X-149769Y494611D02*
Y496710D01*
X-150294D01*
X-152393Y494611D01*
X-152918D01*
D51*
X79246Y577866D02*
Y594372D01*
Y577866D02*
X127446D01*
Y594372D01*
D52*
X-35000Y252047D02*
X35000D01*
X-35000D02*
Y394803D01*
X35000Y252047D02*
Y394803D01*
X-35000D02*
X35000D01*
M02*
