G04*
G04 #@! TF.GenerationSoftware,Altium Limited,Altium Designer,22.10.1 (41)*
G04*
G04 Layer_Color=32768*
%FSLAX25Y25*%
%MOIN*%
G70*
G04*
G04 #@! TF.SameCoordinates,44C76E85-51F2-408D-B631-529058D5D606*
G04*
G04*
G04 #@! TF.FilePolarity,Positive*
G04*
G01*
G75*
%ADD12C,0.00787*%
%ADD50C,0.00591*%
D12*
X15000Y142638D02*
Y152638D01*
X-15000Y142638D02*
X15000D01*
X-15000D02*
Y152638D01*
X15000D01*
D50*
X-166339Y492126D02*
X-166363Y493125D01*
X-166435Y494121D01*
X-166556Y495113D01*
X-166724Y496097D01*
X-166939Y497073D01*
X-167202Y498036D01*
X-167510Y498986D01*
X-167865Y499920D01*
X-168263Y500836D01*
X-168706Y501731D01*
X-169192Y502604D01*
X-169719Y503453D01*
X-170286Y504275D01*
X-170893Y505069D01*
X-171537Y505832D01*
X-172217Y506564D01*
X-172932Y507261D01*
X-173679Y507924D01*
X-174458Y508549D01*
X-175266Y509136D01*
X-176102Y509684D01*
X-176963Y510190D01*
X-177847Y510654D01*
X-178753Y511075D01*
X-179678Y511452D01*
X-180621Y511784D01*
X-181578Y512069D01*
X-182548Y512308D01*
X-183528Y512500D01*
X-184517Y512645D01*
X-185511Y512741D01*
X-186508Y512789D01*
X-187507D01*
X-188505Y512741D01*
X-189499Y512645D01*
X-190488Y512500D01*
X-191468Y512308D01*
X-192438Y512069D01*
X-193395Y511784D01*
X-194337Y511452D01*
X-195263Y511075D01*
X-196168Y510654D01*
X-197053Y510190D01*
X-197914Y509684D01*
X-198749Y509136D01*
X-199557Y508549D01*
X-200336Y507924D01*
X-201084Y507261D01*
X-201799Y506564D01*
X-202479Y505832D01*
X-203123Y505069D01*
X-203730Y504275D01*
X-204297Y503453D01*
X-204824Y502604D01*
X-205310Y501731D01*
X-205752Y500836D01*
X-206151Y499920D01*
X-206505Y498986D01*
X-206814Y498036D01*
X-207077Y497073D01*
X-207292Y496097D01*
X-207460Y495113D01*
X-207581Y494121D01*
X-207653Y493125D01*
X-207677Y492126D01*
X-207653Y491127D01*
X-207581Y490131D01*
X-207460Y489140D01*
X-207292Y488155D01*
X-207077Y487180D01*
X-206814Y486216D01*
X-206505Y485266D01*
X-206151Y484332D01*
X-205752Y483416D01*
X-205310Y482520D01*
X-204824Y481647D01*
X-204297Y480799D01*
X-203730Y479977D01*
X-203123Y479183D01*
X-202479Y478420D01*
X-201799Y477688D01*
X-201084Y476991D01*
X-200336Y476328D01*
X-199557Y475703D01*
X-198749Y475115D01*
X-197914Y474568D01*
X-197053Y474062D01*
X-196168Y473597D01*
X-195263Y473177D01*
X-194337Y472800D01*
X-193395Y472468D01*
X-192438Y472183D01*
X-191468Y471944D01*
X-190488Y471752D01*
X-189499Y471607D01*
X-188505Y471511D01*
X-187507Y471463D01*
X-186509Y471463D01*
X-185511Y471511D01*
X-184517Y471607D01*
X-183528Y471752D01*
X-182548Y471944D01*
X-181578Y472183D01*
X-180621Y472468D01*
X-179678Y472800D01*
X-178753Y473176D01*
X-177848Y473597D01*
X-176963Y474062D01*
X-176102Y474568D01*
X-175267Y475115D01*
X-174458Y475703D01*
X-173679Y476328D01*
X-172932Y476990D01*
X-172217Y477688D01*
X-171537Y478420D01*
X-170893Y479183D01*
X-170286Y479977D01*
X-169719Y480799D01*
X-169192Y481647D01*
X-168706Y482520D01*
X-168263Y483416D01*
X-167865Y484332D01*
X-167510Y485266D01*
X-167202Y486216D01*
X-166939Y487179D01*
X-166724Y488155D01*
X-166556Y489139D01*
X-166435Y490131D01*
X-166363Y491127D01*
X-166339Y492126D01*
X-18701Y492126D02*
X-18725Y493125D01*
X-18797Y494121D01*
X-18918Y495113D01*
X-19086Y496097D01*
X-19301Y497073D01*
X-19564Y498036D01*
X-19873Y498986D01*
X-20227Y499920D01*
X-20626Y500836D01*
X-21068Y501731D01*
X-21554Y502604D01*
X-22081Y503453D01*
X-22648Y504275D01*
X-23255Y505069D01*
X-23899Y505832D01*
X-24579Y506564D01*
X-25294Y507261D01*
X-26042Y507924D01*
X-26820Y508549D01*
X-27629Y509136D01*
X-28464Y509684D01*
X-29325Y510190D01*
X-30210Y510654D01*
X-31115Y511075D01*
X-32041Y511452D01*
X-32983Y511784D01*
X-33940Y512069D01*
X-34910Y512308D01*
X-35890Y512500D01*
X-36879Y512645D01*
X-37873Y512741D01*
X-38871Y512789D01*
X-39869D01*
X-40867Y512741D01*
X-41862Y512645D01*
X-42850Y512500D01*
X-43830Y512308D01*
X-44800Y512069D01*
X-45757Y511784D01*
X-46700Y511452D01*
X-47625Y511075D01*
X-48531Y510654D01*
X-49415Y510190D01*
X-50276Y509684D01*
X-51112Y509136D01*
X-51920Y508549D01*
X-52698Y507924D01*
X-53446Y507261D01*
X-54161Y506564D01*
X-54841Y505832D01*
X-55485Y505069D01*
X-56092Y504275D01*
X-56659Y503453D01*
X-57186Y502604D01*
X-57672Y501731D01*
X-58114Y500836D01*
X-58513Y499920D01*
X-58868Y498986D01*
X-59176Y498036D01*
X-59439Y497073D01*
X-59654Y496097D01*
X-59822Y495113D01*
X-59943Y494121D01*
X-60015Y493125D01*
X-60039Y492126D01*
X-60015Y491127D01*
X-59943Y490131D01*
X-59822Y489140D01*
X-59654Y488155D01*
X-59439Y487180D01*
X-59176Y486216D01*
X-58868Y485266D01*
X-58513Y484332D01*
X-58114Y483416D01*
X-57672Y482520D01*
X-57186Y481647D01*
X-56659Y480799D01*
X-56092Y479977D01*
X-55485Y479183D01*
X-54841Y478420D01*
X-54161Y477688D01*
X-53446Y476991D01*
X-52698Y476328D01*
X-51920Y475703D01*
X-51112Y475115D01*
X-50276Y474568D01*
X-49415Y474062D01*
X-48531Y473597D01*
X-47625Y473177D01*
X-46700Y472800D01*
X-45757Y472468D01*
X-44800Y472183D01*
X-43830Y471944D01*
X-42850Y471752D01*
X-41862Y471607D01*
X-40867Y471511D01*
X-39870Y471463D01*
X-38871Y471463D01*
X-37873Y471511D01*
X-36879Y471607D01*
X-35890Y471752D01*
X-34910Y471944D01*
X-33940Y472183D01*
X-32983Y472468D01*
X-32041Y472800D01*
X-31116Y473176D01*
X-30210Y473597D01*
X-29325Y474062D01*
X-28464Y474568D01*
X-27629Y475115D01*
X-26820Y475703D01*
X-26042Y476328D01*
X-25294Y476990D01*
X-24579Y477688D01*
X-23899Y478420D01*
X-23255Y479183D01*
X-22648Y479977D01*
X-22081Y480799D01*
X-21554Y481647D01*
X-21068Y482520D01*
X-20626Y483416D01*
X-20227Y484332D01*
X-19873Y485266D01*
X-19564Y486216D01*
X-19301Y487179D01*
X-19086Y488155D01*
X-18918Y489139D01*
X-18797Y490131D01*
X-18725Y491127D01*
X-18701Y492126D01*
M02*
