G04*
G04 #@! TF.GenerationSoftware,Altium Limited,Altium Designer,22.10.1 (41)*
G04*
G04 Layer_Physical_Order=2*
G04 Layer_Color=16711680*
%FSLAX25Y25*%
%MOIN*%
G70*
G04*
G04 #@! TF.SameCoordinates,44C76E85-51F2-408D-B631-529058D5D606*
G04*
G04*
G04 #@! TF.FilePolarity,Positive*
G04*
G01*
G75*
%ADD13C,0.05118*%
%ADD14R,0.05118X0.05118*%
%ADD15C,0.06102*%
%ADD16R,0.06102X0.06102*%
%ADD20C,0.05600*%
%ADD25C,0.03937*%
%ADD26R,0.05512X0.05512*%
%ADD27C,0.05512*%
%ADD28C,0.11100*%
%ADD29C,0.06024*%
%ADD30R,0.07874X0.07874*%
%ADD31C,0.07874*%
%ADD32C,0.02362*%
%ADD33R,0.03543X0.08465*%
%ADD34R,0.12795X0.08465*%
%ADD35R,0.05906X0.05906*%
%ADD36R,0.05600X0.02800*%
G04:AMPARAMS|DCode=37|XSize=70mil|YSize=36mil|CornerRadius=18mil|HoleSize=0mil|Usage=FLASHONLY|Rotation=0.000|XOffset=0mil|YOffset=0mil|HoleType=Round|Shape=RoundedRectangle|*
%AMROUNDEDRECTD37*
21,1,0.07000,0.00000,0,0,0.0*
21,1,0.03400,0.03600,0,0,0.0*
1,1,0.03600,0.01700,0.00000*
1,1,0.03600,-0.01700,0.00000*
1,1,0.03600,-0.01700,0.00000*
1,1,0.03600,0.01700,0.00000*
%
%ADD37ROUNDEDRECTD37*%
G04:AMPARAMS|DCode=38|XSize=56mil|YSize=28mil|CornerRadius=14mil|HoleSize=0mil|Usage=FLASHONLY|Rotation=0.000|XOffset=0mil|YOffset=0mil|HoleType=Round|Shape=RoundedRectangle|*
%AMROUNDEDRECTD38*
21,1,0.05600,0.00000,0,0,0.0*
21,1,0.02800,0.02800,0,0,0.0*
1,1,0.02800,0.01400,0.00000*
1,1,0.02800,-0.01400,0.00000*
1,1,0.02800,-0.01400,0.00000*
1,1,0.02800,0.01400,0.00000*
%
%ADD38ROUNDEDRECTD38*%
%ADD39R,0.10000X0.05000*%
%ADD40R,0.05315X0.03347*%
%ADD41C,0.01000*%
G36*
X380193Y-168369D02*
X-346457D01*
Y617426D01*
X380193D01*
Y-168369D01*
D02*
G37*
%LPC*%
G36*
X127643Y607270D02*
X126451D01*
X125283Y607038D01*
X124181Y606582D01*
X123191Y605920D01*
X122348Y605077D01*
X121686Y604086D01*
X121230Y602985D01*
X120997Y601816D01*
Y600625D01*
X121230Y599456D01*
X121686Y598355D01*
X122348Y597364D01*
X123191Y596521D01*
X124181Y595859D01*
X125283Y595403D01*
X126451Y595170D01*
X127643D01*
X128812Y595403D01*
X129913Y595859D01*
X130904Y596521D01*
X131747Y597364D01*
X132409Y598355D01*
X132865Y599456D01*
X133097Y600625D01*
Y601816D01*
X132865Y602985D01*
X132409Y604086D01*
X131747Y605077D01*
X130904Y605920D01*
X129913Y606582D01*
X128812Y607038D01*
X127643Y607270D01*
D02*
G37*
G36*
X80242D02*
X79050D01*
X77881Y607038D01*
X76780Y606582D01*
X75789Y605920D01*
X74946Y605077D01*
X74284Y604086D01*
X73828Y602985D01*
X73596Y601816D01*
Y600625D01*
X73828Y599456D01*
X74284Y598355D01*
X74946Y597364D01*
X75789Y596521D01*
X76780Y595859D01*
X77881Y595403D01*
X79050Y595170D01*
X80242D01*
X81410Y595403D01*
X82511Y595859D01*
X83502Y596521D01*
X84345Y597364D01*
X85007Y598355D01*
X85463Y599456D01*
X85696Y600625D01*
Y601816D01*
X85463Y602985D01*
X85007Y604086D01*
X84345Y605077D01*
X83502Y605920D01*
X82511Y606582D01*
X81410Y607038D01*
X80242Y607270D01*
D02*
G37*
G36*
X98860Y593851D02*
X98675D01*
Y590801D01*
X101725D01*
Y590986D01*
X101500Y591825D01*
X101066Y592577D01*
X100451Y593192D01*
X99699Y593626D01*
X98860Y593851D01*
D02*
G37*
G36*
X98175D02*
X97991D01*
X97151Y593626D01*
X96399Y593192D01*
X95784Y592577D01*
X95350Y591825D01*
X95125Y590986D01*
Y590801D01*
X98175D01*
Y593851D01*
D02*
G37*
G36*
X108702D02*
X107833D01*
X106994Y593626D01*
X106242Y593192D01*
X105627Y592577D01*
X105193Y591825D01*
X104968Y590986D01*
Y590117D01*
X105193Y589277D01*
X105627Y588525D01*
X106242Y587911D01*
X106994Y587476D01*
X107833Y587251D01*
X108702D01*
X109541Y587476D01*
X110294Y587911D01*
X110908Y588525D01*
X111343Y589277D01*
X111568Y590117D01*
Y590986D01*
X111343Y591825D01*
X110908Y592577D01*
X110294Y593192D01*
X109541Y593626D01*
X108702Y593851D01*
D02*
G37*
G36*
X101725Y590301D02*
X98675D01*
Y587251D01*
X98860D01*
X99699Y587476D01*
X100451Y587911D01*
X101066Y588525D01*
X101500Y589277D01*
X101725Y590117D01*
Y590301D01*
D02*
G37*
G36*
X98175D02*
X95125D01*
Y590117D01*
X95350Y589277D01*
X95784Y588525D01*
X96399Y587911D01*
X97151Y587476D01*
X97991Y587251D01*
X98175D01*
Y590301D01*
D02*
G37*
G36*
X-890Y600942D02*
X-272234D01*
X-273197Y600750D01*
X-274014Y600205D01*
X-287323Y586896D01*
X-287554Y586958D01*
X-288723D01*
X-289851Y586655D01*
X-290863Y586071D01*
X-291689Y585245D01*
X-292273Y584233D01*
X-292576Y583105D01*
Y581937D01*
X-292273Y580808D01*
X-291689Y579796D01*
X-290863Y578970D01*
X-289853Y578387D01*
Y566796D01*
X-289965Y566774D01*
X-290353Y566770D01*
X-291277Y568152D01*
X-292507Y569383D01*
X-293954Y570350D01*
X-295562Y571015D01*
X-297268Y571355D01*
X-299009D01*
X-300715Y571015D01*
X-302323Y570350D01*
X-303770Y569383D01*
X-305000Y568152D01*
X-305967Y566705D01*
X-306633Y565098D01*
X-306973Y563391D01*
Y561651D01*
X-306633Y559944D01*
X-305967Y558336D01*
X-305000Y556889D01*
X-303770Y555659D01*
X-302323Y554692D01*
X-300715Y554026D01*
X-299009Y553686D01*
X-297268D01*
X-295562Y554026D01*
X-293954Y554692D01*
X-292507Y555659D01*
X-291277Y556889D01*
X-290353Y558272D01*
X-289965Y558267D01*
X-289853Y558245D01*
Y511654D01*
X-290863Y511071D01*
X-291689Y510245D01*
X-292273Y509233D01*
X-292576Y508105D01*
Y506937D01*
X-292273Y505808D01*
X-291689Y504796D01*
X-290863Y503970D01*
X-289853Y503387D01*
Y491796D01*
X-289965Y491774D01*
X-290353Y491770D01*
X-291277Y493152D01*
X-292507Y494383D01*
X-293954Y495350D01*
X-295562Y496015D01*
X-297268Y496355D01*
X-299009D01*
X-300715Y496015D01*
X-302323Y495350D01*
X-303770Y494383D01*
X-305000Y493152D01*
X-305967Y491705D01*
X-306633Y490098D01*
X-306973Y488391D01*
Y486651D01*
X-306633Y484944D01*
X-305967Y483336D01*
X-305000Y481889D01*
X-303770Y480659D01*
X-302323Y479692D01*
X-300715Y479026D01*
X-299009Y478686D01*
X-297268D01*
X-295562Y479026D01*
X-293954Y479692D01*
X-292507Y480659D01*
X-291277Y481889D01*
X-290353Y483272D01*
X-289965Y483267D01*
X-289853Y483245D01*
Y436654D01*
X-290863Y436071D01*
X-291689Y435245D01*
X-292273Y434233D01*
X-292576Y433105D01*
Y431937D01*
X-292273Y430808D01*
X-291689Y429796D01*
X-290863Y428970D01*
X-289853Y428387D01*
Y416796D01*
X-289965Y416774D01*
X-290353Y416770D01*
X-291277Y418152D01*
X-292507Y419383D01*
X-293954Y420350D01*
X-295562Y421015D01*
X-297268Y421355D01*
X-299009D01*
X-300715Y421015D01*
X-302323Y420350D01*
X-303770Y419383D01*
X-305000Y418152D01*
X-305967Y416705D01*
X-306633Y415098D01*
X-306973Y413391D01*
Y411651D01*
X-306633Y409944D01*
X-305967Y408336D01*
X-305000Y406889D01*
X-303770Y405659D01*
X-302323Y404692D01*
X-300715Y404026D01*
X-299009Y403686D01*
X-297268D01*
X-295562Y404026D01*
X-293954Y404692D01*
X-292507Y405659D01*
X-291277Y406889D01*
X-290353Y408272D01*
X-289965Y408267D01*
X-289853Y408245D01*
Y361654D01*
X-290863Y361071D01*
X-291689Y360245D01*
X-292273Y359233D01*
X-292576Y358105D01*
Y356937D01*
X-292273Y355808D01*
X-291689Y354796D01*
X-290863Y353970D01*
X-289853Y353387D01*
Y341796D01*
X-289965Y341774D01*
X-290353Y341770D01*
X-291277Y343152D01*
X-292507Y344383D01*
X-293954Y345350D01*
X-295562Y346015D01*
X-297268Y346355D01*
X-299009D01*
X-300715Y346015D01*
X-302323Y345350D01*
X-303770Y344383D01*
X-305000Y343152D01*
X-305967Y341705D01*
X-306633Y340097D01*
X-306973Y338391D01*
Y336650D01*
X-306633Y334944D01*
X-305967Y333336D01*
X-305000Y331889D01*
X-303770Y330659D01*
X-302323Y329692D01*
X-300715Y329026D01*
X-299009Y328686D01*
X-297268D01*
X-295562Y329026D01*
X-293954Y329692D01*
X-292507Y330659D01*
X-291277Y331889D01*
X-290353Y333272D01*
X-289965Y333267D01*
X-289853Y333245D01*
Y286654D01*
X-290863Y286071D01*
X-291689Y285245D01*
X-292273Y284233D01*
X-292576Y283105D01*
Y281937D01*
X-292273Y280808D01*
X-291689Y279796D01*
X-290863Y278970D01*
X-289853Y278387D01*
Y266796D01*
X-289965Y266774D01*
X-290353Y266770D01*
X-291277Y268152D01*
X-292507Y269383D01*
X-293954Y270350D01*
X-295562Y271015D01*
X-297268Y271355D01*
X-299009D01*
X-300715Y271015D01*
X-302323Y270350D01*
X-303770Y269383D01*
X-305000Y268152D01*
X-305967Y266705D01*
X-306633Y265097D01*
X-306973Y263391D01*
Y261650D01*
X-306633Y259944D01*
X-305967Y258336D01*
X-305000Y256889D01*
X-303770Y255659D01*
X-302323Y254692D01*
X-300715Y254026D01*
X-299009Y253686D01*
X-297268D01*
X-295562Y254026D01*
X-293954Y254692D01*
X-292507Y255659D01*
X-291277Y256889D01*
X-290353Y258272D01*
X-289965Y258267D01*
X-289853Y258245D01*
Y211654D01*
X-290863Y211071D01*
X-291689Y210245D01*
X-292273Y209233D01*
X-292576Y208105D01*
Y206937D01*
X-292273Y205808D01*
X-291689Y204796D01*
X-290863Y203970D01*
X-289853Y203387D01*
Y191796D01*
X-289965Y191774D01*
X-290353Y191770D01*
X-291277Y193152D01*
X-292507Y194383D01*
X-293954Y195350D01*
X-295562Y196015D01*
X-297268Y196355D01*
X-299009D01*
X-300715Y196015D01*
X-302323Y195350D01*
X-303770Y194383D01*
X-305000Y193152D01*
X-305967Y191705D01*
X-306633Y190097D01*
X-306973Y188391D01*
Y186651D01*
X-306633Y184944D01*
X-305967Y183336D01*
X-305000Y181889D01*
X-303770Y180659D01*
X-302323Y179692D01*
X-300715Y179026D01*
X-299009Y178686D01*
X-297268D01*
X-295562Y179026D01*
X-293954Y179692D01*
X-292507Y180659D01*
X-291277Y181889D01*
X-290353Y183272D01*
X-289965Y183267D01*
X-289853Y183245D01*
Y136654D01*
X-290863Y136071D01*
X-291689Y135245D01*
X-292273Y134233D01*
X-292576Y133105D01*
Y131937D01*
X-292273Y130808D01*
X-291689Y129796D01*
X-290863Y128970D01*
X-289853Y128387D01*
Y116796D01*
X-289965Y116774D01*
X-290353Y116770D01*
X-291277Y118152D01*
X-292507Y119383D01*
X-293954Y120350D01*
X-295562Y121015D01*
X-297268Y121355D01*
X-299009D01*
X-300715Y121015D01*
X-302323Y120350D01*
X-303770Y119383D01*
X-305000Y118152D01*
X-305967Y116705D01*
X-306633Y115097D01*
X-306973Y113391D01*
Y111651D01*
X-306633Y109944D01*
X-305967Y108336D01*
X-305000Y106889D01*
X-303770Y105659D01*
X-302323Y104692D01*
X-300715Y104026D01*
X-299009Y103686D01*
X-297268D01*
X-295562Y104026D01*
X-293954Y104692D01*
X-292507Y105659D01*
X-291277Y106889D01*
X-291155Y107070D01*
X-290655Y106919D01*
Y61191D01*
X-290863Y61071D01*
X-291689Y60245D01*
X-292273Y59233D01*
X-292576Y58105D01*
Y56937D01*
X-292273Y55808D01*
X-291689Y54796D01*
X-290863Y53970D01*
X-289851Y53386D01*
X-288723Y53084D01*
X-287554D01*
X-286426Y53386D01*
X-285414Y53970D01*
X-284588Y54796D01*
X-284004Y55808D01*
X-283701Y56937D01*
Y58105D01*
X-284004Y59233D01*
X-284588Y60245D01*
X-285414Y61071D01*
X-285622Y61191D01*
Y106201D01*
X-285556Y106266D01*
X-285010Y107083D01*
X-284819Y108046D01*
Y129565D01*
X-284588Y129796D01*
X-284004Y130808D01*
X-283701Y131937D01*
Y133105D01*
X-284004Y134233D01*
X-284588Y135245D01*
X-284819Y135476D01*
Y204565D01*
X-284588Y204796D01*
X-284004Y205808D01*
X-283701Y206937D01*
Y208105D01*
X-284004Y209233D01*
X-284588Y210245D01*
X-284819Y210476D01*
Y279565D01*
X-284588Y279796D01*
X-284004Y280808D01*
X-283701Y281937D01*
Y283105D01*
X-284004Y284233D01*
X-284588Y285245D01*
X-284819Y285476D01*
Y354565D01*
X-284588Y354796D01*
X-284468Y355004D01*
X-233424D01*
X-232461Y355195D01*
X-231645Y355741D01*
X-215887Y371499D01*
X-206693D01*
X-205730Y371691D01*
X-205502Y371843D01*
X-203535D01*
Y376189D01*
X-205502D01*
X-205730Y376341D01*
X-206693Y376533D01*
X-216929D01*
X-217892Y376341D01*
X-218120Y376189D01*
X-219693D01*
Y374811D01*
X-234467Y360037D01*
X-284468D01*
X-284588Y360245D01*
X-284819Y360476D01*
Y429565D01*
X-284588Y429796D01*
X-284004Y430808D01*
X-283701Y431937D01*
Y433105D01*
X-284004Y434233D01*
X-284588Y435245D01*
X-284819Y435476D01*
Y504565D01*
X-284588Y504796D01*
X-284004Y505808D01*
X-283701Y506937D01*
Y508105D01*
X-284004Y509233D01*
X-284588Y510245D01*
X-284819Y510476D01*
Y578934D01*
X-284868Y579183D01*
Y579516D01*
X-284588Y579796D01*
X-284004Y580808D01*
X-283701Y581937D01*
Y583105D01*
X-283764Y583336D01*
X-271191Y595908D01*
X-1933D01*
X6701Y587275D01*
X6639Y587043D01*
Y585875D01*
X6941Y584747D01*
X7525Y583735D01*
X8351Y582909D01*
X9363Y582324D01*
X10492Y582022D01*
X11660D01*
X12788Y582324D01*
X13800Y582909D01*
X14626Y583735D01*
X15210Y584747D01*
X15513Y585875D01*
Y587043D01*
X15210Y588172D01*
X14626Y589184D01*
X13800Y590010D01*
X12788Y590594D01*
X11660Y590896D01*
X10492D01*
X10260Y590834D01*
X889Y600205D01*
X73Y600750D01*
X-890Y600942D01*
D02*
G37*
G36*
X-106607Y582227D02*
X-108057D01*
Y580132D01*
X-104312D01*
X-104441Y580780D01*
X-104949Y581540D01*
X-105710Y582049D01*
X-106607Y582227D01*
D02*
G37*
G36*
X-108557D02*
X-110007D01*
X-110905Y582049D01*
X-111665Y581540D01*
X-112174Y580780D01*
X-112302Y580132D01*
X-108557D01*
Y582227D01*
D02*
G37*
G36*
X98860Y585977D02*
X97991D01*
X97151Y585752D01*
X96399Y585318D01*
X95784Y584703D01*
X95350Y583951D01*
X95125Y583112D01*
Y582243D01*
X95350Y581403D01*
X95784Y580651D01*
X96399Y580036D01*
X97151Y579602D01*
X97991Y579377D01*
X98860D01*
X99699Y579602D01*
X100451Y580036D01*
X101066Y580651D01*
X101500Y581403D01*
X101725Y582243D01*
Y583112D01*
X101500Y583951D01*
X101066Y584703D01*
X100451Y585318D01*
X99699Y585752D01*
X98860Y585977D01*
D02*
G37*
G36*
X-232768Y586130D02*
X-239673D01*
Y579224D01*
X-232768D01*
Y580160D01*
X-214166D01*
Y578966D01*
X-212725D01*
X-212099Y578548D01*
X-211136Y578356D01*
X-200571D01*
X-199608Y578548D01*
X-198791Y579093D01*
X-198245Y579910D01*
X-198054Y580873D01*
X-198245Y581836D01*
X-198791Y582653D01*
X-199608Y583198D01*
X-200571Y583390D01*
X-210093D01*
X-211160Y584457D01*
X-211977Y585003D01*
X-212940Y585194D01*
X-232768D01*
Y586130D01*
D02*
G37*
G36*
X334282Y586958D02*
X333114D01*
X331986Y586656D01*
X330974Y586072D01*
X330148Y585245D01*
X329564Y584234D01*
X329261Y583105D01*
Y581937D01*
X329564Y580808D01*
X330148Y579797D01*
X330974Y578971D01*
X331986Y578386D01*
X333114Y578084D01*
X334282D01*
X335411Y578386D01*
X336423Y578971D01*
X337249Y579797D01*
X337833Y580808D01*
X338135Y581937D01*
Y583105D01*
X337833Y584234D01*
X337249Y585245D01*
X336423Y586072D01*
X335411Y586656D01*
X334282Y586958D01*
D02*
G37*
G36*
X-104312Y579632D02*
X-108057D01*
Y577537D01*
X-106607D01*
X-105710Y577716D01*
X-104949Y578224D01*
X-104441Y578985D01*
X-104312Y579632D01*
D02*
G37*
G36*
X-108557D02*
X-112302D01*
X-112174Y578985D01*
X-111665Y578224D01*
X-110905Y577716D01*
X-110007Y577537D01*
X-108557D01*
Y579632D01*
D02*
G37*
G36*
X-9487Y580896D02*
X-18361D01*
Y572022D01*
X-9487D01*
Y580896D01*
D02*
G37*
G36*
X-308701Y576958D02*
X-317576D01*
Y568084D01*
X-308701D01*
Y576958D01*
D02*
G37*
G36*
X-232768Y574319D02*
X-239673D01*
Y573383D01*
X-246063D01*
X-247026Y573191D01*
X-247843Y572646D01*
X-258669Y561819D01*
X-259215Y561002D01*
X-259407Y560039D01*
Y496693D01*
X-259215Y495730D01*
X-258669Y494913D01*
X-33512Y269756D01*
Y269341D01*
X-33272Y268448D01*
X-32810Y267647D01*
X-32156Y266993D01*
X-31356Y266531D01*
X-30462Y266291D01*
X-29538D01*
X-28644Y266531D01*
X-27844Y266993D01*
X-27190Y267647D01*
X-26728Y268448D01*
X-26488Y269341D01*
Y270266D01*
X-26728Y271159D01*
X-27190Y271959D01*
X-27844Y272613D01*
X-28644Y273076D01*
X-29538Y273315D01*
X-29952D01*
X-254373Y497735D01*
Y558997D01*
X-245021Y568349D01*
X-239673D01*
Y567413D01*
X-232768D01*
Y568349D01*
X-211909D01*
X-211780Y568220D01*
X-210963Y567675D01*
X-210000Y567483D01*
X-209037Y567675D01*
X-208220Y568220D01*
X-207722Y568966D01*
X-207566D01*
Y569583D01*
X-207483Y570000D01*
X-207566Y570417D01*
Y572766D01*
X-209266D01*
X-209903Y573191D01*
X-210866Y573383D01*
X-232768D01*
Y574319D01*
D02*
G37*
G36*
X313135Y576958D02*
X304261D01*
Y568084D01*
X307484D01*
Y565572D01*
X306984Y565365D01*
X306360Y565989D01*
X305371Y566560D01*
X304269Y566855D01*
X303128D01*
X302025Y566560D01*
X301037Y565989D01*
X300230Y565182D01*
X299659Y564194D01*
X299364Y563092D01*
Y561950D01*
X299659Y560848D01*
X300230Y559860D01*
X301037Y559053D01*
X302025Y558482D01*
X303128Y558187D01*
X304269D01*
X305371Y558482D01*
X306360Y559053D01*
X306984Y559677D01*
X307484Y559470D01*
Y501958D01*
X304261D01*
Y493084D01*
X307484D01*
Y490572D01*
X306984Y490365D01*
X306360Y490989D01*
X305371Y491560D01*
X304269Y491855D01*
X303128D01*
X302025Y491560D01*
X301037Y490989D01*
X300230Y490182D01*
X299659Y489194D01*
X299364Y488092D01*
Y486950D01*
X299659Y485848D01*
X300230Y484860D01*
X301037Y484053D01*
X302025Y483482D01*
X303128Y483187D01*
X304269D01*
X305371Y483482D01*
X306360Y484053D01*
X306984Y484677D01*
X307484Y484470D01*
Y426958D01*
X304261D01*
Y418084D01*
X307484D01*
Y415572D01*
X306984Y415365D01*
X306360Y415989D01*
X305371Y416560D01*
X304269Y416855D01*
X303128D01*
X302025Y416560D01*
X301037Y415989D01*
X300230Y415182D01*
X299659Y414194D01*
X299364Y413092D01*
Y411950D01*
X299659Y410848D01*
X300230Y409860D01*
X301037Y409053D01*
X302025Y408482D01*
X303128Y408187D01*
X304269D01*
X305371Y408482D01*
X306360Y409053D01*
X306984Y409677D01*
X307484Y409470D01*
Y351958D01*
X304261D01*
Y350038D01*
X288466D01*
X287503Y349846D01*
X286686Y349301D01*
X264705Y327320D01*
X246063D01*
X245100Y327128D01*
X244872Y326976D01*
X242905D01*
Y322630D01*
X244872D01*
X245100Y322478D01*
X246063Y322286D01*
X265748D01*
X266711Y322478D01*
X267528Y323024D01*
X289509Y345004D01*
X304261D01*
Y343084D01*
X307484D01*
Y340572D01*
X306984Y340365D01*
X306360Y340989D01*
X305371Y341560D01*
X304269Y341855D01*
X303128D01*
X302025Y341560D01*
X301037Y340989D01*
X300230Y340182D01*
X299659Y339194D01*
X299364Y338092D01*
Y336950D01*
X299659Y335848D01*
X300230Y334860D01*
X301037Y334053D01*
X302025Y333482D01*
X303128Y333187D01*
X304269D01*
X305371Y333482D01*
X306360Y334053D01*
X306984Y334677D01*
X307484Y334470D01*
Y276958D01*
X304261D01*
Y268084D01*
X307484D01*
Y265572D01*
X306984Y265365D01*
X306360Y265989D01*
X305371Y266560D01*
X304269Y266855D01*
X303128D01*
X302025Y266560D01*
X301037Y265989D01*
X300230Y265182D01*
X299659Y264194D01*
X299364Y263092D01*
Y261950D01*
X299659Y260848D01*
X300230Y259860D01*
X301037Y259053D01*
X302025Y258482D01*
X303128Y258187D01*
X304269D01*
X305371Y258482D01*
X306360Y259053D01*
X306984Y259677D01*
X307484Y259470D01*
Y201958D01*
X304261D01*
Y193084D01*
X307484D01*
Y190572D01*
X306984Y190365D01*
X306360Y190989D01*
X305371Y191560D01*
X304269Y191855D01*
X303128D01*
X302025Y191560D01*
X301037Y190989D01*
X300230Y190182D01*
X299659Y189194D01*
X299364Y188092D01*
Y186951D01*
X299659Y185848D01*
X300230Y184860D01*
X301037Y184053D01*
X302025Y183482D01*
X303128Y183187D01*
X304269D01*
X305371Y183482D01*
X306360Y184053D01*
X306984Y184677D01*
X307484Y184470D01*
Y126958D01*
X304261D01*
Y118084D01*
X307484D01*
Y115572D01*
X306984Y115365D01*
X306360Y115989D01*
X305371Y116560D01*
X304269Y116855D01*
X303128D01*
X302025Y116560D01*
X301037Y115989D01*
X300230Y115182D01*
X299659Y114194D01*
X299364Y113092D01*
Y111951D01*
X299659Y110848D01*
X300230Y109860D01*
X301037Y109053D01*
X302025Y108482D01*
X303128Y108187D01*
X304269D01*
X305371Y108482D01*
X306360Y109053D01*
X306984Y109677D01*
X307484Y109470D01*
Y51958D01*
X304261D01*
Y43084D01*
X307484D01*
Y40572D01*
X306984Y40365D01*
X306360Y40989D01*
X305371Y41560D01*
X304269Y41855D01*
X303128D01*
X302025Y41560D01*
X301037Y40989D01*
X300230Y40182D01*
X299659Y39194D01*
X299364Y38092D01*
Y36950D01*
X299659Y35848D01*
X300230Y34860D01*
X301037Y34053D01*
X302025Y33482D01*
X303128Y33187D01*
X304269D01*
X305371Y33482D01*
X306360Y34053D01*
X306984Y34677D01*
X307484Y34470D01*
Y-23042D01*
X304261D01*
Y-31916D01*
X307484D01*
Y-34428D01*
X306984Y-34635D01*
X306360Y-34011D01*
X305371Y-33440D01*
X304269Y-33145D01*
X303128D01*
X302025Y-33440D01*
X301037Y-34011D01*
X300230Y-34818D01*
X299659Y-35806D01*
X299364Y-36908D01*
Y-38050D01*
X299659Y-39152D01*
X300230Y-40140D01*
X301037Y-40947D01*
X302025Y-41518D01*
X303128Y-41813D01*
X304269D01*
X305371Y-41518D01*
X305711Y-41322D01*
X306181Y-41627D01*
Y-98042D01*
X304261D01*
Y-106916D01*
X313135D01*
Y-98042D01*
X311215D01*
Y-42435D01*
X311781Y-41869D01*
X312326Y-41053D01*
X312518Y-40090D01*
Y-31916D01*
X313135D01*
Y-23042D01*
X312518D01*
Y43084D01*
X313135D01*
Y51958D01*
X312518D01*
Y118084D01*
X313135D01*
Y126958D01*
X312518D01*
Y193084D01*
X313135D01*
Y201958D01*
X312518D01*
Y268084D01*
X313135D01*
Y276958D01*
X312518D01*
Y343084D01*
X313135D01*
Y351958D01*
X312518D01*
Y418084D01*
X313135D01*
Y426958D01*
X312518D01*
Y493084D01*
X313135D01*
Y501958D01*
X312518D01*
Y568084D01*
X313135D01*
Y576958D01*
D02*
G37*
G36*
X-101592Y565126D02*
X-102742D01*
Y563439D01*
X-99705D01*
X-99802Y563931D01*
X-100222Y564559D01*
X-100851Y564979D01*
X-101592Y565126D01*
D02*
G37*
G36*
X-103242D02*
X-104392D01*
X-105133Y564979D01*
X-105762Y564559D01*
X-106182Y563931D01*
X-106280Y563439D01*
X-103242D01*
Y565126D01*
D02*
G37*
G36*
X21646Y570793D02*
X20505D01*
X19403Y570498D01*
X18414Y569927D01*
X17607Y569120D01*
X17037Y568132D01*
X16741Y567030D01*
Y565889D01*
X17037Y564786D01*
X17607Y563798D01*
X18414Y562991D01*
X19403Y562420D01*
X20505Y562125D01*
X21646D01*
X22749Y562420D01*
X23737Y562991D01*
X24544Y563798D01*
X25115Y564786D01*
X25410Y565889D01*
Y567030D01*
X25115Y568132D01*
X24544Y569120D01*
X23737Y569927D01*
X22749Y570498D01*
X21646Y570793D01*
D02*
G37*
G36*
X-18354D02*
X-19495D01*
X-20597Y570498D01*
X-21586Y569927D01*
X-22392Y569120D01*
X-22963Y568132D01*
X-23258Y567030D01*
Y565889D01*
X-22963Y564786D01*
X-22392Y563798D01*
X-21586Y562991D01*
X-20597Y562420D01*
X-19495Y562125D01*
X-18354D01*
X-17251Y562420D01*
X-16263Y562991D01*
X-15456Y563798D01*
X-14885Y564786D01*
X-14590Y565889D01*
Y567030D01*
X-14885Y568132D01*
X-15456Y569120D01*
X-16263Y569927D01*
X-17251Y570498D01*
X-18354Y570793D01*
D02*
G37*
G36*
X-99705Y562939D02*
X-102742D01*
Y561252D01*
X-101592D01*
X-100851Y561399D01*
X-100222Y561819D01*
X-99802Y562448D01*
X-99705Y562939D01*
D02*
G37*
G36*
X-103242D02*
X-106280D01*
X-106182Y562448D01*
X-105762Y561819D01*
X-105133Y561399D01*
X-104392Y561252D01*
X-103242D01*
Y562939D01*
D02*
G37*
G36*
X344269Y566855D02*
X343128D01*
X342025Y566560D01*
X341037Y565989D01*
X340230Y565182D01*
X339659Y564194D01*
X339364Y563092D01*
Y561950D01*
X339659Y560848D01*
X340230Y559860D01*
X341037Y559053D01*
X342025Y558482D01*
X343128Y558187D01*
X344269D01*
X345371Y558482D01*
X346359Y559053D01*
X347166Y559860D01*
X347737Y560848D01*
X348032Y561950D01*
Y563092D01*
X347737Y564194D01*
X347166Y565182D01*
X346359Y565989D01*
X345371Y566560D01*
X344269Y566855D01*
D02*
G37*
G36*
X-277568Y566855D02*
X-278709D01*
X-279811Y566560D01*
X-280800Y565989D01*
X-281607Y565182D01*
X-282177Y564194D01*
X-282473Y563091D01*
Y561950D01*
X-282177Y560848D01*
X-281607Y559859D01*
X-280800Y559052D01*
X-279811Y558482D01*
X-278709Y558186D01*
X-277568D01*
X-276466Y558482D01*
X-275477Y559052D01*
X-274670Y559859D01*
X-274100Y560848D01*
X-273804Y561950D01*
Y563091D01*
X-274100Y564194D01*
X-274670Y565182D01*
X-275477Y565989D01*
X-276466Y566560D01*
X-277568Y566855D01*
D02*
G37*
G36*
X-317568D02*
X-318709D01*
X-319811Y566560D01*
X-320800Y565989D01*
X-321607Y565182D01*
X-322177Y564194D01*
X-322473Y563091D01*
Y561950D01*
X-322177Y560848D01*
X-321607Y559859D01*
X-320800Y559052D01*
X-319811Y558482D01*
X-318709Y558186D01*
X-317568D01*
X-316465Y558482D01*
X-315477Y559052D01*
X-314670Y559859D01*
X-314100Y560848D01*
X-313804Y561950D01*
Y563091D01*
X-314100Y564194D01*
X-314670Y565182D01*
X-315477Y565989D01*
X-316465Y566560D01*
X-317568Y566855D01*
D02*
G37*
G36*
X1946Y575293D02*
X206D01*
X-1501Y574954D01*
X-3109Y574288D01*
X-4556Y573321D01*
X-5786Y572091D01*
X-6753Y570644D01*
X-7419Y569036D01*
X-7758Y567329D01*
Y565589D01*
X-7419Y563882D01*
X-6753Y562275D01*
X-5786Y560828D01*
X-4556Y559597D01*
X-3109Y558630D01*
X-1501Y557964D01*
X206Y557625D01*
X1946D01*
X3653Y557964D01*
X5260Y558630D01*
X6707Y559597D01*
X7938Y560828D01*
X8905Y562275D01*
X9571Y563882D01*
X9910Y565589D01*
Y567329D01*
X9571Y569036D01*
X8905Y570644D01*
X7938Y572091D01*
X6707Y573321D01*
X5260Y574288D01*
X3653Y574954D01*
X1946Y575293D01*
D02*
G37*
G36*
X324568Y571355D02*
X322828D01*
X321121Y571016D01*
X319514Y570350D01*
X318067Y569383D01*
X316836Y568153D01*
X315869Y566706D01*
X315203Y565098D01*
X314864Y563391D01*
Y561651D01*
X315203Y559944D01*
X315869Y558336D01*
X316836Y556889D01*
X318067Y555659D01*
X319514Y554692D01*
X321121Y554026D01*
X322828Y553687D01*
X324568D01*
X326275Y554026D01*
X327883Y554692D01*
X329330Y555659D01*
X330560Y556889D01*
X331527Y558336D01*
X332193Y559944D01*
X332533Y561651D01*
Y563391D01*
X332193Y565098D01*
X331527Y566706D01*
X330560Y568153D01*
X329330Y569383D01*
X327883Y570350D01*
X326275Y571016D01*
X324568Y571355D01*
D02*
G37*
G36*
X-207566Y552766D02*
X-210616D01*
Y551116D01*
X-207566D01*
Y552766D01*
D02*
G37*
G36*
X-211116D02*
X-214166D01*
Y551116D01*
X-211116D01*
Y552766D01*
D02*
G37*
G36*
X-100012Y556189D02*
X-111012D01*
Y550189D01*
X-100012D01*
Y556189D01*
D02*
G37*
G36*
X-207566Y550616D02*
X-210616D01*
Y548966D01*
X-207566D01*
Y550616D01*
D02*
G37*
G36*
X-211116D02*
X-214166D01*
Y548966D01*
X-211116D01*
Y550616D01*
D02*
G37*
G36*
X-101592Y545126D02*
X-102742D01*
Y543439D01*
X-99705D01*
X-99802Y543930D01*
X-100222Y544559D01*
X-100851Y544979D01*
X-101592Y545126D01*
D02*
G37*
G36*
X-103242D02*
X-104392D01*
X-105133Y544979D01*
X-105762Y544559D01*
X-106182Y543930D01*
X-106280Y543439D01*
X-103242D01*
Y545126D01*
D02*
G37*
G36*
X-99705Y542939D02*
X-102742D01*
Y541252D01*
X-101592D01*
X-100851Y541399D01*
X-100222Y541819D01*
X-99802Y542448D01*
X-99705Y542939D01*
D02*
G37*
G36*
X-103242D02*
X-106280D01*
X-106182Y542448D01*
X-105762Y541819D01*
X-105133Y541399D01*
X-104392Y541252D01*
X-103242D01*
Y542939D01*
D02*
G37*
G36*
X108702Y585977D02*
X107833D01*
X106994Y585752D01*
X106242Y585318D01*
X105627Y584703D01*
X105193Y583951D01*
X104968Y583112D01*
Y582243D01*
X105193Y581403D01*
X105627Y580651D01*
X106242Y580036D01*
X106994Y579602D01*
X107248Y579534D01*
Y544436D01*
X107011Y544373D01*
X106269Y543944D01*
X105662Y543338D01*
X105234Y542595D01*
X105012Y541767D01*
Y540910D01*
X105234Y540082D01*
X105662Y539339D01*
X106269Y538733D01*
X107011Y538305D01*
X107839Y538083D01*
X108696D01*
X109525Y538305D01*
X110267Y538733D01*
X110873Y539339D01*
X111302Y540082D01*
X111365Y540319D01*
X124500D01*
Y537886D01*
X131405D01*
Y544791D01*
X124500D01*
Y542358D01*
X111365D01*
X111302Y542595D01*
X110873Y543338D01*
X110267Y543944D01*
X109525Y544373D01*
X109287Y544436D01*
Y579534D01*
X109541Y579602D01*
X110294Y580036D01*
X110908Y580651D01*
X111343Y581403D01*
X111568Y582243D01*
Y583112D01*
X111343Y583951D01*
X110908Y584703D01*
X110294Y585318D01*
X109541Y585752D01*
X108702Y585977D01*
D02*
G37*
G36*
X131405Y534949D02*
X124500D01*
Y532358D01*
X111524D01*
Y534594D01*
X105012D01*
Y531642D01*
X77855Y504485D01*
X-37611D01*
X-38189Y504819D01*
X-38967Y505027D01*
X-39773D01*
X-40551Y504819D01*
X-40737Y504711D01*
X-106823D01*
Y508374D01*
X-111366D01*
Y504685D01*
X-111420Y504605D01*
X-111611Y503642D01*
Y502391D01*
X-111420Y501428D01*
X-111366Y501348D01*
Y498910D01*
X-106823D01*
Y499678D01*
X-41405D01*
X-41248Y499521D01*
X-40551Y499118D01*
X-39773Y498910D01*
X-38967D01*
X-38189Y499118D01*
X-37611Y499452D01*
X78898D01*
X79861Y499643D01*
X80677Y500189D01*
X105289Y524800D01*
X105751Y524609D01*
Y339113D01*
X29952Y263315D01*
X29538D01*
X28644Y263076D01*
X27844Y262613D01*
X27190Y261960D01*
X26728Y261159D01*
X26488Y260265D01*
Y259341D01*
X26728Y258448D01*
X27190Y257647D01*
X27844Y256993D01*
X28644Y256531D01*
X29538Y256291D01*
X30462D01*
X31356Y256531D01*
X32156Y256993D01*
X32810Y257647D01*
X33272Y258448D01*
X33512Y259341D01*
Y259756D01*
X110047Y336291D01*
X110593Y337108D01*
X110785Y338071D01*
Y528083D01*
X111524D01*
Y530319D01*
X124500D01*
Y528043D01*
X131405D01*
Y534949D01*
D02*
G37*
G36*
X-124854Y508374D02*
X-126876D01*
Y503892D01*
X-124854D01*
Y508374D01*
D02*
G37*
G36*
X-127376D02*
X-129398D01*
Y503892D01*
X-127376D01*
Y508374D01*
D02*
G37*
G36*
X334282Y511958D02*
X333114D01*
X331986Y511656D01*
X330974Y511072D01*
X330148Y510245D01*
X329564Y509234D01*
X329261Y508105D01*
Y506937D01*
X329564Y505808D01*
X330148Y504797D01*
X330974Y503971D01*
X331986Y503386D01*
X333114Y503084D01*
X334282D01*
X335411Y503386D01*
X336423Y503971D01*
X337249Y504797D01*
X337833Y505808D01*
X338135Y506937D01*
Y508105D01*
X337833Y509234D01*
X337249Y510245D01*
X336423Y511072D01*
X335411Y511656D01*
X334282Y511958D01*
D02*
G37*
G36*
X-183949Y505027D02*
X-186758D01*
Y502218D01*
X-183949D01*
Y505027D01*
D02*
G37*
G36*
X-187258D02*
X-190067D01*
Y502218D01*
X-187258D01*
Y505027D01*
D02*
G37*
G36*
X-124854Y503392D02*
X-126876D01*
Y498910D01*
X-124854D01*
Y503392D01*
D02*
G37*
G36*
X-127376D02*
X-129398D01*
Y498910D01*
X-127376D01*
Y503392D01*
D02*
G37*
G36*
X-183949Y501719D02*
X-186758D01*
Y498910D01*
X-183949D01*
Y501719D01*
D02*
G37*
G36*
X-187258D02*
X-190067D01*
Y498910D01*
X-187258D01*
Y501719D01*
D02*
G37*
G36*
X-308701Y501958D02*
X-317576D01*
Y493084D01*
X-308701D01*
Y501958D01*
D02*
G37*
G36*
X344269Y491855D02*
X343128D01*
X342025Y491560D01*
X341037Y490989D01*
X340230Y490182D01*
X339659Y489194D01*
X339364Y488092D01*
Y486950D01*
X339659Y485848D01*
X340230Y484860D01*
X341037Y484053D01*
X342025Y483482D01*
X343128Y483187D01*
X344269D01*
X345371Y483482D01*
X346359Y484053D01*
X347166Y484860D01*
X347737Y485848D01*
X348032Y486950D01*
Y488092D01*
X347737Y489194D01*
X347166Y490182D01*
X346359Y490989D01*
X345371Y491560D01*
X344269Y491855D01*
D02*
G37*
G36*
X-277568Y491855D02*
X-278709D01*
X-279811Y491560D01*
X-280800Y490989D01*
X-281607Y490182D01*
X-282177Y489194D01*
X-282473Y488091D01*
Y486950D01*
X-282177Y485848D01*
X-281607Y484859D01*
X-280800Y484052D01*
X-279811Y483482D01*
X-278709Y483186D01*
X-277568D01*
X-276466Y483482D01*
X-275477Y484052D01*
X-274670Y484859D01*
X-274100Y485848D01*
X-273804Y486950D01*
Y488091D01*
X-274100Y489194D01*
X-274670Y490182D01*
X-275477Y490989D01*
X-276466Y491560D01*
X-277568Y491855D01*
D02*
G37*
G36*
X-317568D02*
X-318709D01*
X-319811Y491560D01*
X-320800Y490989D01*
X-321607Y490182D01*
X-322177Y489194D01*
X-322473Y488091D01*
Y486950D01*
X-322177Y485848D01*
X-321607Y484859D01*
X-320800Y484052D01*
X-319811Y483482D01*
X-318709Y483186D01*
X-317568D01*
X-316465Y483482D01*
X-315477Y484052D01*
X-314670Y484859D01*
X-314100Y485848D01*
X-313804Y486950D01*
Y488091D01*
X-314100Y489194D01*
X-314670Y490182D01*
X-315477Y490989D01*
X-316465Y491560D01*
X-317568Y491855D01*
D02*
G37*
G36*
X-36311Y485343D02*
X-39120D01*
Y482534D01*
X-36311D01*
Y485343D01*
D02*
G37*
G36*
X-39620D02*
X-42429D01*
Y482534D01*
X-39620D01*
Y485343D01*
D02*
G37*
G36*
X-36311Y482033D02*
X-39120D01*
Y479224D01*
X-36311D01*
Y482033D01*
D02*
G37*
G36*
X-39620D02*
X-42429D01*
Y479224D01*
X-39620D01*
Y482033D01*
D02*
G37*
G36*
X324568Y496355D02*
X322828D01*
X321121Y496016D01*
X319514Y495350D01*
X318067Y494383D01*
X316836Y493153D01*
X315869Y491706D01*
X315203Y490098D01*
X314864Y488391D01*
Y486651D01*
X315203Y484944D01*
X315869Y483336D01*
X316836Y481889D01*
X318067Y480659D01*
X319514Y479692D01*
X321121Y479026D01*
X322828Y478687D01*
X324568D01*
X326275Y479026D01*
X327883Y479692D01*
X329330Y480659D01*
X330560Y481889D01*
X331527Y483336D01*
X332193Y484944D01*
X332533Y486651D01*
Y488391D01*
X332193Y490098D01*
X331527Y491706D01*
X330560Y493153D01*
X329330Y494383D01*
X327883Y495350D01*
X326275Y496016D01*
X324568Y496355D01*
D02*
G37*
G36*
X-207566Y542766D02*
X-214166D01*
Y539589D01*
X-214191Y539544D01*
X-214182Y539510D01*
X-214195Y539478D01*
X-214166Y539408D01*
Y538966D01*
X-213765D01*
X-213720Y538941D01*
X-213473Y538910D01*
X-213322Y538848D01*
X-213178Y538736D01*
X-213031Y538552D01*
X-212888Y538278D01*
X-212759Y537910D01*
X-212653Y537450D01*
X-212574Y536900D01*
X-212526Y536263D01*
X-212517Y535853D01*
Y505276D01*
X-212325Y504312D01*
X-211780Y503496D01*
X-190031Y481747D01*
X-189858Y481103D01*
X-189456Y480405D01*
X-188886Y479836D01*
X-188189Y479433D01*
X-187411Y479224D01*
X-186605D01*
X-185827Y479433D01*
X-185641Y479541D01*
X-156226D01*
X-156155Y479540D01*
X-154922Y479477D01*
X-154441Y479424D01*
X-154044Y479357D01*
X-153742Y479281D01*
X-153544Y479206D01*
X-153478Y479166D01*
X-153473Y479148D01*
X-153461Y479132D01*
Y478770D01*
X-153020D01*
X-152949Y478741D01*
X-152884Y478768D01*
X-152815Y478758D01*
X-152798Y478770D01*
X-147219D01*
X-147203Y478758D01*
X-147133Y478768D01*
X-147068Y478741D01*
X-146997Y478770D01*
X-146556D01*
Y479132D01*
X-146544Y479148D01*
X-146539Y479166D01*
X-146474Y479206D01*
X-146275Y479281D01*
X-145973Y479357D01*
X-145587Y479422D01*
X-143858Y479540D01*
X-143791Y479541D01*
X-128167D01*
X-127714Y479529D01*
X-127081Y479473D01*
X-126535Y479382D01*
X-126080Y479260D01*
X-125717Y479112D01*
X-125445Y478946D01*
X-125255Y478770D01*
X-125130Y478584D01*
X-125055Y478373D01*
X-125022Y478063D01*
X-125008Y478037D01*
Y475878D01*
X-111213D01*
Y485343D01*
X-114068D01*
X-114117Y485369D01*
X-114427Y485401D01*
X-114638Y485476D01*
X-114824Y485600D01*
X-115000Y485789D01*
X-115165Y486060D01*
X-115313Y486421D01*
X-115435Y486875D01*
X-115526Y487419D01*
X-115582Y488051D01*
X-115593Y488503D01*
Y503642D01*
X-115785Y504605D01*
X-115839Y504685D01*
Y508374D01*
X-120382D01*
Y504685D01*
X-120436Y504605D01*
X-120627Y503642D01*
Y488503D01*
X-120639Y488051D01*
X-120695Y487419D01*
X-120785Y486875D01*
X-120907Y486421D01*
X-121055Y486060D01*
X-121221Y485789D01*
X-121397Y485600D01*
X-121582Y485476D01*
X-121793Y485401D01*
X-122104Y485369D01*
X-122152Y485343D01*
X-124345D01*
X-124361Y485355D01*
X-124431Y485345D01*
X-124497Y485372D01*
X-124567Y485343D01*
X-125008D01*
Y484982D01*
X-125020Y484966D01*
X-125024Y484948D01*
X-125090Y484908D01*
X-125288Y484833D01*
X-125591Y484757D01*
X-125976Y484693D01*
X-127706Y484575D01*
X-127771Y484574D01*
X-143345D01*
X-144513Y484612D01*
X-145071Y484666D01*
X-145546Y484739D01*
X-145931Y484830D01*
X-146219Y484932D01*
X-146404Y485032D01*
X-146492Y485108D01*
X-146514Y485144D01*
X-146535Y485261D01*
X-146556Y485292D01*
Y485676D01*
X-146997D01*
X-147068Y485705D01*
X-147115Y485685D01*
X-147165Y485696D01*
X-147196Y485676D01*
X-152821D01*
X-152852Y485696D01*
X-152902Y485685D01*
X-152949Y485705D01*
X-153020Y485676D01*
X-153461D01*
Y485292D01*
X-153482Y485261D01*
X-153503Y485144D01*
X-153525Y485108D01*
X-153613Y485032D01*
X-153799Y484932D01*
X-154086Y484830D01*
X-154471Y484739D01*
X-154940Y484667D01*
X-156162Y484578D01*
X-156420Y484574D01*
X-184973D01*
X-185130Y484731D01*
X-185827Y485134D01*
X-186472Y485307D01*
X-207483Y506318D01*
Y540000D01*
X-207566Y540417D01*
Y542766D01*
D02*
G37*
G36*
X334282Y436958D02*
X333114D01*
X331986Y436656D01*
X330974Y436072D01*
X330148Y435245D01*
X329564Y434234D01*
X329261Y433105D01*
Y431937D01*
X329564Y430808D01*
X330148Y429797D01*
X330974Y428971D01*
X331986Y428386D01*
X333114Y428084D01*
X334282D01*
X335411Y428386D01*
X336423Y428971D01*
X337249Y429797D01*
X337833Y430808D01*
X338135Y431937D01*
Y433105D01*
X337833Y434234D01*
X337249Y435245D01*
X336423Y436072D01*
X335411Y436656D01*
X334282Y436958D01*
D02*
G37*
G36*
X-308701Y426958D02*
X-317576D01*
Y418084D01*
X-308701D01*
Y426958D01*
D02*
G37*
G36*
X344269Y416855D02*
X343128D01*
X342025Y416560D01*
X341037Y415989D01*
X340230Y415182D01*
X339659Y414194D01*
X339364Y413092D01*
Y411950D01*
X339659Y410848D01*
X340230Y409860D01*
X341037Y409053D01*
X342025Y408482D01*
X343128Y408187D01*
X344269D01*
X345371Y408482D01*
X346359Y409053D01*
X347166Y409860D01*
X347737Y410848D01*
X348032Y411950D01*
Y413092D01*
X347737Y414194D01*
X347166Y415182D01*
X346359Y415989D01*
X345371Y416560D01*
X344269Y416855D01*
D02*
G37*
G36*
X-277568Y416855D02*
X-278709D01*
X-279811Y416560D01*
X-280800Y415989D01*
X-281607Y415182D01*
X-282177Y414194D01*
X-282473Y413091D01*
Y411950D01*
X-282177Y410848D01*
X-281607Y409859D01*
X-280800Y409052D01*
X-279811Y408482D01*
X-278709Y408186D01*
X-277568D01*
X-276466Y408482D01*
X-275477Y409052D01*
X-274670Y409859D01*
X-274100Y410848D01*
X-273804Y411950D01*
Y413091D01*
X-274100Y414194D01*
X-274670Y415182D01*
X-275477Y415989D01*
X-276466Y416560D01*
X-277568Y416855D01*
D02*
G37*
G36*
X-317568D02*
X-318709D01*
X-319811Y416560D01*
X-320800Y415989D01*
X-321607Y415182D01*
X-322177Y414194D01*
X-322473Y413091D01*
Y411950D01*
X-322177Y410848D01*
X-321607Y409859D01*
X-320800Y409052D01*
X-319811Y408482D01*
X-318709Y408186D01*
X-317568D01*
X-316465Y408482D01*
X-315477Y409052D01*
X-314670Y409859D01*
X-314100Y410848D01*
X-313804Y411950D01*
Y413091D01*
X-314100Y414194D01*
X-314670Y415182D01*
X-315477Y415989D01*
X-316465Y416560D01*
X-317568Y416855D01*
D02*
G37*
G36*
X324568Y421355D02*
X322828D01*
X321121Y421016D01*
X319514Y420350D01*
X318067Y419383D01*
X316836Y418153D01*
X315869Y416706D01*
X315203Y415098D01*
X314864Y413391D01*
Y411651D01*
X315203Y409944D01*
X315869Y408336D01*
X316836Y406890D01*
X318067Y405659D01*
X319514Y404692D01*
X321121Y404026D01*
X322828Y403687D01*
X324568D01*
X326275Y404026D01*
X327883Y404692D01*
X329330Y405659D01*
X330560Y406890D01*
X331527Y408336D01*
X332193Y409944D01*
X332533Y411651D01*
Y413391D01*
X332193Y415098D01*
X331527Y416706D01*
X330560Y418153D01*
X329330Y419383D01*
X327883Y420350D01*
X326275Y421016D01*
X324568Y421355D01*
D02*
G37*
G36*
X462Y393315D02*
X250D01*
Y390053D01*
X3512D01*
Y390265D01*
X3272Y391159D01*
X2810Y391960D01*
X2156Y392613D01*
X1355Y393076D01*
X462Y393315D01*
D02*
G37*
G36*
X-250D02*
X-462D01*
X-1355Y393076D01*
X-2156Y392613D01*
X-2810Y391960D01*
X-3272Y391159D01*
X-3512Y390265D01*
Y390053D01*
X-250D01*
Y393315D01*
D02*
G37*
G36*
X30462D02*
X29538D01*
X28644Y393076D01*
X27844Y392613D01*
X27190Y391960D01*
X26728Y391159D01*
X26488Y390265D01*
Y389341D01*
X26728Y388448D01*
X27190Y387647D01*
X27844Y386993D01*
X28644Y386531D01*
X29538Y386291D01*
X30462D01*
X31356Y386531D01*
X32156Y386993D01*
X32810Y387647D01*
X33272Y388448D01*
X33512Y389341D01*
Y390265D01*
X33272Y391159D01*
X32810Y391960D01*
X32156Y392613D01*
X31356Y393076D01*
X30462Y393315D01*
D02*
G37*
G36*
X20462D02*
X19538D01*
X18644Y393076D01*
X17844Y392613D01*
X17190Y391960D01*
X16727Y391159D01*
X16488Y390265D01*
Y389341D01*
X16727Y388448D01*
X17190Y387647D01*
X17844Y386993D01*
X18644Y386531D01*
X19538Y386291D01*
X20462D01*
X21355Y386531D01*
X22156Y386993D01*
X22810Y387647D01*
X23272Y388448D01*
X23512Y389341D01*
Y390265D01*
X23272Y391159D01*
X22810Y391960D01*
X22156Y392613D01*
X21355Y393076D01*
X20462Y393315D01*
D02*
G37*
G36*
X10462D02*
X9538D01*
X8644Y393076D01*
X7844Y392613D01*
X7190Y391960D01*
X6728Y391159D01*
X6488Y390265D01*
Y389341D01*
X6728Y388448D01*
X7190Y387647D01*
X7844Y386993D01*
X8644Y386531D01*
X9538Y386291D01*
X10462D01*
X11355Y386531D01*
X12156Y386993D01*
X12810Y387647D01*
X13273Y388448D01*
X13512Y389341D01*
Y390265D01*
X13273Y391159D01*
X12810Y391960D01*
X12156Y392613D01*
X11355Y393076D01*
X10462Y393315D01*
D02*
G37*
G36*
X3512Y389553D02*
X250D01*
Y386291D01*
X462D01*
X1355Y386531D01*
X2156Y386993D01*
X2810Y387647D01*
X3272Y388448D01*
X3512Y389341D01*
Y389553D01*
D02*
G37*
G36*
X-250D02*
X-3512D01*
Y389341D01*
X-3272Y388448D01*
X-2810Y387647D01*
X-2156Y386993D01*
X-1355Y386531D01*
X-462Y386291D01*
X-250D01*
Y389553D01*
D02*
G37*
G36*
X-9538Y393315D02*
X-10462D01*
X-11355Y393076D01*
X-12156Y392613D01*
X-12810Y391960D01*
X-13273Y391159D01*
X-13512Y390265D01*
Y389341D01*
X-13273Y388448D01*
X-12810Y387647D01*
X-12156Y386993D01*
X-11355Y386531D01*
X-10462Y386291D01*
X-9538D01*
X-8644Y386531D01*
X-7844Y386993D01*
X-7190Y387647D01*
X-6728Y388448D01*
X-6488Y389341D01*
Y390265D01*
X-6728Y391159D01*
X-7190Y391960D01*
X-7844Y392613D01*
X-8644Y393076D01*
X-9538Y393315D01*
D02*
G37*
G36*
X-19538D02*
X-20462D01*
X-21355Y393076D01*
X-22156Y392613D01*
X-22810Y391960D01*
X-23272Y391159D01*
X-23512Y390265D01*
Y389341D01*
X-23272Y388448D01*
X-22810Y387647D01*
X-22156Y386993D01*
X-21355Y386531D01*
X-20462Y386291D01*
X-19538D01*
X-18644Y386531D01*
X-17844Y386993D01*
X-17190Y387647D01*
X-16727Y388448D01*
X-16488Y389341D01*
Y390265D01*
X-16727Y391159D01*
X-17190Y391960D01*
X-17844Y392613D01*
X-18644Y393076D01*
X-19538Y393315D01*
D02*
G37*
G36*
X-29538D02*
X-30462D01*
X-31356Y393076D01*
X-32156Y392613D01*
X-32810Y391960D01*
X-33272Y391159D01*
X-33512Y390265D01*
Y389341D01*
X-33272Y388448D01*
X-32810Y387647D01*
X-32156Y386993D01*
X-31356Y386531D01*
X-30462Y386291D01*
X-29538D01*
X-28644Y386531D01*
X-27844Y386993D01*
X-27190Y387647D01*
X-26728Y388448D01*
X-26488Y389341D01*
Y390265D01*
X-26728Y391159D01*
X-27190Y391960D01*
X-27844Y392613D01*
X-28644Y393076D01*
X-29538Y393315D01*
D02*
G37*
G36*
X-213378Y382685D02*
X-216285D01*
Y380762D01*
X-213378D01*
Y382685D01*
D02*
G37*
G36*
X-216785D02*
X-219693D01*
Y380762D01*
X-216785D01*
Y382685D01*
D02*
G37*
G36*
X-213378Y380262D02*
X-216285D01*
Y378339D01*
X-213378D01*
Y380262D01*
D02*
G37*
G36*
X-216785D02*
X-219693D01*
Y378339D01*
X-216785D01*
Y380262D01*
D02*
G37*
G36*
X30462Y383315D02*
X29538D01*
X28644Y383076D01*
X27844Y382613D01*
X27190Y381960D01*
X26728Y381159D01*
X26488Y380265D01*
Y379341D01*
X26728Y378448D01*
X27190Y377647D01*
X27844Y376993D01*
X28644Y376531D01*
X29538Y376291D01*
X30462D01*
X31356Y376531D01*
X32156Y376993D01*
X32810Y377647D01*
X33272Y378448D01*
X33512Y379341D01*
Y380265D01*
X33272Y381159D01*
X32810Y381960D01*
X32156Y382613D01*
X31356Y383076D01*
X30462Y383315D01*
D02*
G37*
G36*
X-29538D02*
X-30462D01*
X-31356Y383076D01*
X-32156Y382613D01*
X-32810Y381960D01*
X-33272Y381159D01*
X-33512Y380265D01*
Y379341D01*
X-33272Y378448D01*
X-32810Y377647D01*
X-32156Y376993D01*
X-31356Y376531D01*
X-30462Y376291D01*
X-29538D01*
X-28644Y376531D01*
X-27844Y376993D01*
X-27190Y377647D01*
X-26728Y378448D01*
X-26488Y379341D01*
Y380265D01*
X-26728Y381159D01*
X-27190Y381960D01*
X-27844Y382613D01*
X-28644Y383076D01*
X-29538Y383315D01*
D02*
G37*
G36*
X30462Y373315D02*
X29538D01*
X28644Y373076D01*
X27844Y372613D01*
X27190Y371959D01*
X26728Y371159D01*
X26488Y370266D01*
Y369341D01*
X26728Y368448D01*
X27190Y367647D01*
X27844Y366993D01*
X28644Y366531D01*
X29538Y366291D01*
X30462D01*
X31356Y366531D01*
X32156Y366993D01*
X32810Y367647D01*
X33272Y368448D01*
X33512Y369341D01*
Y370266D01*
X33272Y371159D01*
X32810Y371959D01*
X32156Y372613D01*
X31356Y373076D01*
X30462Y373315D01*
D02*
G37*
G36*
X-29538D02*
X-30462D01*
X-31356Y373076D01*
X-32156Y372613D01*
X-32810Y371959D01*
X-33272Y371159D01*
X-33512Y370266D01*
Y369341D01*
X-33272Y368448D01*
X-32810Y367647D01*
X-32156Y366993D01*
X-31356Y366531D01*
X-30462Y366291D01*
X-29538D01*
X-28644Y366531D01*
X-27844Y366993D01*
X-27190Y367647D01*
X-26728Y368448D01*
X-26488Y369341D01*
Y370266D01*
X-26728Y371159D01*
X-27190Y371959D01*
X-27844Y372613D01*
X-28644Y373076D01*
X-29538Y373315D01*
D02*
G37*
G36*
X30462Y363315D02*
X29538D01*
X28644Y363076D01*
X27844Y362613D01*
X27190Y361960D01*
X26728Y361159D01*
X26488Y360265D01*
Y359341D01*
X26728Y358448D01*
X27190Y357647D01*
X27844Y356993D01*
X28644Y356531D01*
X29538Y356291D01*
X30462D01*
X31356Y356531D01*
X32156Y356993D01*
X32810Y357647D01*
X33272Y358448D01*
X33512Y359341D01*
Y360265D01*
X33272Y361159D01*
X32810Y361960D01*
X32156Y362613D01*
X31356Y363076D01*
X30462Y363315D01*
D02*
G37*
G36*
X-29538D02*
X-30462D01*
X-31356Y363076D01*
X-32156Y362613D01*
X-32810Y361960D01*
X-33272Y361159D01*
X-33512Y360265D01*
Y359341D01*
X-33272Y358448D01*
X-32810Y357647D01*
X-32156Y356993D01*
X-31356Y356531D01*
X-30462Y356291D01*
X-29538D01*
X-28644Y356531D01*
X-27844Y356993D01*
X-27190Y357647D01*
X-26728Y358448D01*
X-26488Y359341D01*
Y360265D01*
X-26728Y361159D01*
X-27190Y361960D01*
X-27844Y362613D01*
X-28644Y363076D01*
X-29538Y363315D01*
D02*
G37*
G36*
X334282Y361958D02*
X333114D01*
X331986Y361656D01*
X330974Y361071D01*
X330148Y360245D01*
X329564Y359234D01*
X329261Y358105D01*
Y356937D01*
X329564Y355808D01*
X330148Y354797D01*
X330974Y353971D01*
X331986Y353386D01*
X333114Y353084D01*
X334282D01*
X335411Y353386D01*
X336423Y353971D01*
X337249Y354797D01*
X337833Y355808D01*
X338135Y356937D01*
Y358105D01*
X337833Y359234D01*
X337249Y360245D01*
X336423Y361071D01*
X335411Y361656D01*
X334282Y361958D01*
D02*
G37*
G36*
X30462Y353315D02*
X29538D01*
X28644Y353076D01*
X27844Y352613D01*
X27190Y351959D01*
X26728Y351159D01*
X26488Y350266D01*
Y349341D01*
X26728Y348448D01*
X27190Y347647D01*
X27844Y346993D01*
X28644Y346531D01*
X29538Y346291D01*
X30462D01*
X31356Y346531D01*
X32156Y346993D01*
X32810Y347647D01*
X33272Y348448D01*
X33512Y349341D01*
Y350266D01*
X33272Y351159D01*
X32810Y351959D01*
X32156Y352613D01*
X31356Y353076D01*
X30462Y353315D01*
D02*
G37*
G36*
X-29538D02*
X-30462D01*
X-31356Y353076D01*
X-32156Y352613D01*
X-32810Y351959D01*
X-33272Y351159D01*
X-33512Y350266D01*
Y349341D01*
X-33272Y348448D01*
X-32810Y347647D01*
X-32156Y346993D01*
X-31356Y346531D01*
X-30462Y346291D01*
X-29538D01*
X-28644Y346531D01*
X-27844Y346993D01*
X-27190Y347647D01*
X-26728Y348448D01*
X-26488Y349341D01*
Y350266D01*
X-26728Y351159D01*
X-27190Y351959D01*
X-27844Y352613D01*
X-28644Y353076D01*
X-29538Y353315D01*
D02*
G37*
G36*
X-308701Y351958D02*
X-317576D01*
Y343084D01*
X-308701D01*
Y351958D01*
D02*
G37*
G36*
X30462Y343315D02*
X29538D01*
X28644Y343076D01*
X27844Y342613D01*
X27190Y341960D01*
X26728Y341159D01*
X26488Y340265D01*
Y339341D01*
X26728Y338448D01*
X27190Y337647D01*
X27844Y336993D01*
X28644Y336531D01*
X29538Y336291D01*
X30462D01*
X31356Y336531D01*
X32156Y336993D01*
X32810Y337647D01*
X33272Y338448D01*
X33512Y339341D01*
Y340265D01*
X33272Y341159D01*
X32810Y341960D01*
X32156Y342613D01*
X31356Y343076D01*
X30462Y343315D01*
D02*
G37*
G36*
X-29538D02*
X-30462D01*
X-31356Y343076D01*
X-32156Y342613D01*
X-32810Y341960D01*
X-33272Y341159D01*
X-33512Y340265D01*
Y339341D01*
X-33272Y338448D01*
X-32810Y337647D01*
X-32156Y336993D01*
X-31356Y336531D01*
X-30462Y336291D01*
X-29538D01*
X-28644Y336531D01*
X-27844Y336993D01*
X-27190Y337647D01*
X-26728Y338448D01*
X-26488Y339341D01*
Y340265D01*
X-26728Y341159D01*
X-27190Y341960D01*
X-27844Y342613D01*
X-28644Y343076D01*
X-29538Y343315D01*
D02*
G37*
G36*
X344269Y341855D02*
X343128D01*
X342025Y341560D01*
X341037Y340989D01*
X340230Y340182D01*
X339659Y339194D01*
X339364Y338092D01*
Y336950D01*
X339659Y335848D01*
X340230Y334860D01*
X341037Y334053D01*
X342025Y333482D01*
X343128Y333187D01*
X344269D01*
X345371Y333482D01*
X346359Y334053D01*
X347166Y334860D01*
X347737Y335848D01*
X348032Y336950D01*
Y338092D01*
X347737Y339194D01*
X347166Y340182D01*
X346359Y340989D01*
X345371Y341560D01*
X344269Y341855D01*
D02*
G37*
G36*
X-277568Y341855D02*
X-278709D01*
X-279811Y341560D01*
X-280800Y340989D01*
X-281607Y340182D01*
X-282177Y339194D01*
X-282473Y338091D01*
Y336950D01*
X-282177Y335848D01*
X-281607Y334859D01*
X-280800Y334052D01*
X-279811Y333482D01*
X-278709Y333186D01*
X-277568D01*
X-276466Y333482D01*
X-275477Y334052D01*
X-274670Y334859D01*
X-274100Y335848D01*
X-273804Y336950D01*
Y338091D01*
X-274100Y339194D01*
X-274670Y340182D01*
X-275477Y340989D01*
X-276466Y341560D01*
X-277568Y341855D01*
D02*
G37*
G36*
X-317568D02*
X-318709D01*
X-319811Y341560D01*
X-320800Y340989D01*
X-321607Y340182D01*
X-322177Y339194D01*
X-322473Y338091D01*
Y336950D01*
X-322177Y335848D01*
X-321607Y334859D01*
X-320800Y334052D01*
X-319811Y333482D01*
X-318709Y333186D01*
X-317568D01*
X-316465Y333482D01*
X-315477Y334052D01*
X-314670Y334859D01*
X-314100Y335848D01*
X-313804Y336950D01*
Y338091D01*
X-314100Y339194D01*
X-314670Y340182D01*
X-315477Y340989D01*
X-316465Y341560D01*
X-317568Y341855D01*
D02*
G37*
G36*
X259063Y333472D02*
X256155D01*
Y331549D01*
X259063D01*
Y333472D01*
D02*
G37*
G36*
X255656D02*
X252748D01*
Y331549D01*
X255656D01*
Y333472D01*
D02*
G37*
G36*
X259063Y331049D02*
X256155D01*
Y329126D01*
X259063D01*
Y331049D01*
D02*
G37*
G36*
X255656D02*
X252748D01*
Y329126D01*
X255656D01*
Y331049D01*
D02*
G37*
G36*
X324568Y346355D02*
X322828D01*
X321121Y346016D01*
X319514Y345350D01*
X318067Y344383D01*
X316836Y343153D01*
X315869Y341706D01*
X315203Y340098D01*
X314864Y338391D01*
Y336651D01*
X315203Y334944D01*
X315869Y333336D01*
X316836Y331890D01*
X318067Y330659D01*
X319514Y329692D01*
X321121Y329026D01*
X322828Y328687D01*
X324568D01*
X326275Y329026D01*
X327883Y329692D01*
X329330Y330659D01*
X330560Y331890D01*
X331527Y333336D01*
X332193Y334944D01*
X332533Y336651D01*
Y338391D01*
X332193Y340098D01*
X331527Y341706D01*
X330560Y343153D01*
X329330Y344383D01*
X327883Y345350D01*
X326275Y346016D01*
X324568Y346355D01*
D02*
G37*
G36*
X30462Y333315D02*
X29538D01*
X28644Y333076D01*
X27844Y332613D01*
X27190Y331960D01*
X26728Y331159D01*
X26488Y330265D01*
Y329341D01*
X26728Y328448D01*
X27190Y327647D01*
X27844Y326993D01*
X28644Y326531D01*
X29538Y326291D01*
X30462D01*
X31356Y326531D01*
X32156Y326993D01*
X32810Y327647D01*
X33272Y328448D01*
X33512Y329341D01*
Y330265D01*
X33272Y331159D01*
X32810Y331960D01*
X32156Y332613D01*
X31356Y333076D01*
X30462Y333315D01*
D02*
G37*
G36*
X-29538D02*
X-30462D01*
X-31356Y333076D01*
X-32156Y332613D01*
X-32810Y331960D01*
X-33272Y331159D01*
X-33512Y330265D01*
Y329341D01*
X-33272Y328448D01*
X-32810Y327647D01*
X-32156Y326993D01*
X-31356Y326531D01*
X-30462Y326291D01*
X-29538D01*
X-28644Y326531D01*
X-27844Y326993D01*
X-27190Y327647D01*
X-26728Y328448D01*
X-26488Y329341D01*
Y330265D01*
X-26728Y331159D01*
X-27190Y331960D01*
X-27844Y332613D01*
X-28644Y333076D01*
X-29538Y333315D01*
D02*
G37*
G36*
X30462Y323315D02*
X29538D01*
X28644Y323076D01*
X27844Y322613D01*
X27190Y321959D01*
X26728Y321159D01*
X26488Y320266D01*
Y319341D01*
X26728Y318448D01*
X27190Y317647D01*
X27844Y316993D01*
X28644Y316531D01*
X29538Y316291D01*
X30462D01*
X31356Y316531D01*
X32156Y316993D01*
X32810Y317647D01*
X33272Y318448D01*
X33512Y319341D01*
Y320266D01*
X33272Y321159D01*
X32810Y321959D01*
X32156Y322613D01*
X31356Y323076D01*
X30462Y323315D01*
D02*
G37*
G36*
X-29538D02*
X-30462D01*
X-31356Y323076D01*
X-32156Y322613D01*
X-32810Y321959D01*
X-33272Y321159D01*
X-33512Y320266D01*
Y319341D01*
X-33272Y318448D01*
X-32810Y317647D01*
X-32156Y316993D01*
X-31356Y316531D01*
X-30462Y316291D01*
X-29538D01*
X-28644Y316531D01*
X-27844Y316993D01*
X-27190Y317647D01*
X-26728Y318448D01*
X-26488Y319341D01*
Y320266D01*
X-26728Y321159D01*
X-27190Y321959D01*
X-27844Y322613D01*
X-28644Y323076D01*
X-29538Y323315D01*
D02*
G37*
G36*
X30462Y313315D02*
X29538D01*
X28644Y313076D01*
X27844Y312613D01*
X27550Y312320D01*
X14528D01*
X13564Y312128D01*
X12748Y311583D01*
X-1780Y297055D01*
X-2325Y296239D01*
X-2517Y295276D01*
Y180618D01*
X-3453D01*
Y173713D01*
X-2517D01*
Y150143D01*
X-2842Y149818D01*
X-3309Y149009D01*
X-3551Y148105D01*
Y147170D01*
X-3309Y146267D01*
X-2842Y145457D01*
X-2180Y144796D01*
X-1371Y144329D01*
X-467Y144087D01*
X467D01*
X1371Y144329D01*
X2180Y144796D01*
X2842Y145457D01*
X3309Y146267D01*
X3551Y147170D01*
Y148105D01*
X3309Y149009D01*
X2842Y149818D01*
X2517Y150143D01*
Y173713D01*
X3453D01*
Y180618D01*
X2517D01*
Y294233D01*
X15570Y307286D01*
X27550D01*
X27844Y306993D01*
X28644Y306531D01*
X29538Y306291D01*
X30462D01*
X31356Y306531D01*
X32156Y306993D01*
X32810Y307647D01*
X33272Y308448D01*
X33512Y309341D01*
Y310265D01*
X33272Y311159D01*
X32810Y311960D01*
X32156Y312613D01*
X31356Y313076D01*
X30462Y313315D01*
D02*
G37*
G36*
X-29538D02*
X-30462D01*
X-31356Y313076D01*
X-32156Y312613D01*
X-32810Y311960D01*
X-33272Y311159D01*
X-33512Y310265D01*
Y309341D01*
X-33272Y308448D01*
X-32810Y307647D01*
X-32156Y306993D01*
X-31356Y306531D01*
X-30462Y306291D01*
X-29538D01*
X-28644Y306531D01*
X-27844Y306993D01*
X-27190Y307647D01*
X-26728Y308448D01*
X-26488Y309341D01*
Y310265D01*
X-26728Y311159D01*
X-27190Y311960D01*
X-27844Y312613D01*
X-28644Y313076D01*
X-29538Y313315D01*
D02*
G37*
G36*
X11811Y467084D02*
X-70866D01*
X-71829Y466892D01*
X-72646Y466347D01*
X-73191Y465530D01*
X-73383Y464567D01*
X-73191Y463604D01*
X-72646Y462787D01*
X-71829Y462242D01*
X-70866Y462050D01*
X10768D01*
X64412Y408406D01*
Y337775D01*
X29952Y303315D01*
X29538D01*
X28644Y303076D01*
X27844Y302613D01*
X27190Y301959D01*
X26728Y301159D01*
X26488Y300266D01*
Y299341D01*
X26728Y298448D01*
X27190Y297647D01*
X27844Y296993D01*
X28644Y296531D01*
X29538Y296291D01*
X30462D01*
X31356Y296531D01*
X32156Y296993D01*
X32810Y297647D01*
X33272Y298448D01*
X33512Y299341D01*
Y299756D01*
X68709Y334953D01*
X69254Y335769D01*
X69446Y336732D01*
Y409449D01*
X69254Y410412D01*
X68709Y411229D01*
X13591Y466347D01*
X12774Y466892D01*
X11811Y467084D01*
D02*
G37*
G36*
X-29538Y303315D02*
X-30462D01*
X-31356Y303076D01*
X-32156Y302613D01*
X-32810Y301959D01*
X-33272Y301159D01*
X-33512Y300266D01*
Y299341D01*
X-33272Y298448D01*
X-32810Y297647D01*
X-32156Y296993D01*
X-31356Y296531D01*
X-30462Y296291D01*
X-29538D01*
X-28644Y296531D01*
X-27844Y296993D01*
X-27190Y297647D01*
X-26728Y298448D01*
X-26488Y299341D01*
Y300266D01*
X-26728Y301159D01*
X-27190Y301959D01*
X-27844Y302613D01*
X-28644Y303076D01*
X-29538Y303315D01*
D02*
G37*
G36*
X30462Y293315D02*
X29538D01*
X28644Y293076D01*
X27844Y292613D01*
X27190Y291960D01*
X26728Y291159D01*
X26488Y290265D01*
Y289341D01*
X26728Y288448D01*
X27190Y287647D01*
X27844Y286993D01*
X28644Y286531D01*
X29538Y286291D01*
X30462D01*
X31356Y286531D01*
X32156Y286993D01*
X32810Y287647D01*
X33272Y288448D01*
X33512Y289341D01*
Y290265D01*
X33272Y291159D01*
X32810Y291960D01*
X32156Y292613D01*
X31356Y293076D01*
X30462Y293315D01*
D02*
G37*
G36*
X-29538D02*
X-30462D01*
X-31356Y293076D01*
X-32156Y292613D01*
X-32810Y291960D01*
X-33272Y291159D01*
X-33512Y290265D01*
Y289341D01*
X-33272Y288448D01*
X-32810Y287647D01*
X-32156Y286993D01*
X-31356Y286531D01*
X-30462Y286291D01*
X-29538D01*
X-28644Y286531D01*
X-27844Y286993D01*
X-27190Y287647D01*
X-26728Y288448D01*
X-26488Y289341D01*
Y290265D01*
X-26728Y291159D01*
X-27190Y291960D01*
X-27844Y292613D01*
X-28644Y293076D01*
X-29538Y293315D01*
D02*
G37*
G36*
X334282Y286958D02*
X333114D01*
X331986Y286656D01*
X330974Y286071D01*
X330148Y285245D01*
X329564Y284234D01*
X329261Y283105D01*
Y281937D01*
X329564Y280808D01*
X330148Y279797D01*
X330974Y278971D01*
X331986Y278386D01*
X333114Y278084D01*
X334282D01*
X335411Y278386D01*
X336423Y278971D01*
X337249Y279797D01*
X337833Y280808D01*
X338135Y281937D01*
Y283105D01*
X337833Y284234D01*
X337249Y285245D01*
X336423Y286071D01*
X335411Y286656D01*
X334282Y286958D01*
D02*
G37*
G36*
X-210866Y563383D02*
X-232930D01*
X-233893Y563191D01*
X-234710Y562646D01*
X-234799Y562556D01*
X-235236D01*
X-235479Y562508D01*
X-239673D01*
Y559761D01*
X-249827Y549607D01*
X-250373Y548790D01*
X-250564Y547827D01*
Y498415D01*
X-250373Y497452D01*
X-249827Y496635D01*
X-33500Y280309D01*
X-33512Y280265D01*
Y279341D01*
X-33272Y278448D01*
X-32810Y277647D01*
X-32156Y276993D01*
X-31356Y276531D01*
X-30462Y276291D01*
X-29538D01*
X-28644Y276531D01*
X-27844Y276993D01*
X-27190Y277647D01*
X-26728Y278448D01*
X-26488Y279341D01*
Y280265D01*
X-26728Y281159D01*
X-27190Y281960D01*
X-27844Y282613D01*
X-28644Y283076D01*
X-29333Y283260D01*
X-245530Y499458D01*
Y546785D01*
X-236713Y555602D01*
X-232768D01*
Y557731D01*
X-231977Y558260D01*
X-231887Y558349D01*
X-210866D01*
X-209903Y558541D01*
X-209266Y558966D01*
X-207566D01*
Y562766D01*
X-209266D01*
X-209903Y563191D01*
X-210866Y563383D01*
D02*
G37*
G36*
X30462Y273315D02*
X30250D01*
Y270053D01*
X33512D01*
Y270266D01*
X33272Y271159D01*
X32810Y271959D01*
X32156Y272613D01*
X31356Y273076D01*
X30462Y273315D01*
D02*
G37*
G36*
X29750D02*
X29538D01*
X28644Y273076D01*
X27844Y272613D01*
X27190Y271959D01*
X26728Y271159D01*
X26488Y270266D01*
Y270053D01*
X29750D01*
Y273315D01*
D02*
G37*
G36*
X-308701Y276958D02*
X-317576D01*
Y268084D01*
X-308701D01*
Y276958D01*
D02*
G37*
G36*
X33512Y269553D02*
X30250D01*
Y266291D01*
X30462D01*
X31356Y266531D01*
X32156Y266993D01*
X32810Y267647D01*
X33272Y268448D01*
X33512Y269341D01*
Y269553D01*
D02*
G37*
G36*
X29750D02*
X26488D01*
Y269341D01*
X26728Y268448D01*
X27190Y267647D01*
X27844Y266993D01*
X28644Y266531D01*
X29538Y266291D01*
X29750D01*
Y269553D01*
D02*
G37*
G36*
X-29538Y263315D02*
X-29750D01*
Y260053D01*
X-26488D01*
Y260265D01*
X-26728Y261159D01*
X-27190Y261960D01*
X-27844Y262613D01*
X-28644Y263076D01*
X-29538Y263315D01*
D02*
G37*
G36*
X-30250D02*
X-30462D01*
X-31356Y263076D01*
X-32156Y262613D01*
X-32810Y261960D01*
X-33272Y261159D01*
X-33512Y260265D01*
Y260053D01*
X-30250D01*
Y263315D01*
D02*
G37*
G36*
X344269Y266855D02*
X343128D01*
X342025Y266560D01*
X341037Y265989D01*
X340230Y265182D01*
X339659Y264194D01*
X339364Y263092D01*
Y261950D01*
X339659Y260848D01*
X340230Y259860D01*
X341037Y259053D01*
X342025Y258482D01*
X343128Y258187D01*
X344269D01*
X345371Y258482D01*
X346359Y259053D01*
X347166Y259860D01*
X347737Y260848D01*
X348032Y261950D01*
Y263092D01*
X347737Y264194D01*
X347166Y265182D01*
X346359Y265989D01*
X345371Y266560D01*
X344269Y266855D01*
D02*
G37*
G36*
X-277568Y266855D02*
X-278709D01*
X-279811Y266560D01*
X-280800Y265989D01*
X-281607Y265182D01*
X-282177Y264194D01*
X-282473Y263091D01*
Y261950D01*
X-282177Y260848D01*
X-281607Y259859D01*
X-280800Y259052D01*
X-279811Y258482D01*
X-278709Y258186D01*
X-277568D01*
X-276466Y258482D01*
X-275477Y259052D01*
X-274670Y259859D01*
X-274100Y260848D01*
X-273804Y261950D01*
Y263091D01*
X-274100Y264194D01*
X-274670Y265182D01*
X-275477Y265989D01*
X-276466Y266560D01*
X-277568Y266855D01*
D02*
G37*
G36*
X-317568D02*
X-318709D01*
X-319811Y266560D01*
X-320800Y265989D01*
X-321607Y265182D01*
X-322177Y264194D01*
X-322473Y263091D01*
Y261950D01*
X-322177Y260848D01*
X-321607Y259859D01*
X-320800Y259052D01*
X-319811Y258482D01*
X-318709Y258186D01*
X-317568D01*
X-316465Y258482D01*
X-315477Y259052D01*
X-314670Y259859D01*
X-314100Y260848D01*
X-313804Y261950D01*
Y263091D01*
X-314100Y264194D01*
X-314670Y265182D01*
X-315477Y265989D01*
X-316465Y266560D01*
X-317568Y266855D01*
D02*
G37*
G36*
X-26488Y259553D02*
X-29750D01*
Y256291D01*
X-29538D01*
X-28644Y256531D01*
X-27844Y256993D01*
X-27190Y257647D01*
X-26728Y258448D01*
X-26488Y259341D01*
Y259553D01*
D02*
G37*
G36*
X-30250D02*
X-33512D01*
Y259341D01*
X-33272Y258448D01*
X-32810Y257647D01*
X-32156Y256993D01*
X-31356Y256531D01*
X-30462Y256291D01*
X-30250D01*
Y259553D01*
D02*
G37*
G36*
X324568Y271355D02*
X322828D01*
X321121Y271016D01*
X319514Y270350D01*
X318067Y269383D01*
X316836Y268153D01*
X315869Y266706D01*
X315203Y265098D01*
X314864Y263391D01*
Y261651D01*
X315203Y259944D01*
X315869Y258336D01*
X316836Y256890D01*
X318067Y255659D01*
X319514Y254692D01*
X321121Y254026D01*
X322828Y253687D01*
X324568D01*
X326275Y254026D01*
X327883Y254692D01*
X329330Y255659D01*
X330560Y256890D01*
X331527Y258336D01*
X332193Y259944D01*
X332533Y261651D01*
Y263391D01*
X332193Y265098D01*
X331527Y266706D01*
X330560Y268153D01*
X329330Y269383D01*
X327883Y270350D01*
X326275Y271016D01*
X324568Y271355D01*
D02*
G37*
G36*
X334282Y211958D02*
X333114D01*
X331986Y211656D01*
X330974Y211071D01*
X330148Y210245D01*
X329564Y209234D01*
X329261Y208105D01*
Y206937D01*
X329564Y205808D01*
X330148Y204797D01*
X330974Y203971D01*
X331986Y203386D01*
X333114Y203084D01*
X334282D01*
X335411Y203386D01*
X336423Y203971D01*
X337249Y204797D01*
X337833Y205808D01*
X338135Y206937D01*
Y208105D01*
X337833Y209234D01*
X337249Y210245D01*
X336423Y211071D01*
X335411Y211656D01*
X334282Y211958D01*
D02*
G37*
G36*
X-308701Y201958D02*
X-317576D01*
Y193084D01*
X-308701D01*
Y201958D01*
D02*
G37*
G36*
X344269Y191855D02*
X343128D01*
X342025Y191560D01*
X341037Y190989D01*
X340230Y190182D01*
X339659Y189194D01*
X339364Y188092D01*
Y186951D01*
X339659Y185848D01*
X340230Y184860D01*
X341037Y184053D01*
X342025Y183482D01*
X343128Y183187D01*
X344269D01*
X345371Y183482D01*
X346359Y184053D01*
X347166Y184860D01*
X347737Y185848D01*
X348032Y186951D01*
Y188092D01*
X347737Y189194D01*
X347166Y190182D01*
X346359Y190989D01*
X345371Y191560D01*
X344269Y191855D01*
D02*
G37*
G36*
X-277568Y191855D02*
X-278709D01*
X-279811Y191560D01*
X-280800Y190989D01*
X-281607Y190182D01*
X-282177Y189194D01*
X-282473Y188091D01*
Y186950D01*
X-282177Y185848D01*
X-281607Y184859D01*
X-280800Y184052D01*
X-279811Y183482D01*
X-278709Y183186D01*
X-277568D01*
X-276466Y183482D01*
X-275477Y184052D01*
X-274670Y184859D01*
X-274100Y185848D01*
X-273804Y186950D01*
Y188091D01*
X-274100Y189194D01*
X-274670Y190182D01*
X-275477Y190989D01*
X-276466Y191560D01*
X-277568Y191855D01*
D02*
G37*
G36*
X-317568D02*
X-318709D01*
X-319811Y191560D01*
X-320800Y190989D01*
X-321607Y190182D01*
X-322177Y189194D01*
X-322473Y188091D01*
Y186950D01*
X-322177Y185848D01*
X-321607Y184859D01*
X-320800Y184052D01*
X-319811Y183482D01*
X-318709Y183186D01*
X-317568D01*
X-316465Y183482D01*
X-315477Y184052D01*
X-314670Y184859D01*
X-314100Y185848D01*
X-313804Y186950D01*
Y188091D01*
X-314100Y189194D01*
X-314670Y190182D01*
X-315477Y190989D01*
X-316465Y191560D01*
X-317568Y191855D01*
D02*
G37*
G36*
X324568Y196355D02*
X322828D01*
X321121Y196016D01*
X319514Y195350D01*
X318067Y194383D01*
X316836Y193153D01*
X315869Y191706D01*
X315203Y190098D01*
X314864Y188391D01*
Y186651D01*
X315203Y184944D01*
X315869Y183336D01*
X316836Y181890D01*
X318067Y180659D01*
X319514Y179692D01*
X321121Y179026D01*
X322828Y178687D01*
X324568D01*
X326275Y179026D01*
X327883Y179692D01*
X329330Y180659D01*
X330560Y181890D01*
X331527Y183336D01*
X332193Y184944D01*
X332533Y186651D01*
Y188391D01*
X332193Y190098D01*
X331527Y191706D01*
X330560Y193153D01*
X329330Y194383D01*
X327883Y195350D01*
X326275Y196016D01*
X324568Y196355D01*
D02*
G37*
G36*
X-9533Y151189D02*
X-9750D01*
Y147888D01*
X-6449D01*
Y148105D01*
X-6691Y149009D01*
X-7158Y149818D01*
X-7819Y150479D01*
X-8629Y150947D01*
X-9533Y151189D01*
D02*
G37*
G36*
X-10250D02*
X-10468D01*
X-11371Y150947D01*
X-12180Y150479D01*
X-12842Y149818D01*
X-13309Y149009D01*
X-13551Y148105D01*
Y147888D01*
X-10250D01*
Y151189D01*
D02*
G37*
G36*
X-6449Y147388D02*
X-9750D01*
Y144087D01*
X-9533D01*
X-8629Y144329D01*
X-7819Y144796D01*
X-7158Y145457D01*
X-6691Y146267D01*
X-6449Y147170D01*
Y147388D01*
D02*
G37*
G36*
X-10250D02*
X-13551D01*
Y147170D01*
X-13309Y146267D01*
X-12842Y145457D01*
X-12180Y144796D01*
X-11371Y144329D01*
X-10468Y144087D01*
X-10250D01*
Y147388D01*
D02*
G37*
G36*
X334282Y136958D02*
X333114D01*
X331986Y136656D01*
X330974Y136072D01*
X330148Y135246D01*
X329564Y134234D01*
X329261Y133105D01*
Y131937D01*
X329564Y130808D01*
X330148Y129797D01*
X330974Y128971D01*
X331986Y128386D01*
X333114Y128084D01*
X334282D01*
X335411Y128386D01*
X336423Y128971D01*
X337249Y129797D01*
X337833Y130808D01*
X338135Y131937D01*
Y133105D01*
X337833Y134234D01*
X337249Y135246D01*
X336423Y136072D01*
X335411Y136656D01*
X334282Y136958D01*
D02*
G37*
G36*
X-175787Y383029D02*
X-206693D01*
X-207656Y382837D01*
X-207884Y382685D01*
X-209850D01*
Y378339D01*
X-207884D01*
X-207656Y378186D01*
X-206693Y377995D01*
X-176830D01*
X-159997Y361162D01*
Y232283D01*
X-159806Y231320D01*
X-159260Y230504D01*
X-49024Y120268D01*
X-48207Y119722D01*
X-47244Y119530D01*
X0D01*
X963Y119722D01*
X1780Y120268D01*
X11780Y130268D01*
X12325Y131084D01*
X12517Y132047D01*
Y144087D01*
X13551D01*
Y148477D01*
X13600Y148721D01*
Y149260D01*
X14136Y150064D01*
X14328Y151027D01*
Y216632D01*
X14435Y218332D01*
X14772Y219921D01*
X15326Y221305D01*
X16094Y222495D01*
X17081Y223500D01*
X18297Y224329D01*
X19751Y224982D01*
X21451Y225454D01*
X23398Y225740D01*
X25439Y225830D01*
X78740D01*
X79703Y226021D01*
X80520Y226567D01*
X182735Y328782D01*
X246063D01*
X247026Y328974D01*
X247254Y329126D01*
X249220D01*
Y333472D01*
X247254D01*
X247026Y333625D01*
X246063Y333816D01*
X181693D01*
X181693Y333816D01*
X180730Y333625D01*
X179913Y333079D01*
X77698Y230863D01*
X25439D01*
X23398Y230953D01*
X21451Y231239D01*
X19751Y231711D01*
X18297Y232364D01*
X17081Y233193D01*
X16094Y234198D01*
X15326Y235387D01*
X14772Y236772D01*
X14435Y238361D01*
X14328Y240061D01*
Y260572D01*
X30048Y276291D01*
X30462D01*
X31356Y276531D01*
X32156Y276993D01*
X32810Y277647D01*
X33272Y278448D01*
X33512Y279341D01*
Y280265D01*
X33272Y281159D01*
X32810Y281960D01*
X32156Y282613D01*
X31356Y283076D01*
X30462Y283315D01*
X29538D01*
X28644Y283076D01*
X27844Y282613D01*
X27190Y281960D01*
X26728Y281159D01*
X26488Y280265D01*
Y279851D01*
X10031Y263394D01*
X9486Y262577D01*
X9294Y261614D01*
Y228346D01*
Y152065D01*
X8757Y151261D01*
X8743Y151189D01*
X6449D01*
Y144087D01*
X7483D01*
Y133090D01*
X-1043Y124564D01*
X-46202D01*
X-154963Y233326D01*
Y362205D01*
X-155155Y363168D01*
X-155701Y363984D01*
X-174008Y382292D01*
X-174824Y382837D01*
X-175787Y383029D01*
D02*
G37*
G36*
X-308701Y126958D02*
X-317576D01*
Y118084D01*
X-308701D01*
Y126958D01*
D02*
G37*
G36*
X344269Y116855D02*
X343128D01*
X342025Y116560D01*
X341037Y115989D01*
X340230Y115182D01*
X339659Y114194D01*
X339364Y113092D01*
Y111951D01*
X339659Y110848D01*
X340230Y109860D01*
X341037Y109053D01*
X342025Y108482D01*
X343128Y108187D01*
X344269D01*
X345371Y108482D01*
X346359Y109053D01*
X347166Y109860D01*
X347737Y110848D01*
X348032Y111951D01*
Y113092D01*
X347737Y114194D01*
X347166Y115182D01*
X346359Y115989D01*
X345371Y116560D01*
X344269Y116855D01*
D02*
G37*
G36*
X-277568Y116855D02*
X-278709D01*
X-279811Y116560D01*
X-280800Y115989D01*
X-281607Y115182D01*
X-282177Y114194D01*
X-282473Y113091D01*
Y111950D01*
X-282177Y110848D01*
X-281607Y109859D01*
X-280800Y109052D01*
X-279811Y108482D01*
X-278709Y108186D01*
X-277568D01*
X-276466Y108482D01*
X-275477Y109052D01*
X-274670Y109859D01*
X-274100Y110848D01*
X-273804Y111950D01*
Y113091D01*
X-274100Y114194D01*
X-274670Y115182D01*
X-275477Y115989D01*
X-276466Y116560D01*
X-277568Y116855D01*
D02*
G37*
G36*
X-317568D02*
X-318709D01*
X-319811Y116560D01*
X-320800Y115989D01*
X-321607Y115182D01*
X-322177Y114194D01*
X-322473Y113091D01*
Y111950D01*
X-322177Y110848D01*
X-321607Y109859D01*
X-320800Y109052D01*
X-319811Y108482D01*
X-318709Y108186D01*
X-317568D01*
X-316465Y108482D01*
X-315477Y109052D01*
X-314670Y109859D01*
X-314100Y110848D01*
X-313804Y111950D01*
Y113091D01*
X-314100Y114194D01*
X-314670Y115182D01*
X-315477Y115989D01*
X-316465Y116560D01*
X-317568Y116855D01*
D02*
G37*
G36*
X324568Y121355D02*
X322828D01*
X321121Y121016D01*
X319514Y120350D01*
X318067Y119383D01*
X316836Y118153D01*
X315869Y116706D01*
X315203Y115098D01*
X314864Y113391D01*
Y111651D01*
X315203Y109944D01*
X315869Y108336D01*
X316836Y106890D01*
X318067Y105659D01*
X319514Y104692D01*
X321121Y104026D01*
X322828Y103687D01*
X324568D01*
X326275Y104026D01*
X327883Y104692D01*
X329330Y105659D01*
X330560Y106890D01*
X331527Y108336D01*
X332193Y109944D01*
X332533Y111651D01*
Y113391D01*
X332193Y115098D01*
X331527Y116706D01*
X330560Y118153D01*
X329330Y119383D01*
X327883Y120350D01*
X326275Y121016D01*
X324568Y121355D01*
D02*
G37*
G36*
X334282Y61958D02*
X333114D01*
X331986Y61656D01*
X330974Y61072D01*
X330148Y60246D01*
X329564Y59234D01*
X329261Y58105D01*
Y56937D01*
X329564Y55808D01*
X330148Y54797D01*
X330974Y53971D01*
X331986Y53386D01*
X333114Y53084D01*
X334282D01*
X335411Y53386D01*
X336423Y53971D01*
X337249Y54797D01*
X337833Y55808D01*
X338135Y56937D01*
Y58105D01*
X337833Y59234D01*
X337249Y60246D01*
X336423Y61072D01*
X335411Y61656D01*
X334282Y61958D01*
D02*
G37*
G36*
X-308701Y51958D02*
X-317576D01*
Y43084D01*
X-308701D01*
Y51958D01*
D02*
G37*
G36*
X344269Y41855D02*
X343128D01*
X342025Y41560D01*
X341037Y40989D01*
X340230Y40182D01*
X339659Y39194D01*
X339364Y38092D01*
Y36950D01*
X339659Y35848D01*
X340230Y34860D01*
X341037Y34053D01*
X342025Y33482D01*
X343128Y33187D01*
X344269D01*
X345371Y33482D01*
X346359Y34053D01*
X347166Y34860D01*
X347737Y35848D01*
X348032Y36950D01*
Y38092D01*
X347737Y39194D01*
X347166Y40182D01*
X346359Y40989D01*
X345371Y41560D01*
X344269Y41855D01*
D02*
G37*
G36*
X-277568Y41855D02*
X-278709D01*
X-279811Y41559D01*
X-280800Y40989D01*
X-281607Y40182D01*
X-282177Y39194D01*
X-282473Y38091D01*
Y36950D01*
X-282177Y35848D01*
X-281607Y34859D01*
X-280800Y34052D01*
X-279811Y33482D01*
X-278709Y33186D01*
X-277568D01*
X-276466Y33482D01*
X-275477Y34052D01*
X-274670Y34859D01*
X-274100Y35848D01*
X-273804Y36950D01*
Y38091D01*
X-274100Y39194D01*
X-274670Y40182D01*
X-275477Y40989D01*
X-276466Y41559D01*
X-277568Y41855D01*
D02*
G37*
G36*
X-317568D02*
X-318709D01*
X-319811Y41559D01*
X-320800Y40989D01*
X-321607Y40182D01*
X-322177Y39194D01*
X-322473Y38091D01*
Y36950D01*
X-322177Y35848D01*
X-321607Y34859D01*
X-320800Y34052D01*
X-319811Y33482D01*
X-318709Y33186D01*
X-317568D01*
X-316465Y33482D01*
X-315477Y34052D01*
X-314670Y34859D01*
X-314100Y35848D01*
X-313804Y36950D01*
Y38091D01*
X-314100Y39194D01*
X-314670Y40182D01*
X-315477Y40989D01*
X-316465Y41559D01*
X-317568Y41855D01*
D02*
G37*
G36*
X324568Y46355D02*
X322828D01*
X321121Y46016D01*
X319514Y45350D01*
X318067Y44383D01*
X316836Y43153D01*
X315869Y41706D01*
X315203Y40098D01*
X314864Y38391D01*
Y36651D01*
X315203Y34944D01*
X315869Y33336D01*
X316836Y31890D01*
X318067Y30659D01*
X319514Y29692D01*
X321121Y29026D01*
X322828Y28687D01*
X324568D01*
X326275Y29026D01*
X327883Y29692D01*
X329330Y30659D01*
X330560Y31890D01*
X331527Y33336D01*
X332193Y34944D01*
X332533Y36651D01*
Y38391D01*
X332193Y40098D01*
X331527Y41706D01*
X330560Y43153D01*
X329330Y44383D01*
X327883Y45350D01*
X326275Y46016D01*
X324568Y46355D01*
D02*
G37*
G36*
X-297268Y46355D02*
X-299009D01*
X-300715Y46015D01*
X-302323Y45349D01*
X-303770Y44383D01*
X-305000Y43152D01*
X-305967Y41705D01*
X-306633Y40097D01*
X-306973Y38391D01*
Y36650D01*
X-306633Y34944D01*
X-305967Y33336D01*
X-305000Y31889D01*
X-303770Y30659D01*
X-302323Y29692D01*
X-300715Y29026D01*
X-299009Y28686D01*
X-297268D01*
X-295562Y29026D01*
X-293954Y29692D01*
X-292507Y30659D01*
X-291277Y31889D01*
X-290310Y33336D01*
X-289644Y34944D01*
X-289304Y36650D01*
Y38391D01*
X-289644Y40097D01*
X-290310Y41705D01*
X-291277Y43152D01*
X-292507Y44383D01*
X-293954Y45349D01*
X-295562Y46015D01*
X-297268Y46355D01*
D02*
G37*
G36*
X334282Y-13042D02*
X333114D01*
X331986Y-13344D01*
X330974Y-13928D01*
X330148Y-14755D01*
X329564Y-15766D01*
X329261Y-16895D01*
Y-18063D01*
X329564Y-19192D01*
X330148Y-20203D01*
X330974Y-21029D01*
X331986Y-21614D01*
X333114Y-21916D01*
X334282D01*
X335411Y-21614D01*
X336423Y-21029D01*
X337249Y-20203D01*
X337833Y-19192D01*
X338135Y-18063D01*
Y-16895D01*
X337833Y-15766D01*
X337249Y-14755D01*
X336423Y-13928D01*
X335411Y-13344D01*
X334282Y-13042D01*
D02*
G37*
G36*
X344269Y-33145D02*
X343128D01*
X342025Y-33440D01*
X341037Y-34011D01*
X340230Y-34818D01*
X339659Y-35806D01*
X339364Y-36908D01*
Y-38050D01*
X339659Y-39152D01*
X340230Y-40140D01*
X341037Y-40947D01*
X342025Y-41518D01*
X343128Y-41813D01*
X344269D01*
X345371Y-41518D01*
X346359Y-40947D01*
X347166Y-40140D01*
X347737Y-39152D01*
X348032Y-38050D01*
Y-36908D01*
X347737Y-35806D01*
X347166Y-34818D01*
X346359Y-34011D01*
X345371Y-33440D01*
X344269Y-33145D01*
D02*
G37*
G36*
X324568Y-28645D02*
X322828D01*
X321121Y-28984D01*
X319514Y-29650D01*
X318067Y-30617D01*
X316836Y-31847D01*
X315869Y-33294D01*
X315203Y-34902D01*
X314864Y-36609D01*
Y-38349D01*
X315203Y-40056D01*
X315869Y-41664D01*
X316836Y-43110D01*
X318067Y-44341D01*
X319514Y-45308D01*
X321121Y-45974D01*
X322828Y-46313D01*
X324568D01*
X326275Y-45974D01*
X327883Y-45308D01*
X329330Y-44341D01*
X330560Y-43110D01*
X331527Y-41664D01*
X332193Y-40056D01*
X332533Y-38349D01*
Y-36609D01*
X332193Y-34902D01*
X331527Y-33294D01*
X330560Y-31847D01*
X329330Y-30617D01*
X327883Y-29650D01*
X326275Y-28984D01*
X324568Y-28645D01*
D02*
G37*
G36*
X69725Y79543D02*
X-69725D01*
X-69803Y79528D01*
X-69882D01*
X-71814Y79143D01*
X-71887Y79113D01*
X-71964Y79098D01*
X-73784Y78344D01*
X-73850Y78300D01*
X-73923Y78270D01*
X-75561Y77175D01*
X-75617Y77119D01*
X-75682Y77075D01*
X-77075Y75682D01*
X-77119Y75617D01*
X-77175Y75561D01*
X-78270Y73923D01*
X-78300Y73850D01*
X-78344Y73784D01*
X-79098Y71964D01*
X-79113Y71887D01*
X-79143Y71814D01*
X-79528Y69882D01*
Y69803D01*
X-79543Y69725D01*
Y68740D01*
Y-68740D01*
Y-69725D01*
X-79528Y-69803D01*
Y-69882D01*
X-79143Y-71814D01*
X-79113Y-71887D01*
X-79098Y-71964D01*
X-78344Y-73784D01*
X-78300Y-73850D01*
X-78270Y-73923D01*
X-77175Y-75561D01*
X-77119Y-75617D01*
X-77075Y-75682D01*
X-75682Y-77075D01*
X-75617Y-77119D01*
X-75561Y-77175D01*
X-73923Y-78270D01*
X-73850Y-78300D01*
X-73784Y-78344D01*
X-71964Y-79098D01*
X-71887Y-79113D01*
X-71814Y-79143D01*
X-69882Y-79528D01*
X-69803D01*
X-69725Y-79543D01*
X69725D01*
X69803Y-79528D01*
X69882D01*
X71814Y-79143D01*
X71887Y-79113D01*
X71964Y-79098D01*
X73784Y-78344D01*
X73850Y-78300D01*
X73923Y-78270D01*
X75561Y-77175D01*
X75617Y-77119D01*
X75682Y-77075D01*
X77075Y-75682D01*
X77119Y-75617D01*
X77175Y-75561D01*
X78270Y-73923D01*
X78300Y-73850D01*
X78344Y-73784D01*
X79098Y-71964D01*
X79113Y-71887D01*
X79143Y-71814D01*
X79528Y-69882D01*
Y-69803D01*
X79543Y-69725D01*
Y-68740D01*
Y68740D01*
Y69725D01*
X79528Y69803D01*
Y69882D01*
X79143Y71814D01*
X79113Y71887D01*
X79098Y71964D01*
X78344Y73784D01*
X78300Y73850D01*
X78270Y73923D01*
X77175Y75561D01*
X77119Y75617D01*
X77075Y75682D01*
X75682Y77075D01*
X75617Y77119D01*
X75561Y77175D01*
X73923Y78270D01*
X73850Y78300D01*
X73784Y78344D01*
X71964Y79098D01*
X71887Y79113D01*
X71814Y79143D01*
X69882Y79528D01*
X69803D01*
X69725Y79543D01*
D02*
G37*
G36*
X334282Y-88042D02*
X333114D01*
X331986Y-88344D01*
X330974Y-88928D01*
X330148Y-89754D01*
X329564Y-90766D01*
X329261Y-91895D01*
Y-93063D01*
X329564Y-94192D01*
X330148Y-95203D01*
X330974Y-96029D01*
X331986Y-96614D01*
X333114Y-96916D01*
X334282D01*
X335411Y-96614D01*
X336423Y-96029D01*
X337249Y-95203D01*
X337833Y-94192D01*
X338135Y-93063D01*
Y-91895D01*
X337833Y-90766D01*
X337249Y-89754D01*
X336423Y-88928D01*
X335411Y-88344D01*
X334282Y-88042D01*
D02*
G37*
G36*
X344269Y-108145D02*
X343128D01*
X342025Y-108440D01*
X341037Y-109011D01*
X340230Y-109818D01*
X339659Y-110806D01*
X339364Y-111908D01*
Y-113049D01*
X339659Y-114152D01*
X340230Y-115140D01*
X341037Y-115947D01*
X342025Y-116518D01*
X343128Y-116813D01*
X344269D01*
X345371Y-116518D01*
X346359Y-115947D01*
X347166Y-115140D01*
X347737Y-114152D01*
X348032Y-113049D01*
Y-111908D01*
X347737Y-110806D01*
X347166Y-109818D01*
X346359Y-109011D01*
X345371Y-108440D01*
X344269Y-108145D01*
D02*
G37*
G36*
X304269D02*
X303128D01*
X302025Y-108440D01*
X301037Y-109011D01*
X300230Y-109818D01*
X299659Y-110806D01*
X299364Y-111908D01*
Y-113049D01*
X299659Y-114152D01*
X300230Y-115140D01*
X301037Y-115947D01*
X302025Y-116518D01*
X303128Y-116813D01*
X304269D01*
X305371Y-116518D01*
X306360Y-115947D01*
X307167Y-115140D01*
X307737Y-114152D01*
X308032Y-113049D01*
Y-111908D01*
X307737Y-110806D01*
X307167Y-109818D01*
X306360Y-109011D01*
X305371Y-108440D01*
X304269Y-108145D01*
D02*
G37*
G36*
X324568Y-103645D02*
X322828D01*
X321121Y-103984D01*
X319514Y-104650D01*
X318067Y-105617D01*
X316836Y-106847D01*
X315869Y-108294D01*
X315203Y-109902D01*
X314864Y-111609D01*
Y-113349D01*
X315203Y-115056D01*
X315869Y-116664D01*
X316836Y-118110D01*
X318067Y-119341D01*
X319514Y-120308D01*
X321121Y-120974D01*
X322828Y-121313D01*
X324568D01*
X326275Y-120974D01*
X327883Y-120308D01*
X329330Y-119341D01*
X330560Y-118110D01*
X331527Y-116664D01*
X332193Y-115056D01*
X332533Y-113349D01*
Y-111609D01*
X332193Y-109902D01*
X331527Y-108294D01*
X330560Y-106847D01*
X329330Y-105617D01*
X327883Y-104650D01*
X326275Y-103984D01*
X324568Y-103645D01*
D02*
G37*
%LPD*%
G36*
X-208069Y539439D02*
X-208061Y539321D01*
X-208036Y537549D01*
X-208032Y535541D01*
X-211968D01*
X-211985Y536289D01*
X-212036Y536958D01*
X-212120Y537549D01*
X-212238Y538061D01*
X-212390Y538494D01*
X-212575Y538848D01*
X-212794Y539124D01*
X-213047Y539321D01*
X-213334Y539439D01*
X-213654Y539478D01*
X-208078D01*
X-208069Y539439D01*
D02*
G37*
G36*
X-116122Y488020D02*
X-116063Y487350D01*
X-115965Y486760D01*
X-115827Y486248D01*
X-115650Y485815D01*
X-115433Y485460D01*
X-115177Y485185D01*
X-114882Y484988D01*
X-114547Y484870D01*
X-114173Y484831D01*
X-122047D01*
X-121673Y484870D01*
X-121339Y484988D01*
X-121043Y485185D01*
X-120787Y485460D01*
X-120571Y485815D01*
X-120394Y486248D01*
X-120256Y486760D01*
X-120158Y487350D01*
X-120098Y488020D01*
X-120079Y488767D01*
X-116142D01*
X-116122Y488020D01*
D02*
G37*
G36*
X-147028Y484948D02*
X-146910Y484754D01*
X-146713Y484584D01*
X-146438Y484436D01*
X-146084Y484310D01*
X-145650Y484208D01*
X-145139Y484128D01*
X-144548Y484071D01*
X-143131Y484026D01*
Y480089D01*
X-143879Y480081D01*
X-145650Y479960D01*
X-146084Y479887D01*
X-146438Y479799D01*
X-146713Y479694D01*
X-146910Y479573D01*
X-147028Y479436D01*
X-147068Y479282D01*
Y485164D01*
X-147028Y484948D01*
D02*
G37*
G36*
X-152949Y479282D02*
X-152989Y479436D01*
X-153107Y479573D01*
X-153304Y479694D01*
X-153579Y479799D01*
X-153934Y479887D01*
X-154367Y479960D01*
X-154878Y480016D01*
X-156138Y480081D01*
X-156886Y480089D01*
Y484026D01*
X-156138Y484037D01*
X-154878Y484128D01*
X-154367Y484208D01*
X-153934Y484310D01*
X-153579Y484436D01*
X-153304Y484584D01*
X-153107Y484754D01*
X-152989Y484948D01*
X-152949Y485164D01*
Y479282D01*
D02*
G37*
G36*
X-124484Y478121D02*
X-124524Y478495D01*
X-124643Y478829D01*
X-124841Y479124D01*
X-125117Y479380D01*
X-125473Y479597D01*
X-125907Y479774D01*
X-126420Y479912D01*
X-127012Y480010D01*
X-127683Y480069D01*
X-128433Y480089D01*
Y484026D01*
X-127685Y484034D01*
X-125913Y484155D01*
X-125480Y484227D01*
X-125126Y484316D01*
X-124850Y484420D01*
X-124653Y484541D01*
X-124535Y484678D01*
X-124496Y484831D01*
X-124484Y478121D01*
D02*
G37*
G36*
X13898Y238287D02*
X14252Y236614D01*
X14842Y235138D01*
X15669Y233858D01*
X16732Y232776D01*
X18032Y231890D01*
X19567Y231201D01*
X21339Y230709D01*
X23347Y230413D01*
X25591Y230315D01*
Y226378D01*
X23347Y226279D01*
X21339Y225984D01*
X19567Y225492D01*
X18032Y224803D01*
X16732Y223917D01*
X15669Y222835D01*
X14842Y221555D01*
X14252Y220079D01*
X13898Y218406D01*
X13780Y216535D01*
X9843Y228346D01*
X13780Y240158D01*
X13898Y238287D01*
D02*
G37*
D13*
X-187008Y482283D02*
D03*
X-39370Y501968D02*
D03*
D14*
X-187008D02*
D03*
X-39370Y482283D02*
D03*
D15*
X-10000Y147638D02*
D03*
X0D02*
D03*
D16*
X10000D02*
D03*
D20*
X98425Y590551D02*
D03*
X108268D02*
D03*
X98425Y582677D02*
D03*
X108268D02*
D03*
D25*
X-237205Y558071D02*
X-235236Y560039D01*
X11811Y228346D02*
X11811Y228346D01*
X11811Y151027D02*
Y228346D01*
X11811Y228346D02*
X78740D01*
X11811Y228346D02*
Y261614D01*
X78740Y228346D02*
X181693Y331299D01*
X11083Y150298D02*
X11533Y150748D01*
X11083Y148721D02*
Y150298D01*
X10000Y147638D02*
X11083Y148721D01*
X11811Y261614D02*
X30000Y279803D01*
X310001Y197521D02*
Y571218D01*
Y-40090D02*
Y197521D01*
X265748Y324803D02*
X288466Y347521D01*
X308698D01*
X255906Y324803D02*
X265748D01*
X246063D02*
X255906D01*
X308698Y572521D02*
X310001Y571218D01*
X308698Y-41392D02*
X310001Y-40090D01*
X308698Y-102479D02*
Y-41392D01*
X-186782Y482058D02*
X-119557D01*
X-118110Y480610D02*
Y503642D01*
X-272234Y598425D02*
X-890D01*
X11076Y586459D01*
X-288139Y582521D02*
X-272234Y598425D01*
X-287385Y578983D02*
Y581767D01*
X-287336Y357521D02*
Y578934D01*
X-288139Y582521D02*
X-287385Y581767D01*
Y578983D02*
X-287336Y578934D01*
X-212940Y582677D02*
X-211136Y580873D01*
X-236221Y582677D02*
X-212940D01*
X-211136Y580873D02*
X-200571D01*
X11811Y464567D02*
X66929Y409449D01*
X-70866Y464567D02*
X11811D01*
X66929Y336732D02*
Y409449D01*
X30000Y299803D02*
X66929Y336732D01*
X-237804Y558071D02*
X-237205D01*
X-235236Y560039D02*
X-233757D01*
X-256890D02*
X-246063Y570866D01*
X-210866D02*
X-210000Y570000D01*
X-246063Y570866D02*
X-210866D01*
X-248047Y498415D02*
Y547827D01*
X-216535Y374016D02*
X-206693D01*
X-287336Y108046D02*
Y357521D01*
X-233424D01*
X-288139D02*
X-287336D01*
X-233424D02*
X-216929Y374016D01*
X-216535D01*
X-288139Y107243D02*
X-287336Y108046D01*
X-288139Y57521D02*
Y107243D01*
X-175787Y380512D02*
X-157480Y362205D01*
X-206693Y380512D02*
X-175787D01*
X-157480Y232283D02*
Y362205D01*
Y232283D02*
X-47244Y122047D01*
X0D01*
X10000Y132047D01*
Y147638D01*
X181693Y331299D02*
X246063D01*
X-232930Y560866D02*
X-210866D01*
X-248047Y498415D02*
X-30000Y280368D01*
X-248047Y547827D02*
X-237804Y558071D01*
X-256890Y496693D02*
Y560039D01*
X-210000Y505276D02*
Y540000D01*
Y505276D02*
X-187008Y482283D01*
X-119557Y482058D02*
X-118110Y480610D01*
X-187008Y482283D02*
X-186782Y482058D01*
X-39370Y501968D02*
X78898D01*
X108268Y531339D01*
X-108898Y502194D02*
X-39596D01*
X-109095Y502391D02*
Y503642D01*
Y502391D02*
X-108898Y502194D01*
X-39596D02*
X-39370Y501968D01*
X30000Y259803D02*
X108268Y338071D01*
Y531339D01*
X0Y177165D02*
Y295276D01*
X14528Y309803D02*
X30000D01*
X0Y295276D02*
X14528Y309803D01*
X0Y147638D02*
Y177165D01*
X-233757Y560039D02*
X-232930Y560866D01*
X-30000Y279803D02*
Y280368D01*
X-256890Y496693D02*
X-30000Y269803D01*
D26*
X108268Y531339D02*
D03*
D27*
Y541339D02*
D03*
D28*
X127047Y601221D02*
D03*
X79646D02*
D03*
D29*
X-30000Y359803D02*
D03*
Y389803D02*
D03*
Y379803D02*
D03*
Y369803D02*
D03*
Y349803D02*
D03*
Y339803D02*
D03*
Y329803D02*
D03*
Y319803D02*
D03*
Y309803D02*
D03*
Y299803D02*
D03*
Y289803D02*
D03*
Y279803D02*
D03*
Y269803D02*
D03*
Y259803D02*
D03*
X30000Y389803D02*
D03*
Y379803D02*
D03*
Y369803D02*
D03*
Y359803D02*
D03*
Y349803D02*
D03*
Y339803D02*
D03*
Y329803D02*
D03*
Y319803D02*
D03*
Y309803D02*
D03*
Y299803D02*
D03*
Y289803D02*
D03*
Y279803D02*
D03*
Y269803D02*
D03*
Y259803D02*
D03*
X-20000Y389803D02*
D03*
X-10000D02*
D03*
X0D02*
D03*
X10000D02*
D03*
X20000D02*
D03*
D30*
X-13924Y576459D02*
D03*
X308698Y-102479D02*
D03*
Y-27479D02*
D03*
Y47521D02*
D03*
Y122521D02*
D03*
Y197521D02*
D03*
Y272521D02*
D03*
Y347521D02*
D03*
Y422521D02*
D03*
Y497521D02*
D03*
Y572521D02*
D03*
X-313139Y47521D02*
D03*
Y122521D02*
D03*
Y197521D02*
D03*
Y272521D02*
D03*
Y347521D02*
D03*
Y422521D02*
D03*
Y497521D02*
D03*
Y572521D02*
D03*
D31*
X11076Y586459D02*
D03*
X333698Y-92479D02*
D03*
Y-17479D02*
D03*
Y57521D02*
D03*
Y132521D02*
D03*
Y207521D02*
D03*
Y282521D02*
D03*
Y357521D02*
D03*
Y432521D02*
D03*
Y507521D02*
D03*
Y582521D02*
D03*
X-288139Y57521D02*
D03*
Y132521D02*
D03*
Y207521D02*
D03*
Y282521D02*
D03*
Y357521D02*
D03*
Y432521D02*
D03*
Y507521D02*
D03*
Y582521D02*
D03*
D32*
X344626Y525447D02*
D03*
Y446707D02*
D03*
Y367967D02*
D03*
Y289227D02*
D03*
X324941Y249857D02*
D03*
X344626Y210487D02*
D03*
X324941Y171117D02*
D03*
X344626Y131746D02*
D03*
X324941Y92377D02*
D03*
X344626Y53006D02*
D03*
X324941Y13636D02*
D03*
X344626Y-25734D02*
D03*
X324941Y-65104D02*
D03*
X344626Y-104474D02*
D03*
X324941Y-143844D02*
D03*
X285571Y564817D02*
D03*
X305256Y525447D02*
D03*
X285571Y486077D02*
D03*
X305256Y446707D02*
D03*
X285571Y407337D02*
D03*
X305256Y367967D02*
D03*
Y289227D02*
D03*
X285571Y249857D02*
D03*
X305256Y210487D02*
D03*
X285571Y171117D02*
D03*
X305256Y131746D02*
D03*
X285571Y92377D02*
D03*
Y13636D02*
D03*
Y-65104D02*
D03*
Y-143844D02*
D03*
X246201Y564817D02*
D03*
X265886Y525447D02*
D03*
X246201Y486077D02*
D03*
X265886Y446707D02*
D03*
X246201Y407337D02*
D03*
X265886Y367967D02*
D03*
Y289227D02*
D03*
X246201Y249857D02*
D03*
X265886Y210487D02*
D03*
X246201Y92377D02*
D03*
Y13636D02*
D03*
Y-65104D02*
D03*
X265886Y-104474D02*
D03*
X246201Y-143844D02*
D03*
X206831Y564817D02*
D03*
X226516Y525447D02*
D03*
X206831Y486077D02*
D03*
X226516Y446707D02*
D03*
X206831Y407337D02*
D03*
X226516Y289227D02*
D03*
X206831Y249857D02*
D03*
X226516Y210487D02*
D03*
X206831Y171117D02*
D03*
X226516Y131746D02*
D03*
X206831Y92377D02*
D03*
X226516Y53006D02*
D03*
X206831Y13636D02*
D03*
X226516Y-25734D02*
D03*
X206831Y-65104D02*
D03*
X226516Y-104474D02*
D03*
X206831Y-143844D02*
D03*
X167461Y564817D02*
D03*
X187146Y525447D02*
D03*
Y446707D02*
D03*
X167461Y407337D02*
D03*
Y328597D02*
D03*
X187146Y289227D02*
D03*
Y210487D02*
D03*
X167461Y171117D02*
D03*
Y92377D02*
D03*
Y13636D02*
D03*
X187146Y-25734D02*
D03*
X167461Y-65104D02*
D03*
X187146Y-104474D02*
D03*
X167461Y-143844D02*
D03*
X128091Y564817D02*
D03*
X147776Y525447D02*
D03*
Y446707D02*
D03*
X128091Y407337D02*
D03*
Y328597D02*
D03*
X147776Y289227D02*
D03*
X128091Y249857D02*
D03*
Y171117D02*
D03*
Y92377D02*
D03*
X147776Y53006D02*
D03*
X128091Y13636D02*
D03*
X147776Y-25734D02*
D03*
X128091Y-65104D02*
D03*
X147776Y-104474D02*
D03*
X128091Y-143844D02*
D03*
X88721Y564817D02*
D03*
Y407337D02*
D03*
X108406Y289227D02*
D03*
X88721Y249857D02*
D03*
X108406Y210487D02*
D03*
X88721Y171117D02*
D03*
X108406Y131746D02*
D03*
X88721Y92377D02*
D03*
X108406Y53006D02*
D03*
X88721Y13636D02*
D03*
X108406Y-25734D02*
D03*
X88721Y-65104D02*
D03*
X108406Y-104474D02*
D03*
X88721Y-143844D02*
D03*
X49351Y564817D02*
D03*
X69036Y525447D02*
D03*
Y446707D02*
D03*
X49351Y407337D02*
D03*
Y249857D02*
D03*
X69036Y210487D02*
D03*
X49351Y171117D02*
D03*
X69036Y131746D02*
D03*
X49351Y92377D02*
D03*
X69036Y-104474D02*
D03*
X49351Y-143844D02*
D03*
X29666Y525447D02*
D03*
X9981Y486077D02*
D03*
Y407337D02*
D03*
Y328597D02*
D03*
X29666Y210487D02*
D03*
Y131746D02*
D03*
X9981Y92377D02*
D03*
X29666Y-104474D02*
D03*
X9981Y-143844D02*
D03*
X-9704Y525447D02*
D03*
X-29389Y486077D02*
D03*
X-9704Y367967D02*
D03*
Y289227D02*
D03*
X-29389Y249857D02*
D03*
X-9704Y210487D02*
D03*
X-29389Y171117D02*
D03*
X-9704Y131746D02*
D03*
X-29389Y92377D02*
D03*
X-9704Y-104474D02*
D03*
X-29389Y-143844D02*
D03*
X-68759Y564817D02*
D03*
X-49074Y525447D02*
D03*
X-68759Y486077D02*
D03*
X-49074Y446707D02*
D03*
X-68759Y407337D02*
D03*
Y249857D02*
D03*
X-49074Y210487D02*
D03*
X-68759Y171117D02*
D03*
X-49074Y131746D02*
D03*
X-68759Y92377D02*
D03*
X-49074Y-104474D02*
D03*
X-68759Y-143844D02*
D03*
X-108129Y564817D02*
D03*
X-88444Y525447D02*
D03*
X-108129Y486077D02*
D03*
X-88444Y446707D02*
D03*
X-108129Y407337D02*
D03*
X-88444Y289227D02*
D03*
X-108129Y249857D02*
D03*
X-88444Y210487D02*
D03*
X-108129Y171117D02*
D03*
X-88444Y131746D02*
D03*
X-108129Y92377D02*
D03*
X-88444Y53006D02*
D03*
X-108129Y13636D02*
D03*
X-88444Y-25734D02*
D03*
X-108129Y-65104D02*
D03*
X-88444Y-104474D02*
D03*
X-108129Y-143844D02*
D03*
X-147500Y564817D02*
D03*
Y407337D02*
D03*
Y249857D02*
D03*
Y171117D02*
D03*
X-127814Y131746D02*
D03*
X-147500Y92377D02*
D03*
X-127814Y53006D02*
D03*
X-147500Y13636D02*
D03*
X-127814Y-25734D02*
D03*
X-147500Y-65104D02*
D03*
X-127814Y-104474D02*
D03*
X-147500Y-143844D02*
D03*
X-186870Y564817D02*
D03*
X-167184Y525447D02*
D03*
X-186870Y407337D02*
D03*
Y328597D02*
D03*
Y249857D02*
D03*
X-167184Y210487D02*
D03*
X-186870Y171117D02*
D03*
X-167184Y131746D02*
D03*
X-186870Y92377D02*
D03*
X-167184Y53006D02*
D03*
X-186870Y13636D02*
D03*
X-167184Y-25734D02*
D03*
X-186870Y-65104D02*
D03*
X-167184Y-104474D02*
D03*
X-186870Y-143844D02*
D03*
X-226240Y486077D02*
D03*
Y407337D02*
D03*
Y328597D02*
D03*
Y249857D02*
D03*
X-206555Y210487D02*
D03*
X-226240Y92377D02*
D03*
X-206555Y53006D02*
D03*
X-226240Y13636D02*
D03*
X-206555Y-25734D02*
D03*
X-226240Y-65104D02*
D03*
X-206555Y-104474D02*
D03*
X-226240Y-143844D02*
D03*
X-265610Y564817D02*
D03*
Y486077D02*
D03*
Y407337D02*
D03*
Y328597D02*
D03*
Y249857D02*
D03*
X-245925Y210487D02*
D03*
Y131746D02*
D03*
Y53006D02*
D03*
X-265610Y13636D02*
D03*
X-245925Y-25734D02*
D03*
X-265610Y-65104D02*
D03*
X-245925Y-104474D02*
D03*
X-265610Y-143844D02*
D03*
X-304980Y328597D02*
D03*
Y249857D02*
D03*
Y171117D02*
D03*
Y92377D02*
D03*
Y13636D02*
D03*
X-285295Y-25734D02*
D03*
X-304980Y-65104D02*
D03*
X-285295Y-104474D02*
D03*
X-304980Y-143844D02*
D03*
X-344350Y564817D02*
D03*
X-324665Y525447D02*
D03*
X-344350Y486077D02*
D03*
X-324665Y446707D02*
D03*
X-344350Y407337D02*
D03*
X-324665Y367967D02*
D03*
X-344350Y328597D02*
D03*
X-324665Y289227D02*
D03*
X-344350Y249857D02*
D03*
X-324665Y210487D02*
D03*
X-344350Y171117D02*
D03*
X-324665Y131746D02*
D03*
X-344350Y92377D02*
D03*
X-324665Y53006D02*
D03*
X-344350Y13636D02*
D03*
X-324665Y-25734D02*
D03*
X-344350Y-65104D02*
D03*
X-324665Y-104474D02*
D03*
X-344350Y-143844D02*
D03*
X-200571Y580873D02*
D03*
X-70866Y464567D02*
D03*
D33*
X-127126Y503642D02*
D03*
X-118110D02*
D03*
X-109095D02*
D03*
D34*
X-118110Y480610D02*
D03*
D35*
X127953Y531496D02*
D03*
Y541339D02*
D03*
X0Y177165D02*
D03*
X-236221Y559055D02*
D03*
Y570866D02*
D03*
Y582677D02*
D03*
X-150009Y482223D02*
D03*
D36*
X-210866Y540866D02*
D03*
Y550866D02*
D03*
Y560866D02*
D03*
Y570866D02*
D03*
Y580866D02*
D03*
D37*
X-108307Y579882D02*
D03*
D38*
X-102992Y543189D02*
D03*
Y563189D02*
D03*
D39*
X-105512Y553189D02*
D03*
D40*
X-216535Y374016D02*
D03*
Y380512D02*
D03*
X-206693D02*
D03*
Y374016D02*
D03*
X246063Y324803D02*
D03*
Y331299D02*
D03*
X255906D02*
D03*
Y324803D02*
D03*
D41*
X108268Y541339D02*
Y582677D01*
Y541339D02*
X127953D01*
X127795Y531339D02*
X127953Y531496D01*
X108268Y531339D02*
X127795D01*
M02*
