G04*
G04 #@! TF.GenerationSoftware,Altium Limited,Altium Designer,22.10.1 (41)*
G04*
G04 Layer_Color=16711935*
%FSLAX25Y25*%
%MOIN*%
G70*
G04*
G04 #@! TF.SameCoordinates,44C76E85-51F2-408D-B631-529058D5D606*
G04*
G04*
G04 #@! TF.FilePolarity,Negative*
G04*
G01*
G75*
%ADD13C,0.05118*%
%ADD14R,0.05118X0.05118*%
%ADD15C,0.06102*%
%ADD16R,0.06102X0.06102*%
%ADD17R,0.06102X0.06102*%
%ADD18C,0.06102*%
%ADD19C,0.11691*%
%ADD20C,0.05600*%
%ADD21C,0.06614*%
%ADD22R,0.08465X0.08465*%
%ADD23C,0.08465*%
%ADD24C,0.02953*%
%ADD42R,0.04134X0.09055*%
%ADD43R,0.13386X0.09055*%
%ADD44R,0.06496X0.06496*%
%ADD45R,0.06191X0.03391*%
G04:AMPARAMS|DCode=46|XSize=75.91mil|YSize=41.91mil|CornerRadius=20.95mil|HoleSize=0mil|Usage=FLASHONLY|Rotation=0.000|XOffset=0mil|YOffset=0mil|HoleType=Round|Shape=RoundedRectangle|*
%AMROUNDEDRECTD46*
21,1,0.07591,0.00000,0,0,0.0*
21,1,0.03400,0.04191,0,0,0.0*
1,1,0.04191,0.01700,0.00000*
1,1,0.04191,-0.01700,0.00000*
1,1,0.04191,-0.01700,0.00000*
1,1,0.04191,0.01700,0.00000*
%
%ADD46ROUNDEDRECTD46*%
G04:AMPARAMS|DCode=47|XSize=61.91mil|YSize=33.91mil|CornerRadius=16.95mil|HoleSize=0mil|Usage=FLASHONLY|Rotation=0.000|XOffset=0mil|YOffset=0mil|HoleType=Round|Shape=RoundedRectangle|*
%AMROUNDEDRECTD47*
21,1,0.06191,0.00000,0,0,0.0*
21,1,0.02800,0.03391,0,0,0.0*
1,1,0.03391,0.01400,0.00000*
1,1,0.03391,-0.01400,0.00000*
1,1,0.03391,-0.01400,0.00000*
1,1,0.03391,0.01400,0.00000*
%
%ADD47ROUNDEDRECTD47*%
%ADD48R,0.10591X0.05591*%
%ADD49R,0.05906X0.03937*%
D13*
X-187008Y482283D02*
D03*
X-39370Y501968D02*
D03*
D14*
X-187008D02*
D03*
X-39370Y482283D02*
D03*
D15*
X-10000Y147638D02*
D03*
X0D02*
D03*
D16*
X10000D02*
D03*
D17*
X108268Y531339D02*
D03*
D18*
Y541339D02*
D03*
D19*
X127047Y601221D02*
D03*
X79646D02*
D03*
D20*
X98425Y590551D02*
D03*
X108268D02*
D03*
X98425Y582677D02*
D03*
X108268D02*
D03*
D21*
X-30000Y359803D02*
D03*
Y389803D02*
D03*
Y379803D02*
D03*
Y369803D02*
D03*
Y349803D02*
D03*
Y339803D02*
D03*
Y329803D02*
D03*
Y319803D02*
D03*
Y309803D02*
D03*
Y299803D02*
D03*
Y289803D02*
D03*
Y279803D02*
D03*
Y269803D02*
D03*
Y259803D02*
D03*
X30000Y389803D02*
D03*
Y379803D02*
D03*
Y369803D02*
D03*
Y359803D02*
D03*
Y349803D02*
D03*
Y339803D02*
D03*
Y329803D02*
D03*
Y319803D02*
D03*
Y309803D02*
D03*
Y299803D02*
D03*
Y289803D02*
D03*
Y279803D02*
D03*
Y269803D02*
D03*
Y259803D02*
D03*
X-20000Y389803D02*
D03*
X-10000D02*
D03*
X0D02*
D03*
X10000D02*
D03*
X20000D02*
D03*
D22*
X-13924Y576459D02*
D03*
X308698Y-102479D02*
D03*
Y-27479D02*
D03*
Y47521D02*
D03*
Y122521D02*
D03*
Y197521D02*
D03*
Y272521D02*
D03*
Y347521D02*
D03*
Y422521D02*
D03*
Y497521D02*
D03*
Y572521D02*
D03*
X-313139Y47521D02*
D03*
Y122521D02*
D03*
Y197521D02*
D03*
Y272521D02*
D03*
Y347521D02*
D03*
Y422521D02*
D03*
Y497521D02*
D03*
Y572521D02*
D03*
D23*
X11076Y586459D02*
D03*
X333698Y-92479D02*
D03*
Y-17479D02*
D03*
Y57521D02*
D03*
Y132521D02*
D03*
Y207521D02*
D03*
Y282521D02*
D03*
Y357521D02*
D03*
Y432521D02*
D03*
Y507521D02*
D03*
Y582521D02*
D03*
X-288139Y57521D02*
D03*
Y132521D02*
D03*
Y207521D02*
D03*
Y282521D02*
D03*
Y357521D02*
D03*
Y432521D02*
D03*
Y507521D02*
D03*
Y582521D02*
D03*
D24*
X344626Y525447D02*
D03*
Y446707D02*
D03*
Y367967D02*
D03*
Y289227D02*
D03*
X324941Y249857D02*
D03*
X344626Y210487D02*
D03*
X324941Y171117D02*
D03*
X344626Y131746D02*
D03*
X324941Y92377D02*
D03*
X344626Y53006D02*
D03*
X324941Y13636D02*
D03*
X344626Y-25734D02*
D03*
X324941Y-65104D02*
D03*
X344626Y-104474D02*
D03*
X324941Y-143844D02*
D03*
X285571Y564817D02*
D03*
X305256Y525447D02*
D03*
X285571Y486077D02*
D03*
X305256Y446707D02*
D03*
X285571Y407337D02*
D03*
X305256Y367967D02*
D03*
Y289227D02*
D03*
X285571Y249857D02*
D03*
X305256Y210487D02*
D03*
X285571Y171117D02*
D03*
X305256Y131746D02*
D03*
X285571Y92377D02*
D03*
Y13636D02*
D03*
Y-65104D02*
D03*
Y-143844D02*
D03*
X246201Y564817D02*
D03*
X265886Y525447D02*
D03*
X246201Y486077D02*
D03*
X265886Y446707D02*
D03*
X246201Y407337D02*
D03*
X265886Y367967D02*
D03*
Y289227D02*
D03*
X246201Y249857D02*
D03*
X265886Y210487D02*
D03*
X246201Y92377D02*
D03*
Y13636D02*
D03*
Y-65104D02*
D03*
X265886Y-104474D02*
D03*
X246201Y-143844D02*
D03*
X206831Y564817D02*
D03*
X226516Y525447D02*
D03*
X206831Y486077D02*
D03*
X226516Y446707D02*
D03*
X206831Y407337D02*
D03*
X226516Y289227D02*
D03*
X206831Y249857D02*
D03*
X226516Y210487D02*
D03*
X206831Y171117D02*
D03*
X226516Y131746D02*
D03*
X206831Y92377D02*
D03*
X226516Y53006D02*
D03*
X206831Y13636D02*
D03*
X226516Y-25734D02*
D03*
X206831Y-65104D02*
D03*
X226516Y-104474D02*
D03*
X206831Y-143844D02*
D03*
X167461Y564817D02*
D03*
X187146Y525447D02*
D03*
Y446707D02*
D03*
X167461Y407337D02*
D03*
Y328597D02*
D03*
X187146Y289227D02*
D03*
Y210487D02*
D03*
X167461Y171117D02*
D03*
Y92377D02*
D03*
Y13636D02*
D03*
X187146Y-25734D02*
D03*
X167461Y-65104D02*
D03*
X187146Y-104474D02*
D03*
X167461Y-143844D02*
D03*
X128091Y564817D02*
D03*
X147776Y525447D02*
D03*
Y446707D02*
D03*
X128091Y407337D02*
D03*
Y328597D02*
D03*
X147776Y289227D02*
D03*
X128091Y249857D02*
D03*
Y171117D02*
D03*
Y92377D02*
D03*
X147776Y53006D02*
D03*
X128091Y13636D02*
D03*
X147776Y-25734D02*
D03*
X128091Y-65104D02*
D03*
X147776Y-104474D02*
D03*
X128091Y-143844D02*
D03*
X88721Y564817D02*
D03*
Y407337D02*
D03*
X108406Y289227D02*
D03*
X88721Y249857D02*
D03*
X108406Y210487D02*
D03*
X88721Y171117D02*
D03*
X108406Y131746D02*
D03*
X88721Y92377D02*
D03*
X108406Y53006D02*
D03*
X88721Y13636D02*
D03*
X108406Y-25734D02*
D03*
X88721Y-65104D02*
D03*
X108406Y-104474D02*
D03*
X88721Y-143844D02*
D03*
X49351Y564817D02*
D03*
X69036Y525447D02*
D03*
Y446707D02*
D03*
X49351Y407337D02*
D03*
Y249857D02*
D03*
X69036Y210487D02*
D03*
X49351Y171117D02*
D03*
X69036Y131746D02*
D03*
X49351Y92377D02*
D03*
X69036Y-104474D02*
D03*
X49351Y-143844D02*
D03*
X29666Y525447D02*
D03*
X9981Y486077D02*
D03*
Y407337D02*
D03*
Y328597D02*
D03*
X29666Y210487D02*
D03*
Y131746D02*
D03*
X9981Y92377D02*
D03*
X29666Y-104474D02*
D03*
X9981Y-143844D02*
D03*
X-9704Y525447D02*
D03*
X-29389Y486077D02*
D03*
X-9704Y367967D02*
D03*
Y289227D02*
D03*
X-29389Y249857D02*
D03*
X-9704Y210487D02*
D03*
X-29389Y171117D02*
D03*
X-9704Y131746D02*
D03*
X-29389Y92377D02*
D03*
X-9704Y-104474D02*
D03*
X-29389Y-143844D02*
D03*
X-68759Y564817D02*
D03*
X-49074Y525447D02*
D03*
X-68759Y486077D02*
D03*
X-49074Y446707D02*
D03*
X-68759Y407337D02*
D03*
Y249857D02*
D03*
X-49074Y210487D02*
D03*
X-68759Y171117D02*
D03*
X-49074Y131746D02*
D03*
X-68759Y92377D02*
D03*
X-49074Y-104474D02*
D03*
X-68759Y-143844D02*
D03*
X-108129Y564817D02*
D03*
X-88444Y525447D02*
D03*
X-108129Y486077D02*
D03*
X-88444Y446707D02*
D03*
X-108129Y407337D02*
D03*
X-88444Y289227D02*
D03*
X-108129Y249857D02*
D03*
X-88444Y210487D02*
D03*
X-108129Y171117D02*
D03*
X-88444Y131746D02*
D03*
X-108129Y92377D02*
D03*
X-88444Y53006D02*
D03*
X-108129Y13636D02*
D03*
X-88444Y-25734D02*
D03*
X-108129Y-65104D02*
D03*
X-88444Y-104474D02*
D03*
X-108129Y-143844D02*
D03*
X-147500Y564817D02*
D03*
Y407337D02*
D03*
Y249857D02*
D03*
Y171117D02*
D03*
X-127814Y131746D02*
D03*
X-147500Y92377D02*
D03*
X-127814Y53006D02*
D03*
X-147500Y13636D02*
D03*
X-127814Y-25734D02*
D03*
X-147500Y-65104D02*
D03*
X-127814Y-104474D02*
D03*
X-147500Y-143844D02*
D03*
X-186870Y564817D02*
D03*
X-167184Y525447D02*
D03*
X-186870Y407337D02*
D03*
Y328597D02*
D03*
Y249857D02*
D03*
X-167184Y210487D02*
D03*
X-186870Y171117D02*
D03*
X-167184Y131746D02*
D03*
X-186870Y92377D02*
D03*
X-167184Y53006D02*
D03*
X-186870Y13636D02*
D03*
X-167184Y-25734D02*
D03*
X-186870Y-65104D02*
D03*
X-167184Y-104474D02*
D03*
X-186870Y-143844D02*
D03*
X-226240Y486077D02*
D03*
Y407337D02*
D03*
Y328597D02*
D03*
Y249857D02*
D03*
X-206555Y210487D02*
D03*
X-226240Y92377D02*
D03*
X-206555Y53006D02*
D03*
X-226240Y13636D02*
D03*
X-206555Y-25734D02*
D03*
X-226240Y-65104D02*
D03*
X-206555Y-104474D02*
D03*
X-226240Y-143844D02*
D03*
X-265610Y564817D02*
D03*
Y486077D02*
D03*
Y407337D02*
D03*
Y328597D02*
D03*
Y249857D02*
D03*
X-245925Y210487D02*
D03*
Y131746D02*
D03*
Y53006D02*
D03*
X-265610Y13636D02*
D03*
X-245925Y-25734D02*
D03*
X-265610Y-65104D02*
D03*
X-245925Y-104474D02*
D03*
X-265610Y-143844D02*
D03*
X-304980Y328597D02*
D03*
Y249857D02*
D03*
Y171117D02*
D03*
Y92377D02*
D03*
Y13636D02*
D03*
X-285295Y-25734D02*
D03*
X-304980Y-65104D02*
D03*
X-285295Y-104474D02*
D03*
X-304980Y-143844D02*
D03*
X-344350Y564817D02*
D03*
X-324665Y525447D02*
D03*
X-344350Y486077D02*
D03*
X-324665Y446707D02*
D03*
X-344350Y407337D02*
D03*
X-324665Y367967D02*
D03*
X-344350Y328597D02*
D03*
X-324665Y289227D02*
D03*
X-344350Y249857D02*
D03*
X-324665Y210487D02*
D03*
X-344350Y171117D02*
D03*
X-324665Y131746D02*
D03*
X-344350Y92377D02*
D03*
X-324665Y53006D02*
D03*
X-344350Y13636D02*
D03*
X-324665Y-25734D02*
D03*
X-344350Y-65104D02*
D03*
X-324665Y-104474D02*
D03*
X-344350Y-143844D02*
D03*
X-200571Y580873D02*
D03*
X-70866Y464567D02*
D03*
D42*
X-127126Y503642D02*
D03*
X-118110D02*
D03*
X-109095D02*
D03*
D43*
X-118110Y480610D02*
D03*
D44*
X127953Y531496D02*
D03*
Y541339D02*
D03*
X0Y177165D02*
D03*
X-236221Y559055D02*
D03*
Y570866D02*
D03*
Y582677D02*
D03*
X-150009Y482223D02*
D03*
D45*
X-210866Y540866D02*
D03*
Y550866D02*
D03*
Y560866D02*
D03*
Y570866D02*
D03*
Y580866D02*
D03*
D46*
X-108307Y579882D02*
D03*
D47*
X-102992Y543189D02*
D03*
Y563189D02*
D03*
D48*
X-105512Y553189D02*
D03*
D49*
X-216535Y374016D02*
D03*
Y380512D02*
D03*
X-206693D02*
D03*
Y374016D02*
D03*
X246063Y324803D02*
D03*
Y331299D02*
D03*
X255906D02*
D03*
Y324803D02*
D03*
M02*
