G04*
G04 #@! TF.GenerationSoftware,Altium Limited,Altium Designer,22.10.1 (41)*
G04*
G04 Layer_Color=16711935*
%FSLAX25Y25*%
%MOIN*%
G70*
G04*
G04 #@! TF.SameCoordinates,44C76E85-51F2-408D-B631-529058D5D606*
G04*
G04*
G04 #@! TF.FilePolarity,Positive*
G04*
G01*
G75*
%ADD12C,0.00787*%
D12*
X-187008Y471063D02*
X-186006Y471087D01*
X-185006Y471158D01*
X-184010Y471277D01*
X-183022Y471444D01*
X-182042Y471657D01*
X-181074Y471916D01*
X-180119Y472221D01*
X-179180Y472572D01*
X-178258Y472966D01*
X-177356Y473404D01*
X-176476Y473885D01*
X-175620Y474407D01*
X-174790Y474968D01*
X-173988Y475569D01*
X-173215Y476208D01*
X-172473Y476882D01*
X-171764Y477591D01*
X-171090Y478333D01*
X-170451Y479106D01*
X-169851Y479908D01*
X-169289Y480738D01*
X-168767Y481594D01*
X-168286Y482474D01*
X-167848Y483376D01*
X-167454Y484298D01*
X-167103Y485237D01*
X-166798Y486192D01*
X-166539Y487160D01*
X-166325Y488140D01*
X-166159Y489128D01*
X-166040Y490124D01*
X-165969Y491124D01*
X-165945Y492126D01*
X-165969Y493128D01*
X-166040Y494128D01*
X-166159Y495123D01*
X-166325Y496112D01*
X-166539Y497092D01*
X-166798Y498060D01*
X-167103Y499015D01*
X-167454Y499954D01*
X-167848Y500876D01*
X-168286Y501778D01*
X-168767Y502657D01*
X-169289Y503513D01*
X-169850Y504344D01*
X-170451Y505146D01*
X-171089Y505919D01*
X-171764Y506661D01*
X-172473Y507370D01*
X-173214Y508044D01*
X-173987Y508682D01*
X-174790Y509283D01*
X-175620Y509845D01*
X-176476Y510367D01*
X-177356Y510847D01*
X-178258Y511285D01*
X-179179Y511680D01*
X-180119Y512031D01*
X-181074Y512336D01*
X-182042Y512595D01*
X-183021Y512808D01*
X-184010Y512975D01*
X-185005Y513094D01*
X-186005Y513165D01*
X-187008Y513189D01*
X-187008D02*
X-188010Y513165D01*
X-189010Y513094D01*
X-190005Y512975D01*
X-190994Y512808D01*
X-191974Y512595D01*
X-192942Y512336D01*
X-193897Y512031D01*
X-194836Y511680D01*
X-195758Y511285D01*
X-196660Y510848D01*
X-197539Y510367D01*
X-198395Y509845D01*
X-199226Y509283D01*
X-200028Y508683D01*
X-200801Y508044D01*
X-201543Y507370D01*
X-202252Y506661D01*
X-202926Y505919D01*
X-203565Y505146D01*
X-204165Y504344D01*
X-204727Y503513D01*
X-205249Y502658D01*
X-205729Y501778D01*
X-206168Y500876D01*
X-206562Y499954D01*
X-206912Y499015D01*
X-207218Y498060D01*
X-207477Y497092D01*
X-207690Y496112D01*
X-207856Y495123D01*
X-207976Y494128D01*
X-208047Y493128D01*
X-208071Y492126D01*
X-208047Y491124D01*
X-207976Y490124D01*
X-207856Y489128D01*
X-207690Y488140D01*
X-207477Y487160D01*
X-207218Y486192D01*
X-206912Y485237D01*
X-206562Y484298D01*
X-206167Y483376D01*
X-205729Y482474D01*
X-205249Y481594D01*
X-204727Y480738D01*
X-204165Y479908D01*
X-203565Y479106D01*
X-202926Y478333D01*
X-202252Y477591D01*
X-201543Y476882D01*
X-200801Y476208D01*
X-200028Y475569D01*
X-199225Y474968D01*
X-198395Y474407D01*
X-197539Y473885D01*
X-196659Y473404D01*
X-195758Y472966D01*
X-194836Y472572D01*
X-193897Y472221D01*
X-192942Y471916D01*
X-191974Y471657D01*
X-190994Y471444D01*
X-190005Y471277D01*
X-189010Y471158D01*
X-188010Y471087D01*
X-187008Y471063D01*
X-39370Y513189D02*
X-40372Y513165D01*
X-41372Y513094D01*
X-42368Y512975D01*
X-43356Y512808D01*
X-44336Y512595D01*
X-45304Y512336D01*
X-46259Y512031D01*
X-47198Y511680D01*
X-48120Y511285D01*
X-49022Y510848D01*
X-49902Y510367D01*
X-50758Y509845D01*
X-51588Y509283D01*
X-52390Y508683D01*
X-53163Y508044D01*
X-53905Y507370D01*
X-54614Y506661D01*
X-55288Y505919D01*
X-55927Y505146D01*
X-56528Y504344D01*
X-57089Y503513D01*
X-57611Y502658D01*
X-58092Y501778D01*
X-58530Y500876D01*
X-58924Y499954D01*
X-59275Y499015D01*
X-59580Y498060D01*
X-59839Y497092D01*
X-60052Y496112D01*
X-60219Y495123D01*
X-60338Y494128D01*
X-60409Y493128D01*
X-60433Y492126D01*
X-60409Y491124D01*
X-60338Y490124D01*
X-60219Y489128D01*
X-60052Y488140D01*
X-59839Y487160D01*
X-59580Y486192D01*
X-59275Y485237D01*
X-58924Y484298D01*
X-58530Y483376D01*
X-58092Y482474D01*
X-57611Y481594D01*
X-57089Y480738D01*
X-56527Y479908D01*
X-55927Y479106D01*
X-55288Y478333D01*
X-54614Y477591D01*
X-53905Y476882D01*
X-53163Y476208D01*
X-52390Y475569D01*
X-51588Y474968D01*
X-50757Y474407D01*
X-49902Y473885D01*
X-49022Y473404D01*
X-48120Y472966D01*
X-47198Y472572D01*
X-46259Y472221D01*
X-45304Y471916D01*
X-44336Y471657D01*
X-43356Y471444D01*
X-42368Y471277D01*
X-41372Y471158D01*
X-40372Y471087D01*
X-39370Y471063D01*
X-38368Y471087D01*
X-37368Y471158D01*
X-36373Y471277D01*
X-35384Y471444D01*
X-34404Y471657D01*
X-33436Y471916D01*
X-32481Y472221D01*
X-31542Y472572D01*
X-30620Y472966D01*
X-29719Y473404D01*
X-28839Y473885D01*
X-27983Y474407D01*
X-27152Y474968D01*
X-26350Y475569D01*
X-25577Y476208D01*
X-24835Y476882D01*
X-24126Y477591D01*
X-23452Y478333D01*
X-22814Y479106D01*
X-22213Y479908D01*
X-21651Y480738D01*
X-21129Y481594D01*
X-20649Y482474D01*
X-20211Y483376D01*
X-19816Y484298D01*
X-19466Y485237D01*
X-19160Y486192D01*
X-18901Y487160D01*
X-18688Y488140D01*
X-18521Y489128D01*
X-18403Y490124D01*
X-18331Y491124D01*
X-18307Y492126D01*
X-18331Y493128D01*
X-18402Y494128D01*
X-18521Y495123D01*
X-18688Y496112D01*
X-18901Y497092D01*
X-19160Y498060D01*
X-19466Y499015D01*
X-19816Y499954D01*
X-20211Y500876D01*
X-20649Y501778D01*
X-21129Y502657D01*
X-21651Y503513D01*
X-22213Y504344D01*
X-22813Y505146D01*
X-23452Y505919D01*
X-24126Y506661D01*
X-24835Y507370D01*
X-25577Y508044D01*
X-26350Y508682D01*
X-27152Y509283D01*
X-27982Y509845D01*
X-28838Y510367D01*
X-29718Y510847D01*
X-30620Y511285D01*
X-31542Y511680D01*
X-32481Y512031D01*
X-33436Y512336D01*
X-34404Y512595D01*
X-35384Y512808D01*
X-36372Y512975D01*
X-37368Y513094D01*
X-38368Y513165D01*
X-39370Y513189D01*
X15394Y142244D02*
Y153032D01*
X-15394Y142244D02*
X15394D01*
X-15394D02*
Y153032D01*
X15394D01*
M02*
