G04*
G04 #@! TF.GenerationSoftware,Altium Limited,Altium Designer,22.10.1 (41)*
G04*
G04 Layer_Color=32768*
%FSLAX25Y25*%
%MOIN*%
G70*
G04*
G04 #@! TF.SameCoordinates,44C76E85-51F2-408D-B631-529058D5D606*
G04*
G04*
G04 #@! TF.FilePolarity,Positive*
G04*
G01*
G75*
%ADD51C,0.00600*%
%ADD53C,0.00394*%
%ADD55C,0.00197*%
G36*
X133597Y577365D02*
X73096D01*
Y643165D01*
X133597D01*
Y577365D01*
D02*
G37*
D51*
X73096D02*
X133597D01*
Y643165D01*
X73096D02*
X133597D01*
X73096Y577365D02*
Y643165D01*
D53*
X-118110Y490158D02*
Y494095D01*
X-120079Y492126D02*
X-116142D01*
X108268Y534370D02*
Y538307D01*
X106299Y536339D02*
X110236D01*
X-218504Y377264D02*
X-214567D01*
X-216535Y375295D02*
Y379232D01*
X-208661Y377264D02*
X-204724D01*
X-206693Y375295D02*
Y379232D01*
X-893Y566459D02*
X3044D01*
X1076Y564491D02*
Y568428D01*
X321730Y-112479D02*
X325667D01*
X323698Y-114447D02*
Y-110510D01*
X321730Y-37479D02*
X325667D01*
X323698Y-39447D02*
Y-35510D01*
X321730Y37521D02*
X325667D01*
X323698Y35553D02*
Y39490D01*
X321730Y112521D02*
X325667D01*
X323698Y110553D02*
Y114490D01*
X321730Y187521D02*
X325667D01*
X323698Y185553D02*
Y189490D01*
X321730Y262521D02*
X325667D01*
X323698Y260553D02*
Y264490D01*
X321730Y337521D02*
X325667D01*
X323698Y335553D02*
Y339490D01*
X321730Y412521D02*
X325667D01*
X323698Y410553D02*
Y414490D01*
X321730Y487521D02*
X325667D01*
X323698Y485553D02*
Y489490D01*
X321730Y562521D02*
X325667D01*
X323698Y560553D02*
Y564490D01*
X-300107Y37521D02*
X-296170D01*
X-298138Y35552D02*
Y39489D01*
X-300107Y112521D02*
X-296170D01*
X-298138Y110552D02*
Y114489D01*
X-300107Y187521D02*
X-296170D01*
X-298138Y185552D02*
Y189489D01*
X-300107Y262521D02*
X-296170D01*
X-298138Y260552D02*
Y264489D01*
X-300107Y337521D02*
X-296170D01*
X-298138Y335552D02*
Y339489D01*
X-300107Y412521D02*
X-296170D01*
X-298138Y410552D02*
Y414489D01*
X-300107Y487521D02*
X-296170D01*
X-298138Y485552D02*
Y489489D01*
X-300107Y562521D02*
X-296170D01*
X-298138Y560552D02*
Y564489D01*
X246063Y326083D02*
Y330020D01*
X244094Y328051D02*
X248031D01*
X255906Y326083D02*
Y330020D01*
X253937Y328051D02*
X257874D01*
D55*
X-132283Y508858D02*
X-103937D01*
X-132283Y475394D02*
X-103937D01*
X-132283D02*
Y508858D01*
X-103937Y475394D02*
Y508858D01*
X103268Y526752D02*
X113268D01*
X103268Y545925D02*
X113268D01*
Y526752D02*
Y545925D01*
X103268Y526752D02*
Y545925D01*
X-213189Y371949D02*
Y382579D01*
X-219882Y371949D02*
Y382579D01*
Y371949D02*
X-213189D01*
X-219882Y382579D02*
X-213189D01*
X-210039Y371949D02*
Y382579D01*
X-203346Y371949D02*
Y382579D01*
X-210039D02*
X-203346D01*
X-210039Y371949D02*
X-203346D01*
X-35984Y251063D02*
X35984D01*
Y395787D01*
X-35984D02*
X35984D01*
X-35984Y251063D02*
Y395787D01*
X-30027Y535357D02*
Y597561D01*
Y535357D02*
X32178D01*
Y597561D01*
X-30027D02*
X32178D01*
X292596Y-143581D02*
Y-81377D01*
Y-143581D02*
X354801D01*
Y-81377D01*
X292596D02*
X354801D01*
X292596Y-68581D02*
Y-6377D01*
Y-68581D02*
X354801D01*
Y-6377D01*
X292596D02*
X354801D01*
X292596Y6419D02*
Y68623D01*
Y6419D02*
X354801D01*
Y68623D01*
X292596D02*
X354801D01*
X292596Y81419D02*
Y143623D01*
Y81419D02*
X354801D01*
Y143623D01*
X292596D02*
X354801D01*
X292596Y156419D02*
Y218623D01*
Y156419D02*
X354801D01*
Y218623D01*
X292596D02*
X354801D01*
X292596Y231419D02*
Y293623D01*
Y231419D02*
X354801D01*
Y293623D01*
X292596D02*
X354801D01*
X292596Y306419D02*
Y368623D01*
Y306419D02*
X354801D01*
Y368623D01*
X292596D02*
X354801D01*
X292596Y381419D02*
Y443623D01*
Y381419D02*
X354801D01*
Y443623D01*
X292596D02*
X354801D01*
X292596Y456419D02*
Y518623D01*
Y456419D02*
X354801D01*
Y518623D01*
X292596D02*
X354801D01*
X292596Y531419D02*
Y593623D01*
Y531419D02*
X354801D01*
Y593623D01*
X292596D02*
X354801D01*
X-329241Y6418D02*
Y68623D01*
Y6418D02*
X-267036D01*
Y68623D01*
X-329241D02*
X-267036D01*
X-329241Y81418D02*
Y143623D01*
Y81418D02*
X-267036D01*
Y143623D01*
X-329241D02*
X-267036D01*
X-329241Y156418D02*
Y218623D01*
Y156418D02*
X-267036D01*
Y218623D01*
X-329241D02*
X-267036D01*
X-329241Y231418D02*
Y293623D01*
Y231418D02*
X-267036D01*
Y293623D01*
X-329241D02*
X-267036D01*
X-329241Y306418D02*
Y368623D01*
Y306418D02*
X-267036D01*
Y368623D01*
X-329241D02*
X-267036D01*
X-329241Y381418D02*
Y443623D01*
Y381418D02*
X-267036D01*
Y443623D01*
X-329241D02*
X-267036D01*
X-329241Y456418D02*
Y518623D01*
Y456418D02*
X-267036D01*
Y518623D01*
X-329241D02*
X-267036D01*
X-329241Y531418D02*
Y593623D01*
Y531418D02*
X-267036D01*
Y593623D01*
X-329241D02*
X-267036D01*
X242717Y322736D02*
X249410D01*
X242717Y333366D02*
X249410D01*
Y322736D02*
Y333366D01*
X242717Y322736D02*
Y333366D01*
X252559D02*
X259252D01*
X252559Y322736D02*
X259252D01*
X252559D02*
Y333366D01*
X259252Y322736D02*
Y333366D01*
M02*
