M48
;Layer_Color=9474304
;FILE_FORMAT=2:4
INCH,TZ
;TYPE=PLATED
T1F00S00C0.0118
T2F00S00C0.0315
T3F00S00C0.0350
T4F00S00C0.0360
T5F00S00C0.0394
T6F00S00C0.0402
T7F00S00C0.0590
T8F00S00C0.0910
;TYPE=NON_PLATED
T9F00S00C0.0670
T10F00S00C0.1570
%
T01
X-34435Y-14384
X-30498
X-26561
X-22624
X-18687
X-14750
X-10813
X-6876
X-2939
X998
X4935
X8872
X12809
X16746
X20683
X24620
X28557
X32494
X34463Y-10447
X32494Y-6510
X28557
X24620
X26589Y-10447
X28557Y1364
X32494
X34463Y-2573
X24620Y1364
X20683
X16746
X12809
X8872
X10841Y-2573
X14778
X18715
X22652
X20683Y-6510
X16746
X12809
X8872
X10841Y-10447
X14778
X18715
X22652
X6904
X2967
X-970
X-4907
X-8844
X-12781
X-16718
X-20655
X-18687Y-6510
X-14750
X-10813
X-8844Y-2573
X-12781
X-16718
X-20655
X-18687Y1364
X-14750
X-10813
X-22624
Y-6510
X-26561
X-30498
X-34435
X-32466Y-2573
X-28529
X-24592
X-26561Y1364
X-30498
X-34435
X-32466Y-10447
X-28529
X-24592
Y5301
Y13175
X-32466
X-30498Y17112
X-34435
Y9238
X-30498
X-32466Y5301
X-20655
X-16718
X-12781
X-8844
X-10813Y9238
X-14750
X-18687
X-22624
X-16718Y13175
X-12781
X-8844
X-10813Y17112
X-14750
X-18687
X-6876
X-2939
X-970Y13175
X2967
X6904
X4935Y17112
Y9238
X998
X-2939
X-6876
X-4907Y13175
X10841
X12809Y17112
X16746
X20683
X22652Y13175
X20683Y9238
X16746
X12809
X8872
X10841Y5301
X14778
X22652
X8872Y17112
X28557
X32494
X34463Y13175
X30526
X32494Y9238
X28557
X24620
X34463Y5301
Y21049
X30526
X26589
X28557Y24986
X32494
X34463Y28923
X30526
X26589
X24620Y24986
X20683
X22652Y28923
X18715
X14778
X10841
X12809Y32860
X16746
X12809Y24986
X8872
X10841Y21049
X18715
X22652
X6904
X2967
X-970
X-4907
X-2939Y24986
X-6876
X-970Y28923
X998Y32860
X4935Y24986
X-10813
X-14750
X-18687
X-22624
X-20655Y21049
X-16718
X-8844
Y28923
X-18687Y32860
X-22624
X-26561
X-30498
X-34435
X-32466Y28923
X-30498Y24986
X-26561
X-24592Y21049
X-32466
X-34435Y24986
X-32466Y36797
X-34435Y40734
X-32466Y44671
X-34435Y48608
X-26561
Y40734
X-22624
X-18687
X-14750
X-10813
X-8844Y44671
X-10813Y48608
X-22624
X-6876
X-7087Y46457
X-4907Y44671
X-2939Y48608
X998
Y40734
X4935
X6904Y44671
X-970Y36797
X-6876Y40734
X8872
X12809
X16746
X20683
X22652Y44671
X18715
X14778
X20683Y48608
X24620
X28557
X30526Y44671
X34463
Y36797
X30526
X26589
X28557Y40734
X24620
X26589Y44671
Y52545
X30526
X34463
X28557Y56482
X24620
X20683
X16746
X12809
X8872
X14778Y52545
X18715
X22652
X6904
X2967
X-970
X-4907
X-6876Y56482
X4935
X-10813
X-14750
X-18687
X-20057Y58087
X-16718Y52545
X-8844
X-26561Y56482
X-34435
X-32466Y52545
T02
X-18701Y48228
Y50197
X-3937
Y48228
T03
X10827Y53134
Y54134
T04
X9843Y58268
Y59055
X10827
Y58268
T05
X-1000Y14764
X0
X1000
T06
X-3000Y25980
Y26980
Y27980
Y28980
Y29980
Y30980
Y31980
Y32980
Y33980
Y34980
Y35980
X3000
Y34980
Y33980
Y32980
Y31980
Y30980
Y29980
Y28980
Y27980
Y26980
Y25980
Y36980
Y37980
Y38980
X2000
X1000
X0
X-1000
X-2000
X-3000
Y37980
Y36980
T07
X30870Y-10248
X33370Y-9248
Y-1748
X30870Y-2748
Y4752
X-31314Y4752
X-28814Y5752
Y13252
X-31314Y12252
Y19752
X30870Y19752
Y12252
X33370Y13252
Y5752
Y20752
Y28252
X30870Y27252
Y34752
X33370Y35752
X-28814Y35752
X-31314Y34752
Y27252
X-28814Y28252
Y20752
Y43252
X-31314Y42252
Y49752
X-28814Y50752
X30870Y49752
X33370Y50752
Y43252
X30870Y42252
Y57252
X33370Y58252
X1108Y58646
X-1392Y57646
X-28814Y58252
X-31314Y57252
T08
X12705Y60122
X7965
T09
X30370Y-11248
X34370
Y-3748
X30370
Y3752
X34370
X-27814Y3752
X-31814
Y11252
X-27814
Y18752
X-31814
X30370Y18752
X34370
Y11252
X30370
Y26252
X34370
Y33752
X30370
X-27814Y33752
X-31814
Y26252
X-27814
Y41252
X-31814
Y48752
X-27814
X30370Y48752
X34370
Y41252
X30370
Y56252
X34370
X2108Y56646
X-1892
X-27814Y56252
X-31814
T10
X32370Y-11248
Y-3748
Y3752
X-29814Y3752
Y11252
Y18752
X32370Y18752
Y11252
Y26252
Y33752
X-29814Y33752
Y26252
Y41252
Y48752
X32370Y48752
Y41252
Y56252
X108Y56646
X-29814Y56252
M30
