M48
;Layer_Color=9474304
;FILE_FORMAT=2:4
INCH,TZ
;TYPE=PLATED
T1F00S00C0.0118
T2F00S00C0.0315
T3F00S00C0.0394
T5F00S00C0.0402
T6F00S00C0.0433
T7F00S00C0.0520
T8F00S00C0.0850
%
T01
X33465Y19685
X35433
X36417Y21654
X35433Y23622
X33465
X31496
X31496Y24409
X32480Y21654
X36417Y25591
X35433Y27559
X35433Y29528
X36417Y29528
X34435Y29528
X33465Y29528
X32480Y29528
X30512
X28543
X26575
X24606
X25591Y27559
X27559
X29528
X30512Y25591
X28543
X26575
X24606
X22638
X20669
X18701
X19685Y27559
X21654
X23622
Y23622
X25591
X27559
X29528
X21654
X19685
X17717
Y19685
X20669Y21654
Y29528
X18701
X19685Y31496
X21654
X23622
X25591
X26575Y33465
X28543
X30512
X29528Y35433
X27559
X28543Y37402
X30512
X29528Y39370
X30512Y41339
X28543
X26575
Y37402
X24606
X22638
X23622Y39370
Y35433
X24606Y33465
X20669
X18701
X19685Y35433
X17717
X18701Y37402
X19685Y39370
X17717
X18701Y41339
X17717Y31496
X29528
X31496
X33465
X35433
X36417Y33465
X34449
X32480
X33465Y35433
X35433
X36417Y37402
X34449
X32480
X33465Y39370
X35433
X36417Y41339
X34449
X31496Y39370
Y35433
T02
X25394Y31890
X27362
T03
X31512Y18701
X32512
X30512
T05
X31528Y20079
Y26079
X30528
X29528
X28528
X27528
X26528
X25528
X24528
X23528
X22528
X21528
X20528
X19528
X18528
Y25079
Y24079
Y23079
Y22079
Y21079
Y20079
X19528
X20528
X21528
X22528
X23528
X24528
X25528
X26528
X27528
X28528
X29528
X30528
X24472Y41339
X23472
X22472
X21472
X20472
X19472
T06
X19685Y28346
X20685
X21685
T07
X20472Y37402
T08
X19122Y36051
X21823
Y38752
X19122
M30
