G04*
G04 #@! TF.GenerationSoftware,Altium Limited,Altium Designer,22.10.1 (41)*
G04*
G04 Layer_Physical_Order=2*
G04 Layer_Color=16711680*
%FSLAX25Y25*%
%MOIN*%
G70*
G04*
G04 #@! TF.SameCoordinates,E9990B0B-6E38-4B2E-9C7E-526108F30C78*
G04*
G04*
G04 #@! TF.FilePolarity,Positive*
G04*
G01*
G75*
%ADD10C,0.01968*%
%ADD24R,0.05118X0.05118*%
%ADD25C,0.05118*%
%ADD29C,0.06102*%
%ADD30R,0.06102X0.06102*%
G04:AMPARAMS|DCode=31|XSize=133.86mil|YSize=62.99mil|CornerRadius=31.5mil|HoleSize=0mil|Usage=FLASHONLY|Rotation=90.000|XOffset=0mil|YOffset=0mil|HoleType=Round|Shape=RoundedRectangle|*
%AMROUNDEDRECTD31*
21,1,0.13386,0.00000,0,0,90.0*
21,1,0.07087,0.06299,0,0,90.0*
1,1,0.06299,0.00000,0.03543*
1,1,0.06299,0.00000,-0.03543*
1,1,0.06299,0.00000,-0.03543*
1,1,0.06299,0.00000,0.03543*
%
%ADD31ROUNDEDRECTD31*%
G04:AMPARAMS|DCode=32|XSize=153.54mil|YSize=62.99mil|CornerRadius=31.5mil|HoleSize=0mil|Usage=FLASHONLY|Rotation=90.000|XOffset=0mil|YOffset=0mil|HoleType=Round|Shape=RoundedRectangle|*
%AMROUNDEDRECTD32*
21,1,0.15354,0.00000,0,0,90.0*
21,1,0.09055,0.06299,0,0,90.0*
1,1,0.06299,0.00000,0.04528*
1,1,0.06299,0.00000,-0.04528*
1,1,0.06299,0.00000,-0.04528*
1,1,0.06299,0.00000,0.04528*
%
%ADD32ROUNDEDRECTD32*%
%ADD33R,0.06299X0.20079*%
%ADD42C,0.03937*%
%ADD43C,0.11811*%
%ADD44C,0.09134*%
%ADD45C,0.06024*%
%ADD46C,0.06693*%
%ADD47R,0.06693X0.06693*%
%ADD48C,0.02362*%
G36*
X373213Y178755D02*
X168913D01*
Y433055D01*
X373213D01*
Y178755D01*
D02*
G37*
%LPC*%
G36*
X235192Y416937D02*
X234974D01*
Y413636D01*
X238276D01*
Y413853D01*
X238034Y414756D01*
X237566Y415566D01*
X236905Y416227D01*
X236095Y416695D01*
X235192Y416937D01*
D02*
G37*
G36*
X215192D02*
X214974D01*
Y413636D01*
X218276D01*
Y413853D01*
X218034Y414756D01*
X217566Y415566D01*
X216905Y416227D01*
X216095Y416695D01*
X215192Y416937D01*
D02*
G37*
G36*
X195192D02*
X194974D01*
Y413636D01*
X198276D01*
Y413853D01*
X198034Y414756D01*
X197566Y415566D01*
X196905Y416227D01*
X196095Y416695D01*
X195192Y416937D01*
D02*
G37*
G36*
X234474D02*
X234257D01*
X233354Y416695D01*
X232544Y416227D01*
X231883Y415566D01*
X231415Y414756D01*
X231173Y413853D01*
Y413636D01*
X234474D01*
Y416937D01*
D02*
G37*
G36*
X214474D02*
X214257D01*
X213354Y416695D01*
X212544Y416227D01*
X211883Y415566D01*
X211415Y414756D01*
X211173Y413853D01*
Y413636D01*
X214474D01*
Y416937D01*
D02*
G37*
G36*
X194474D02*
X194257D01*
X193354Y416695D01*
X192544Y416227D01*
X191883Y415566D01*
X191415Y414756D01*
X191173Y413853D01*
Y413636D01*
X194474D01*
Y416937D01*
D02*
G37*
G36*
X248276D02*
X241173D01*
Y409835D01*
X248276D01*
Y416937D01*
D02*
G37*
G36*
X238276Y413136D02*
X234974D01*
Y409835D01*
X235192D01*
X236095Y410077D01*
X236905Y410544D01*
X237566Y411205D01*
X238034Y412015D01*
X238276Y412918D01*
Y413136D01*
D02*
G37*
G36*
X234474D02*
X231173D01*
Y412918D01*
X231415Y412015D01*
X231883Y411205D01*
X232544Y410544D01*
X233354Y410077D01*
X234257Y409835D01*
X234474D01*
Y413136D01*
D02*
G37*
G36*
X218276D02*
X214974D01*
Y409835D01*
X215192D01*
X216095Y410077D01*
X216905Y410544D01*
X217566Y411205D01*
X218034Y412015D01*
X218276Y412918D01*
Y413136D01*
D02*
G37*
G36*
X214474D02*
X211173D01*
Y412918D01*
X211415Y412015D01*
X211883Y411205D01*
X212544Y410544D01*
X213354Y410077D01*
X214257Y409835D01*
X214474D01*
Y413136D01*
D02*
G37*
G36*
X205192Y416937D02*
X204257D01*
X203354Y416695D01*
X202544Y416227D01*
X201883Y415566D01*
X201415Y414756D01*
X201173Y413853D01*
Y412918D01*
X201415Y412015D01*
X201883Y411205D01*
X202544Y410544D01*
X203354Y410077D01*
X204257Y409835D01*
X205192D01*
X206095Y410077D01*
X206905Y410544D01*
X207566Y411205D01*
X208034Y412015D01*
X208276Y412918D01*
Y413853D01*
X208034Y414756D01*
X207566Y415566D01*
X206905Y416227D01*
X206095Y416695D01*
X205192Y416937D01*
D02*
G37*
G36*
X198276Y413136D02*
X194974D01*
Y409835D01*
X195192D01*
X196095Y410077D01*
X196905Y410544D01*
X197566Y411205D01*
X198034Y412015D01*
X198276Y412918D01*
Y413136D01*
D02*
G37*
G36*
X194474D02*
X191173D01*
Y412918D01*
X191415Y412015D01*
X191883Y411205D01*
X192544Y410544D01*
X193354Y410077D01*
X194257Y409835D01*
X194474D01*
Y413136D01*
D02*
G37*
G36*
X273872Y394987D02*
Y388045D01*
X277303D01*
Y391339D01*
X277178Y392291D01*
X276810Y393179D01*
X276225Y393941D01*
X275463Y394527D01*
X274575Y394894D01*
X273872Y394987D01*
D02*
G37*
G36*
X273372D02*
X272669Y394894D01*
X271781Y394527D01*
X271019Y393941D01*
X270434Y393179D01*
X270066Y392291D01*
X269941Y391339D01*
Y388045D01*
X273372D01*
Y394987D01*
D02*
G37*
G36*
X218859Y393925D02*
X218478D01*
Y387770D01*
X224634D01*
Y388151D01*
X224388Y389388D01*
X223905Y390554D01*
X223204Y391603D01*
X222312Y392495D01*
X221263Y393196D01*
X220097Y393679D01*
X218859Y393925D01*
D02*
G37*
G36*
X217978D02*
X217598D01*
X216360Y393679D01*
X215194Y393196D01*
X214145Y392495D01*
X213253Y391603D01*
X212552Y390554D01*
X212069Y389388D01*
X211823Y388151D01*
Y387770D01*
X217978D01*
Y393925D01*
D02*
G37*
G36*
X191851D02*
X191471D01*
Y387770D01*
X197626D01*
Y388151D01*
X197380Y389388D01*
X196897Y390554D01*
X196196Y391603D01*
X195304Y392495D01*
X194255Y393196D01*
X193089Y393679D01*
X191851Y393925D01*
D02*
G37*
G36*
X190971D02*
X190590D01*
X189352Y393679D01*
X188186Y393196D01*
X187137Y392495D01*
X186245Y391603D01*
X185544Y390554D01*
X185061Y389388D01*
X184815Y388151D01*
Y387770D01*
X190971D01*
Y393925D01*
D02*
G37*
G36*
X224634Y387270D02*
X218478D01*
Y381114D01*
X218859D01*
X220097Y381360D01*
X221263Y381843D01*
X222312Y382544D01*
X223204Y383436D01*
X223905Y384486D01*
X224388Y385651D01*
X224634Y386889D01*
Y387270D01*
D02*
G37*
G36*
X217978D02*
X211823D01*
Y386889D01*
X212069Y385651D01*
X212552Y384486D01*
X213253Y383436D01*
X214145Y382544D01*
X215194Y381843D01*
X216360Y381360D01*
X217598Y381114D01*
X217978D01*
Y387270D01*
D02*
G37*
G36*
X197626D02*
X191471D01*
Y381114D01*
X191851D01*
X193089Y381360D01*
X194255Y381843D01*
X195304Y382544D01*
X196196Y383436D01*
X196897Y384486D01*
X197380Y385651D01*
X197626Y386889D01*
Y387270D01*
D02*
G37*
G36*
X190971D02*
X184815D01*
Y386889D01*
X185061Y385651D01*
X185544Y384486D01*
X186245Y383436D01*
X187137Y382544D01*
X188186Y381843D01*
X189352Y381360D01*
X190590Y381114D01*
X190971D01*
Y387270D01*
D02*
G37*
G36*
X273372Y387545D02*
X269941D01*
Y384252D01*
X270066Y383299D01*
X270434Y382411D01*
X271019Y381649D01*
X271781Y381064D01*
X272669Y380696D01*
X273372Y380604D01*
Y387545D01*
D02*
G37*
G36*
X277809Y382191D02*
Y374266D01*
X281240D01*
Y378543D01*
X281115Y379496D01*
X280747Y380384D01*
X280162Y381146D01*
X279400Y381731D01*
X278512Y382099D01*
X277809Y382191D01*
D02*
G37*
G36*
X277303Y387545D02*
X273872D01*
Y380604D01*
X273948Y380614D01*
X274275Y380153D01*
X274003Y379496D01*
X273878Y378543D01*
Y374266D01*
X277309D01*
Y382191D01*
X277233Y382182D01*
X276906Y382643D01*
X277178Y383299D01*
X277303Y384252D01*
Y387545D01*
D02*
G37*
G36*
X205392Y379083D02*
X204057D01*
X202769Y378737D01*
X201613Y378070D01*
X200670Y377127D01*
X200003Y375972D01*
X199657Y374683D01*
Y373349D01*
X200003Y372060D01*
X200670Y370905D01*
X201613Y369961D01*
X202769Y369294D01*
X204057Y368949D01*
X205392D01*
X206680Y369294D01*
X207836Y369961D01*
X208779Y370905D01*
X209446Y372060D01*
X209791Y373349D01*
Y374683D01*
X209446Y375972D01*
X208779Y377127D01*
X207836Y378070D01*
X206680Y378737D01*
X205392Y379083D01*
D02*
G37*
G36*
X281240Y373766D02*
X277809D01*
Y365840D01*
X278512Y365932D01*
X279400Y366300D01*
X280162Y366885D01*
X280747Y367648D01*
X281115Y368535D01*
X281240Y369488D01*
Y373766D01*
D02*
G37*
G36*
X277309D02*
X273878D01*
Y369488D01*
X274003Y368535D01*
X274371Y367648D01*
X274956Y366885D01*
X275718Y366300D01*
X276606Y365932D01*
X277309Y365840D01*
Y373766D01*
D02*
G37*
G36*
X256799Y384555D02*
X249500D01*
Y363476D01*
X256799D01*
Y384555D01*
D02*
G37*
G36*
X218859Y366917D02*
X218478D01*
Y360762D01*
X224634D01*
Y361143D01*
X224388Y362380D01*
X223905Y363546D01*
X223204Y364595D01*
X222312Y365487D01*
X221263Y366188D01*
X220097Y366671D01*
X218859Y366917D01*
D02*
G37*
G36*
X217978D02*
X217598D01*
X216360Y366671D01*
X215194Y366188D01*
X214145Y365487D01*
X213253Y364595D01*
X212552Y363546D01*
X212069Y362380D01*
X211823Y361143D01*
Y360762D01*
X217978D01*
Y366917D01*
D02*
G37*
G36*
X191851D02*
X191471D01*
Y360762D01*
X197626D01*
Y361143D01*
X197380Y362380D01*
X196897Y363546D01*
X196196Y364595D01*
X195304Y365487D01*
X194255Y366188D01*
X193089Y366671D01*
X191851Y366917D01*
D02*
G37*
G36*
X190971D02*
X190590D01*
X189352Y366671D01*
X188186Y366188D01*
X187137Y365487D01*
X186245Y364595D01*
X185544Y363546D01*
X185061Y362380D01*
X184815Y361143D01*
Y360762D01*
X190971D01*
Y366917D01*
D02*
G37*
G36*
X224634Y360262D02*
X218478D01*
Y354106D01*
X218859D01*
X220097Y354352D01*
X221263Y354835D01*
X222312Y355536D01*
X223204Y356429D01*
X223905Y357478D01*
X224388Y358643D01*
X224634Y359881D01*
Y360262D01*
D02*
G37*
G36*
X217978D02*
X211823D01*
Y359881D01*
X212069Y358643D01*
X212552Y357478D01*
X213253Y356429D01*
X214145Y355536D01*
X215194Y354835D01*
X216360Y354352D01*
X217598Y354106D01*
X217978D01*
Y360262D01*
D02*
G37*
G36*
X197626D02*
X191471D01*
Y354106D01*
X191851D01*
X193089Y354352D01*
X194255Y354835D01*
X195304Y355536D01*
X196196Y356429D01*
X196897Y357478D01*
X197380Y358643D01*
X197626Y359881D01*
Y360262D01*
D02*
G37*
G36*
X190971D02*
X184815D01*
Y359881D01*
X185061Y358643D01*
X185544Y357478D01*
X186245Y356429D01*
X187137Y355536D01*
X188186Y354835D01*
X189352Y354352D01*
X190590Y354106D01*
X190971D01*
Y360262D01*
D02*
G37*
G36*
X276681Y321957D02*
X273872D01*
Y319148D01*
X276681D01*
Y321957D01*
D02*
G37*
G36*
X273372D02*
X270563D01*
Y319148D01*
X273372D01*
Y321957D01*
D02*
G37*
G36*
X276681Y318648D02*
X273872D01*
Y315839D01*
X276681D01*
Y318648D01*
D02*
G37*
G36*
X273372D02*
X270563D01*
Y315839D01*
X273372D01*
Y318648D01*
D02*
G37*
G36*
X254340Y321957D02*
X253534D01*
X252756Y321748D01*
X252059Y321345D01*
X251489Y320776D01*
X251086Y320078D01*
X250878Y319300D01*
Y318495D01*
X251086Y317717D01*
X251489Y317019D01*
X252059Y316450D01*
X252756Y316047D01*
X253534Y315839D01*
X254340D01*
X255118Y316047D01*
X255815Y316450D01*
X256385Y317019D01*
X256788Y317717D01*
X256996Y318495D01*
Y319300D01*
X256788Y320078D01*
X256385Y320776D01*
X255815Y321345D01*
X255118Y321748D01*
X254340Y321957D01*
D02*
G37*
G36*
X207357Y287311D02*
X207100D01*
Y283715D01*
X210697D01*
Y283971D01*
X210435Y284949D01*
X209928Y285826D01*
X209212Y286543D01*
X208335Y287049D01*
X207357Y287311D01*
D02*
G37*
G36*
X206600D02*
X206344D01*
X205366Y287049D01*
X204489Y286543D01*
X203772Y285826D01*
X203266Y284949D01*
X203004Y283971D01*
Y283715D01*
X206600D01*
Y287311D01*
D02*
G37*
G36*
X217357D02*
X216344D01*
X215366Y287049D01*
X214489Y286543D01*
X213773Y285826D01*
X213266Y284949D01*
X213004Y283971D01*
Y282958D01*
X213266Y281980D01*
X213773Y281103D01*
X214489Y280387D01*
X215366Y279880D01*
X216344Y279618D01*
X217357D01*
X218335Y279880D01*
X219212Y280387D01*
X219928Y281103D01*
X220435Y281980D01*
X220697Y282958D01*
Y283971D01*
X220435Y284949D01*
X219928Y285826D01*
X219212Y286543D01*
X218335Y287049D01*
X217357Y287311D01*
D02*
G37*
G36*
X210697Y283215D02*
X207100D01*
Y279618D01*
X207357D01*
X208335Y279880D01*
X209212Y280387D01*
X209928Y281103D01*
X210435Y281980D01*
X210697Y282958D01*
Y283215D01*
D02*
G37*
G36*
X206600D02*
X203004D01*
Y282958D01*
X203266Y281980D01*
X203772Y281103D01*
X204489Y280387D01*
X205366Y279880D01*
X206344Y279618D01*
X206600D01*
Y283215D01*
D02*
G37*
G36*
X200697Y287311D02*
X193004D01*
Y279618D01*
X200697D01*
Y287311D01*
D02*
G37*
G36*
X334980Y296957D02*
X334311D01*
X333693Y296701D01*
X333221Y296228D01*
X332965Y295610D01*
Y294941D01*
X333132Y294536D01*
Y291965D01*
X319674Y278507D01*
X304553D01*
X304553Y278507D01*
X303974Y278392D01*
X303483Y278064D01*
X294205Y268787D01*
X293878Y268296D01*
X293762Y267717D01*
X293762Y267717D01*
Y263969D01*
X293119Y263597D01*
X292465Y262944D01*
X292003Y262143D01*
X291764Y261250D01*
Y260325D01*
X292003Y259432D01*
X292465Y258631D01*
X293119Y257977D01*
X293920Y257515D01*
X294813Y257276D01*
X295738D01*
X296631Y257515D01*
X297432Y257977D01*
X298086Y258631D01*
X298548Y259432D01*
X298787Y260325D01*
Y261250D01*
X298548Y262143D01*
X298086Y262944D01*
X297432Y263597D01*
X296789Y263969D01*
Y267090D01*
X305180Y275481D01*
X320301D01*
X320301Y275481D01*
X320880Y275596D01*
X321371Y275924D01*
X335716Y290268D01*
X335716Y290268D01*
X336044Y290759D01*
X336159Y291339D01*
Y294536D01*
X336327Y294941D01*
Y295610D01*
X336071Y296228D01*
X335598Y296701D01*
X334980Y296957D01*
D02*
G37*
G36*
X344680Y296964D02*
X344011D01*
X343393Y296708D01*
X342920Y296236D01*
X342752Y295831D01*
X320089Y273167D01*
X311142D01*
X311142Y273167D01*
X310562Y273052D01*
X310071Y272724D01*
X304981Y267634D01*
X304653Y267143D01*
X304538Y266563D01*
X304538Y266563D01*
Y264226D01*
X303920Y264060D01*
X303119Y263597D01*
X302466Y262944D01*
X302003Y262143D01*
X301764Y261250D01*
Y260325D01*
X302003Y259432D01*
X302466Y258631D01*
X303119Y257977D01*
X303920Y257515D01*
X304813Y257276D01*
X305738D01*
X306631Y257515D01*
X307432Y257977D01*
X308086Y258631D01*
X308548Y259432D01*
X308787Y260325D01*
Y261250D01*
X308548Y262143D01*
X308086Y262944D01*
X307565Y263465D01*
Y265937D01*
X311769Y270140D01*
X320715D01*
X320715Y270140D01*
X321295Y270255D01*
X321786Y270583D01*
X344893Y293690D01*
X345298Y293858D01*
X345770Y294331D01*
X346026Y294949D01*
Y295618D01*
X345770Y296236D01*
X345298Y296708D01*
X344680Y296964D01*
D02*
G37*
G36*
X315738Y264299D02*
X315526D01*
Y261037D01*
X318787D01*
Y261250D01*
X318548Y262143D01*
X318086Y262944D01*
X317432Y263597D01*
X316631Y264060D01*
X315738Y264299D01*
D02*
G37*
G36*
X315026D02*
X314813D01*
X313920Y264060D01*
X313119Y263597D01*
X312466Y262944D01*
X312003Y262143D01*
X311764Y261250D01*
Y261037D01*
X315026D01*
Y264299D01*
D02*
G37*
G36*
X318787Y260537D02*
X315526D01*
Y257276D01*
X315738D01*
X316631Y257515D01*
X317432Y257977D01*
X318086Y258631D01*
X318548Y259432D01*
X318787Y260325D01*
Y260537D01*
D02*
G37*
G36*
X315026D02*
X311764D01*
Y260325D01*
X312003Y259432D01*
X312466Y258631D01*
X313119Y257977D01*
X313920Y257515D01*
X314813Y257276D01*
X315026D01*
Y260537D01*
D02*
G37*
G36*
X285738Y264299D02*
X284813D01*
X283920Y264060D01*
X283119Y263597D01*
X282466Y262944D01*
X282003Y262143D01*
X281764Y261250D01*
Y260325D01*
X282003Y259432D01*
X282466Y258631D01*
X283119Y257977D01*
X283920Y257515D01*
X284813Y257276D01*
X285738D01*
X286631Y257515D01*
X287432Y257977D01*
X288086Y258631D01*
X288548Y259432D01*
X288787Y260325D01*
Y261250D01*
X288548Y262143D01*
X288086Y262944D01*
X287432Y263597D01*
X286631Y264060D01*
X285738Y264299D01*
D02*
G37*
G36*
X275738D02*
X274813D01*
X273920Y264060D01*
X273119Y263597D01*
X272465Y262944D01*
X272003Y262143D01*
X271764Y261250D01*
Y260325D01*
X272003Y259432D01*
X272465Y258631D01*
X273119Y257977D01*
X273920Y257515D01*
X274813Y257276D01*
X275738D01*
X276631Y257515D01*
X277432Y257977D01*
X278086Y258631D01*
X278548Y259432D01*
X278787Y260325D01*
Y261250D01*
X278548Y262143D01*
X278086Y262944D01*
X277432Y263597D01*
X276631Y264060D01*
X275738Y264299D01*
D02*
G37*
G36*
X265738D02*
X264813D01*
X263920Y264060D01*
X263119Y263597D01*
X262466Y262944D01*
X262003Y262143D01*
X261764Y261250D01*
Y260325D01*
X262003Y259432D01*
X262466Y258631D01*
X263119Y257977D01*
X263920Y257515D01*
X264813Y257276D01*
X265738D01*
X266631Y257515D01*
X267432Y257977D01*
X268086Y258631D01*
X268548Y259432D01*
X268787Y260325D01*
Y261250D01*
X268548Y262143D01*
X268086Y262944D01*
X267432Y263597D01*
X266631Y264060D01*
X265738Y264299D01*
D02*
G37*
G36*
X255738D02*
X254813D01*
X253920Y264060D01*
X253119Y263597D01*
X252466Y262944D01*
X252003Y262143D01*
X251764Y261250D01*
Y260325D01*
X252003Y259432D01*
X252466Y258631D01*
X253119Y257977D01*
X253920Y257515D01*
X254813Y257276D01*
X255738D01*
X256631Y257515D01*
X257432Y257977D01*
X258086Y258631D01*
X258548Y259432D01*
X258787Y260325D01*
Y261250D01*
X258548Y262143D01*
X258086Y262944D01*
X257432Y263597D01*
X256631Y264060D01*
X255738Y264299D01*
D02*
G37*
G36*
X245738D02*
X244813D01*
X243920Y264060D01*
X243119Y263597D01*
X242465Y262944D01*
X242003Y262143D01*
X241764Y261250D01*
Y260325D01*
X242003Y259432D01*
X242465Y258631D01*
X243119Y257977D01*
X243920Y257515D01*
X244813Y257276D01*
X245738D01*
X246631Y257515D01*
X247432Y257977D01*
X248086Y258631D01*
X248548Y259432D01*
X248787Y260325D01*
Y261250D01*
X248548Y262143D01*
X248086Y262944D01*
X247432Y263597D01*
X246631Y264060D01*
X245738Y264299D01*
D02*
G37*
G36*
X235738D02*
X234813D01*
X233920Y264060D01*
X233119Y263597D01*
X232466Y262944D01*
X232003Y262143D01*
X231764Y261250D01*
Y260325D01*
X232003Y259432D01*
X232466Y258631D01*
X233119Y257977D01*
X233920Y257515D01*
X234813Y257276D01*
X235738D01*
X236631Y257515D01*
X237432Y257977D01*
X238086Y258631D01*
X238548Y259432D01*
X238787Y260325D01*
Y261250D01*
X238548Y262143D01*
X238086Y262944D01*
X237432Y263597D01*
X236631Y264060D01*
X235738Y264299D01*
D02*
G37*
G36*
X225192Y416937D02*
X224257D01*
X223354Y416695D01*
X222544Y416227D01*
X221883Y415566D01*
X221415Y414756D01*
X221173Y413853D01*
Y412918D01*
X221415Y412015D01*
X221883Y411205D01*
X222207Y410881D01*
Y401260D01*
X222399Y400297D01*
X222945Y399480D01*
X229767Y392658D01*
Y351436D01*
X223496Y345165D01*
X222950Y344349D01*
X222759Y343386D01*
Y263237D01*
X222465Y262944D01*
X222003Y262143D01*
X221764Y261250D01*
Y260325D01*
X222003Y259432D01*
X222465Y258631D01*
X223119Y257977D01*
X223920Y257515D01*
X224813Y257276D01*
X225738D01*
X226631Y257515D01*
X227432Y257977D01*
X228086Y258631D01*
X228548Y259432D01*
X228787Y260325D01*
Y261250D01*
X228548Y262143D01*
X228086Y262944D01*
X227793Y263237D01*
Y342343D01*
X234063Y348614D01*
X234609Y349430D01*
X234800Y350394D01*
Y393701D01*
X234609Y394664D01*
X234063Y395480D01*
X227241Y402302D01*
Y410881D01*
X227566Y411205D01*
X228034Y412015D01*
X228276Y412918D01*
Y413853D01*
X228034Y414756D01*
X227566Y415566D01*
X226905Y416227D01*
X226095Y416695D01*
X225192Y416937D01*
D02*
G37*
G36*
X215738Y264299D02*
X214813D01*
X213920Y264060D01*
X213119Y263597D01*
X212466Y262944D01*
X212003Y262143D01*
X211764Y261250D01*
Y260325D01*
X212003Y259432D01*
X212466Y258631D01*
X213119Y257977D01*
X213920Y257515D01*
X214813Y257276D01*
X215738D01*
X216631Y257515D01*
X217432Y257977D01*
X218086Y258631D01*
X218548Y259432D01*
X218787Y260325D01*
Y261250D01*
X218548Y262143D01*
X218086Y262944D01*
X217432Y263597D01*
X216631Y264060D01*
X215738Y264299D01*
D02*
G37*
G36*
X205738D02*
X204813D01*
X203920Y264060D01*
X203119Y263597D01*
X202466Y262944D01*
X202003Y262143D01*
X201764Y261250D01*
Y260325D01*
X202003Y259432D01*
X202466Y258631D01*
X203119Y257977D01*
X203920Y257515D01*
X204813Y257276D01*
X205738D01*
X206631Y257515D01*
X207432Y257977D01*
X208086Y258631D01*
X208548Y259432D01*
X208787Y260325D01*
Y261250D01*
X208548Y262143D01*
X208086Y262944D01*
X207432Y263597D01*
X206631Y264060D01*
X205738Y264299D01*
D02*
G37*
G36*
X195738D02*
X194813D01*
X193920Y264060D01*
X193119Y263597D01*
X192465Y262944D01*
X192003Y262143D01*
X191764Y261250D01*
Y260325D01*
X192003Y259432D01*
X192465Y258631D01*
X193119Y257977D01*
X193920Y257515D01*
X194813Y257276D01*
X195738D01*
X196631Y257515D01*
X197432Y257977D01*
X198086Y258631D01*
X198548Y259432D01*
X198787Y260325D01*
Y261250D01*
X198548Y262143D01*
X198086Y262944D01*
X197432Y263597D01*
X196631Y264060D01*
X195738Y264299D01*
D02*
G37*
G36*
X185738D02*
X184813D01*
X183920Y264060D01*
X183119Y263597D01*
X182466Y262944D01*
X182003Y262143D01*
X181764Y261250D01*
Y260325D01*
X182003Y259432D01*
X182466Y258631D01*
X183119Y257977D01*
X183920Y257515D01*
X184813Y257276D01*
X185738D01*
X186631Y257515D01*
X187432Y257977D01*
X188086Y258631D01*
X188548Y259432D01*
X188787Y260325D01*
Y261250D01*
X188548Y262143D01*
X188086Y262944D01*
X187432Y263597D01*
X186631Y264060D01*
X185738Y264299D01*
D02*
G37*
G36*
Y254299D02*
X184813D01*
X183920Y254060D01*
X183119Y253597D01*
X182466Y252944D01*
X182003Y252143D01*
X181764Y251250D01*
Y250325D01*
X182003Y249432D01*
X182466Y248631D01*
X183119Y247977D01*
X183920Y247515D01*
X184813Y247276D01*
X185738D01*
X186631Y247515D01*
X187432Y247977D01*
X188086Y248631D01*
X188548Y249432D01*
X188787Y250325D01*
Y251250D01*
X188548Y252143D01*
X188086Y252944D01*
X187432Y253597D01*
X186631Y254060D01*
X185738Y254299D01*
D02*
G37*
G36*
X354665Y296957D02*
X353996D01*
X353379Y296701D01*
X352906Y296228D01*
X352650Y295610D01*
Y294941D01*
X352817Y294536D01*
Y284091D01*
X314413Y245687D01*
X314008Y245520D01*
X313535Y245047D01*
X313280Y244429D01*
Y243760D01*
X313535Y243142D01*
X314008Y242669D01*
X314626Y242413D01*
X315295D01*
X315913Y242669D01*
X316386Y243142D01*
X316554Y243547D01*
X355401Y282395D01*
X355729Y282885D01*
X355844Y283465D01*
X355844Y283465D01*
Y294536D01*
X356012Y294941D01*
Y295610D01*
X355756Y296228D01*
X355283Y296701D01*
X354665Y296957D01*
D02*
G37*
G36*
X185738Y244299D02*
X184813D01*
X183920Y244060D01*
X183119Y243598D01*
X182466Y242944D01*
X182003Y242143D01*
X181764Y241250D01*
Y240325D01*
X182003Y239432D01*
X182466Y238631D01*
X183119Y237977D01*
X183920Y237515D01*
X184813Y237276D01*
X185738D01*
X186631Y237515D01*
X187432Y237977D01*
X188086Y238631D01*
X188548Y239432D01*
X188787Y240325D01*
Y241250D01*
X188548Y242143D01*
X188086Y242944D01*
X187432Y243598D01*
X186631Y244060D01*
X185738Y244299D01*
D02*
G37*
G36*
Y234299D02*
X185526D01*
Y231037D01*
X188787D01*
Y231250D01*
X188548Y232143D01*
X188086Y232944D01*
X187432Y233597D01*
X186631Y234060D01*
X185738Y234299D01*
D02*
G37*
G36*
X185026D02*
X184813D01*
X183920Y234060D01*
X183119Y233597D01*
X182466Y232944D01*
X182003Y232143D01*
X181764Y231250D01*
Y231037D01*
X185026D01*
Y234299D01*
D02*
G37*
G36*
X188787Y230537D02*
X185526D01*
Y227276D01*
X185738D01*
X186631Y227515D01*
X187432Y227977D01*
X188086Y228631D01*
X188548Y229432D01*
X188787Y230325D01*
Y230537D01*
D02*
G37*
G36*
X185026D02*
X181764D01*
Y230325D01*
X182003Y229432D01*
X182466Y228631D01*
X183119Y227977D01*
X183920Y227515D01*
X184813Y227276D01*
X185026D01*
Y230537D01*
D02*
G37*
G36*
X185738Y224299D02*
X184813D01*
X183920Y224060D01*
X183119Y223598D01*
X182466Y222944D01*
X182003Y222143D01*
X181764Y221250D01*
Y220325D01*
X182003Y219432D01*
X182466Y218631D01*
X183119Y217977D01*
X183920Y217515D01*
X184813Y217276D01*
X185738D01*
X186631Y217515D01*
X187432Y217977D01*
X188086Y218631D01*
X188548Y219432D01*
X188787Y220325D01*
Y221250D01*
X188548Y222143D01*
X188086Y222944D01*
X187432Y223598D01*
X186631Y224060D01*
X185738Y224299D01*
D02*
G37*
G36*
Y214299D02*
X184813D01*
X183920Y214060D01*
X183119Y213597D01*
X182466Y212944D01*
X182003Y212143D01*
X181764Y211250D01*
Y210325D01*
X182003Y209432D01*
X182466Y208631D01*
X183119Y207977D01*
X183920Y207515D01*
X184813Y207276D01*
X185738D01*
X186631Y207515D01*
X187432Y207977D01*
X188086Y208631D01*
X188548Y209432D01*
X188787Y210325D01*
Y211250D01*
X188548Y212143D01*
X188086Y212944D01*
X187432Y213597D01*
X186631Y214060D01*
X185738Y214299D01*
D02*
G37*
G36*
X305738Y204299D02*
X305526D01*
Y201037D01*
X308787D01*
Y201250D01*
X308548Y202143D01*
X308086Y202944D01*
X307432Y203597D01*
X306631Y204060D01*
X305738Y204299D01*
D02*
G37*
G36*
X305026D02*
X304813D01*
X303920Y204060D01*
X303119Y203597D01*
X302466Y202944D01*
X302003Y202143D01*
X301764Y201250D01*
Y201037D01*
X305026D01*
Y204299D01*
D02*
G37*
G36*
X315738D02*
X314813D01*
X313920Y204060D01*
X313119Y203597D01*
X312466Y202944D01*
X312003Y202143D01*
X311764Y201250D01*
Y200325D01*
X312003Y199432D01*
X312466Y198631D01*
X313119Y197977D01*
X313920Y197515D01*
X314813Y197276D01*
X315738D01*
X316631Y197515D01*
X317432Y197977D01*
X318086Y198631D01*
X318548Y199432D01*
X318787Y200325D01*
Y201250D01*
X318548Y202143D01*
X318086Y202944D01*
X317432Y203597D01*
X316631Y204060D01*
X315738Y204299D01*
D02*
G37*
G36*
X308787Y200537D02*
X305526D01*
Y197276D01*
X305738D01*
X306631Y197515D01*
X307432Y197977D01*
X308086Y198631D01*
X308548Y199432D01*
X308787Y200325D01*
Y200537D01*
D02*
G37*
G36*
X305026D02*
X301764D01*
Y200325D01*
X302003Y199432D01*
X302466Y198631D01*
X303119Y197977D01*
X303920Y197515D01*
X304813Y197276D01*
X305026D01*
Y200537D01*
D02*
G37*
G36*
X295738Y204299D02*
X294813D01*
X293920Y204060D01*
X293119Y203597D01*
X292465Y202944D01*
X292003Y202143D01*
X291764Y201250D01*
Y200325D01*
X292003Y199432D01*
X292465Y198631D01*
X293119Y197977D01*
X293920Y197515D01*
X294813Y197276D01*
X295738D01*
X296631Y197515D01*
X297432Y197977D01*
X298086Y198631D01*
X298548Y199432D01*
X298787Y200325D01*
Y201250D01*
X298548Y202143D01*
X298086Y202944D01*
X297432Y203597D01*
X296631Y204060D01*
X295738Y204299D01*
D02*
G37*
G36*
X285738D02*
X284813D01*
X283920Y204060D01*
X283119Y203597D01*
X282466Y202944D01*
X282003Y202143D01*
X281764Y201250D01*
Y200325D01*
X282003Y199432D01*
X282466Y198631D01*
X283119Y197977D01*
X283920Y197515D01*
X284813Y197276D01*
X285738D01*
X286631Y197515D01*
X287432Y197977D01*
X288086Y198631D01*
X288548Y199432D01*
X288787Y200325D01*
Y201250D01*
X288548Y202143D01*
X288086Y202944D01*
X287432Y203597D01*
X286631Y204060D01*
X285738Y204299D01*
D02*
G37*
G36*
X275738D02*
X274813D01*
X273920Y204060D01*
X273119Y203597D01*
X272465Y202944D01*
X272003Y202143D01*
X271764Y201250D01*
Y200325D01*
X272003Y199432D01*
X272465Y198631D01*
X273119Y197977D01*
X273920Y197515D01*
X274813Y197276D01*
X275738D01*
X276631Y197515D01*
X277432Y197977D01*
X278086Y198631D01*
X278548Y199432D01*
X278787Y200325D01*
Y201250D01*
X278548Y202143D01*
X278086Y202944D01*
X277432Y203597D01*
X276631Y204060D01*
X275738Y204299D01*
D02*
G37*
G36*
X265738D02*
X264813D01*
X263920Y204060D01*
X263119Y203597D01*
X262466Y202944D01*
X262003Y202143D01*
X261764Y201250D01*
Y200325D01*
X262003Y199432D01*
X262466Y198631D01*
X263119Y197977D01*
X263920Y197515D01*
X264813Y197276D01*
X265738D01*
X266631Y197515D01*
X267432Y197977D01*
X268086Y198631D01*
X268548Y199432D01*
X268787Y200325D01*
Y201250D01*
X268548Y202143D01*
X268086Y202944D01*
X267432Y203597D01*
X266631Y204060D01*
X265738Y204299D01*
D02*
G37*
G36*
X255738D02*
X254813D01*
X253920Y204060D01*
X253119Y203597D01*
X252466Y202944D01*
X252003Y202143D01*
X251764Y201250D01*
Y200325D01*
X252003Y199432D01*
X252466Y198631D01*
X253119Y197977D01*
X253920Y197515D01*
X254813Y197276D01*
X255738D01*
X256631Y197515D01*
X257432Y197977D01*
X258086Y198631D01*
X258548Y199432D01*
X258787Y200325D01*
Y201250D01*
X258548Y202143D01*
X258086Y202944D01*
X257432Y203597D01*
X256631Y204060D01*
X255738Y204299D01*
D02*
G37*
G36*
X245738D02*
X244813D01*
X243920Y204060D01*
X243119Y203597D01*
X242465Y202944D01*
X242003Y202143D01*
X241764Y201250D01*
Y200325D01*
X242003Y199432D01*
X242465Y198631D01*
X243119Y197977D01*
X243920Y197515D01*
X244813Y197276D01*
X245738D01*
X246631Y197515D01*
X247432Y197977D01*
X248086Y198631D01*
X248548Y199432D01*
X248787Y200325D01*
Y201250D01*
X248548Y202143D01*
X248086Y202944D01*
X247432Y203597D01*
X246631Y204060D01*
X245738Y204299D01*
D02*
G37*
G36*
X235738D02*
X234813D01*
X233920Y204060D01*
X233119Y203597D01*
X232466Y202944D01*
X232003Y202143D01*
X231764Y201250D01*
Y200325D01*
X232003Y199432D01*
X232466Y198631D01*
X233119Y197977D01*
X233920Y197515D01*
X234813Y197276D01*
X235738D01*
X236631Y197515D01*
X237432Y197977D01*
X238086Y198631D01*
X238548Y199432D01*
X238787Y200325D01*
Y201250D01*
X238548Y202143D01*
X238086Y202944D01*
X237432Y203597D01*
X236631Y204060D01*
X235738Y204299D01*
D02*
G37*
G36*
X225738D02*
X224813D01*
X223920Y204060D01*
X223119Y203597D01*
X222465Y202944D01*
X222003Y202143D01*
X221764Y201250D01*
Y200325D01*
X222003Y199432D01*
X222465Y198631D01*
X223119Y197977D01*
X223920Y197515D01*
X224813Y197276D01*
X225738D01*
X226631Y197515D01*
X227432Y197977D01*
X228086Y198631D01*
X228548Y199432D01*
X228787Y200325D01*
Y201250D01*
X228548Y202143D01*
X228086Y202944D01*
X227432Y203597D01*
X226631Y204060D01*
X225738Y204299D01*
D02*
G37*
G36*
X215738D02*
X214813D01*
X213920Y204060D01*
X213119Y203597D01*
X212466Y202944D01*
X212003Y202143D01*
X211764Y201250D01*
Y200325D01*
X212003Y199432D01*
X212466Y198631D01*
X213119Y197977D01*
X213920Y197515D01*
X214813Y197276D01*
X215738D01*
X216631Y197515D01*
X217432Y197977D01*
X218086Y198631D01*
X218548Y199432D01*
X218787Y200325D01*
Y201250D01*
X218548Y202143D01*
X218086Y202944D01*
X217432Y203597D01*
X216631Y204060D01*
X215738Y204299D01*
D02*
G37*
G36*
X195738D02*
X194813D01*
X193920Y204060D01*
X193119Y203597D01*
X192465Y202944D01*
X192003Y202143D01*
X191764Y201250D01*
Y200325D01*
X192003Y199432D01*
X192465Y198631D01*
X193119Y197977D01*
X193920Y197515D01*
X194813Y197276D01*
X195738D01*
X196631Y197515D01*
X197432Y197977D01*
X198086Y198631D01*
X198548Y199432D01*
X198787Y200325D01*
Y201250D01*
X198548Y202143D01*
X198086Y202944D01*
X197432Y203597D01*
X196631Y204060D01*
X195738Y204299D01*
D02*
G37*
G36*
X185738D02*
X184813D01*
X183920Y204060D01*
X183119Y203597D01*
X182466Y202944D01*
X182003Y202143D01*
X181764Y201250D01*
Y200325D01*
X182003Y199432D01*
X182466Y198631D01*
X183119Y197977D01*
X183920Y197515D01*
X184813Y197276D01*
X185738D01*
X186631Y197515D01*
X187432Y197977D01*
X188086Y198631D01*
X188548Y199432D01*
X188787Y200325D01*
Y201250D01*
X188548Y202143D01*
X188086Y202944D01*
X187432Y203597D01*
X186631Y204060D01*
X185738Y204299D01*
D02*
G37*
G36*
X305586Y190559D02*
X305368D01*
Y187258D01*
X308669D01*
Y187475D01*
X308427Y188379D01*
X307960Y189188D01*
X307299Y189849D01*
X306489Y190317D01*
X305586Y190559D01*
D02*
G37*
G36*
X304868D02*
X304651D01*
X303747Y190317D01*
X302938Y189849D01*
X302276Y189188D01*
X301809Y188379D01*
X301567Y187475D01*
Y187258D01*
X304868D01*
Y190559D01*
D02*
G37*
G36*
X314961Y219052D02*
X221024D01*
X220060Y218861D01*
X219244Y218315D01*
X205228Y204299D01*
X204813D01*
X203920Y204060D01*
X203119Y203597D01*
X202466Y202944D01*
X202003Y202143D01*
X201764Y201250D01*
Y200325D01*
X202003Y199432D01*
X202466Y198631D01*
X203119Y197977D01*
X203920Y197515D01*
X204813Y197276D01*
X205738D01*
X206631Y197515D01*
X207432Y197977D01*
X208086Y198631D01*
X208548Y199432D01*
X208787Y200325D01*
Y200740D01*
X222066Y214019D01*
X313918D01*
X322601Y205335D01*
Y190559D01*
X321567D01*
Y183457D01*
X328669D01*
Y190559D01*
X327635D01*
Y206378D01*
X327443Y207341D01*
X326898Y208158D01*
X316740Y218315D01*
X315924Y218861D01*
X314961Y219052D01*
D02*
G37*
G36*
X315586Y190559D02*
X314651D01*
X313747Y190317D01*
X312938Y189849D01*
X312277Y189188D01*
X311809Y188379D01*
X311567Y187475D01*
Y186540D01*
X311809Y185637D01*
X312277Y184827D01*
X312938Y184166D01*
X313747Y183699D01*
X314651Y183457D01*
X315586D01*
X316489Y183699D01*
X317299Y184166D01*
X317960Y184827D01*
X318427Y185637D01*
X318669Y186540D01*
Y187475D01*
X318427Y188379D01*
X317960Y189188D01*
X317299Y189849D01*
X316489Y190317D01*
X315586Y190559D01*
D02*
G37*
G36*
X308669Y186758D02*
X305368D01*
Y183457D01*
X305586D01*
X306489Y183699D01*
X307299Y184166D01*
X307960Y184827D01*
X308427Y185637D01*
X308669Y186540D01*
Y186758D01*
D02*
G37*
G36*
X304868D02*
X301567D01*
Y186540D01*
X301809Y185637D01*
X302276Y184827D01*
X302938Y184166D01*
X303747Y183699D01*
X304651Y183457D01*
X304868D01*
Y186758D01*
D02*
G37*
%LPD*%
D10*
X314961Y244094D02*
X354331Y283465D01*
Y295276D01*
X320715Y271654D02*
X344345Y295283D01*
X320301Y276994D02*
X334646Y291339D01*
Y295276D01*
X304553Y276994D02*
X320301D01*
X311142Y271654D02*
X320715D01*
X306051Y266563D02*
X311142Y271654D01*
X306051Y261563D02*
Y266563D01*
X305276Y260787D02*
X306051Y261563D01*
X295276Y260787D02*
Y267717D01*
X304553Y276994D01*
D24*
X273622Y318898D02*
D03*
D25*
X253937D02*
D03*
D29*
X305118Y187008D02*
D03*
X315118D02*
D03*
X234724Y413386D02*
D03*
X224724D02*
D03*
X214724D02*
D03*
X204724D02*
D03*
X194724D02*
D03*
D30*
X325118Y187008D02*
D03*
X244724Y413386D02*
D03*
D31*
X273622Y387795D02*
D03*
D32*
X277559Y374016D02*
D03*
D33*
X253150D02*
D03*
D42*
X225276Y260787D02*
Y343386D01*
X232283Y350394D01*
X224724Y401260D02*
X232283Y393701D01*
Y350394D02*
Y393701D01*
X224724Y401260D02*
Y413386D01*
X221024Y216535D02*
X314961D01*
X325118Y206378D01*
Y187008D02*
Y206378D01*
X205276Y200787D02*
X221024Y216535D01*
D43*
X218228Y360512D02*
D03*
Y387520D02*
D03*
X191220D02*
D03*
Y360512D02*
D03*
D44*
X204724Y374016D02*
D03*
D45*
X185276Y210787D02*
D03*
Y220787D02*
D03*
Y230787D02*
D03*
Y240787D02*
D03*
Y250787D02*
D03*
X315276Y200787D02*
D03*
X305276D02*
D03*
X295276D02*
D03*
X285276D02*
D03*
X275276D02*
D03*
X265276D02*
D03*
X255276D02*
D03*
X245276D02*
D03*
X235276D02*
D03*
X225276D02*
D03*
X215276D02*
D03*
X205276D02*
D03*
X195276D02*
D03*
X185276D02*
D03*
X315276Y260787D02*
D03*
X305276D02*
D03*
X295276D02*
D03*
X285276D02*
D03*
X275276D02*
D03*
X265276D02*
D03*
X255276D02*
D03*
X245276D02*
D03*
X235276D02*
D03*
X225276D02*
D03*
X215276D02*
D03*
X205276D02*
D03*
X195276D02*
D03*
X185276D02*
D03*
D46*
X216850Y283465D02*
D03*
X206850D02*
D03*
D47*
X196850D02*
D03*
D48*
X364173Y413386D02*
D03*
X354331Y393701D02*
D03*
X364173Y374016D02*
D03*
X354331Y354331D02*
D03*
X364173Y334646D02*
D03*
X354331Y314961D02*
D03*
X364173Y295276D02*
D03*
X354331Y275591D02*
D03*
X364173Y255906D02*
D03*
X354331Y236221D02*
D03*
X364173Y216535D02*
D03*
X354331Y196850D02*
D03*
X344488Y413386D02*
D03*
X334646Y393701D02*
D03*
X344488Y374016D02*
D03*
X334646Y354331D02*
D03*
X344488Y334646D02*
D03*
X334646Y314961D02*
D03*
Y236221D02*
D03*
Y196850D02*
D03*
X314961Y393701D02*
D03*
X324803Y374016D02*
D03*
X314961Y354331D02*
D03*
X324803Y334646D02*
D03*
X314961Y314961D02*
D03*
X324803Y295276D02*
D03*
X314961Y236221D02*
D03*
X324803Y216535D02*
D03*
X305118Y413386D02*
D03*
X295276Y393701D02*
D03*
X305118Y374016D02*
D03*
X295276Y354331D02*
D03*
X305118Y334646D02*
D03*
X295276Y314961D02*
D03*
X305118Y295276D02*
D03*
X295276Y275591D02*
D03*
X305118Y255906D02*
D03*
X295276Y236221D02*
D03*
X285433Y413386D02*
D03*
Y374016D02*
D03*
X275591Y354331D02*
D03*
X285433Y334646D02*
D03*
Y295276D02*
D03*
X275591Y275591D02*
D03*
X285433Y255906D02*
D03*
X275591Y236221D02*
D03*
X265748Y413386D02*
D03*
Y374016D02*
D03*
Y334646D02*
D03*
X255906Y314961D02*
D03*
X265748Y295276D02*
D03*
X255906Y275591D02*
D03*
X265748Y255906D02*
D03*
X255906Y236221D02*
D03*
X236221Y393701D02*
D03*
X246063Y374016D02*
D03*
X236221Y354331D02*
D03*
X246063Y334646D02*
D03*
X236221Y314961D02*
D03*
X246063Y295276D02*
D03*
X236221Y275591D02*
D03*
X246063Y255906D02*
D03*
X236221Y236221D02*
D03*
X226378Y374016D02*
D03*
X216535Y314961D02*
D03*
Y275591D02*
D03*
X226378Y255906D02*
D03*
X216535Y236221D02*
D03*
X196850Y393701D02*
D03*
Y354331D02*
D03*
X206693Y334646D02*
D03*
X196850Y314961D02*
D03*
X206693Y295276D02*
D03*
X196850Y275591D02*
D03*
X206693Y255906D02*
D03*
X196850Y236221D02*
D03*
X206693Y216535D02*
D03*
X187008Y413386D02*
D03*
X177165Y393701D02*
D03*
X187008Y374016D02*
D03*
X177165Y354331D02*
D03*
X187008Y334646D02*
D03*
X177165Y314961D02*
D03*
X187008Y295276D02*
D03*
Y255906D02*
D03*
X177165Y236221D02*
D03*
Y196850D02*
D03*
X334646Y393701D02*
D03*
X314961Y354331D02*
D03*
X334646Y314961D02*
D03*
Y236221D02*
D03*
X295276Y393701D02*
D03*
X275591Y354331D02*
D03*
X295276Y314961D02*
D03*
X275591Y275591D02*
D03*
X295276Y236221D02*
D03*
X236221Y354331D02*
D03*
X255906Y314961D02*
D03*
X236221Y275591D02*
D03*
X255906Y236221D02*
D03*
X196850Y354331D02*
D03*
X216535Y314961D02*
D03*
X196850Y275591D02*
D03*
X216535Y236221D02*
D03*
X314961Y244094D02*
D03*
X354331Y295276D02*
D03*
X334646D02*
D03*
X344345Y295283D02*
D03*
M02*
