G04*
G04 #@! TF.GenerationSoftware,Altium Limited,Altium Designer,22.10.1 (41)*
G04*
G04 Layer_Color=8388736*
%FSLAX25Y25*%
%MOIN*%
G70*
G04*
G04 #@! TF.SameCoordinates,99798D1E-F985-4455-B884-4E85627F1AD0*
G04*
G04*
G04 #@! TF.FilePolarity,Negative*
G04*
G01*
G75*
%ADD16R,0.05591X0.10591*%
G04:AMPARAMS|DCode=17|XSize=61.91mil|YSize=33.91mil|CornerRadius=16.95mil|HoleSize=0mil|Usage=FLASHONLY|Rotation=90.000|XOffset=0mil|YOffset=0mil|HoleType=Round|Shape=RoundedRectangle|*
%AMROUNDEDRECTD17*
21,1,0.06191,0.00000,0,0,90.0*
21,1,0.02800,0.03391,0,0,90.0*
1,1,0.03391,0.00000,0.01400*
1,1,0.03391,0.00000,-0.01400*
1,1,0.03391,0.00000,-0.01400*
1,1,0.03391,0.00000,0.01400*
%
%ADD17ROUNDEDRECTD17*%
G04:AMPARAMS|DCode=18|XSize=75.91mil|YSize=41.91mil|CornerRadius=20.95mil|HoleSize=0mil|Usage=FLASHONLY|Rotation=90.000|XOffset=0mil|YOffset=0mil|HoleType=Round|Shape=RoundedRectangle|*
%AMROUNDEDRECTD18*
21,1,0.07591,0.00000,0,0,90.0*
21,1,0.03400,0.04191,0,0,90.0*
1,1,0.04191,0.00000,0.01700*
1,1,0.04191,0.00000,-0.01700*
1,1,0.04191,0.00000,-0.01700*
1,1,0.04191,0.00000,0.01700*
%
%ADD18ROUNDEDRECTD18*%
%ADD19R,0.03391X0.06191*%
%ADD20R,0.05315X0.03740*%
%ADD21R,0.06496X0.06102*%
%ADD22C,0.12402*%
%ADD23C,0.09724*%
%ADD24R,0.05118X0.05118*%
%ADD25C,0.05118*%
%ADD26C,0.06614*%
%ADD27C,0.07284*%
%ADD28R,0.07284X0.07284*%
%ADD29C,0.06102*%
%ADD30R,0.06102X0.06102*%
G04:AMPARAMS|DCode=31|XSize=133.86mil|YSize=62.99mil|CornerRadius=31.5mil|HoleSize=0mil|Usage=FLASHONLY|Rotation=90.000|XOffset=0mil|YOffset=0mil|HoleType=Round|Shape=RoundedRectangle|*
%AMROUNDEDRECTD31*
21,1,0.13386,0.00000,0,0,90.0*
21,1,0.07087,0.06299,0,0,90.0*
1,1,0.06299,0.00000,0.03543*
1,1,0.06299,0.00000,-0.03543*
1,1,0.06299,0.00000,-0.03543*
1,1,0.06299,0.00000,0.03543*
%
%ADD31ROUNDEDRECTD31*%
G04:AMPARAMS|DCode=32|XSize=153.54mil|YSize=62.99mil|CornerRadius=31.5mil|HoleSize=0mil|Usage=FLASHONLY|Rotation=90.000|XOffset=0mil|YOffset=0mil|HoleType=Round|Shape=RoundedRectangle|*
%AMROUNDEDRECTD32*
21,1,0.15354,0.00000,0,0,90.0*
21,1,0.09055,0.06299,0,0,90.0*
1,1,0.06299,0.00000,0.04528*
1,1,0.06299,0.00000,-0.04528*
1,1,0.06299,0.00000,-0.04528*
1,1,0.06299,0.00000,0.04528*
%
%ADD32ROUNDEDRECTD32*%
%ADD33R,0.06299X0.20079*%
%ADD34R,0.06693X0.06693*%
%ADD35C,0.06693*%
%ADD36C,0.02953*%
D16*
X326969Y410472D02*
D03*
D17*
X336969Y412992D02*
D03*
X316969D02*
D03*
D18*
X353662Y407677D02*
D03*
D19*
X354646Y305118D02*
D03*
X344646D02*
D03*
X334646D02*
D03*
X324646D02*
D03*
X314646D02*
D03*
D20*
X267717Y280512D02*
D03*
Y286417D02*
D03*
X255906Y280512D02*
D03*
Y286417D02*
D03*
X244094D02*
D03*
Y280512D02*
D03*
D21*
X181102Y283268D02*
D03*
Y275787D02*
D03*
D22*
X218228Y360512D02*
D03*
Y387520D02*
D03*
X191220D02*
D03*
Y360512D02*
D03*
D23*
X204724Y374016D02*
D03*
D24*
X273622Y318898D02*
D03*
D25*
X253937D02*
D03*
D26*
X185276Y210787D02*
D03*
Y220787D02*
D03*
Y230787D02*
D03*
Y240787D02*
D03*
Y250787D02*
D03*
X315276Y200787D02*
D03*
X305276D02*
D03*
X295276D02*
D03*
X285276D02*
D03*
X275276D02*
D03*
X265276D02*
D03*
X255276D02*
D03*
X245276D02*
D03*
X235276D02*
D03*
X225276D02*
D03*
X215276D02*
D03*
X205276D02*
D03*
X195276D02*
D03*
X185276D02*
D03*
X315276Y260787D02*
D03*
X305276D02*
D03*
X295276D02*
D03*
X285276D02*
D03*
X275276D02*
D03*
X265276D02*
D03*
X255276D02*
D03*
X245276D02*
D03*
X235276D02*
D03*
X225276D02*
D03*
X215276D02*
D03*
X205276D02*
D03*
X195276D02*
D03*
X185276D02*
D03*
D27*
X216850Y283465D02*
D03*
X206850D02*
D03*
D28*
X196850D02*
D03*
D29*
X305118Y187008D02*
D03*
X315118D02*
D03*
D30*
X325118D02*
D03*
D31*
X273622Y387795D02*
D03*
D32*
X277559Y374016D02*
D03*
D33*
X253150D02*
D03*
D34*
X244724Y413386D02*
D03*
D35*
X234724D02*
D03*
X224724D02*
D03*
X214724D02*
D03*
X204724D02*
D03*
X194724D02*
D03*
D36*
X314961Y244094D02*
D03*
X354331Y295276D02*
D03*
X334646D02*
D03*
X344345Y295283D02*
D03*
M02*
