G04*
G04 #@! TF.GenerationSoftware,Altium Limited,Altium Designer,22.10.1 (41)*
G04*
G04 Layer_Color=65535*
%FSLAX25Y25*%
%MOIN*%
G70*
G04*
G04 #@! TF.SameCoordinates,99798D1E-F985-4455-B884-4E85627F1AD0*
G04*
G04*
G04 #@! TF.FilePolarity,Positive*
G04*
G01*
G75*
%ADD10C,0.01968*%
%ADD11C,0.00591*%
%ADD12C,0.00984*%
%ADD13C,0.00787*%
%ADD14C,0.00500*%
%ADD15C,0.01000*%
G36*
X217742Y402372D02*
X217775D01*
X217857Y402361D01*
X217950Y402344D01*
X218048Y402317D01*
X218146Y402284D01*
X218244Y402241D01*
X218250D01*
X218255Y402235D01*
X218283Y402213D01*
X218332Y402186D01*
X218386Y402142D01*
X218446Y402082D01*
X218507Y402017D01*
X218567Y401935D01*
X218621Y401842D01*
Y401836D01*
X218627Y401831D01*
X218632Y401815D01*
X218643Y401798D01*
X218665Y401744D01*
X218687Y401667D01*
X218708Y401580D01*
X218730Y401471D01*
X218747Y401351D01*
X218752Y401220D01*
Y400990D01*
X218102D01*
Y401220D01*
Y401225D01*
Y401252D01*
Y401285D01*
X218097Y401323D01*
X218092Y401372D01*
X218081Y401427D01*
X218048Y401525D01*
Y401531D01*
X218037Y401547D01*
X218026Y401569D01*
X218010Y401602D01*
X217961Y401662D01*
X217933Y401695D01*
X217895Y401722D01*
X217889Y401727D01*
X217879Y401733D01*
X217857Y401744D01*
X217829Y401755D01*
X217791Y401766D01*
X217753Y401777D01*
X217704Y401787D01*
X217627D01*
X217595Y401782D01*
X217556Y401777D01*
X217469Y401760D01*
X217420Y401738D01*
X217376Y401716D01*
X217371Y401711D01*
X217360Y401706D01*
X217338Y401689D01*
X217311Y401662D01*
X217283Y401635D01*
X217256Y401602D01*
X217229Y401558D01*
X217201Y401509D01*
Y401504D01*
X217191Y401487D01*
X217185Y401460D01*
X217174Y401422D01*
X217163Y401372D01*
X217152Y401318D01*
X217147Y401258D01*
X217142Y401187D01*
Y398757D01*
Y398752D01*
Y398730D01*
X217147Y398697D01*
Y398659D01*
X217158Y398610D01*
X217169Y398566D01*
X217180Y398517D01*
X217201Y398468D01*
X217207Y398462D01*
X217213Y398446D01*
X217229Y398424D01*
X217251Y398402D01*
X217278Y398369D01*
X217305Y398337D01*
X217387Y398282D01*
X217393D01*
X217409Y398271D01*
X217436Y398266D01*
X217469Y398255D01*
X217507Y398244D01*
X217556Y398233D01*
X217611Y398228D01*
X217671Y398222D01*
X217698D01*
X217726Y398228D01*
X217764Y398233D01*
X217851Y398249D01*
X217900Y398266D01*
X217944Y398288D01*
X217950Y398293D01*
X217961Y398299D01*
X217982Y398315D01*
X218010Y398342D01*
X218037Y398369D01*
X218064Y398402D01*
X218092Y398446D01*
X218119Y398490D01*
X218124Y398495D01*
X218130Y398511D01*
X218141Y398544D01*
X218152Y398582D01*
X218162Y398632D01*
X218168Y398686D01*
X218179Y398746D01*
Y398817D01*
Y399609D01*
X217655D01*
Y400182D01*
X218790D01*
Y398823D01*
Y398817D01*
Y398806D01*
Y398784D01*
Y398757D01*
X218785Y398730D01*
Y398692D01*
X218774Y398599D01*
X218758Y398500D01*
X218736Y398391D01*
X218703Y398282D01*
X218659Y398178D01*
Y398173D01*
X218654Y398167D01*
X218637Y398135D01*
X218605Y398085D01*
X218561Y398025D01*
X218507Y397960D01*
X218441Y397894D01*
X218365Y397829D01*
X218277Y397774D01*
X218272D01*
X218266Y397769D01*
X218233Y397752D01*
X218179Y397731D01*
X218108Y397709D01*
X218021Y397681D01*
X217917Y397660D01*
X217797Y397643D01*
X217671Y397638D01*
X217611D01*
X217578Y397643D01*
X217546D01*
X217458Y397654D01*
X217360Y397671D01*
X217262Y397692D01*
X217152Y397720D01*
X217054Y397763D01*
X217043Y397769D01*
X217010Y397791D01*
X216967Y397818D01*
X216912Y397862D01*
X216847Y397916D01*
X216787Y397982D01*
X216721Y398058D01*
X216667Y398146D01*
Y398151D01*
X216661Y398156D01*
X216655Y398173D01*
X216645Y398189D01*
X216623Y398244D01*
X216601Y398320D01*
X216579Y398408D01*
X216557Y398511D01*
X216541Y398632D01*
X216535Y398757D01*
Y401187D01*
Y401192D01*
Y401203D01*
Y401225D01*
Y401252D01*
X216541Y401285D01*
Y401318D01*
X216552Y401411D01*
X216568Y401509D01*
X216590Y401618D01*
X216623Y401727D01*
X216667Y401831D01*
Y401836D01*
X216672Y401842D01*
X216694Y401875D01*
X216721Y401924D01*
X216765Y401984D01*
X216819Y402049D01*
X216885Y402115D01*
X216961Y402180D01*
X217049Y402235D01*
X217054D01*
X217060Y402241D01*
X217092Y402257D01*
X217147Y402279D01*
X217218Y402306D01*
X217305Y402333D01*
X217409Y402355D01*
X217529Y402372D01*
X217655Y402377D01*
X217715D01*
X217742Y402372D01*
D02*
G37*
G36*
X221711Y397681D02*
X221176D01*
X220008Y400870D01*
Y397681D01*
X219429D01*
Y402328D01*
X219959D01*
X221133Y399052D01*
Y398681D01*
X221236Y398763D01*
X221133Y399052D01*
Y402328D01*
X221711D01*
Y397681D01*
D02*
G37*
G36*
X223677Y402322D02*
X223748Y402312D01*
X223835Y402301D01*
X223923Y402279D01*
X224010Y402251D01*
X224092Y402213D01*
X224103Y402208D01*
X224130Y402191D01*
X224168Y402170D01*
X224218Y402131D01*
X224272Y402088D01*
X224327Y402028D01*
X224376Y401962D01*
X224425Y401886D01*
X224431Y401875D01*
X224442Y401848D01*
X224463Y401798D01*
X224485Y401738D01*
X224502Y401662D01*
X224523Y401569D01*
X224534Y401471D01*
X224540Y401356D01*
Y398653D01*
Y398648D01*
Y398642D01*
Y398626D01*
Y398604D01*
X224534Y398544D01*
X224523Y398473D01*
X224513Y398386D01*
X224491Y398299D01*
X224463Y398211D01*
X224425Y398124D01*
X224420Y398113D01*
X224403Y398085D01*
X224376Y398047D01*
X224343Y397998D01*
X224294Y397949D01*
X224234Y397889D01*
X224168Y397840D01*
X224092Y397791D01*
X224081Y397785D01*
X224054Y397774D01*
X224005Y397758D01*
X223945Y397736D01*
X223868Y397714D01*
X223775Y397698D01*
X223677Y397687D01*
X223562Y397681D01*
X222956D01*
Y398255D01*
X222738D01*
Y397681D01*
X222350D01*
Y402328D01*
X222738D01*
Y401755D01*
X222956D01*
Y398255D01*
X223612D01*
X223644Y398260D01*
X223683Y398266D01*
X223721Y398277D01*
X223764Y398299D01*
X223803Y398320D01*
X223841Y398353D01*
X223846Y398358D01*
X223857Y398369D01*
X223868Y398397D01*
X223890Y398424D01*
X223906Y398468D01*
X223917Y398517D01*
X223928Y398571D01*
X223934Y398637D01*
Y401372D01*
Y401383D01*
Y401405D01*
X223928Y401438D01*
X223923Y401476D01*
X223912Y401525D01*
X223896Y401569D01*
X223874Y401618D01*
X223841Y401656D01*
X223835Y401662D01*
X223825Y401673D01*
X223803Y401689D01*
X223775Y401706D01*
X223743Y401722D01*
X223693Y401738D01*
X223644Y401749D01*
X223584Y401755D01*
X222956D01*
Y402328D01*
X223622D01*
X223677Y402322D01*
D02*
G37*
G36*
X241479Y429881D02*
X241555Y429871D01*
X241643Y429854D01*
X241735Y429832D01*
X241834Y429805D01*
X241921Y429761D01*
X241927D01*
X241932Y429756D01*
X241959Y429740D01*
X242003Y429712D01*
X242052Y429674D01*
X242112Y429619D01*
X242172Y429559D01*
X242227Y429488D01*
X242276Y429401D01*
X242281Y429390D01*
X242292Y429357D01*
X242314Y429308D01*
X242336Y429237D01*
X242358Y429155D01*
X242380Y429057D01*
X242391Y428942D01*
X242396Y428822D01*
Y428085D01*
Y428080D01*
Y428069D01*
Y428052D01*
Y428031D01*
X242391Y427971D01*
X242380Y427894D01*
X242363Y427807D01*
X242341Y427708D01*
X242314Y427616D01*
X242270Y427523D01*
X242265Y427512D01*
X242249Y427485D01*
X242221Y427441D01*
X242183Y427392D01*
X242128Y427332D01*
X242069Y427272D01*
X241998Y427212D01*
X241916Y427162D01*
X241905Y427157D01*
X241877Y427146D01*
X241828Y427124D01*
X241763Y427102D01*
X241681Y427081D01*
X241582Y427059D01*
X241479Y427048D01*
X241359Y427042D01*
X240763D01*
Y427616D01*
X240496D01*
Y427042D01*
X240763D01*
Y425241D01*
X240158D01*
Y429887D01*
X240496D01*
Y429314D01*
X240763D01*
Y427616D01*
X241397D01*
X241419Y427621D01*
X241452D01*
X241517Y427643D01*
X241555Y427654D01*
X241588Y427676D01*
X241594Y427681D01*
X241604Y427687D01*
X241621Y427703D01*
X241643Y427719D01*
X241686Y427769D01*
X241730Y427840D01*
Y427845D01*
X241735Y427861D01*
X241746Y427883D01*
X241757Y427916D01*
X241763Y427954D01*
X241774Y427998D01*
X241779Y428047D01*
Y428102D01*
Y428817D01*
Y428822D01*
Y428844D01*
Y428871D01*
X241774Y428910D01*
X241757Y428992D01*
X241730Y429079D01*
Y429084D01*
X241719Y429095D01*
X241708Y429117D01*
X241692Y429144D01*
X241648Y429199D01*
X241588Y429254D01*
X241582Y429259D01*
X241572Y429264D01*
X241555Y429276D01*
X241528Y429286D01*
X241495Y429297D01*
X241462Y429303D01*
X241419Y429314D01*
X240763D01*
Y429887D01*
X241413D01*
X241479Y429881D01*
D02*
G37*
G36*
X253343Y428009D02*
X253169D01*
X253136Y428003D01*
X253098Y427998D01*
X253016Y427987D01*
X252923Y427965D01*
X252825Y427932D01*
X252732Y427889D01*
X252644Y427829D01*
X252634Y427823D01*
X252612Y427796D01*
X252579Y427758D01*
X252541Y427698D01*
X252502Y427627D01*
X252470Y427545D01*
X252443Y427446D01*
X252432Y427332D01*
Y428085D01*
X252481Y428151D01*
X252541Y428227D01*
X252612Y428304D01*
X252694Y428380D01*
X252781Y428446D01*
X252786D01*
X252792Y428451D01*
X252825Y428473D01*
X252879Y428500D01*
X252950Y428533D01*
X253032Y428560D01*
X253125Y428587D01*
X253234Y428609D01*
X253343Y428615D01*
Y428009D01*
D02*
G37*
G36*
X247982Y425241D02*
X247501D01*
X247048Y427528D01*
X246589Y425241D01*
X246109D01*
X245344Y428560D01*
X245934D01*
X246349Y426103D01*
X246830Y428560D01*
X247261D01*
X247741Y426103D01*
X248156Y428560D01*
X248746D01*
X247982Y425241D01*
D02*
G37*
G36*
X252432Y428085D02*
X252393Y428031D01*
X252382Y428009D01*
X252372Y427992D01*
X252366Y427987D01*
Y427982D01*
X252432Y427332D01*
Y425241D01*
X251825D01*
Y428560D01*
X252432D01*
Y428085D01*
D02*
G37*
G36*
X250291Y428609D02*
X250368Y428598D01*
X250450Y428582D01*
X250537Y428560D01*
X250630Y428533D01*
X250717Y428489D01*
X250728Y428484D01*
X250755Y428467D01*
X250794Y428435D01*
X250843Y428396D01*
X250897Y428342D01*
X250952Y428282D01*
X251007Y428205D01*
X251056Y428118D01*
X251061Y428107D01*
X251072Y428074D01*
X251094Y428025D01*
X251116Y427954D01*
X251137Y427872D01*
X251159Y427774D01*
X251170Y427659D01*
X251176Y427539D01*
Y426660D01*
X249778D01*
Y426272D01*
Y426262D01*
Y426234D01*
X249783Y426191D01*
X249794Y426136D01*
X249805Y426076D01*
X249822Y426010D01*
X249849Y425950D01*
X249887Y425896D01*
X249893Y425890D01*
X249909Y425874D01*
X249936Y425852D01*
X249969Y425830D01*
X250013Y425803D01*
X250067Y425781D01*
X250133Y425765D01*
X250204Y425759D01*
X250237D01*
X250269Y425765D01*
X250313Y425770D01*
X250362Y425781D01*
X250411Y425803D01*
X250455Y425825D01*
X250499Y425857D01*
X250504Y425863D01*
X250515Y425879D01*
X250532Y425901D01*
X250553Y425934D01*
X250570Y425972D01*
X250586Y426021D01*
X250597Y426081D01*
X250603Y426147D01*
Y426169D01*
X251187D01*
Y426147D01*
Y426141D01*
Y426125D01*
Y426103D01*
X251181Y426070D01*
Y426032D01*
X251176Y425989D01*
X251154Y425885D01*
X251127Y425776D01*
X251078Y425656D01*
X251017Y425541D01*
X250974Y425492D01*
X250930Y425443D01*
X250925D01*
X250919Y425432D01*
X250903Y425421D01*
X250881Y425404D01*
X250859Y425388D01*
X250826Y425366D01*
X250788Y425344D01*
X250744Y425322D01*
X250695Y425295D01*
X250641Y425273D01*
X250515Y425235D01*
X250368Y425208D01*
X250291Y425202D01*
X250204Y425197D01*
X250149D01*
X250089Y425202D01*
X250018Y425213D01*
X249931Y425230D01*
X249838Y425251D01*
X249745Y425279D01*
X249658Y425322D01*
X249647Y425328D01*
X249620Y425344D01*
X249581Y425377D01*
X249532Y425415D01*
X249478Y425470D01*
X249418Y425530D01*
X249363Y425606D01*
X249314Y425694D01*
Y425699D01*
X249308Y425705D01*
X249297Y425737D01*
X249276Y425792D01*
X249254Y425863D01*
X249232Y425945D01*
X249210Y426049D01*
X249199Y426163D01*
X249194Y426289D01*
Y427452D01*
Y427457D01*
Y427468D01*
Y427490D01*
Y427512D01*
X249199Y427545D01*
Y427583D01*
X249210Y427670D01*
X249221Y427769D01*
X249243Y427872D01*
X249270Y427976D01*
X249308Y428080D01*
Y428085D01*
X249314Y428091D01*
X249330Y428123D01*
X249358Y428172D01*
X249396Y428227D01*
X249445Y428293D01*
X249500Y428358D01*
X249570Y428424D01*
X249647Y428478D01*
X249658Y428484D01*
X249685Y428500D01*
X249734Y428522D01*
X249800Y428549D01*
X249876Y428571D01*
X249969Y428593D01*
X250067Y428609D01*
X250182Y428615D01*
X250237D01*
X250291Y428609D01*
D02*
G37*
G36*
X244051D02*
X244121Y428604D01*
X244203Y428587D01*
X244291Y428571D01*
X244378Y428544D01*
X244460Y428506D01*
X244471Y428500D01*
X244493Y428484D01*
X244531Y428462D01*
X244580Y428424D01*
X244635Y428380D01*
X244684Y428325D01*
X244738Y428260D01*
X244782Y428184D01*
X244788Y428172D01*
X244798Y428145D01*
X244815Y428102D01*
X244837Y428042D01*
X244859Y427965D01*
X244875Y427878D01*
X244886Y427779D01*
X244891Y427670D01*
Y426141D01*
Y426136D01*
Y426130D01*
Y426114D01*
Y426092D01*
X244886Y426038D01*
X244880Y425967D01*
X244864Y425885D01*
X244848Y425798D01*
X244820Y425710D01*
X244782Y425628D01*
X244777Y425617D01*
X244760Y425595D01*
X244738Y425557D01*
X244700Y425508D01*
X244656Y425454D01*
X244602Y425404D01*
X244536Y425350D01*
X244460Y425306D01*
X244449Y425301D01*
X244422Y425290D01*
X244378Y425273D01*
X244318Y425251D01*
X244242Y425230D01*
X244154Y425213D01*
X244056Y425202D01*
X243947Y425197D01*
X243898D01*
X243843Y425202D01*
X243772Y425213D01*
X243690Y425224D01*
X243603Y425241D01*
X243515Y425268D01*
X243428Y425306D01*
X243417Y425312D01*
X243395Y425328D01*
X243357Y425350D01*
X243308Y425388D01*
X243253Y425432D01*
X243199Y425486D01*
X243150Y425552D01*
X243100Y425628D01*
X243095Y425639D01*
X243084Y425666D01*
X243062Y425715D01*
X243046Y425776D01*
X243024Y425852D01*
X243002Y425939D01*
X242991Y426043D01*
X242986Y426152D01*
Y427670D01*
Y427676D01*
Y427681D01*
Y427698D01*
Y427719D01*
X242991Y427774D01*
X243002Y427845D01*
X243013Y427927D01*
X243035Y428014D01*
X243062Y428102D01*
X243100Y428184D01*
X243106Y428194D01*
X243122Y428216D01*
X243150Y428254D01*
X243182Y428304D01*
X243232Y428358D01*
X243286Y428407D01*
X243352Y428462D01*
X243428Y428506D01*
X243439Y428511D01*
X243466Y428522D01*
X243515Y428538D01*
X243575Y428560D01*
X243652Y428582D01*
X243739Y428598D01*
X243837Y428609D01*
X243947Y428615D01*
X243996D01*
X244051Y428609D01*
D02*
G37*
G36*
X221690Y429931D02*
X221728D01*
X221810Y429920D01*
X221903Y429903D01*
X222001Y429881D01*
X222105Y429854D01*
X222198Y429810D01*
X222203D01*
X222209Y429805D01*
X222236Y429789D01*
X222280Y429756D01*
X222334Y429718D01*
X222394Y429663D01*
X222460Y429603D01*
X222520Y429527D01*
X222569Y429439D01*
X222574Y429428D01*
X222591Y429396D01*
X222607Y429341D01*
X222635Y429276D01*
X222656Y429188D01*
X222673Y429084D01*
X222689Y428970D01*
X222695Y428844D01*
Y428604D01*
X222089D01*
Y428822D01*
Y428828D01*
Y428833D01*
Y428866D01*
X222083Y428910D01*
X222072Y428970D01*
X222056Y429030D01*
X222034Y429095D01*
X222007Y429155D01*
X221963Y429210D01*
X221958Y429215D01*
X221941Y429232D01*
X221908Y429254D01*
X221870Y429281D01*
X221821Y429303D01*
X221756Y429325D01*
X221685Y429341D01*
X221603Y429347D01*
X221559D01*
X221515Y429341D01*
X221461Y429330D01*
X221395Y429314D01*
X221335Y429292D01*
X221270Y429259D01*
X221215Y429215D01*
X221210Y429210D01*
X221193Y429194D01*
X221171Y429161D01*
X221149Y429123D01*
X221128Y429073D01*
X221106Y429008D01*
X221089Y428937D01*
X221084Y428855D01*
Y428560D01*
Y428555D01*
Y428533D01*
X221089Y428500D01*
X221095Y428456D01*
X221106Y428413D01*
X221117Y428364D01*
X221139Y428314D01*
X221166Y428265D01*
X221171Y428260D01*
X221182Y428243D01*
X221199Y428222D01*
X221226Y428194D01*
X221253Y428167D01*
X221291Y428134D01*
X221373Y428069D01*
X221379Y428063D01*
X221395Y428058D01*
X221423Y428042D01*
X221466Y428020D01*
X221515Y427998D01*
X221570Y427971D01*
X221641Y427938D01*
X221717Y427905D01*
X221723D01*
X221728Y427900D01*
X221756Y427883D01*
X221761D01*
X221772Y427878D01*
X221799Y427867D01*
X221805D01*
X221810Y427861D01*
X221832Y427845D01*
X221837D01*
X221843Y427840D01*
X221870Y427834D01*
X221876D01*
X221881Y427829D01*
X221914Y427812D01*
X221969Y427790D01*
X222028Y427758D01*
X222099Y427719D01*
X222176Y427681D01*
X222252Y427637D01*
X222318Y427594D01*
X222323Y427588D01*
X222345Y427572D01*
X222378Y427550D01*
X222416Y427512D01*
X222460Y427468D01*
X222509Y427408D01*
X222558Y427343D01*
X222602Y427266D01*
X222607Y427255D01*
X222618Y427228D01*
X222640Y427179D01*
X222662Y427119D01*
X222684Y427037D01*
X222706Y426944D01*
X222716Y426835D01*
X222722Y426709D01*
Y426283D01*
Y426278D01*
Y426267D01*
Y426251D01*
Y426223D01*
X222716Y426196D01*
Y426158D01*
X222706Y426076D01*
X222689Y425983D01*
X222667Y425885D01*
X222635Y425786D01*
X222591Y425688D01*
X222586Y425677D01*
X222569Y425650D01*
X222536Y425606D01*
X222498Y425552D01*
X222444Y425492D01*
X222378Y425426D01*
X222302Y425372D01*
X222214Y425317D01*
X222209D01*
X222203Y425312D01*
X222170Y425301D01*
X222116Y425279D01*
X222045Y425257D01*
X221958Y425235D01*
X221854Y425213D01*
X221734Y425202D01*
X221608Y425197D01*
X221548D01*
X221515Y425202D01*
X221477D01*
X221395Y425213D01*
X221297Y425224D01*
X221193Y425246D01*
X221084Y425279D01*
X220986Y425317D01*
X220975Y425322D01*
X220942Y425339D01*
X220898Y425372D01*
X220844Y425410D01*
X220784Y425464D01*
X220718Y425524D01*
X220658Y425601D01*
X220603Y425688D01*
Y425694D01*
X220598Y425699D01*
X220582Y425732D01*
X220560Y425786D01*
X220538Y425857D01*
X220516Y425939D01*
X220494Y426043D01*
X220478Y426158D01*
X220472Y426283D01*
Y426513D01*
X221084D01*
Y426305D01*
Y426294D01*
Y426262D01*
X221089Y426218D01*
X221100Y426163D01*
X221117Y426098D01*
X221139Y426038D01*
X221171Y425972D01*
X221215Y425918D01*
X221220Y425912D01*
X221242Y425896D01*
X221270Y425874D01*
X221313Y425852D01*
X221373Y425825D01*
X221439Y425803D01*
X221515Y425786D01*
X221608Y425781D01*
X221646D01*
X221695Y425786D01*
X221750Y425798D01*
X221810Y425814D01*
X221870Y425836D01*
X221930Y425868D01*
X221985Y425912D01*
X221990Y425918D01*
X222007Y425939D01*
X222028Y425967D01*
X222050Y426010D01*
X222072Y426070D01*
X222094Y426136D01*
X222110Y426212D01*
X222116Y426305D01*
Y426715D01*
Y426720D01*
Y426742D01*
X222110Y426775D01*
X222105Y426813D01*
X222094Y426857D01*
X222078Y426906D01*
X222056Y426955D01*
X222028Y426999D01*
X222023Y427004D01*
X222012Y427021D01*
X221996Y427042D01*
X221974Y427070D01*
X221941Y427097D01*
X221908Y427135D01*
X221821Y427195D01*
X221816Y427201D01*
X221799Y427212D01*
X221772Y427222D01*
X221734Y427244D01*
X221685Y427272D01*
X221624Y427299D01*
X221559Y427332D01*
X221477Y427370D01*
X221466D01*
X221461Y427375D01*
X221455Y427381D01*
X221406Y427397D01*
X221401D01*
X221395Y427403D01*
X221379Y427408D01*
X221357Y427419D01*
X221302Y427446D01*
X221237Y427479D01*
X221160Y427523D01*
X221078Y427566D01*
X221002Y427610D01*
X220926Y427659D01*
X220920Y427665D01*
X220893Y427681D01*
X220860Y427714D01*
X220816Y427752D01*
X220767Y427801D01*
X220713Y427867D01*
X220658Y427932D01*
X220609Y428014D01*
X220603Y428025D01*
X220587Y428058D01*
X220565Y428107D01*
X220543Y428172D01*
X220522Y428254D01*
X220500Y428353D01*
X220483Y428467D01*
X220478Y428593D01*
Y428861D01*
Y428866D01*
Y428877D01*
Y428893D01*
Y428921D01*
X220483Y428981D01*
X220494Y429063D01*
X220511Y429155D01*
X220532Y429254D01*
X220560Y429352D01*
X220603Y429445D01*
Y429450D01*
X220609Y429456D01*
X220631Y429483D01*
X220658Y429527D01*
X220702Y429581D01*
X220756Y429641D01*
X220822Y429701D01*
X220898Y429761D01*
X220986Y429810D01*
X220991D01*
X220997Y429816D01*
X221013Y429821D01*
X221029Y429832D01*
X221084Y429849D01*
X221160Y429876D01*
X221248Y429898D01*
X221357Y429914D01*
X221472Y429931D01*
X221603Y429936D01*
X221663D01*
X221690Y429931D01*
D02*
G37*
G36*
X226899Y429881D02*
X226975Y429876D01*
X227057Y429860D01*
X227150Y429843D01*
X227243Y429816D01*
X227330Y429778D01*
X227341Y429772D01*
X227368Y429756D01*
X227407Y429734D01*
X227461Y429701D01*
X227516Y429658D01*
X227576Y429603D01*
X227630Y429538D01*
X227680Y429461D01*
X227685Y429450D01*
X227696Y429423D01*
X227718Y429379D01*
X227740Y429319D01*
X227762Y429248D01*
X227783Y429161D01*
X227794Y429063D01*
X227800Y428959D01*
Y428467D01*
Y428456D01*
Y428429D01*
X227794Y428391D01*
X227789Y428336D01*
X227783Y428276D01*
X227772Y428211D01*
X227751Y428145D01*
X227729Y428080D01*
X227723Y428074D01*
X227718Y428052D01*
X227701Y428020D01*
X227674Y427982D01*
X227647Y427938D01*
X227614Y427889D01*
X227570Y427845D01*
X227521Y427801D01*
X227516Y427796D01*
X227500Y427785D01*
X227472Y427763D01*
X227434Y427741D01*
X227385Y427719D01*
X227330Y427692D01*
X227270Y427670D01*
X227205Y427654D01*
X227216D01*
X227237Y427648D01*
X227276Y427637D01*
X227325Y427621D01*
X227385Y427605D01*
X227439Y427577D01*
X227500Y427545D01*
X227559Y427506D01*
X227565Y427501D01*
X227581Y427485D01*
X227609Y427463D01*
X227641Y427430D01*
X227680Y427386D01*
X227718Y427337D01*
X227751Y427283D01*
X227783Y427217D01*
X227789Y427212D01*
X227794Y427184D01*
X227805Y427151D01*
X227822Y427102D01*
X227838Y427042D01*
X227849Y426971D01*
X227854Y426895D01*
X227860Y426807D01*
Y426191D01*
Y426185D01*
Y426180D01*
Y426163D01*
Y426141D01*
X227854Y426081D01*
X227843Y426010D01*
X227833Y425928D01*
X227811Y425841D01*
X227783Y425754D01*
X227745Y425672D01*
X227740Y425661D01*
X227723Y425639D01*
X227696Y425601D01*
X227658Y425552D01*
X227614Y425503D01*
X227554Y425448D01*
X227483Y425399D01*
X227407Y425350D01*
X227396Y425344D01*
X227368Y425333D01*
X227319Y425317D01*
X227254Y425295D01*
X227177Y425273D01*
X227084Y425257D01*
X226986Y425246D01*
X226872Y425241D01*
X226276D01*
Y425814D01*
X226053D01*
Y425241D01*
X225670D01*
Y429887D01*
X226053D01*
Y429314D01*
X226276D01*
Y427949D01*
X226822D01*
X226855Y427954D01*
X226899Y427965D01*
X226948Y427982D01*
X226997Y428003D01*
X227041Y428036D01*
X227084Y428080D01*
X227090Y428085D01*
X227101Y428102D01*
X227117Y428134D01*
X227139Y428178D01*
X227155Y428227D01*
X227172Y428293D01*
X227183Y428364D01*
X227188Y428451D01*
Y428926D01*
Y428932D01*
Y428953D01*
X227183Y428986D01*
X227177Y429030D01*
X227161Y429073D01*
X227145Y429123D01*
X227117Y429166D01*
X227084Y429210D01*
X227079Y429215D01*
X227068Y429226D01*
X227041Y429243D01*
X227008Y429264D01*
X226970Y429281D01*
X226921Y429297D01*
X226861Y429308D01*
X226795Y429314D01*
X226276D01*
Y429887D01*
X226839D01*
X226899Y429881D01*
D02*
G37*
G36*
X232042Y428609D02*
X232108Y428598D01*
X232190Y428587D01*
X232272Y428566D01*
X232359Y428538D01*
X232441Y428500D01*
X232452Y428495D01*
X232473Y428478D01*
X232512Y428456D01*
X232561Y428418D01*
X232615Y428375D01*
X232665Y428320D01*
X232719Y428254D01*
X232763Y428178D01*
X232768Y428167D01*
X232779Y428140D01*
X232801Y428096D01*
X232823Y428042D01*
X232839Y427965D01*
X232861Y427883D01*
X232872Y427790D01*
X232878Y427687D01*
Y427665D01*
X232272D01*
Y427692D01*
Y427698D01*
Y427719D01*
X232266Y427752D01*
X232261Y427796D01*
X232250Y427840D01*
X232233Y427883D01*
X232211Y427932D01*
X232184Y427971D01*
X232179Y427976D01*
X232168Y427987D01*
X232146Y428003D01*
X232119Y428025D01*
X232086Y428042D01*
X232042Y428058D01*
X231993Y428069D01*
X231938Y428074D01*
X231911D01*
X231884Y428069D01*
X231846Y428058D01*
X231807Y428047D01*
X231764Y428025D01*
X231726Y427998D01*
X231687Y427960D01*
X231682Y427954D01*
X231676Y427938D01*
X231660Y427916D01*
X231644Y427878D01*
X231627Y427834D01*
X231616Y427785D01*
X231605Y427719D01*
X231600Y427648D01*
Y427643D01*
Y427627D01*
X231605Y427599D01*
Y427572D01*
X231627Y427495D01*
X231638Y427457D01*
X231660Y427424D01*
X231665Y427419D01*
X231671Y427408D01*
X231704Y427375D01*
X231753Y427332D01*
X231818Y427288D01*
X231824D01*
X231835Y427277D01*
X231856Y427272D01*
X231889Y427255D01*
X231922Y427239D01*
X231966Y427222D01*
X232020Y427206D01*
X232075Y427184D01*
X232080D01*
X232086Y427179D01*
X232108D01*
X232113Y427173D01*
X232119D01*
X232124Y427168D01*
X232130D01*
X232135Y427162D01*
X232168Y427151D01*
X232217Y427135D01*
X232277Y427113D01*
X232348Y427092D01*
X232419Y427059D01*
X232495Y427026D01*
X232561Y426993D01*
X232566Y426988D01*
X232588Y426977D01*
X232621Y426955D01*
X232659Y426922D01*
X232708Y426884D01*
X232752Y426835D01*
X232801Y426775D01*
X232850Y426704D01*
X232856Y426693D01*
X232867Y426666D01*
X232889Y426622D01*
X232910Y426562D01*
X232932Y426485D01*
X232954Y426393D01*
X232965Y426283D01*
X232970Y426163D01*
Y426158D01*
Y426152D01*
Y426136D01*
Y426114D01*
X232965Y426054D01*
X232954Y425983D01*
X232938Y425901D01*
X232916Y425814D01*
X232889Y425727D01*
X232845Y425639D01*
X232839Y425628D01*
X232823Y425601D01*
X232796Y425563D01*
X232757Y425514D01*
X232708Y425464D01*
X232648Y425404D01*
X232577Y425355D01*
X232495Y425306D01*
X232484Y425301D01*
X232457Y425290D01*
X232408Y425273D01*
X232348Y425251D01*
X232266Y425230D01*
X232179Y425213D01*
X232075Y425202D01*
X231966Y425197D01*
X231911D01*
X231856Y425202D01*
X231780Y425213D01*
X231698Y425224D01*
X231605Y425246D01*
X231513Y425273D01*
X231425Y425312D01*
X231414Y425317D01*
X231387Y425333D01*
X231349Y425361D01*
X231300Y425399D01*
X231245Y425448D01*
X231185Y425508D01*
X231130Y425579D01*
X231081Y425656D01*
X231076Y425666D01*
X231065Y425694D01*
X231043Y425743D01*
X231021Y425808D01*
X230999Y425885D01*
X230978Y425972D01*
X230967Y426076D01*
X230961Y426185D01*
Y426212D01*
X231562D01*
Y426185D01*
Y426174D01*
Y426152D01*
X231567Y426114D01*
X231573Y426065D01*
X231589Y426010D01*
X231605Y425956D01*
X231633Y425901D01*
X231665Y425852D01*
X231671Y425847D01*
X231687Y425836D01*
X231709Y425814D01*
X231742Y425792D01*
X231786Y425770D01*
X231835Y425748D01*
X231895Y425737D01*
X231966Y425732D01*
X231998D01*
X232031Y425737D01*
X232069Y425748D01*
X232119Y425759D01*
X232168Y425781D01*
X232211Y425808D01*
X232255Y425847D01*
X232261Y425852D01*
X232272Y425868D01*
X232288Y425896D01*
X232310Y425928D01*
X232332Y425972D01*
X232348Y426027D01*
X232359Y426092D01*
X232364Y426163D01*
Y426169D01*
Y426185D01*
X232359Y426207D01*
Y426240D01*
X232337Y426311D01*
X232326Y426349D01*
X232304Y426382D01*
Y426387D01*
X232293Y426398D01*
X232261Y426431D01*
X232211Y426475D01*
X232146Y426518D01*
X232140D01*
X232130Y426529D01*
X232108Y426535D01*
X232075Y426551D01*
X232037Y426567D01*
X231988Y426584D01*
X231933Y426606D01*
X231873Y426627D01*
X231868Y426633D01*
X231851D01*
X231846Y426638D01*
X231824Y426644D01*
X231818Y426649D01*
X231807D01*
X231802Y426655D01*
X231791Y426660D01*
X231780Y426666D01*
X231753Y426677D01*
X231709Y426693D01*
X231655Y426715D01*
X231589Y426748D01*
X231523Y426780D01*
X231452Y426813D01*
X231387Y426851D01*
X231382Y426857D01*
X231360Y426873D01*
X231327Y426895D01*
X231289Y426928D01*
X231245Y426971D01*
X231201Y427021D01*
X231152Y427081D01*
X231108Y427146D01*
X231103Y427157D01*
X231092Y427179D01*
X231076Y427222D01*
X231054Y427277D01*
X231032Y427348D01*
X231016Y427435D01*
X231005Y427528D01*
X230999Y427637D01*
Y427643D01*
Y427648D01*
Y427665D01*
Y427687D01*
X231005Y427747D01*
X231016Y427818D01*
X231027Y427894D01*
X231048Y427982D01*
X231076Y428069D01*
X231114Y428156D01*
X231119Y428167D01*
X231136Y428194D01*
X231163Y428233D01*
X231196Y428282D01*
X231245Y428336D01*
X231300Y428391D01*
X231365Y428446D01*
X231436Y428495D01*
X231447Y428500D01*
X231474Y428511D01*
X231518Y428533D01*
X231578Y428555D01*
X231655Y428577D01*
X231736Y428598D01*
X231835Y428609D01*
X231938Y428615D01*
X231988D01*
X232042Y428609D01*
D02*
G37*
G36*
X224999Y426616D02*
X223361D01*
Y427195D01*
X224999D01*
Y426616D01*
D02*
G37*
G36*
X230415Y425241D02*
X229804D01*
Y425629D01*
X229815Y425656D01*
X229836Y425705D01*
X229847Y425737D01*
X229853Y425743D01*
Y425748D01*
X229804Y426158D01*
Y428560D01*
X230415D01*
Y425241D01*
D02*
G37*
G36*
X229056Y426147D02*
Y426141D01*
Y426120D01*
X229061Y426087D01*
X229066Y426043D01*
X229077Y425999D01*
X229094Y425956D01*
X229116Y425912D01*
X229148Y425874D01*
X229154Y425868D01*
X229165Y425857D01*
X229192Y425847D01*
X229219Y425830D01*
X229263Y425808D01*
X229312Y425798D01*
X229367Y425786D01*
X229432Y425781D01*
X229465D01*
X229498Y425786D01*
X229536Y425792D01*
X229580Y425803D01*
X229629Y425819D01*
X229673Y425841D01*
X229711Y425874D01*
X229716Y425879D01*
X229727Y425890D01*
X229738Y425918D01*
X229760Y425945D01*
X229776Y425989D01*
X229787Y426038D01*
X229798Y426092D01*
X229804Y426158D01*
Y425629D01*
X229787Y425590D01*
X229749Y425524D01*
X229705Y425454D01*
X229656Y425388D01*
X229596Y425333D01*
X229591Y425328D01*
X229569Y425312D01*
X229531Y425290D01*
X229487Y425268D01*
X229427Y425241D01*
X229356Y425219D01*
X229279Y425202D01*
X229192Y425197D01*
X229159D01*
X229132Y425202D01*
X229066Y425208D01*
X228985Y425224D01*
X228897Y425251D01*
X228804Y425295D01*
X228712Y425350D01*
X228635Y425426D01*
Y425432D01*
X228630Y425437D01*
X228619Y425454D01*
X228608Y425470D01*
X228575Y425524D01*
X228542Y425601D01*
X228510Y425699D01*
X228477Y425819D01*
X228455Y425956D01*
X228450Y426120D01*
Y428560D01*
X229056D01*
Y426147D01*
D02*
G37*
G36*
X198057Y429931D02*
X198090D01*
X198172Y429920D01*
X198265Y429903D01*
X198363Y429876D01*
X198461Y429843D01*
X198559Y429800D01*
X198565D01*
X198570Y429794D01*
X198598Y429772D01*
X198647Y429745D01*
X198701Y429701D01*
X198761Y429641D01*
X198821Y429576D01*
X198881Y429494D01*
X198936Y429401D01*
Y429396D01*
X198942Y429390D01*
X198947Y429374D01*
X198958Y429357D01*
X198980Y429303D01*
X199002Y429226D01*
X199023Y429139D01*
X199045Y429030D01*
X199062Y428910D01*
X199067Y428779D01*
Y428549D01*
X198417D01*
Y428779D01*
Y428784D01*
Y428811D01*
Y428844D01*
X198412Y428882D01*
X198407Y428932D01*
X198396Y428986D01*
X198363Y429084D01*
Y429090D01*
X198352Y429106D01*
X198341Y429128D01*
X198325Y429161D01*
X198275Y429221D01*
X198248Y429254D01*
X198210Y429281D01*
X198205Y429286D01*
X198194Y429292D01*
X198172Y429303D01*
X198144Y429314D01*
X198106Y429325D01*
X198068Y429335D01*
X198019Y429347D01*
X197942D01*
X197910Y429341D01*
X197871Y429335D01*
X197784Y429319D01*
X197735Y429297D01*
X197691Y429276D01*
X197686Y429270D01*
X197675Y429264D01*
X197653Y429248D01*
X197626Y429221D01*
X197598Y429194D01*
X197571Y429161D01*
X197544Y429117D01*
X197517Y429068D01*
Y429063D01*
X197506Y429046D01*
X197500Y429019D01*
X197489Y428981D01*
X197478Y428932D01*
X197467Y428877D01*
X197462Y428817D01*
X197456Y428746D01*
Y426316D01*
Y426311D01*
Y426289D01*
X197462Y426256D01*
Y426218D01*
X197473Y426169D01*
X197484Y426125D01*
X197495Y426076D01*
X197517Y426027D01*
X197522Y426021D01*
X197527Y426005D01*
X197544Y425983D01*
X197566Y425961D01*
X197593Y425928D01*
X197620Y425896D01*
X197702Y425841D01*
X197708D01*
X197724Y425830D01*
X197751Y425825D01*
X197784Y425814D01*
X197822Y425803D01*
X197871Y425792D01*
X197926Y425786D01*
X197986Y425781D01*
X198013D01*
X198041Y425786D01*
X198079Y425792D01*
X198166Y425808D01*
X198215Y425825D01*
X198259Y425847D01*
X198265Y425852D01*
X198275Y425857D01*
X198297Y425874D01*
X198325Y425901D01*
X198352Y425928D01*
X198379Y425961D01*
X198407Y426005D01*
X198434Y426049D01*
X198439Y426054D01*
X198445Y426070D01*
X198456Y426103D01*
X198467Y426141D01*
X198477Y426191D01*
X198483Y426245D01*
X198494Y426305D01*
Y426376D01*
Y427168D01*
X197970D01*
Y427741D01*
X199105D01*
Y426382D01*
Y426376D01*
Y426365D01*
Y426343D01*
Y426316D01*
X199100Y426289D01*
Y426251D01*
X199089Y426158D01*
X199073Y426059D01*
X199051Y425950D01*
X199018Y425841D01*
X198974Y425737D01*
Y425732D01*
X198969Y425727D01*
X198952Y425694D01*
X198920Y425645D01*
X198876Y425585D01*
X198821Y425519D01*
X198756Y425454D01*
X198679Y425388D01*
X198592Y425333D01*
X198587D01*
X198581Y425328D01*
X198548Y425312D01*
X198494Y425290D01*
X198423Y425268D01*
X198336Y425241D01*
X198232Y425219D01*
X198112Y425202D01*
X197986Y425197D01*
X197926D01*
X197893Y425202D01*
X197861D01*
X197773Y425213D01*
X197675Y425230D01*
X197577Y425251D01*
X197467Y425279D01*
X197369Y425322D01*
X197358Y425328D01*
X197325Y425350D01*
X197282Y425377D01*
X197227Y425421D01*
X197162Y425475D01*
X197101Y425541D01*
X197036Y425617D01*
X196981Y425705D01*
Y425710D01*
X196976Y425715D01*
X196970Y425732D01*
X196960Y425748D01*
X196938Y425803D01*
X196916Y425879D01*
X196894Y425967D01*
X196872Y426070D01*
X196856Y426191D01*
X196850Y426316D01*
Y428746D01*
Y428751D01*
Y428762D01*
Y428784D01*
Y428811D01*
X196856Y428844D01*
Y428877D01*
X196867Y428970D01*
X196883Y429068D01*
X196905Y429177D01*
X196938Y429286D01*
X196981Y429390D01*
Y429396D01*
X196987Y429401D01*
X197009Y429434D01*
X197036Y429483D01*
X197080Y429543D01*
X197134Y429608D01*
X197200Y429674D01*
X197276Y429740D01*
X197364Y429794D01*
X197369D01*
X197374Y429800D01*
X197407Y429816D01*
X197462Y429838D01*
X197533Y429865D01*
X197620Y429892D01*
X197724Y429914D01*
X197844Y429931D01*
X197970Y429936D01*
X198030D01*
X198057Y429931D01*
D02*
G37*
G36*
X208071Y428609D02*
X208147Y428598D01*
X208229Y428587D01*
X208322Y428566D01*
X208415Y428533D01*
X208502Y428495D01*
X208513Y428489D01*
X208540Y428473D01*
X208578Y428446D01*
X208633Y428407D01*
X208688Y428353D01*
X208742Y428293D01*
X208797Y428222D01*
X208846Y428140D01*
X208852Y428129D01*
X208862Y428096D01*
X208884Y428047D01*
X208906Y427982D01*
X208928Y427900D01*
X208950Y427801D01*
X208961Y427692D01*
X208966Y427572D01*
Y427463D01*
X208366D01*
Y427572D01*
Y427583D01*
Y427610D01*
X208360Y427654D01*
X208355Y427703D01*
X208338Y427758D01*
X208322Y427818D01*
X208295Y427878D01*
X208262Y427927D01*
X208256Y427932D01*
X208245Y427949D01*
X208218Y427965D01*
X208185Y427992D01*
X208142Y428014D01*
X208092Y428031D01*
X208032Y428047D01*
X207967Y428052D01*
X207934D01*
X207901Y428047D01*
X207858Y428036D01*
X207809Y428020D01*
X207759Y427998D01*
X207710Y427971D01*
X207667Y427927D01*
X207661Y427921D01*
X207650Y427905D01*
X207634Y427878D01*
X207617Y427834D01*
X207596Y427785D01*
X207579Y427725D01*
X207568Y427659D01*
X207563Y427577D01*
Y426180D01*
Y426169D01*
Y426147D01*
X207568Y426109D01*
X207574Y426065D01*
X207590Y426016D01*
X207607Y425961D01*
X207634Y425912D01*
X207667Y425863D01*
X207672Y425857D01*
X207688Y425847D01*
X207710Y425830D01*
X207743Y425808D01*
X207787Y425786D01*
X207841Y425770D01*
X207901Y425759D01*
X207967Y425754D01*
X208000D01*
X208032Y425759D01*
X208076Y425770D01*
X208125Y425781D01*
X208174Y425803D01*
X208218Y425830D01*
X208262Y425868D01*
X208267Y425874D01*
X208278Y425890D01*
X208295Y425918D01*
X208316Y425956D01*
X208338Y425999D01*
X208355Y426054D01*
X208366Y426120D01*
X208371Y426191D01*
Y426294D01*
X208977D01*
Y426191D01*
Y426185D01*
Y426174D01*
Y426158D01*
Y426136D01*
X208972Y426081D01*
X208961Y426005D01*
X208950Y425918D01*
X208928Y425830D01*
X208895Y425737D01*
X208857Y425650D01*
X208852Y425639D01*
X208835Y425612D01*
X208808Y425574D01*
X208770Y425524D01*
X208720Y425470D01*
X208660Y425415D01*
X208589Y425361D01*
X208507Y425312D01*
X208497Y425306D01*
X208469Y425295D01*
X208420Y425273D01*
X208355Y425257D01*
X208273Y425235D01*
X208180Y425213D01*
X208071Y425202D01*
X207956Y425197D01*
X207901D01*
X207847Y425202D01*
X207770Y425213D01*
X207683Y425224D01*
X207596Y425241D01*
X207503Y425268D01*
X207416Y425306D01*
X207405Y425312D01*
X207377Y425328D01*
X207339Y425355D01*
X207290Y425393D01*
X207235Y425437D01*
X207175Y425497D01*
X207121Y425563D01*
X207071Y425639D01*
X207066Y425650D01*
X207055Y425677D01*
X207033Y425727D01*
X207012Y425792D01*
X206990Y425868D01*
X206968Y425961D01*
X206957Y426065D01*
X206951Y426180D01*
Y427577D01*
Y427583D01*
Y427594D01*
Y427610D01*
Y427632D01*
X206957Y427698D01*
X206968Y427774D01*
X206979Y427861D01*
X207000Y427954D01*
X207033Y428052D01*
X207071Y428140D01*
Y428145D01*
X207077Y428151D01*
X207093Y428178D01*
X207121Y428222D01*
X207159Y428271D01*
X207208Y428331D01*
X207268Y428391D01*
X207339Y428446D01*
X207416Y428495D01*
X207426Y428500D01*
X207454Y428511D01*
X207503Y428533D01*
X207568Y428555D01*
X207645Y428577D01*
X207738Y428598D01*
X207841Y428609D01*
X207956Y428615D01*
X208011D01*
X208071Y428609D01*
D02*
G37*
G36*
X201415Y426616D02*
X199777D01*
Y427195D01*
X201415D01*
Y426616D01*
D02*
G37*
G36*
X210091Y426950D02*
X211095Y428560D01*
X211729D01*
X210857Y427261D01*
X211860Y425241D01*
X211194D01*
X210513Y426749D01*
X210091Y426119D01*
Y426950D01*
X209774Y426442D01*
X209802Y425688D01*
X210091Y426119D01*
Y425241D01*
X209485D01*
Y429887D01*
X210091D01*
Y426950D01*
D02*
G37*
G36*
X202693Y425814D02*
X204019D01*
Y425241D01*
X202693D01*
Y425814D01*
X202414D01*
Y425241D01*
X202086D01*
Y429887D01*
X202693D01*
Y425814D01*
D02*
G37*
G36*
X205532Y428609D02*
X205603Y428604D01*
X205685Y428587D01*
X205772Y428571D01*
X205859Y428544D01*
X205941Y428506D01*
X205952Y428500D01*
X205974Y428484D01*
X206012Y428462D01*
X206061Y428424D01*
X206116Y428380D01*
X206165Y428325D01*
X206220Y428260D01*
X206263Y428184D01*
X206269Y428172D01*
X206280Y428145D01*
X206296Y428102D01*
X206318Y428042D01*
X206340Y427965D01*
X206356Y427878D01*
X206367Y427779D01*
X206373Y427670D01*
Y426141D01*
Y426136D01*
Y426130D01*
Y426114D01*
Y426092D01*
X206367Y426038D01*
X206362Y425967D01*
X206345Y425885D01*
X206329Y425798D01*
X206302Y425710D01*
X206263Y425628D01*
X206258Y425617D01*
X206242Y425595D01*
X206220Y425557D01*
X206182Y425508D01*
X206138Y425454D01*
X206083Y425404D01*
X206018Y425350D01*
X205941Y425306D01*
X205930Y425301D01*
X205903Y425290D01*
X205859Y425273D01*
X205799Y425251D01*
X205723Y425230D01*
X205635Y425213D01*
X205537Y425202D01*
X205428Y425197D01*
X205379D01*
X205324Y425202D01*
X205253Y425213D01*
X205171Y425224D01*
X205084Y425241D01*
X204997Y425268D01*
X204909Y425306D01*
X204898Y425312D01*
X204877Y425328D01*
X204838Y425350D01*
X204789Y425388D01*
X204735Y425432D01*
X204680Y425486D01*
X204631Y425552D01*
X204582Y425628D01*
X204576Y425639D01*
X204565Y425666D01*
X204543Y425715D01*
X204527Y425776D01*
X204505Y425852D01*
X204484Y425939D01*
X204473Y426043D01*
X204467Y426152D01*
Y427670D01*
Y427676D01*
Y427681D01*
Y427698D01*
Y427719D01*
X204473Y427774D01*
X204484Y427845D01*
X204494Y427927D01*
X204516Y428014D01*
X204543Y428102D01*
X204582Y428184D01*
X204587Y428194D01*
X204604Y428216D01*
X204631Y428254D01*
X204664Y428304D01*
X204713Y428358D01*
X204767Y428407D01*
X204833Y428462D01*
X204909Y428506D01*
X204920Y428511D01*
X204948Y428522D01*
X204997Y428538D01*
X205057Y428560D01*
X205133Y428582D01*
X205221Y428598D01*
X205319Y428609D01*
X205428Y428615D01*
X205477D01*
X205532Y428609D01*
D02*
G37*
G36*
X367030Y306142D02*
X366057D01*
X366155Y306101D01*
X366319Y306005D01*
X366497Y305896D01*
X366661Y305773D01*
X366798Y305622D01*
X366812Y305609D01*
X366853Y305554D01*
X366907Y305458D01*
X366962Y305349D01*
X367030Y305199D01*
X367085Y305021D01*
X367126Y304830D01*
X367140Y304611D01*
Y304529D01*
X367126Y304461D01*
X367112Y304296D01*
X367071Y304091D01*
X367003Y303873D01*
X366894Y303640D01*
X366757Y303408D01*
X366565Y303217D01*
X366552D01*
X366538Y303203D01*
X366497Y303175D01*
X366456Y303148D01*
X366319Y303066D01*
X366128Y302984D01*
X365882Y302902D01*
X365581Y302820D01*
X365240Y302765D01*
X364829Y302752D01*
X358719D01*
Y304269D01*
X364761D01*
X364775D01*
X364829D01*
X364912Y304283D01*
X365021Y304296D01*
X365130Y304324D01*
X365240Y304365D01*
X365349Y304419D01*
X365445Y304502D01*
X365458Y304515D01*
X365486Y304542D01*
X365513Y304611D01*
X365554Y304679D01*
X365609Y304789D01*
X365636Y304912D01*
X365663Y305048D01*
X365677Y305212D01*
Y305294D01*
X365663Y305376D01*
X365650Y305472D01*
X365622Y305581D01*
X365581Y305704D01*
X365527Y305814D01*
X365445Y305909D01*
X365431Y305923D01*
X365404Y305950D01*
X365335Y305978D01*
X365267Y306032D01*
X365158Y306073D01*
X365035Y306101D01*
X364898Y306128D01*
X364734Y306142D01*
X366057D01*
X365991Y306169D01*
X365868Y306224D01*
X365786Y306251D01*
X365773Y306265D01*
X365759D01*
X364734Y306142D01*
X358719D01*
Y307673D01*
X367030D01*
Y306142D01*
D02*
G37*
G36*
Y299512D02*
X366267D01*
X366333Y299485D01*
X366347Y299471D01*
X366402Y299444D01*
X366470Y299403D01*
X366565Y299348D01*
X366661Y299266D01*
X366771Y299170D01*
X366866Y299061D01*
X366948Y298924D01*
X366962Y298910D01*
X366976Y298856D01*
X367003Y298774D01*
X367044Y298664D01*
X367085Y298541D01*
X367112Y298377D01*
X367126Y298200D01*
X367140Y297995D01*
Y297899D01*
X367126Y297831D01*
Y297735D01*
X367112Y297639D01*
X367071Y297420D01*
X367003Y297161D01*
X366894Y296915D01*
X366757Y296669D01*
X366565Y296450D01*
X366538Y296423D01*
X366456Y296368D01*
X366319Y296286D01*
X366128Y296204D01*
X365896Y296108D01*
X365745Y296067D01*
X365595Y296026D01*
X365417Y295985D01*
X365240Y295971D01*
X365035Y295944D01*
X364829D01*
X364816D01*
X364761D01*
X364693D01*
X364597Y295958D01*
X364488D01*
X364351Y295985D01*
X364201Y295999D01*
X364037Y296026D01*
X363695Y296108D01*
X363353Y296217D01*
X363025Y296381D01*
X362875Y296477D01*
X362738Y296587D01*
X362724Y296600D01*
X362711Y296614D01*
X362670Y296655D01*
X362629Y296710D01*
X362574Y296778D01*
X362519Y296860D01*
X362451Y296956D01*
X362383Y297065D01*
X362328Y297202D01*
X362260Y297338D01*
X362205Y297502D01*
X362150Y297667D01*
X362109Y297858D01*
X362068Y298063D01*
X362054Y298282D01*
X362041Y298514D01*
X362041Y299512D01*
X363394D01*
Y299690D01*
X362041Y299580D01*
Y299512D01*
X360961D01*
X360933D01*
X360879D01*
X360783Y299498D01*
X360674Y299485D01*
X360551Y299444D01*
X360414Y299403D01*
X360291Y299334D01*
X360182Y299238D01*
X360168Y299225D01*
X360141Y299198D01*
X360086Y299129D01*
X360031Y299047D01*
X359990Y298938D01*
X359936Y298815D01*
X359908Y298664D01*
X359895Y298500D01*
Y298432D01*
X359908Y298350D01*
X359936Y298254D01*
X359963Y298145D01*
X360018Y298036D01*
X360086Y297926D01*
X360182Y297831D01*
X360195Y297817D01*
X360236Y297790D01*
X360291Y297762D01*
X360387Y297721D01*
X360496Y297667D01*
X360619Y297639D01*
X360783Y297612D01*
X360961Y297598D01*
Y296108D01*
X360947D01*
X360906D01*
X360852D01*
X360770Y296122D01*
X360674D01*
X360564Y296135D01*
X360318Y296190D01*
X360031Y296258D01*
X359744Y296368D01*
X359457Y296532D01*
X359334Y296628D01*
X359211Y296737D01*
X359197Y296751D01*
X359184Y296764D01*
X359156Y296805D01*
X359115Y296860D01*
X359061Y296915D01*
X359006Y296997D01*
X358951Y297092D01*
X358897Y297202D01*
X358787Y297462D01*
X358678Y297762D01*
X358610Y298118D01*
X358582Y298323D01*
Y298664D01*
X358596Y298801D01*
X358623Y298992D01*
X358651Y299198D01*
X358705Y299416D01*
X358774Y299635D01*
X358869Y299854D01*
X358883Y299881D01*
X358924Y299949D01*
X358979Y300045D01*
X359074Y300168D01*
X359184Y300305D01*
X359320Y300442D01*
X359485Y300578D01*
X359676Y300701D01*
X359703Y300715D01*
X359771Y300742D01*
X359881Y300797D01*
X360031Y300852D01*
X360223Y300893D01*
X360441Y300947D01*
X360687Y300975D01*
X360961Y300988D01*
X367030D01*
Y299512D01*
D02*
G37*
G36*
X367030Y292991D02*
X365431D01*
Y294591D01*
X367030D01*
Y292991D01*
D02*
G37*
G36*
X360168Y290722D02*
X358719D01*
Y289191D01*
X356299D01*
Y290722D01*
X358719D01*
Y291939D01*
X360168D01*
Y290722D01*
D02*
G37*
G36*
X367058Y291050D02*
X367044Y290982D01*
Y290900D01*
X367030Y290804D01*
X366989Y290585D01*
X366921Y290339D01*
X366839Y290093D01*
X366702Y289861D01*
X366525Y289656D01*
X366497Y289642D01*
X366415Y289587D01*
X366292Y289506D01*
X366114Y289423D01*
X365882Y289341D01*
X365595Y289260D01*
X365253Y289205D01*
X364871Y289191D01*
X360168D01*
Y288344D01*
X358719D01*
Y289191D01*
X360168D01*
Y290722D01*
X364871D01*
X364884D01*
X364925D01*
X364994Y290736D01*
X365075D01*
X365267Y290791D01*
X365363Y290818D01*
X365445Y290873D01*
X365458Y290886D01*
X365472Y290900D01*
X365499Y290941D01*
X365540Y290982D01*
X365581Y291050D01*
X365609Y291132D01*
X365622Y291214D01*
X365636Y291324D01*
Y291939D01*
X367058D01*
Y291050D01*
D02*
G37*
G36*
X364952Y287373D02*
X365048D01*
X365158Y287359D01*
X365417Y287305D01*
X365691Y287236D01*
X365991Y287113D01*
X366279Y286963D01*
X366402Y286854D01*
X366525Y286744D01*
Y286731D01*
X366552Y286717D01*
X366579Y286676D01*
X366620Y286621D01*
X366661Y286566D01*
X366716Y286484D01*
X366771Y286389D01*
X366825Y286279D01*
X366894Y286156D01*
X366948Y286020D01*
X367044Y285705D01*
X367112Y285336D01*
X367126Y285145D01*
X367140Y284926D01*
Y284789D01*
X367126Y284639D01*
X367099Y284461D01*
X367058Y284243D01*
X367003Y284010D01*
X366935Y283778D01*
X366825Y283559D01*
X366812Y283532D01*
X366771Y283463D01*
X366689Y283368D01*
X366593Y283245D01*
X366456Y283108D01*
X366306Y282958D01*
X366114Y282821D01*
X365896Y282698D01*
X365882D01*
X365868Y282684D01*
X365786Y282657D01*
X365650Y282602D01*
X365472Y282547D01*
X365267Y282493D01*
X365007Y282438D01*
X364720Y282411D01*
X364406Y282397D01*
X361494D01*
X361480D01*
X361453D01*
X361398D01*
X361344D01*
X361262Y282411D01*
X361166D01*
X360947Y282438D01*
X360701Y282466D01*
X360441Y282520D01*
X360182Y282589D01*
X359922Y282684D01*
X359908D01*
X359895Y282698D01*
X359813Y282739D01*
X359689Y282807D01*
X359553Y282903D01*
X359389Y283026D01*
X359225Y283163D01*
X359061Y283340D01*
X358924Y283532D01*
X358910Y283559D01*
X358869Y283627D01*
X358815Y283750D01*
X358746Y283914D01*
X358692Y284106D01*
X358637Y284338D01*
X358596Y284584D01*
X358582Y284871D01*
Y285008D01*
X358596Y285145D01*
X358623Y285336D01*
X358664Y285541D01*
X358719Y285760D01*
X358787Y285992D01*
X358897Y286211D01*
X358910Y286238D01*
X358951Y286307D01*
X359033Y286402D01*
X359129Y286526D01*
X359266Y286662D01*
X359416Y286799D01*
X359608Y286936D01*
X359826Y287059D01*
X359854Y287072D01*
X359936Y287100D01*
X360059Y287154D01*
X360236Y287209D01*
X360441Y287264D01*
X360687Y287318D01*
X360975Y287346D01*
X361275Y287359D01*
X363476D01*
Y283860D01*
X362218D01*
Y283463D01*
X363476D01*
Y283860D01*
X364447D01*
X364474D01*
X364542D01*
X364652Y283874D01*
X364789Y283901D01*
X364939Y283928D01*
X365103Y283969D01*
X365253Y284037D01*
X365390Y284133D01*
X365404Y284147D01*
X365445Y284188D01*
X365499Y284256D01*
X365554Y284338D01*
X365622Y284448D01*
X365677Y284584D01*
X365718Y284748D01*
X365732Y284926D01*
Y285008D01*
X365718Y285090D01*
X365704Y285199D01*
X365677Y285322D01*
X365622Y285445D01*
X365568Y285555D01*
X365486Y285664D01*
X365472Y285678D01*
X365431Y285705D01*
X365376Y285746D01*
X365294Y285801D01*
X365198Y285842D01*
X365075Y285883D01*
X364925Y285910D01*
X364761Y285924D01*
X364706D01*
Y287387D01*
X364761D01*
X364775D01*
X364816D01*
X364871D01*
X364952Y287373D01*
D02*
G37*
G36*
X367030Y279280D02*
X361275D01*
X361262D01*
X361248D01*
X361166D01*
X361056Y279267D01*
X360920Y279253D01*
X360756Y279212D01*
X360605Y279171D01*
X360455Y279103D01*
X360318Y279021D01*
X360305Y279007D01*
X360264Y278980D01*
X360209Y278911D01*
X360154Y278829D01*
X360100Y278734D01*
X360045Y278597D01*
X360004Y278447D01*
X359990Y278269D01*
Y278187D01*
X360004Y278091D01*
X360031Y277982D01*
X360072Y277845D01*
X360127Y277722D01*
X360209Y277599D01*
X360318Y277490D01*
X360332Y277476D01*
X360373Y277449D01*
X360455Y277408D01*
X360564Y277367D01*
X360701Y277326D01*
X360879Y277285D01*
X361084Y277257D01*
X361316Y277243D01*
X359760D01*
X359854Y277189D01*
X360004Y277134D01*
X360059Y277107D01*
X360086Y277093D01*
X360113Y277080D01*
X360127D01*
X361316Y277243D01*
X367030D01*
Y275726D01*
X358719D01*
Y277243D01*
X359760D01*
X359689Y277285D01*
X359498Y277380D01*
X359307Y277517D01*
X359129Y277667D01*
X358965Y277845D01*
X358951Y277872D01*
X358910Y277941D01*
X358842Y278036D01*
X358774Y278173D01*
X358705Y278351D01*
X358637Y278542D01*
X358596Y278747D01*
X358582Y278980D01*
Y279062D01*
X358596Y279130D01*
X358610Y279280D01*
X358651Y279485D01*
X358719Y279704D01*
X358828Y279923D01*
X358965Y280142D01*
X359156Y280333D01*
X359184Y280347D01*
X359266Y280401D01*
X359389Y280483D01*
X359580Y280565D01*
X359813Y280647D01*
X360100Y280729D01*
X360441Y280784D01*
X360824Y280798D01*
X367030D01*
Y279280D01*
D02*
G37*
G36*
Y272650D02*
X365431D01*
Y274250D01*
X367030D01*
Y272650D01*
D02*
G37*
G36*
Y269711D02*
X366267D01*
X366333Y269684D01*
X366347Y269670D01*
X366402Y269643D01*
X366470Y269602D01*
X366565Y269547D01*
X366661Y269465D01*
X366771Y269370D01*
X366866Y269260D01*
X366948Y269124D01*
X366962Y269110D01*
X366976Y269055D01*
X367003Y268973D01*
X367044Y268864D01*
X367085Y268741D01*
X367112Y268577D01*
X367126Y268399D01*
X367140Y268194D01*
Y268098D01*
X367126Y268030D01*
Y267934D01*
X367112Y267839D01*
X367071Y267620D01*
X367003Y267360D01*
X366894Y267114D01*
X366757Y266868D01*
X366565Y266649D01*
X366538Y266622D01*
X366456Y266567D01*
X366319Y266485D01*
X366128Y266403D01*
X365896Y266307D01*
X365745Y266266D01*
X365595Y266226D01*
X365417Y266184D01*
X365240Y266171D01*
X365035Y266143D01*
X364829D01*
X364816D01*
X364761D01*
X364693D01*
X364597Y266157D01*
X364488D01*
X364351Y266184D01*
X364201Y266198D01*
X364037Y266226D01*
X363695Y266307D01*
X363353Y266417D01*
X363025Y266581D01*
X362875Y266677D01*
X362738Y266786D01*
X362724Y266800D01*
X362711Y266813D01*
X362670Y266854D01*
X362629Y266909D01*
X362574Y266977D01*
X362519Y267059D01*
X362451Y267155D01*
X362383Y267264D01*
X362328Y267401D01*
X362260Y267538D01*
X362205Y267702D01*
X362150Y267866D01*
X362109Y268057D01*
X362068Y268262D01*
X362054Y268481D01*
X362041Y268713D01*
Y269711D01*
X363394D01*
Y269889D01*
X362041Y269780D01*
Y269711D01*
X360961D01*
X360933D01*
X360879D01*
X360783Y269698D01*
X360674Y269684D01*
X360551Y269643D01*
X360414Y269602D01*
X360291Y269534D01*
X360182Y269438D01*
X360168Y269424D01*
X360141Y269397D01*
X360086Y269329D01*
X360031Y269247D01*
X359990Y269137D01*
X359936Y269014D01*
X359908Y268864D01*
X359895Y268700D01*
Y268631D01*
X359908Y268549D01*
X359936Y268454D01*
X359963Y268344D01*
X360018Y268235D01*
X360086Y268126D01*
X360182Y268030D01*
X360195Y268016D01*
X360236Y267989D01*
X360291Y267962D01*
X360387Y267921D01*
X360496Y267866D01*
X360619Y267839D01*
X360783Y267811D01*
X360961Y267798D01*
Y266307D01*
X360947D01*
X360906D01*
X360852D01*
X360770Y266321D01*
X360674D01*
X360564Y266335D01*
X360318Y266389D01*
X360031Y266458D01*
X359744Y266567D01*
X359457Y266731D01*
X359334Y266827D01*
X359211Y266936D01*
X359197Y266950D01*
X359184Y266964D01*
X359156Y267005D01*
X359115Y267059D01*
X359061Y267114D01*
X359006Y267196D01*
X358951Y267292D01*
X358897Y267401D01*
X358787Y267661D01*
X358678Y267962D01*
X358610Y268317D01*
X358582Y268522D01*
Y268864D01*
X358596Y269001D01*
X358623Y269192D01*
X358651Y269397D01*
X358705Y269616D01*
X358774Y269834D01*
X358869Y270053D01*
X358883Y270080D01*
X358924Y270149D01*
X358979Y270245D01*
X359074Y270368D01*
X359184Y270504D01*
X359320Y270641D01*
X359485Y270778D01*
X359676Y270901D01*
X359703Y270914D01*
X359772Y270942D01*
X359881Y270996D01*
X360031Y271051D01*
X360223Y271092D01*
X360441Y271147D01*
X360687Y271174D01*
X360961Y271188D01*
X367030D01*
Y269711D01*
D02*
G37*
G36*
Y262986D02*
X361275D01*
X361262D01*
X361248D01*
X361166D01*
X361056Y262972D01*
X360920Y262958D01*
X360756Y262917D01*
X360605Y262876D01*
X360455Y262808D01*
X360318Y262726D01*
X360305Y262712D01*
X360264Y262685D01*
X360209Y262617D01*
X360154Y262535D01*
X360100Y262439D01*
X360045Y262302D01*
X360004Y262152D01*
X359990Y261974D01*
Y261892D01*
X360004Y261796D01*
X360031Y261687D01*
X360072Y261550D01*
X360127Y261427D01*
X360209Y261304D01*
X360318Y261195D01*
X360332Y261181D01*
X360373Y261154D01*
X360455Y261113D01*
X360564Y261072D01*
X360701Y261031D01*
X360879Y260990D01*
X361084Y260963D01*
X361316Y260949D01*
X359760D01*
X359854Y260894D01*
X360004Y260840D01*
X360059Y260812D01*
X360086Y260799D01*
X360113Y260785D01*
X360127D01*
X361316Y260949D01*
X367030D01*
Y259432D01*
X358719D01*
Y260949D01*
X359760D01*
X359689Y260990D01*
X359498Y261086D01*
X359307Y261222D01*
X359129Y261373D01*
X358965Y261550D01*
X358951Y261578D01*
X358910Y261646D01*
X358842Y261742D01*
X358774Y261878D01*
X358705Y262056D01*
X358637Y262247D01*
X358596Y262453D01*
X358582Y262685D01*
Y262767D01*
X358596Y262835D01*
X358610Y262986D01*
X358651Y263191D01*
X358719Y263409D01*
X358828Y263628D01*
X358965Y263847D01*
X359156Y264038D01*
X359184Y264052D01*
X359266Y264107D01*
X359389Y264189D01*
X359580Y264271D01*
X359813Y264353D01*
X360100Y264435D01*
X360441Y264489D01*
X360824Y264503D01*
X367030D01*
Y262986D01*
D02*
G37*
G36*
Y256192D02*
X366267D01*
X366333Y256164D01*
X366347Y256151D01*
X366402Y256123D01*
X366470Y256082D01*
X366565Y256028D01*
X366661Y255946D01*
X366771Y255850D01*
X366866Y255741D01*
X366948Y255604D01*
X366962Y255590D01*
X366976Y255536D01*
X367003Y255453D01*
X367044Y255344D01*
X367085Y255221D01*
X367112Y255057D01*
X367126Y254879D01*
X367140Y254674D01*
Y254579D01*
X367126Y254510D01*
Y254415D01*
X367112Y254319D01*
X367071Y254100D01*
X367003Y253840D01*
X366894Y253594D01*
X366757Y253348D01*
X366565Y253130D01*
X366538Y253102D01*
X366456Y253048D01*
X366319Y252966D01*
X366128Y252884D01*
X365896Y252788D01*
X365745Y252747D01*
X365595Y252706D01*
X365417Y252665D01*
X365240Y252651D01*
X365035Y252624D01*
X364829D01*
X364816D01*
X364761D01*
X364693D01*
X364597Y252638D01*
X364488D01*
X364351Y252665D01*
X364201Y252678D01*
X364037Y252706D01*
X363695Y252788D01*
X363353Y252897D01*
X363025Y253061D01*
X362875Y253157D01*
X362738Y253266D01*
X362724Y253280D01*
X362711Y253294D01*
X362670Y253335D01*
X362629Y253389D01*
X362574Y253458D01*
X362519Y253540D01*
X362451Y253635D01*
X362383Y253745D01*
X362328Y253882D01*
X362260Y254018D01*
X362205Y254182D01*
X362150Y254346D01*
X362109Y254538D01*
X362068Y254743D01*
X362054Y254961D01*
X362041Y255194D01*
Y256192D01*
X363394D01*
Y256369D01*
X362041Y256260D01*
Y256192D01*
X360961D01*
X360933D01*
X360879D01*
X360783Y256178D01*
X360674Y256164D01*
X360551Y256123D01*
X360414Y256082D01*
X360291Y256014D01*
X360182Y255918D01*
X360168Y255905D01*
X360141Y255877D01*
X360086Y255809D01*
X360031Y255727D01*
X359990Y255618D01*
X359936Y255494D01*
X359908Y255344D01*
X359895Y255180D01*
Y255112D01*
X359908Y255030D01*
X359936Y254934D01*
X359963Y254825D01*
X360018Y254715D01*
X360086Y254606D01*
X360182Y254510D01*
X360195Y254497D01*
X360236Y254469D01*
X360291Y254442D01*
X360387Y254401D01*
X360496Y254346D01*
X360619Y254319D01*
X360783Y254292D01*
X360961Y254278D01*
Y252788D01*
X360947D01*
X360906D01*
X360852D01*
X360770Y252802D01*
X360674D01*
X360564Y252815D01*
X360318Y252870D01*
X360031Y252938D01*
X359744Y253048D01*
X359457Y253212D01*
X359334Y253307D01*
X359211Y253417D01*
X359197Y253430D01*
X359184Y253444D01*
X359156Y253485D01*
X359115Y253540D01*
X359061Y253594D01*
X359006Y253676D01*
X358951Y253772D01*
X358897Y253882D01*
X358787Y254141D01*
X358678Y254442D01*
X358610Y254797D01*
X358582Y255002D01*
Y255344D01*
X358596Y255481D01*
X358623Y255672D01*
X358651Y255877D01*
X358705Y256096D01*
X358774Y256315D01*
X358869Y256534D01*
X358883Y256561D01*
X358924Y256629D01*
X358979Y256725D01*
X359074Y256848D01*
X359184Y256985D01*
X359320Y257121D01*
X359485Y257258D01*
X359676Y257381D01*
X359703Y257395D01*
X359772Y257422D01*
X359881Y257477D01*
X360031Y257531D01*
X360223Y257572D01*
X360441Y257627D01*
X360687Y257654D01*
X360961Y257668D01*
X367030D01*
Y256192D01*
D02*
G37*
G36*
Y249548D02*
Y248345D01*
X361303Y247211D01*
X367030Y246062D01*
Y244859D01*
X358719Y242946D01*
Y244422D01*
X364871Y245461D01*
X358719Y246664D01*
Y247744D01*
X364871Y248947D01*
X358719Y249986D01*
Y251462D01*
X367030Y249548D01*
D02*
G37*
G36*
Y240143D02*
X365989D01*
X366114Y240075D01*
X366292Y239979D01*
X366470Y239870D01*
X366648Y239733D01*
X366798Y239569D01*
X366812Y239555D01*
X366853Y239487D01*
X366921Y239391D01*
X366976Y239268D01*
X367044Y239104D01*
X367112Y238927D01*
X367153Y238721D01*
X367167Y238489D01*
Y238393D01*
X367153Y238284D01*
X367126Y238147D01*
X367099Y237997D01*
X367044Y237833D01*
X366976Y237669D01*
X366880Y237505D01*
X366866Y237491D01*
X366825Y237437D01*
X366757Y237368D01*
X366661Y237272D01*
X366552Y237177D01*
X366402Y237067D01*
X366237Y236972D01*
X366046Y236876D01*
X366019Y236862D01*
X365950Y236849D01*
X365827Y236808D01*
X365663Y236767D01*
X365472Y236726D01*
X365240Y236698D01*
X364980Y236671D01*
X364693Y236657D01*
X361152D01*
X361139D01*
X361111D01*
X361070D01*
X361016D01*
X360865Y236671D01*
X360674Y236685D01*
X360455Y236712D01*
X360223Y236753D01*
X359990Y236808D01*
X359772Y236876D01*
X359758D01*
X359744Y236890D01*
X359676Y236917D01*
X359566Y236972D01*
X359443Y237040D01*
X359293Y237122D01*
X359143Y237231D01*
X359006Y237354D01*
X358883Y237505D01*
X358869Y237519D01*
X358842Y237573D01*
X358787Y237669D01*
X358733Y237778D01*
X358678Y237929D01*
X358623Y238093D01*
X358596Y238284D01*
X358582Y238489D01*
Y238585D01*
X358596Y238694D01*
X358623Y238831D01*
X358678Y238995D01*
X358746Y239173D01*
X358842Y239350D01*
X358965Y239528D01*
X358979Y239555D01*
X359033Y239610D01*
X359129Y239692D01*
X359238Y239801D01*
X359402Y239924D01*
X359580Y240061D01*
X359726Y240143D01*
X355397D01*
Y241660D01*
X367030D01*
Y240143D01*
D02*
G37*
G36*
Y233541D02*
X361275D01*
X361262D01*
X361248D01*
X361166D01*
X361056Y233527D01*
X360920Y233513D01*
X360756Y233472D01*
X360605Y233431D01*
X360455Y233363D01*
X360318Y233281D01*
X360305Y233267D01*
X360264Y233240D01*
X360209Y233171D01*
X360154Y233089D01*
X360100Y232994D01*
X360045Y232857D01*
X360004Y232707D01*
X359990Y232529D01*
Y232447D01*
X360004Y232351D01*
X360031Y232242D01*
X360072Y232105D01*
X360127Y231982D01*
X360209Y231859D01*
X360318Y231750D01*
X360332Y231736D01*
X360373Y231709D01*
X360455Y231668D01*
X360564Y231627D01*
X360701Y231586D01*
X360879Y231545D01*
X361084Y231517D01*
X361316Y231504D01*
X359760D01*
X359854Y231449D01*
X360004Y231394D01*
X360059Y231367D01*
X360086Y231353D01*
X360113Y231340D01*
X360127D01*
X361316Y231504D01*
X367030D01*
Y229986D01*
X358719D01*
Y231504D01*
X359760D01*
X359689Y231545D01*
X359498Y231640D01*
X359307Y231777D01*
X359129Y231927D01*
X358965Y232105D01*
X358951Y232133D01*
X358910Y232201D01*
X358842Y232297D01*
X358774Y232433D01*
X358705Y232611D01*
X358637Y232802D01*
X358596Y233007D01*
X358582Y233240D01*
Y233322D01*
X358596Y233390D01*
X358610Y233541D01*
X358651Y233746D01*
X358719Y233964D01*
X358828Y234183D01*
X358965Y234402D01*
X359156Y234593D01*
X359184Y234607D01*
X359266Y234662D01*
X359389Y234743D01*
X359580Y234825D01*
X359813Y234908D01*
X360100Y234990D01*
X360441Y235044D01*
X360824Y235058D01*
X367030D01*
Y233541D01*
D02*
G37*
G36*
X365035Y228360D02*
X365212Y228346D01*
X365417Y228305D01*
X365636Y228264D01*
X365855Y228196D01*
X366060Y228100D01*
X366087Y228086D01*
X366142Y228045D01*
X366237Y227991D01*
X366360Y227895D01*
X366497Y227785D01*
X366620Y227649D01*
X366757Y227485D01*
X366866Y227293D01*
X366880Y227266D01*
X366907Y227198D01*
X366948Y227088D01*
X367003Y226938D01*
X367058Y226747D01*
X367099Y226528D01*
X367126Y226282D01*
X367140Y226008D01*
Y225885D01*
X367126Y225749D01*
X367099Y225571D01*
X367071Y225366D01*
X367030Y225147D01*
X366962Y224928D01*
X366866Y224710D01*
X366853Y224682D01*
X366812Y224628D01*
X366757Y224532D01*
X366661Y224409D01*
X366552Y224272D01*
X366415Y224136D01*
X366251Y224012D01*
X366060Y223889D01*
X366032Y223876D01*
X365964Y223849D01*
X365841Y223794D01*
X365691Y223753D01*
X365499Y223698D01*
X365281Y223643D01*
X365021Y223616D01*
X364747Y223602D01*
X360947D01*
X360933D01*
X360920D01*
X360879D01*
X360824D01*
X360687Y223616D01*
X360510Y223643D01*
X360305Y223671D01*
X360086Y223726D01*
X359867Y223794D01*
X359662Y223889D01*
X359635Y223903D01*
X359580Y223944D01*
X359485Y224012D01*
X359362Y224095D01*
X359225Y224218D01*
X359102Y224354D01*
X358965Y224518D01*
X358856Y224710D01*
X358842Y224737D01*
X358815Y224805D01*
X358774Y224928D01*
X358719Y225079D01*
X358664Y225270D01*
X358623Y225489D01*
X358596Y225735D01*
X358582Y226008D01*
Y226131D01*
X358596Y226268D01*
X358610Y226446D01*
X358651Y226651D01*
X358692Y226870D01*
X358760Y227088D01*
X358856Y227293D01*
X358869Y227321D01*
X358910Y227375D01*
X358965Y227471D01*
X359061Y227594D01*
X359170Y227731D01*
X359307Y227854D01*
X359471Y227991D01*
X359662Y228100D01*
X359689Y228114D01*
X359758Y228141D01*
X359867Y228182D01*
X360018Y228237D01*
X360209Y228291D01*
X360428Y228332D01*
X360674Y228360D01*
X360947Y228373D01*
X364775D01*
X364789D01*
X364802D01*
X364843D01*
X364898D01*
X365035Y228360D01*
D02*
G37*
G36*
X364406Y222071D02*
X364501D01*
X364734Y222044D01*
X364980Y222003D01*
X365253Y221948D01*
X365527Y221866D01*
X365786Y221757D01*
X365800D01*
X365814Y221743D01*
X365896Y221702D01*
X366019Y221620D01*
X366169Y221511D01*
X366333Y221374D01*
X366497Y221210D01*
X366661Y221019D01*
X366798Y220800D01*
Y220786D01*
X366812Y220773D01*
X366853Y220691D01*
X366907Y220554D01*
X366962Y220376D01*
X367030Y220158D01*
X367085Y219898D01*
X367126Y219597D01*
X367140Y219283D01*
Y219132D01*
X367126Y219050D01*
Y218968D01*
X367099Y218750D01*
X367058Y218503D01*
X367003Y218257D01*
X366935Y217984D01*
X366825Y217738D01*
X366812Y217711D01*
X366757Y217629D01*
X366689Y217519D01*
X366579Y217383D01*
X366442Y217219D01*
X366279Y217068D01*
X366087Y216904D01*
X365868Y216767D01*
X365855D01*
X365841Y216754D01*
X365800Y216740D01*
X365759Y216713D01*
X365622Y216658D01*
X365431Y216603D01*
X365212Y216549D01*
X364952Y216494D01*
X364652Y216453D01*
X364337Y216439D01*
X358254D01*
X358241D01*
X358213D01*
X358158D01*
X358090D01*
X358008Y216453D01*
X357926D01*
X357694Y216480D01*
X357448Y216521D01*
X357174Y216576D01*
X356901Y216658D01*
X356641Y216767D01*
X356627D01*
X356614Y216781D01*
X356532Y216836D01*
X356409Y216904D01*
X356258Y217014D01*
X356094Y217150D01*
X355930Y217314D01*
X355766Y217506D01*
X355630Y217724D01*
Y217738D01*
X355616Y217752D01*
X355575Y217834D01*
X355520Y217970D01*
X355452Y218148D01*
X355383Y218367D01*
X355329Y218627D01*
X355288Y218927D01*
X355274Y219242D01*
Y219392D01*
X355288Y219460D01*
Y219543D01*
X355315Y219747D01*
X355356Y219980D01*
X355424Y220226D01*
X355506Y220472D01*
X355616Y220718D01*
Y220732D01*
X355630Y220745D01*
X355684Y220814D01*
X355753Y220937D01*
X355862Y221074D01*
X356012Y221224D01*
X356176Y221374D01*
X356381Y221525D01*
X356614Y221661D01*
X356627D01*
X356641Y221675D01*
X356682Y221689D01*
X356723Y221716D01*
X356860Y221771D01*
X357051Y221825D01*
X357270Y221880D01*
X357543Y221935D01*
X357844Y221976D01*
X358172Y221989D01*
X358746D01*
Y220363D01*
X358172D01*
X358158D01*
X358090D01*
X358008D01*
X357912Y220349D01*
X357789Y220335D01*
X357653Y220308D01*
X357407Y220226D01*
X357393D01*
X357352Y220199D01*
X357297Y220171D01*
X357215Y220130D01*
X357065Y220007D01*
X356983Y219939D01*
X356914Y219843D01*
X356901Y219830D01*
X356887Y219802D01*
X356860Y219747D01*
X356833Y219679D01*
X356805Y219584D01*
X356778Y219488D01*
X356750Y219365D01*
Y219173D01*
X356764Y219091D01*
X356778Y218996D01*
X356819Y218777D01*
X356873Y218654D01*
X356928Y218545D01*
X356942Y218531D01*
X356956Y218503D01*
X356996Y218449D01*
X357065Y218380D01*
X357133Y218312D01*
X357215Y218244D01*
X357325Y218176D01*
X357448Y218107D01*
X357461D01*
X357502Y218080D01*
X357571Y218066D01*
X357666Y218039D01*
X357789Y218011D01*
X357926Y217984D01*
X358077Y217970D01*
X358254Y217957D01*
X364337D01*
X364351D01*
X364406D01*
X364488Y217970D01*
X364583D01*
X364706Y217998D01*
X364816Y218025D01*
X364939Y218052D01*
X365062Y218107D01*
X365075Y218121D01*
X365117Y218134D01*
X365171Y218176D01*
X365226Y218230D01*
X365308Y218299D01*
X365390Y218367D01*
X365527Y218572D01*
Y218586D01*
X365554Y218627D01*
X365568Y218695D01*
X365595Y218777D01*
X365622Y218873D01*
X365650Y218996D01*
X365663Y219132D01*
X365677Y219283D01*
Y219351D01*
X365663Y219419D01*
X365650Y219515D01*
X365609Y219734D01*
X365568Y219857D01*
X365513Y219966D01*
X365499Y219980D01*
X365486Y220007D01*
X365445Y220062D01*
X365376Y220130D01*
X365308Y220199D01*
X365226Y220267D01*
X365117Y220335D01*
X365007Y220404D01*
X364994Y220417D01*
X364952Y220431D01*
X364871Y220458D01*
X364775Y220486D01*
X364652Y220513D01*
X364515Y220527D01*
X364365Y220554D01*
X364187D01*
X362205D01*
Y219242D01*
X360770D01*
Y222085D01*
X364173D01*
X364187D01*
X364214D01*
X364269D01*
X364337D01*
X364406Y222071D01*
D02*
G37*
G36*
X365021Y214826D02*
X365117D01*
X365226Y214813D01*
X365486Y214772D01*
X365773Y214717D01*
X366060Y214621D01*
X366333Y214498D01*
X366470Y214416D01*
X366579Y214320D01*
X366607Y214293D01*
X366661Y214225D01*
X366757Y214116D01*
X366853Y213951D01*
X366962Y213733D01*
X367058Y213473D01*
X367112Y213172D01*
X367140Y212830D01*
Y212749D01*
X367126Y212680D01*
Y212598D01*
X367112Y212516D01*
X367085Y212311D01*
X367030Y212079D01*
X366948Y211846D01*
X366825Y211628D01*
X366675Y211422D01*
X366648Y211409D01*
X366593Y211354D01*
X366483Y211272D01*
X366319Y211190D01*
X366147Y211116D01*
X366251Y211067D01*
X366483Y210944D01*
X366675Y210794D01*
X366689Y210780D01*
X366743Y210712D01*
X366825Y210616D01*
X366907Y210479D01*
X366989Y210301D01*
X367071Y210097D01*
X367126Y209850D01*
X367140Y209563D01*
Y209468D01*
X367126Y209413D01*
Y209331D01*
X367099Y209235D01*
X367058Y209030D01*
X366976Y208798D01*
X366866Y208552D01*
X366702Y208333D01*
X366593Y208224D01*
X366483Y208128D01*
X366470D01*
X366456Y208114D01*
X366415Y208087D01*
X366360Y208060D01*
X366292Y208019D01*
X366196Y207978D01*
X366101Y207937D01*
X365978Y207896D01*
X365841Y207841D01*
X365691Y207800D01*
X365527Y207759D01*
X365349Y207732D01*
X365144Y207691D01*
X364939Y207677D01*
X364706Y207649D01*
X364460D01*
X361056D01*
X361043D01*
X361002D01*
X360933D01*
X360852Y207663D01*
X360756D01*
X360633Y207677D01*
X360359Y207718D01*
X360059Y207786D01*
X359758Y207896D01*
X359471Y208032D01*
X359334Y208128D01*
X359211Y208224D01*
X359197Y208237D01*
X359184Y208251D01*
X359115Y208333D01*
X359020Y208470D01*
X358897Y208661D01*
X358787Y208893D01*
X358692Y209194D01*
X358623Y209550D01*
X358596Y209741D01*
Y210055D01*
X358610Y210138D01*
Y210233D01*
X358623Y210343D01*
X358678Y210589D01*
X358746Y210862D01*
X358856Y211149D01*
X359020Y211422D01*
X359115Y211545D01*
X359225Y211655D01*
Y211668D01*
X359252Y211682D01*
X359293Y211709D01*
X359334Y211751D01*
X359402Y211792D01*
X359485Y211833D01*
X359580Y211887D01*
X359689Y211942D01*
X359813Y211997D01*
X359949Y212051D01*
X360100Y212092D01*
X360264Y212133D01*
X360441Y212174D01*
X360633Y212202D01*
X360852Y212229D01*
X361070D01*
X364829D01*
X365281Y210958D01*
X365609Y210971D01*
X365896Y211026D01*
X366128Y211108D01*
X366147Y211116D01*
X366019Y211176D01*
X365786Y211258D01*
X365581Y211313D01*
X365486Y211340D01*
X365404Y211354D01*
X365349Y211368D01*
X365294D01*
X365267Y211382D01*
X365253D01*
X365021Y212229D01*
X364912D01*
X365007Y212243D01*
X365117D01*
X365376Y212297D01*
X365513Y212325D01*
X365622Y212379D01*
X365636Y212393D01*
X365663Y212407D01*
X365704Y212448D01*
X365745Y212502D01*
X365800Y212571D01*
X365841Y212653D01*
X365868Y212762D01*
X365882Y212872D01*
Y212926D01*
X365868Y212981D01*
X365855Y213049D01*
X365827Y213118D01*
X365786Y213200D01*
X365732Y213268D01*
X365663Y213336D01*
X365650Y213350D01*
X365622Y213364D01*
X365568Y213391D01*
X365486Y213418D01*
X365390Y213446D01*
X365267Y213459D01*
X365117Y213487D01*
X364952D01*
X360113D01*
X360100D01*
X360059D01*
X360004D01*
X359936D01*
X359840Y213473D01*
X359731Y213459D01*
X359485Y213432D01*
X359197Y213391D01*
X358883Y213309D01*
X358582Y213213D01*
X358281Y213076D01*
X358268D01*
X358254Y213063D01*
X358213Y213035D01*
X358158Y213008D01*
X358022Y212913D01*
X357858Y212776D01*
X357680Y212612D01*
X357489Y212407D01*
X357311Y212161D01*
X357161Y211887D01*
Y211874D01*
X357147Y211846D01*
X357120Y211805D01*
X357106Y211751D01*
X357065Y211668D01*
X357038Y211586D01*
X357010Y211477D01*
X356969Y211354D01*
X356901Y211081D01*
X356833Y210753D01*
X356791Y210384D01*
X356778Y209974D01*
Y209782D01*
X356791Y209686D01*
Y209563D01*
X356805Y209440D01*
X356819Y209290D01*
X356873Y208989D01*
X356942Y208647D01*
X357038Y208319D01*
X357161Y208005D01*
Y207991D01*
X357174Y207964D01*
X357202Y207923D01*
X357229Y207868D01*
X357311Y207732D01*
X357434Y207554D01*
X357598Y207349D01*
X357789Y207157D01*
X358022Y206952D01*
X358281Y206788D01*
X358295D01*
X358309Y206775D01*
X358350Y206747D01*
X358418Y206734D01*
X358487Y206693D01*
X358569Y206665D01*
X358678Y206624D01*
X358787Y206597D01*
X359047Y206515D01*
X359362Y206460D01*
X359717Y206406D01*
X360113Y206392D01*
X360127D01*
X360168D01*
X360250D01*
X360346D01*
X360469D01*
X360619D01*
X360783D01*
X360961D01*
X361152D01*
X361371D01*
X361836D01*
X362328D01*
X362834D01*
X362847D01*
X362888D01*
X362970D01*
X363066D01*
X363189D01*
X363339D01*
X363504D01*
X363681D01*
X363886D01*
X364105D01*
X364570D01*
X365062D01*
X365581D01*
X365595D01*
X365622D01*
X365677D01*
X365759D01*
X365841Y206406D01*
X365950Y206419D01*
X366196Y206447D01*
X366470Y206488D01*
X366771Y206556D01*
X367058Y206652D01*
X367345Y206788D01*
X367358D01*
X367372Y206802D01*
X367454Y206870D01*
X367591Y206966D01*
X367741Y207089D01*
X367919Y207267D01*
X368097Y207472D01*
X368261Y207718D01*
X368411Y207991D01*
Y208005D01*
X368425Y208032D01*
X368438Y208073D01*
X368466Y208128D01*
X368493Y208210D01*
X368520Y208306D01*
X368561Y208415D01*
X368589Y208538D01*
X368616Y208675D01*
X368657Y208825D01*
X368712Y209167D01*
X368753Y209550D01*
X368766Y209974D01*
Y212366D01*
X370079D01*
Y209823D01*
X370065Y209700D01*
Y209563D01*
X370051Y209399D01*
X370038Y209222D01*
X370010Y209017D01*
X369956Y208593D01*
X369860Y208128D01*
X369737Y207677D01*
X369573Y207239D01*
Y207226D01*
X369546Y207198D01*
X369518Y207130D01*
X369477Y207062D01*
X369423Y206966D01*
X369354Y206870D01*
X369190Y206624D01*
X368985Y206351D01*
X368725Y206078D01*
X368411Y205818D01*
X368056Y205585D01*
X368042D01*
X368015Y205558D01*
X367960Y205531D01*
X367878Y205503D01*
X367782Y205462D01*
X367659Y205408D01*
X367522Y205353D01*
X367372Y205312D01*
X367194Y205257D01*
X367017Y205203D01*
X366812Y205162D01*
X366593Y205107D01*
X366360Y205080D01*
X366114Y205052D01*
X365581Y205025D01*
X365568D01*
X365513D01*
X365445D01*
X365349D01*
X365226D01*
X365075D01*
X364912D01*
X364720D01*
X364529D01*
X364310D01*
X363845D01*
X363353D01*
X362847D01*
X362834D01*
X362779D01*
X362711D01*
X362615D01*
X362492D01*
X362341D01*
X362177D01*
X361986D01*
X361795D01*
X361576D01*
X361111D01*
X360619D01*
X360113D01*
X360100D01*
X360045D01*
X359963D01*
X359854Y205039D01*
X359731D01*
X359580Y205052D01*
X359416Y205066D01*
X359225Y205093D01*
X358828Y205162D01*
X358405Y205257D01*
X357967Y205394D01*
X357571Y205585D01*
X357557Y205599D01*
X357530Y205613D01*
X357475Y205640D01*
X357407Y205695D01*
X357311Y205749D01*
X357215Y205818D01*
X356996Y206009D01*
X356737Y206241D01*
X356491Y206529D01*
X356245Y206870D01*
X356026Y207253D01*
Y207267D01*
X355999Y207308D01*
X355971Y207363D01*
X355944Y207458D01*
X355903Y207554D01*
X355862Y207691D01*
X355821Y207841D01*
X355766Y208005D01*
X355712Y208196D01*
X355671Y208401D01*
X355630Y208634D01*
X355589Y208866D01*
X355547Y209126D01*
X355534Y209399D01*
X355506Y209974D01*
Y210124D01*
X355520Y210233D01*
Y210370D01*
X355534Y210534D01*
X355547Y210712D01*
X355575Y210903D01*
X355630Y211327D01*
X355725Y211764D01*
X355848Y212215D01*
X356026Y212639D01*
Y212653D01*
X356053Y212694D01*
X356081Y212749D01*
X356122Y212817D01*
X356176Y212913D01*
X356245Y213008D01*
X356409Y213254D01*
X356627Y213514D01*
X356901Y213787D01*
X357215Y214047D01*
X357571Y214280D01*
X357584D01*
X357612Y214307D01*
X357680Y214334D01*
X357748Y214362D01*
X357858Y214416D01*
X357981Y214457D01*
X358118Y214512D01*
X358268Y214567D01*
X358446Y214608D01*
X358637Y214662D01*
X358856Y214717D01*
X359074Y214758D01*
X359320Y214785D01*
X359566Y214813D01*
X360113Y214840D01*
X364829D01*
X364843D01*
X364884D01*
X364939D01*
X365021Y214826D01*
D02*
G37*
G36*
X367030Y201826D02*
X361275D01*
X361262D01*
X361248D01*
X361166D01*
X361056Y201813D01*
X360920Y201799D01*
X360756Y201758D01*
X360605Y201717D01*
X360455Y201648D01*
X360318Y201566D01*
X360305Y201553D01*
X360264Y201525D01*
X360223Y201457D01*
X360154Y201375D01*
X360100Y201266D01*
X360059Y201143D01*
X360018Y200979D01*
X360004Y200801D01*
Y200719D01*
X360018Y200637D01*
X360045Y200528D01*
X360086Y200418D01*
X360141Y200295D01*
X360223Y200172D01*
X360332Y200076D01*
X360346Y200063D01*
X360387Y200035D01*
X360469Y200008D01*
X360578Y199967D01*
X360715Y199912D01*
X360879Y199885D01*
X361084Y199858D01*
X361316Y199844D01*
X360810D01*
X360551Y199830D01*
X360318Y199817D01*
X360113Y199776D01*
X359936Y199748D01*
X359909Y199741D01*
X360031Y199680D01*
X360086Y199666D01*
X360127Y199653D01*
X360154Y199639D01*
X360168D01*
X361316Y199844D01*
X367030D01*
Y198327D01*
X361275D01*
X361262D01*
X361248D01*
X361166D01*
X361056Y198313D01*
X360920Y198299D01*
X360756Y198272D01*
X360605Y198217D01*
X360455Y198163D01*
X360318Y198081D01*
X360305Y198067D01*
X360264Y198039D01*
X360223Y197985D01*
X360154Y197903D01*
X360100Y197807D01*
X360059Y197684D01*
X360018Y197534D01*
X360004Y197370D01*
Y197288D01*
X360018Y197192D01*
X360045Y197083D01*
X360086Y196960D01*
X360141Y196837D01*
X360223Y196714D01*
X360332Y196604D01*
X360346Y196590D01*
X360387Y196563D01*
X360469Y196522D01*
X360578Y196481D01*
X360715Y196426D01*
X360879Y196386D01*
X361084Y196358D01*
X361316Y196344D01*
X359760D01*
X359854Y196290D01*
X360004Y196235D01*
X360059Y196208D01*
X360086Y196194D01*
X360113Y196180D01*
X360127D01*
X361316Y196344D01*
X367030D01*
Y194827D01*
X358719D01*
Y196344D01*
X359760D01*
X359689Y196386D01*
X359498Y196481D01*
X359307Y196618D01*
X359129Y196768D01*
X358965Y196946D01*
X358951Y196973D01*
X358910Y197042D01*
X358842Y197137D01*
X358774Y197274D01*
X358705Y197452D01*
X358637Y197643D01*
X358596Y197862D01*
X358582Y198094D01*
Y198190D01*
X358596Y198286D01*
X358610Y198422D01*
X358651Y198573D01*
X358692Y198723D01*
X358760Y198887D01*
X358842Y199037D01*
X358856Y199051D01*
X358883Y199106D01*
X358951Y199174D01*
X359033Y199256D01*
X359129Y199365D01*
X359266Y199461D01*
X359416Y199557D01*
X359594Y199639D01*
X359621Y199653D01*
X359676Y199666D01*
X359785Y199707D01*
X359909Y199741D01*
X359895Y199748D01*
X359717Y199830D01*
X359525Y199926D01*
X359334Y200063D01*
X359143Y200213D01*
X358979Y200391D01*
X358965Y200418D01*
X358910Y200486D01*
X358856Y200582D01*
X358774Y200719D01*
X358705Y200897D01*
X358637Y201088D01*
X358596Y201293D01*
X358582Y201525D01*
Y201621D01*
X358596Y201730D01*
X358610Y201867D01*
X358651Y202031D01*
X358692Y202195D01*
X358760Y202359D01*
X358842Y202510D01*
X358856Y202523D01*
X358897Y202578D01*
X358951Y202646D01*
X359033Y202742D01*
X359143Y202838D01*
X359279Y202947D01*
X359430Y203043D01*
X359608Y203125D01*
X359635Y203138D01*
X359689Y203166D01*
X359799Y203193D01*
X359949Y203234D01*
X360127Y203275D01*
X360332Y203316D01*
X360564Y203330D01*
X360824Y203344D01*
X367030D01*
Y201826D01*
D02*
G37*
G36*
Y191560D02*
X358719D01*
Y193077D01*
X367030D01*
Y191560D01*
D02*
G37*
G36*
X357010D02*
X355493D01*
Y193077D01*
X357010D01*
Y191560D01*
D02*
G37*
G36*
X356833Y188621D02*
X356340D01*
Y187103D01*
X356833D01*
Y188621D01*
X367030D01*
Y187103D01*
X356833D01*
Y185039D01*
X355397D01*
Y190685D01*
X356833D01*
Y188621D01*
D02*
G37*
G36*
X339417Y258024D02*
X339430Y257942D01*
X339444Y257846D01*
X339471Y257641D01*
X339526Y257409D01*
X339608Y257162D01*
X339717Y256930D01*
X339868Y256711D01*
X339881Y256684D01*
X339950Y256629D01*
X340045Y256547D01*
X340196Y256452D01*
X340373Y256356D01*
X340579Y256274D01*
X340825Y256206D01*
X341112Y256178D01*
X339225D01*
X339362Y256083D01*
X339417Y256055D01*
X339458Y256028D01*
X339471Y256014D01*
X339485D01*
X341112Y256178D01*
X346347D01*
Y254661D01*
X338036D01*
Y256178D01*
X339225D01*
X339061Y256301D01*
X338870Y256452D01*
X338679Y256629D01*
X338487Y256835D01*
X338323Y257053D01*
Y257067D01*
X338309Y257081D01*
X338255Y257162D01*
X338186Y257299D01*
X338104Y257477D01*
X338036Y257682D01*
X337968Y257914D01*
X337913Y258188D01*
X337899Y258461D01*
X339417D01*
Y258024D01*
D02*
G37*
G36*
X344269Y253048D02*
X344365D01*
X344475Y253034D01*
X344734Y252979D01*
X345008Y252911D01*
X345308Y252788D01*
X345596Y252638D01*
X345719Y252528D01*
X345842Y252419D01*
Y252405D01*
X345869Y252392D01*
X345896Y252351D01*
X345937Y252296D01*
X345978Y252241D01*
X346033Y252159D01*
X346088Y252064D01*
X346142Y251954D01*
X346211Y251831D01*
X346265Y251694D01*
X346361Y251380D01*
X346429Y251011D01*
X346443Y250820D01*
X346457Y250601D01*
Y250464D01*
X346443Y250314D01*
X346416Y250136D01*
X346375Y249917D01*
X346320Y249685D01*
X346252Y249453D01*
X346142Y249234D01*
X346129Y249207D01*
X346088Y249138D01*
X346006Y249043D01*
X345910Y248920D01*
X345773Y248783D01*
X345623Y248633D01*
X345431Y248496D01*
X345213Y248373D01*
X345199D01*
X345185Y248359D01*
X345103Y248332D01*
X344967Y248277D01*
X344789Y248222D01*
X344584Y248168D01*
X344324Y248113D01*
X344037Y248086D01*
X343723Y248072D01*
X340811D01*
X340797D01*
X340770D01*
X340715D01*
X340661D01*
X340579Y248086D01*
X340483D01*
X340264Y248113D01*
X340018Y248140D01*
X339758Y248195D01*
X339499Y248263D01*
X339239Y248359D01*
X339225D01*
X339212Y248373D01*
X339130Y248414D01*
X339006Y248482D01*
X338870Y248578D01*
X338706Y248701D01*
X338542Y248837D01*
X338378Y249015D01*
X338241Y249207D01*
X338227Y249234D01*
X338186Y249302D01*
X338132Y249425D01*
X338063Y249589D01*
X338009Y249781D01*
X337954Y250013D01*
X337913Y250259D01*
X337899Y250546D01*
Y250683D01*
X337913Y250820D01*
X337940Y251011D01*
X337981Y251216D01*
X338036Y251435D01*
X338104Y251667D01*
X338214Y251886D01*
X338227Y251913D01*
X338268Y251982D01*
X338350Y252077D01*
X338446Y252200D01*
X338583Y252337D01*
X338733Y252474D01*
X338925Y252610D01*
X339143Y252733D01*
X339171Y252747D01*
X339253Y252775D01*
X339376Y252829D01*
X339553Y252884D01*
X339758Y252939D01*
X340004Y252993D01*
X340292Y253021D01*
X340592Y253034D01*
X342793D01*
Y249535D01*
X341535D01*
Y249138D01*
X342793D01*
Y249535D01*
X343764D01*
X343791D01*
X343859D01*
X343969Y249548D01*
X344106Y249576D01*
X344256Y249603D01*
X344420Y249644D01*
X344570Y249712D01*
X344707Y249808D01*
X344721Y249822D01*
X344762Y249863D01*
X344816Y249931D01*
X344871Y250013D01*
X344939Y250122D01*
X344994Y250259D01*
X345035Y250423D01*
X345049Y250601D01*
Y250683D01*
X345035Y250765D01*
X345021Y250874D01*
X344994Y250997D01*
X344939Y251120D01*
X344885Y251230D01*
X344803Y251339D01*
X344789Y251353D01*
X344748Y251380D01*
X344693Y251421D01*
X344611Y251476D01*
X344515Y251517D01*
X344392Y251558D01*
X344242Y251585D01*
X344078Y251599D01*
X344023D01*
Y253062D01*
X344078D01*
X344092D01*
X344133D01*
X344187D01*
X344269Y253048D01*
D02*
G37*
G36*
X346347Y245926D02*
X342571Y244222D01*
X344147Y243164D01*
X342069D01*
X343340Y242372D01*
X345226Y242440D01*
X344147Y243164D01*
X346347D01*
Y241647D01*
X334714D01*
Y243164D01*
X342069D01*
X338036Y245680D01*
Y247266D01*
X341288Y245083D01*
X340866Y244873D01*
X342014Y243971D01*
X342571Y244222D01*
X341288Y245083D01*
X346347Y247593D01*
Y245926D01*
D02*
G37*
G36*
Y238407D02*
X345585D01*
X345650Y238380D01*
X345664Y238366D01*
X345719Y238339D01*
X345787Y238298D01*
X345883Y238243D01*
X345978Y238161D01*
X346088Y238066D01*
X346183Y237956D01*
X346265Y237820D01*
X346279Y237806D01*
X346293Y237751D01*
X346320Y237669D01*
X346361Y237560D01*
X346402Y237437D01*
X346429Y237273D01*
X346443Y237095D01*
X346457Y236890D01*
Y236794D01*
X346443Y236726D01*
Y236630D01*
X346429Y236535D01*
X346388Y236316D01*
X346320Y236056D01*
X346211Y235810D01*
X346074Y235564D01*
X345883Y235345D01*
X345855Y235318D01*
X345773Y235263D01*
X345637Y235181D01*
X345445Y235099D01*
X345213Y235003D01*
X345062Y234962D01*
X344912Y234921D01*
X344734Y234880D01*
X344557Y234867D01*
X344352Y234839D01*
X344146D01*
X344133D01*
X344078D01*
X344010D01*
X343914Y234853D01*
X343805D01*
X343668Y234880D01*
X343518Y234894D01*
X343354Y234921D01*
X343012Y235003D01*
X342670Y235113D01*
X342342Y235277D01*
X342192Y235373D01*
X342055Y235482D01*
X342041Y235496D01*
X342028Y235509D01*
X341987Y235550D01*
X341946Y235605D01*
X341891Y235673D01*
X341836Y235755D01*
X341768Y235851D01*
X341700Y235960D01*
X341645Y236097D01*
X341577Y236234D01*
X341522Y236398D01*
X341467Y236562D01*
X341426Y236753D01*
X341385Y236958D01*
X341371Y237177D01*
X341358Y237409D01*
Y238407D01*
X342711D01*
Y238585D01*
X341358Y238476D01*
Y238407D01*
X340278D01*
X340250D01*
X340196D01*
X340100Y238394D01*
X339991Y238380D01*
X339868Y238339D01*
X339731Y238298D01*
X339608Y238230D01*
X339499Y238134D01*
X339485Y238120D01*
X339458Y238093D01*
X339403Y238024D01*
X339348Y237943D01*
X339307Y237833D01*
X339253Y237710D01*
X339225Y237560D01*
X339212Y237396D01*
Y237327D01*
X339225Y237245D01*
X339253Y237150D01*
X339280Y237040D01*
X339335Y236931D01*
X339403Y236822D01*
X339499Y236726D01*
X339512Y236712D01*
X339553Y236685D01*
X339608Y236658D01*
X339704Y236616D01*
X339813Y236562D01*
X339936Y236535D01*
X340100Y236507D01*
X340278Y236493D01*
Y235003D01*
X340264D01*
X340223D01*
X340168D01*
X340087Y235017D01*
X339991D01*
X339881Y235031D01*
X339635Y235086D01*
X339348Y235154D01*
X339061Y235263D01*
X338774Y235427D01*
X338651Y235523D01*
X338528Y235632D01*
X338514Y235646D01*
X338501Y235660D01*
X338473Y235701D01*
X338432Y235755D01*
X338378Y235810D01*
X338323Y235892D01*
X338268Y235988D01*
X338214Y236097D01*
X338104Y236357D01*
X337995Y236658D01*
X337927Y237013D01*
X337899Y237218D01*
Y237560D01*
X337913Y237697D01*
X337940Y237888D01*
X337968Y238093D01*
X338022Y238312D01*
X338091Y238530D01*
X338186Y238749D01*
X338200Y238776D01*
X338241Y238845D01*
X338296Y238940D01*
X338391Y239064D01*
X338501Y239200D01*
X338637Y239337D01*
X338802Y239474D01*
X338993Y239597D01*
X339020Y239610D01*
X339089Y239638D01*
X339198Y239692D01*
X339348Y239747D01*
X339540Y239788D01*
X339758Y239843D01*
X340004Y239870D01*
X340278Y239884D01*
X346347D01*
Y238407D01*
D02*
G37*
G36*
X344242Y233472D02*
X344420Y233445D01*
X344625Y233418D01*
X344844Y233363D01*
X345062Y233295D01*
X345267Y233199D01*
X345295Y233185D01*
X345349Y233144D01*
X345445Y233076D01*
X345568Y232980D01*
X345691Y232871D01*
X345828Y232721D01*
X345951Y232543D01*
X346074Y232351D01*
X346088Y232324D01*
X346115Y232256D01*
X346156Y232133D01*
X346211Y231969D01*
X346265Y231777D01*
X346306Y231545D01*
X346334Y231299D01*
X346347Y231012D01*
Y229522D01*
X344912D01*
Y228961D01*
X346347D01*
Y228004D01*
X334714D01*
Y228961D01*
X336150D01*
Y229522D01*
X339567D01*
Y230889D01*
X339553Y230971D01*
X339526Y231080D01*
X339485Y231203D01*
X339430Y231326D01*
X339348Y231436D01*
X339239Y231545D01*
X339225Y231559D01*
X339184Y231586D01*
X339102Y231627D01*
X338993Y231682D01*
X338870Y231723D01*
X338706Y231764D01*
X338528Y231791D01*
X338309Y231805D01*
X337120D01*
X337106D01*
X337052D01*
X336970Y231791D01*
X336860Y231777D01*
X336751Y231736D01*
X336628Y231695D01*
X336519Y231627D01*
X336409Y231545D01*
X336396Y231531D01*
X336368Y231504D01*
X336327Y231436D01*
X336273Y231354D01*
X336231Y231258D01*
X336191Y231135D01*
X336163Y230984D01*
X336150Y230820D01*
Y229522D01*
X334714D01*
Y230930D01*
X334728Y231080D01*
X334741Y231272D01*
X334783Y231477D01*
X334823Y231709D01*
X334892Y231941D01*
X334988Y232160D01*
X335001Y232187D01*
X335042Y232256D01*
X335097Y232351D01*
X335179Y232488D01*
X335288Y232625D01*
X335425Y232775D01*
X335589Y232912D01*
X335780Y233035D01*
X335808Y233049D01*
X335876Y233076D01*
X335985Y233131D01*
X336136Y233185D01*
X336314Y233240D01*
X336532Y233295D01*
X336778Y233322D01*
X337038Y233336D01*
X338268D01*
X338296D01*
X338364D01*
X338460Y233322D01*
X338596Y233308D01*
X338747Y233295D01*
X338911Y233267D01*
X339075Y233213D01*
X339239Y233158D01*
X339253Y233144D01*
X339307Y233131D01*
X339389Y233090D01*
X339485Y233021D01*
X339594Y232953D01*
X339717Y232871D01*
X339827Y232762D01*
X339936Y232639D01*
X339950Y232625D01*
X339977Y232584D01*
X340032Y232516D01*
X340087Y232420D01*
X340141Y232297D01*
X340210Y232160D01*
X340264Y232010D01*
X340305Y231846D01*
Y231873D01*
X340319Y231928D01*
X340346Y232023D01*
X340387Y232146D01*
X340428Y232297D01*
X340497Y232434D01*
X340579Y232584D01*
X340674Y232734D01*
X340688Y232748D01*
X340729Y232789D01*
X340784Y232857D01*
X340866Y232939D01*
X340975Y233035D01*
X341098Y233131D01*
X341235Y233213D01*
X341399Y233295D01*
X341412Y233308D01*
X341481Y233322D01*
X341563Y233349D01*
X341686Y233390D01*
X341836Y233431D01*
X342014Y233459D01*
X342205Y233472D01*
X342424Y233486D01*
X343969D01*
X343982D01*
X343996D01*
X344037D01*
X344092D01*
X344242Y233472D01*
D02*
G37*
G36*
X346347Y221511D02*
X340592D01*
X340579D01*
X340565D01*
X340483D01*
X340373Y221498D01*
X340237Y221484D01*
X340073Y221443D01*
X339922Y221402D01*
X339772Y221334D01*
X339635Y221251D01*
X339622Y221238D01*
X339581Y221210D01*
X339540Y221142D01*
X339471Y221060D01*
X339417Y220951D01*
X339376Y220828D01*
X339335Y220664D01*
X339321Y220486D01*
Y220404D01*
X339335Y220322D01*
X339362Y220213D01*
X339403Y220103D01*
X339458Y219980D01*
X339540Y219857D01*
X339649Y219761D01*
X339663Y219748D01*
X339704Y219720D01*
X339786Y219693D01*
X339895Y219652D01*
X340032Y219597D01*
X340196Y219570D01*
X340401Y219543D01*
X340633Y219529D01*
X340127D01*
X339868Y219515D01*
X339635Y219502D01*
X339430Y219461D01*
X339253Y219433D01*
X339226Y219426D01*
X339348Y219365D01*
X339403Y219351D01*
X339444Y219338D01*
X339471Y219324D01*
X339485D01*
X340633Y219529D01*
X346347D01*
Y218012D01*
X340592D01*
X340579D01*
X340565D01*
X340483D01*
X340373Y217998D01*
X340237Y217984D01*
X340073Y217957D01*
X339922Y217902D01*
X339772Y217848D01*
X339635Y217766D01*
X339622Y217752D01*
X339581Y217725D01*
X339540Y217670D01*
X339471Y217588D01*
X339417Y217492D01*
X339376Y217369D01*
X339335Y217219D01*
X339321Y217055D01*
Y216973D01*
X339335Y216877D01*
X339362Y216768D01*
X339403Y216645D01*
X339458Y216522D01*
X339540Y216399D01*
X339649Y216289D01*
X339663Y216276D01*
X339704Y216248D01*
X339786Y216207D01*
X339895Y216166D01*
X340032Y216111D01*
X340196Y216071D01*
X340401Y216043D01*
X340633Y216030D01*
X339077D01*
X339171Y215975D01*
X339321Y215920D01*
X339376Y215893D01*
X339403Y215879D01*
X339430Y215865D01*
X339444D01*
X340633Y216030D01*
X346347D01*
Y214512D01*
X338036D01*
Y216030D01*
X339077D01*
X339006Y216071D01*
X338815Y216166D01*
X338624Y216303D01*
X338446Y216453D01*
X338282Y216631D01*
X338268Y216658D01*
X338227Y216727D01*
X338159Y216822D01*
X338091Y216959D01*
X338022Y217137D01*
X337954Y217328D01*
X337913Y217547D01*
X337899Y217779D01*
Y217875D01*
X337913Y217971D01*
X337927Y218107D01*
X337968Y218258D01*
X338009Y218408D01*
X338077Y218572D01*
X338159Y218723D01*
X338173Y218736D01*
X338200Y218791D01*
X338268Y218859D01*
X338350Y218941D01*
X338446Y219051D01*
X338583Y219146D01*
X338733Y219242D01*
X338911Y219324D01*
X338938Y219338D01*
X338993Y219351D01*
X339102Y219392D01*
X339226Y219426D01*
X339212Y219433D01*
X339034Y219515D01*
X338843Y219611D01*
X338651Y219748D01*
X338460Y219898D01*
X338296Y220076D01*
X338282Y220103D01*
X338227Y220171D01*
X338173Y220267D01*
X338091Y220404D01*
X338022Y220582D01*
X337954Y220773D01*
X337913Y220978D01*
X337899Y221210D01*
Y221306D01*
X337913Y221415D01*
X337927Y221552D01*
X337968Y221716D01*
X338009Y221880D01*
X338077Y222044D01*
X338159Y222195D01*
X338173Y222208D01*
X338214Y222263D01*
X338268Y222331D01*
X338350Y222427D01*
X338460Y222523D01*
X338596Y222632D01*
X338747Y222728D01*
X338925Y222810D01*
X338952Y222824D01*
X339006Y222851D01*
X339116Y222878D01*
X339266Y222919D01*
X339444Y222960D01*
X339649Y223001D01*
X339881Y223015D01*
X340141Y223028D01*
X346347D01*
Y221511D01*
D02*
G37*
G36*
Y211245D02*
X338036D01*
Y212762D01*
X346347D01*
Y211245D01*
D02*
G37*
G36*
X336327D02*
X334810D01*
Y212762D01*
X336327D01*
Y211245D01*
D02*
G37*
G36*
X336150Y208306D02*
X335657D01*
Y206789D01*
X336150D01*
Y208306D01*
X346347D01*
Y206789D01*
X336150D01*
Y204724D01*
X334714D01*
Y210370D01*
X336150D01*
Y208306D01*
D02*
G37*
%LPC*%
G36*
X220008Y401220D02*
X219910Y401138D01*
X220008Y400870D01*
Y401220D01*
D02*
G37*
G36*
X250182Y428063D02*
X250149D01*
X250116Y428058D01*
X250073Y428047D01*
X250024Y428025D01*
X249975Y427998D01*
X249925Y427960D01*
X249882Y427911D01*
X249876Y427905D01*
X249865Y427883D01*
X249849Y427850D01*
X249833Y427801D01*
X249811Y427741D01*
X249794Y427670D01*
X249783Y427583D01*
X249778Y427485D01*
Y427162D01*
X249620D01*
Y426660D01*
X249778D01*
Y427162D01*
X250591D01*
Y427523D01*
Y427528D01*
Y427534D01*
Y427566D01*
X250586Y427616D01*
X250581Y427670D01*
X250564Y427736D01*
X250548Y427801D01*
X250521Y427867D01*
X250482Y427921D01*
X250477Y427927D01*
X250466Y427943D01*
X250439Y427965D01*
X250406Y427992D01*
X250362Y428020D01*
X250313Y428042D01*
X250253Y428058D01*
X250182Y428063D01*
D02*
G37*
G36*
X243941Y428025D02*
X243914D01*
X243887Y428020D01*
X243848Y428014D01*
X243810Y427998D01*
X243766Y427982D01*
X243728Y427954D01*
X243690Y427921D01*
X243685Y427916D01*
X243674Y427905D01*
X243663Y427883D01*
X243646Y427850D01*
X243625Y427812D01*
X243614Y427763D01*
X243603Y427708D01*
X243597Y427643D01*
Y426169D01*
Y426163D01*
Y426141D01*
X243603Y426109D01*
X243608Y426065D01*
X243619Y426021D01*
X243636Y425972D01*
X243657Y425928D01*
X243685Y425885D01*
X243690Y425879D01*
X243701Y425868D01*
X243723Y425852D01*
X243750Y425836D01*
X243788Y425814D01*
X243832Y425798D01*
X243881Y425786D01*
X243941Y425781D01*
X243969D01*
X243996Y425786D01*
X244034Y425792D01*
X244072Y425803D01*
X244116Y425825D01*
X244154Y425847D01*
X244192Y425879D01*
X244198Y425885D01*
X244209Y425901D01*
X244220Y425923D01*
X244242Y425956D01*
X244258Y425994D01*
X244269Y426043D01*
X244280Y426103D01*
X244285Y426169D01*
Y427643D01*
Y427648D01*
Y427670D01*
X244280Y427703D01*
X244274Y427747D01*
X244263Y427790D01*
X244247Y427834D01*
X244225Y427883D01*
X244192Y427921D01*
X244187Y427927D01*
X244176Y427938D01*
X244154Y427954D01*
X244127Y427976D01*
X244094Y427992D01*
X244051Y428009D01*
X244001Y428020D01*
X243941Y428025D01*
D02*
G37*
G36*
X226276Y427949D02*
X226053D01*
Y427370D01*
X226276D01*
Y425814D01*
X226850D01*
X226888Y425819D01*
X226937Y425825D01*
X226986Y425836D01*
X227041Y425857D01*
X227090Y425879D01*
X227139Y425912D01*
X227145Y425918D01*
X227155Y425934D01*
X227177Y425956D01*
X227199Y425989D01*
X227216Y426032D01*
X227237Y426081D01*
X227248Y426141D01*
X227254Y426207D01*
Y426813D01*
Y426819D01*
Y426846D01*
X227248Y426878D01*
Y426917D01*
X227237Y426966D01*
X227226Y427015D01*
X227216Y427064D01*
X227194Y427113D01*
Y427119D01*
X227183Y427135D01*
X227172Y427157D01*
X227150Y427184D01*
X227101Y427250D01*
X227068Y427277D01*
X227030Y427304D01*
X227024Y427310D01*
X227013Y427315D01*
X226992Y427326D01*
X226959Y427337D01*
X226926Y427348D01*
X226883Y427359D01*
X226839Y427370D01*
X226276D01*
Y427949D01*
D02*
G37*
G36*
X210773Y427430D02*
X210413Y426971D01*
X210513Y426749D01*
X210857Y427261D01*
X210773Y427430D01*
D02*
G37*
G36*
X205423Y428025D02*
X205395D01*
X205368Y428020D01*
X205330Y428014D01*
X205292Y427998D01*
X205248Y427982D01*
X205210Y427954D01*
X205171Y427921D01*
X205166Y427916D01*
X205155Y427905D01*
X205144Y427883D01*
X205128Y427850D01*
X205106Y427812D01*
X205095Y427763D01*
X205084Y427708D01*
X205079Y427643D01*
Y426169D01*
Y426163D01*
Y426141D01*
X205084Y426109D01*
X205089Y426065D01*
X205100Y426021D01*
X205117Y425972D01*
X205139Y425928D01*
X205166Y425885D01*
X205171Y425879D01*
X205182Y425868D01*
X205204Y425852D01*
X205231Y425836D01*
X205270Y425814D01*
X205313Y425798D01*
X205363Y425786D01*
X205423Y425781D01*
X205450D01*
X205477Y425786D01*
X205515Y425792D01*
X205554Y425803D01*
X205597Y425825D01*
X205635Y425847D01*
X205674Y425879D01*
X205679Y425885D01*
X205690Y425901D01*
X205701Y425923D01*
X205723Y425956D01*
X205739Y425994D01*
X205750Y426043D01*
X205761Y426103D01*
X205767Y426169D01*
Y427643D01*
Y427648D01*
Y427670D01*
X205761Y427703D01*
X205756Y427747D01*
X205745Y427790D01*
X205728Y427834D01*
X205707Y427883D01*
X205674Y427921D01*
X205668Y427927D01*
X205657Y427938D01*
X205635Y427954D01*
X205608Y427976D01*
X205575Y427992D01*
X205532Y428009D01*
X205483Y428020D01*
X205423Y428025D01*
D02*
G37*
G36*
X365390Y299676D02*
X365322D01*
X365294D01*
X364529Y299512D01*
X363394D01*
X363394Y298432D01*
X363408Y298336D01*
X363435Y298213D01*
X363490Y298077D01*
X363545Y297940D01*
X363640Y297803D01*
X363763Y297680D01*
X363777Y297667D01*
X363832Y297639D01*
X363914Y297598D01*
X364023Y297544D01*
X364173Y297489D01*
X364365Y297448D01*
X364583Y297420D01*
X364829Y297407D01*
X364857D01*
X364912D01*
X364994Y297420D01*
X365103Y297434D01*
X365226Y297462D01*
X365349Y297516D01*
X365458Y297571D01*
X365568Y297653D01*
X365581Y297667D01*
X365609Y297694D01*
X365636Y297762D01*
X365677Y297831D01*
X365732Y297940D01*
X365759Y298063D01*
X365786Y298213D01*
X365800Y298377D01*
Y298473D01*
X365786Y298569D01*
X365759Y298705D01*
X365718Y298842D01*
X365663Y298979D01*
X365595Y299115D01*
X365486Y299225D01*
X365472Y299238D01*
X365417Y299266D01*
X365349Y299321D01*
X365240Y299375D01*
X365103Y299416D01*
X364939Y299471D01*
X364747Y299498D01*
X364529Y299512D01*
X366267D01*
X366169Y299553D01*
X365991Y299594D01*
X365814Y299635D01*
X365650Y299649D01*
X365513Y299662D01*
X365390Y299676D01*
D02*
G37*
G36*
X362218Y285897D02*
X361316D01*
X361303D01*
X361289D01*
X361207D01*
X361084Y285883D01*
X360947Y285869D01*
X360783Y285828D01*
X360619Y285787D01*
X360455Y285719D01*
X360318Y285623D01*
X360305Y285610D01*
X360264Y285582D01*
X360209Y285514D01*
X360141Y285432D01*
X360072Y285322D01*
X360018Y285199D01*
X359977Y285049D01*
X359963Y284871D01*
Y284789D01*
X359977Y284707D01*
X360004Y284598D01*
X360059Y284475D01*
X360127Y284352D01*
X360223Y284229D01*
X360346Y284120D01*
X360359Y284106D01*
X360414Y284079D01*
X360496Y284037D01*
X360619Y283997D01*
X360770Y283942D01*
X360947Y283901D01*
X361166Y283874D01*
X361412Y283860D01*
X362218D01*
Y285897D01*
D02*
G37*
G36*
X365390Y269875D02*
X365322D01*
X365294D01*
X364529Y269711D01*
X363394D01*
Y268631D01*
X363408Y268536D01*
X363435Y268413D01*
X363490Y268276D01*
X363545Y268139D01*
X363640Y268003D01*
X363763Y267880D01*
X363777Y267866D01*
X363832Y267839D01*
X363914Y267798D01*
X364023Y267743D01*
X364173Y267688D01*
X364365Y267647D01*
X364583Y267620D01*
X364829Y267606D01*
X364857D01*
X364912D01*
X364994Y267620D01*
X365103Y267634D01*
X365226Y267661D01*
X365349Y267716D01*
X365458Y267770D01*
X365568Y267852D01*
X365581Y267866D01*
X365609Y267893D01*
X365636Y267962D01*
X365677Y268030D01*
X365732Y268139D01*
X365759Y268262D01*
X365786Y268413D01*
X365800Y268577D01*
Y268672D01*
X365786Y268768D01*
X365759Y268905D01*
X365718Y269041D01*
X365663Y269178D01*
X365595Y269315D01*
X365486Y269424D01*
X365472Y269438D01*
X365417Y269465D01*
X365349Y269520D01*
X365240Y269575D01*
X365103Y269616D01*
X364939Y269670D01*
X364747Y269698D01*
X364529Y269711D01*
X366267D01*
X366169Y269752D01*
X365991Y269793D01*
X365814Y269834D01*
X365650Y269848D01*
X365513Y269862D01*
X365390Y269875D01*
D02*
G37*
G36*
Y256356D02*
X365322D01*
X365294D01*
X364529Y256192D01*
X363394D01*
Y255112D01*
X363408Y255016D01*
X363435Y254893D01*
X363490Y254756D01*
X363545Y254620D01*
X363640Y254483D01*
X363763Y254360D01*
X363777Y254346D01*
X363832Y254319D01*
X363914Y254278D01*
X364023Y254223D01*
X364173Y254169D01*
X364365Y254128D01*
X364583Y254100D01*
X364829Y254086D01*
X364857D01*
X364912D01*
X364994Y254100D01*
X365103Y254114D01*
X365226Y254141D01*
X365349Y254196D01*
X365458Y254251D01*
X365568Y254333D01*
X365581Y254346D01*
X365609Y254374D01*
X365636Y254442D01*
X365677Y254510D01*
X365732Y254620D01*
X365759Y254743D01*
X365786Y254893D01*
X365800Y255057D01*
Y255153D01*
X365786Y255248D01*
X365759Y255385D01*
X365718Y255522D01*
X365663Y255659D01*
X365595Y255795D01*
X365486Y255905D01*
X365472Y255918D01*
X365417Y255946D01*
X365349Y256000D01*
X365240Y256055D01*
X365103Y256096D01*
X364939Y256151D01*
X364747Y256178D01*
X364529Y256192D01*
X366267D01*
X366169Y256233D01*
X365991Y256274D01*
X365814Y256315D01*
X365650Y256328D01*
X365513Y256342D01*
X365390Y256356D01*
D02*
G37*
G36*
X360045Y240307D02*
X359799Y240184D01*
X359726Y240143D01*
X361098D01*
X361002Y240129D01*
X360797Y240089D01*
X360578Y240020D01*
X360564D01*
X360537Y240006D01*
X360482Y239979D01*
X360414Y239938D01*
X360277Y239842D01*
X360141Y239692D01*
X360127Y239678D01*
X360113Y239651D01*
X360086Y239610D01*
X360059Y239542D01*
X360031Y239460D01*
X360018Y239378D01*
X359990Y239268D01*
Y239090D01*
X360004Y239008D01*
X360031Y238899D01*
X360072Y238790D01*
X360127Y238667D01*
X360209Y238557D01*
X360318Y238448D01*
X360332Y238434D01*
X360373Y238407D01*
X360455Y238366D01*
X360551Y238325D01*
X360687Y238270D01*
X360838Y238229D01*
X361029Y238202D01*
X361234Y238188D01*
X364638D01*
X364665D01*
X364720D01*
X364816Y238202D01*
X364939Y238216D01*
X365075Y238257D01*
X365212Y238298D01*
X365349Y238366D01*
X365472Y238448D01*
X365486Y238462D01*
X365513Y238503D01*
X365568Y238557D01*
X365609Y238639D01*
X365663Y238735D01*
X365718Y238858D01*
X365745Y238995D01*
X365759Y239159D01*
Y239214D01*
X365745Y239268D01*
Y239350D01*
X365704Y239514D01*
X365622Y239692D01*
Y239706D01*
X365595Y239733D01*
X365527Y239815D01*
X365404Y239924D01*
X365226Y240020D01*
X365212D01*
X365171Y240034D01*
X365117Y240061D01*
X365035Y240089D01*
X364939Y240102D01*
X364829Y240129D01*
X364706Y240143D01*
X365989D01*
X365964Y240157D01*
X365841Y240212D01*
X365759Y240239D01*
X365745Y240252D01*
X365732D01*
X364570Y240143D01*
X361234D01*
X360045Y240307D01*
D02*
G37*
G36*
X364706Y226856D02*
X361016D01*
X361002D01*
X360947D01*
X360865Y226842D01*
X360756Y226829D01*
X360646Y226801D01*
X360537Y226760D01*
X360414Y226706D01*
X360318Y226624D01*
X360305Y226610D01*
X360277Y226583D01*
X360236Y226528D01*
X360182Y226460D01*
X360141Y226377D01*
X360100Y226268D01*
X360072Y226145D01*
X360059Y225995D01*
Y225926D01*
X360072Y225858D01*
X360086Y225762D01*
X360127Y225667D01*
X360168Y225557D01*
X360236Y225462D01*
X360318Y225366D01*
X360332Y225352D01*
X360359Y225325D01*
X360414Y225297D01*
X360496Y225256D01*
X360592Y225202D01*
X360715Y225174D01*
X360852Y225147D01*
X361016Y225133D01*
X364706D01*
X364720D01*
X364775D01*
X364857Y225147D01*
X364966Y225161D01*
X365075Y225188D01*
X365198Y225229D01*
X365308Y225284D01*
X365417Y225352D01*
X365431Y225366D01*
X365458Y225393D01*
X365499Y225448D01*
X365540Y225516D01*
X365595Y225612D01*
X365636Y225721D01*
X365663Y225844D01*
X365677Y225995D01*
Y226063D01*
X365663Y226131D01*
X365650Y226227D01*
X365622Y226323D01*
X365568Y226432D01*
X365513Y226528D01*
X365431Y226624D01*
X365417Y226637D01*
X365376Y226664D01*
X365322Y226692D01*
X365240Y226747D01*
X365144Y226788D01*
X365021Y226815D01*
X364871Y226842D01*
X364706Y226856D01*
D02*
G37*
G36*
X364515Y210807D02*
X360988D01*
X360961D01*
X360906D01*
X360810Y210794D01*
X360701Y210780D01*
X360578Y210753D01*
X360441Y210712D01*
X360332Y210657D01*
X360223Y210589D01*
X360209Y210575D01*
X360182Y210548D01*
X360141Y210507D01*
X360086Y210425D01*
X360045Y210343D01*
X360004Y210220D01*
X359977Y210097D01*
X359963Y209932D01*
Y209850D01*
X359977Y209796D01*
X360018Y209659D01*
X360086Y209509D01*
X360141Y209427D01*
X360223Y209345D01*
X360305Y209276D01*
X360400Y209208D01*
X360523Y209153D01*
X360660Y209112D01*
X360824Y209085D01*
X361002Y209071D01*
X364515D01*
X364529D01*
X364542D01*
X364624D01*
X364734Y209085D01*
X364871Y209099D01*
X365035Y209126D01*
X365198Y209167D01*
X365349Y209222D01*
X365486Y209290D01*
X365499Y209304D01*
X365540Y209331D01*
X365581Y209386D01*
X365636Y209454D01*
X365704Y209550D01*
X365745Y209659D01*
X365786Y209782D01*
X365800Y209932D01*
Y210001D01*
X365786Y210083D01*
X365759Y210178D01*
X365718Y210288D01*
X365663Y210397D01*
X365595Y210507D01*
X365486Y210589D01*
X365472Y210602D01*
X365417Y210630D01*
X365349Y210657D01*
X365240Y210698D01*
X365103Y210739D01*
X364939Y210780D01*
X364747Y210794D01*
X364515Y210807D01*
D02*
G37*
G36*
X341535Y251571D02*
X340633D01*
X340620D01*
X340606D01*
X340524D01*
X340401Y251558D01*
X340264Y251544D01*
X340100Y251503D01*
X339936Y251462D01*
X339772Y251394D01*
X339635Y251298D01*
X339622Y251284D01*
X339581Y251257D01*
X339526Y251189D01*
X339458Y251107D01*
X339389Y250997D01*
X339335Y250874D01*
X339294Y250724D01*
X339280Y250546D01*
Y250464D01*
X339294Y250382D01*
X339321Y250273D01*
X339376Y250150D01*
X339444Y250027D01*
X339540Y249904D01*
X339663Y249794D01*
X339676Y249781D01*
X339731Y249753D01*
X339813Y249712D01*
X339936Y249671D01*
X340087Y249617D01*
X340264Y249576D01*
X340483Y249548D01*
X340729Y249535D01*
X341535D01*
Y251571D01*
D02*
G37*
G36*
X344707Y238571D02*
X344639D01*
X344611D01*
X343846Y238407D01*
X342711D01*
Y237327D01*
X342725Y237232D01*
X342752Y237109D01*
X342807Y236972D01*
X342862Y236835D01*
X342957Y236699D01*
X343080Y236576D01*
X343094Y236562D01*
X343148Y236535D01*
X343231Y236493D01*
X343340Y236439D01*
X343490Y236384D01*
X343682Y236343D01*
X343900Y236316D01*
X344146Y236302D01*
X344174D01*
X344229D01*
X344310Y236316D01*
X344420Y236329D01*
X344543Y236357D01*
X344666Y236411D01*
X344775Y236466D01*
X344885Y236548D01*
X344898Y236562D01*
X344926Y236589D01*
X344953Y236658D01*
X344994Y236726D01*
X345049Y236835D01*
X345076Y236958D01*
X345103Y237109D01*
X345117Y237273D01*
Y237368D01*
X345103Y237464D01*
X345076Y237601D01*
X345035Y237737D01*
X344980Y237874D01*
X344912Y238011D01*
X344803Y238120D01*
X344789Y238134D01*
X344734Y238161D01*
X344666Y238216D01*
X344557Y238271D01*
X344420Y238312D01*
X344256Y238366D01*
X344064Y238394D01*
X343846Y238407D01*
X345585D01*
X345486Y238448D01*
X345308Y238489D01*
X345131Y238530D01*
X344967Y238544D01*
X344830Y238558D01*
X344707Y238571D01*
D02*
G37*
G36*
X343928Y231969D02*
X342410D01*
X342397D01*
X342328D01*
X342246Y231955D01*
X342151D01*
X342028Y231928D01*
X341905Y231900D01*
X341782Y231873D01*
X341658Y231818D01*
X341645D01*
X341604Y231791D01*
X341549Y231764D01*
X341481Y231709D01*
X341317Y231586D01*
X341248Y231504D01*
X341180Y231408D01*
X341166Y231395D01*
X341153Y231367D01*
X341125Y231313D01*
X341098Y231230D01*
X341071Y231149D01*
X341043Y231039D01*
X341016Y230930D01*
Y229522D01*
X339567D01*
Y228961D01*
X341016D01*
Y229522D01*
X344912D01*
Y230957D01*
X344898Y231053D01*
X344885Y231176D01*
X344857Y231299D01*
X344803Y231436D01*
X344748Y231559D01*
X344666Y231682D01*
X344652Y231695D01*
X344611Y231723D01*
X344557Y231777D01*
X344475Y231832D01*
X344365Y231873D01*
X344242Y231928D01*
X344092Y231955D01*
X343928Y231969D01*
D02*
G37*
%LPD*%
D10*
X214567Y407480D02*
X214831Y406496D01*
X215551Y405775D01*
X216535Y405512D01*
X220472Y403543D02*
X220209Y404528D01*
X219488Y405248D01*
X218504Y405512D01*
X230236Y399606D02*
X231212Y399702D01*
X232150Y399987D01*
X233014Y400449D01*
X233772Y401071D01*
X234394Y401828D01*
X234856Y402693D01*
X235140Y403631D01*
X235236Y404606D01*
X194882D02*
X194978Y403631D01*
X195263Y402693D01*
X195724Y401828D01*
X196346Y401071D01*
X197104Y400449D01*
X197968Y399987D01*
X198906Y399702D01*
X199882Y399606D01*
X194882Y406496D02*
Y407480D01*
X235236Y404606D02*
Y407480D01*
X216535Y405512D02*
X218504D01*
X226378Y399606D02*
X230236D01*
X199882D02*
X213583D01*
X194882Y404606D02*
Y406496D01*
X224410Y419291D02*
Y424213D01*
X204724Y419291D02*
Y424213D01*
D11*
X284449Y318898D02*
X284425Y319896D01*
X284352Y320893D01*
X284232Y321884D01*
X284064Y322869D01*
X283848Y323844D01*
X283586Y324808D01*
X283277Y325758D01*
X282923Y326692D01*
X282524Y327608D01*
X282081Y328503D01*
X281596Y329376D01*
X281069Y330225D01*
X280501Y331047D01*
X279895Y331840D01*
X279251Y332604D01*
X278570Y333335D01*
X277856Y334033D01*
X277108Y334696D01*
X276329Y335321D01*
X275521Y335908D01*
X274686Y336455D01*
X273825Y336962D01*
X272940Y337426D01*
X272034Y337847D01*
X271109Y338224D01*
X270167Y338555D01*
X269210Y338841D01*
X268240Y339080D01*
X267259Y339272D01*
X266271Y339416D01*
X265277Y339513D01*
X264279Y339561D01*
X263280D01*
X262282Y339513D01*
X261288Y339416D01*
X260300Y339272D01*
X259319Y339080D01*
X258349Y338841D01*
X257392Y338555D01*
X256450Y338224D01*
X255525Y337847D01*
X254619Y337426D01*
X253735Y336962D01*
X252874Y336455D01*
X252038Y335908D01*
X251230Y335321D01*
X250451Y334696D01*
X249703Y334033D01*
X248989Y333335D01*
X248308Y332604D01*
X247664Y331840D01*
X247058Y331047D01*
X246490Y330225D01*
X245963Y329376D01*
X245478Y328503D01*
X245035Y327608D01*
X244636Y326692D01*
X244282Y325758D01*
X243973Y324808D01*
X243711Y323844D01*
X243495Y322869D01*
X243327Y321884D01*
X243207Y320893D01*
X243134Y319896D01*
X243110Y318898D01*
X243134Y317899D01*
X243207Y316903D01*
X243327Y315911D01*
X243495Y314927D01*
X243711Y313951D01*
X243973Y312987D01*
X244282Y312037D01*
X244636Y311103D01*
X245035Y310188D01*
X245478Y309292D01*
X245963Y308419D01*
X246490Y307571D01*
X247058Y306749D01*
X247664Y305955D01*
X248308Y305191D01*
X248989Y304460D01*
X249703Y303762D01*
X250451Y303100D01*
X251230Y302474D01*
X252038Y301887D01*
X252873Y301340D01*
X253735Y300833D01*
X254619Y300369D01*
X255525Y299948D01*
X256450Y299571D01*
X257392Y299240D01*
X258349Y298954D01*
X259319Y298715D01*
X260300Y298523D01*
X261288Y298379D01*
X262282Y298283D01*
X263280Y298234D01*
X264279Y298234D01*
X265277Y298283D01*
X266271Y298379D01*
X267259Y298523D01*
X268240Y298715D01*
X269209Y298954D01*
X270167Y299240D01*
X271109Y299571D01*
X272034Y299948D01*
X272940Y300369D01*
X273824Y300833D01*
X274685Y301340D01*
X275521Y301887D01*
X276329Y302474D01*
X277108Y303100D01*
X277856Y303762D01*
X278570Y304460D01*
X279251Y305191D01*
X279895Y305955D01*
X280501Y306749D01*
X281069Y307571D01*
X281596Y308419D01*
X282081Y309292D01*
X282524Y310188D01*
X282923Y311103D01*
X283277Y312037D01*
X283586Y312987D01*
X283848Y313951D01*
X284064Y314926D01*
X284232Y315911D01*
X284352Y316903D01*
X284425Y317899D01*
X284449Y318898D01*
D12*
X189429Y279134D02*
X188691Y279560D01*
Y278708D01*
X189429Y279134D01*
X333130Y187106D02*
X332392Y187532D01*
Y186680D01*
X333130Y187106D01*
X240945Y373524D02*
X240207Y373950D01*
Y373097D01*
X240945Y373524D01*
D13*
X287402Y389764D02*
X289764Y392126D01*
X281398Y309055D02*
Y328740D01*
X186378Y292717D02*
X227323D01*
X186378Y276575D02*
Y294685D01*
X186378Y276575D02*
X227323D01*
Y294685D01*
X186378D02*
X227323D01*
X263454Y279155D02*
Y287816D01*
X271949Y279134D02*
Y287795D01*
X251643Y279155D02*
Y287816D01*
X260138Y279134D02*
Y287795D01*
X248357Y279113D02*
Y287774D01*
X239862Y279134D02*
Y287795D01*
X330118Y182008D02*
Y192008D01*
X300118D02*
X330118D01*
X300118Y182008D02*
Y192008D01*
Y182008D02*
X330118D01*
X245669Y355906D02*
X289764D01*
Y392126D01*
X245669D02*
X262894D01*
X245669Y385531D02*
Y392126D01*
Y355906D02*
Y362500D01*
X188976Y408386D02*
Y418386D01*
X250472D01*
Y408386D02*
Y418386D01*
X188976Y408386D02*
X250472D01*
D14*
X180276Y195787D02*
Y265787D01*
Y195787D02*
X323031D01*
X180276Y265787D02*
X323031D01*
Y195787D02*
Y265787D01*
D15*
X316941Y276155D02*
X317475Y276688D01*
Y277754D01*
X316941Y278287D01*
X314809D01*
X314276Y277754D01*
Y276688D01*
X314809Y276155D01*
X315875D01*
Y277221D01*
X314276Y275088D02*
X317475D01*
X314276Y272956D01*
X317475D01*
Y271889D02*
X314276D01*
Y270290D01*
X314809Y269757D01*
X316941D01*
X317475Y270290D01*
Y271889D01*
M02*
